{
	"patcher" : 	{
		"fileversion" : 1,
		"rect" : [ 157.0, 194.0, 656.0, 503.0 ],
		"bglocked" : 0,
		"defrect" : [ 157.0, 194.0, 656.0, 503.0 ],
		"openrect" : [ 0.0, 0.0, 0.0, 0.0 ],
		"openinpresentation" : 0,
		"default_fontsize" : 12.0,
		"default_fontface" : 0,
		"default_fontname" : "Arial",
		"gridonopen" : 0,
		"gridsize" : [ 15.0, 10.0 ],
		"gridsnaponopen" : 0,
		"toolbarvisible" : 1,
		"boxanimatetime" : 200,
		"imprint" : 0,
		"enablehscroll" : 1,
		"enablevscroll" : 1,
		"devicewidth" : 0.0,
		"boxes" : [ 			{
				"box" : 				{
					"maxclass" : "newobj",
					"text" : "sel 1",
					"numoutlets" : 2,
					"fontsize" : 12.0,
					"outlettype" : [ "bang", "" ],
					"patching_rect" : [ 345.0, 370.0, 36.0, 20.0 ],
					"id" : "obj-79",
					"fontname" : "Arial",
					"numinlets" : 2
				}

			}
, 			{
				"box" : 				{
					"maxclass" : "newobj",
					"text" : "i 0.",
					"numoutlets" : 1,
					"fontsize" : 12.0,
					"outlettype" : [ "int" ],
					"patching_rect" : [ 345.0, 390.0, 32.5, 20.0 ],
					"id" : "obj-75",
					"fontname" : "Arial",
					"numinlets" : 2
				}

			}
, 			{
				"box" : 				{
					"maxclass" : "newobj",
					"text" : "pack i i",
					"numoutlets" : 1,
					"fontsize" : 12.0,
					"outlettype" : [ "" ],
					"patching_rect" : [ 300.0, 100.0, 52.0, 20.0 ],
					"id" : "obj-48",
					"fontname" : "Arial",
					"numinlets" : 2
				}

			}
, 			{
				"box" : 				{
					"maxclass" : "newobj",
					"text" : "i 0",
					"numoutlets" : 1,
					"fontsize" : 12.0,
					"outlettype" : [ "int" ],
					"patching_rect" : [ 405.0, 220.0, 32.5, 20.0 ],
					"id" : "obj-34",
					"fontname" : "Arial",
					"numinlets" : 2
				}

			}
, 			{
				"box" : 				{
					"maxclass" : "newobj",
					"text" : "t 1 clear",
					"numoutlets" : 2,
					"fontsize" : 12.0,
					"outlettype" : [ "int", "clear" ],
					"patching_rect" : [ 345.0, 220.0, 53.0, 20.0 ],
					"id" : "obj-24",
					"fontname" : "Arial",
					"numinlets" : 1
				}

			}
, 			{
				"box" : 				{
					"maxclass" : "newobj",
					"text" : "*~",
					"numoutlets" : 1,
					"fontsize" : 12.0,
					"outlettype" : [ "signal" ],
					"patching_rect" : [ 75.0, 380.0, 33.5, 20.0 ],
					"id" : "obj-18",
					"fontname" : "Arial",
					"numinlets" : 2
				}

			}
, 			{
				"box" : 				{
					"maxclass" : "newobj",
					"text" : "trapezoid~ 0.01 0.99",
					"numoutlets" : 1,
					"fontsize" : 12.0,
					"outlettype" : [ "signal" ],
					"patching_rect" : [ 90.0, 330.0, 139.0, 20.0 ],
					"id" : "obj-15",
					"fontname" : "Arial",
					"numinlets" : 3
				}

			}
, 			{
				"box" : 				{
					"maxclass" : "number~",
					"numoutlets" : 2,
					"fontsize" : 12.0,
					"outlettype" : [ "signal", "float" ],
					"mode" : 2,
					"patching_rect" : [ 165.0, 300.0, 56.0, 20.0 ],
					"id" : "obj-39",
					"fontname" : "Arial",
					"sig" : 0.0,
					"numinlets" : 2
				}

			}
, 			{
				"box" : 				{
					"maxclass" : "newobj",
					"text" : "timer",
					"numoutlets" : 2,
					"fontsize" : 12.0,
					"outlettype" : [ "float", "" ],
					"patching_rect" : [ 300.0, 220.0, 44.0, 20.0 ],
					"id" : "obj-17",
					"fontname" : "Arial",
					"numinlets" : 2
				}

			}
, 			{
				"box" : 				{
					"maxclass" : "newobj",
					"text" : "edge~",
					"numoutlets" : 2,
					"fontsize" : 12.0,
					"outlettype" : [ "bang", "bang" ],
					"patching_rect" : [ 300.0, 180.0, 44.0, 20.0 ],
					"id" : "obj-20",
					"fontname" : "Arial",
					"numinlets" : 1
				}

			}
, 			{
				"box" : 				{
					"maxclass" : "newobj",
					"text" : "!=~ 0.",
					"numoutlets" : 1,
					"fontsize" : 12.0,
					"outlettype" : [ "signal" ],
					"patching_rect" : [ 300.0, 150.0, 45.0, 20.0 ],
					"id" : "obj-21",
					"fontname" : "Arial",
					"numinlets" : 2
				}

			}
, 			{
				"box" : 				{
					"maxclass" : "newobj",
					"text" : "line~",
					"numoutlets" : 2,
					"fontsize" : 12.0,
					"outlettype" : [ "signal", "bang" ],
					"patching_rect" : [ 300.0, 120.0, 36.0, 20.0 ],
					"id" : "obj-22",
					"fontname" : "Arial",
					"numinlets" : 2
				}

			}
, 			{
				"box" : 				{
					"maxclass" : "newobj",
					"text" : "*~",
					"numoutlets" : 1,
					"fontsize" : 12.0,
					"outlettype" : [ "signal" ],
					"patching_rect" : [ 255.0, 150.0, 32.5, 20.0 ],
					"id" : "obj-25",
					"fontname" : "Arial",
					"numinlets" : 2
				}

			}
, 			{
				"box" : 				{
					"maxclass" : "newobj",
					"text" : "in 2",
					"numoutlets" : 1,
					"fontsize" : 12.0,
					"outlettype" : [ "" ],
					"patching_rect" : [ 300.0, 10.0, 30.0, 20.0 ],
					"id" : "obj-29",
					"fontname" : "Arial",
					"numinlets" : 1,
					"saved_object_attributes" : 					{

					}

				}

			}
, 			{
				"box" : 				{
					"maxclass" : "newobj",
					"text" : "route rec fade",
					"numoutlets" : 3,
					"fontsize" : 12.0,
					"outlettype" : [ "", "", "" ],
					"patching_rect" : [ 300.0, 40.0, 85.0, 20.0 ],
					"id" : "obj-31",
					"fontname" : "Arial",
					"numinlets" : 1
				}

			}
, 			{
				"box" : 				{
					"maxclass" : "toggle",
					"numoutlets" : 1,
					"outlettype" : [ "int" ],
					"patching_rect" : [ 300.0, 80.0, 20.0, 20.0 ],
					"id" : "obj-32",
					"numinlets" : 1
				}

			}
, 			{
				"box" : 				{
					"maxclass" : "number~",
					"numoutlets" : 2,
					"fontsize" : 12.0,
					"outlettype" : [ "signal", "float" ],
					"mode" : 2,
					"patching_rect" : [ 255.0, 300.0, 49.0, 20.0 ],
					"id" : "obj-19",
					"fontname" : "Arial",
					"sig" : 0.0,
					"numinlets" : 2
				}

			}
, 			{
				"box" : 				{
					"maxclass" : "newobj",
					"text" : "record~ fz_buf",
					"numoutlets" : 1,
					"fontsize" : 12.0,
					"outlettype" : [ "signal" ],
					"patching_rect" : [ 255.0, 270.0, 88.0, 20.0 ],
					"id" : "obj-7",
					"fontname" : "Arial",
					"numinlets" : 3
				}

			}
, 			{
				"box" : 				{
					"maxclass" : "newobj",
					"text" : "in~ 1",
					"numoutlets" : 1,
					"fontsize" : 12.0,
					"outlettype" : [ "signal" ],
					"patching_rect" : [ 255.0, 100.0, 37.0, 20.0 ],
					"id" : "obj-16",
					"fontname" : "Arial",
					"numinlets" : 1,
					"saved_object_attributes" : 					{
						"attr_comment" : ""
					}

				}

			}
, 			{
				"box" : 				{
					"maxclass" : "newobj",
					"text" : "change 0.",
					"numoutlets" : 3,
					"fontsize" : 12.0,
					"outlettype" : [ "", "int", "int" ],
					"patching_rect" : [ 285.0, 340.0, 63.0, 20.0 ],
					"id" : "obj-13",
					"fontname" : "Arial",
					"numinlets" : 1
				}

			}
, 			{
				"box" : 				{
					"maxclass" : "newobj",
					"text" : "prepend rec_prog",
					"numoutlets" : 1,
					"fontsize" : 12.0,
					"outlettype" : [ "" ],
					"patching_rect" : [ 285.0, 439.0, 105.0, 20.0 ],
					"id" : "obj-63",
					"fontname" : "Arial",
					"numinlets" : 1
				}

			}
, 			{
				"box" : 				{
					"maxclass" : "newobj",
					"text" : "pack i f",
					"numoutlets" : 1,
					"fontsize" : 12.0,
					"outlettype" : [ "" ],
					"patching_rect" : [ 285.0, 414.0, 49.0, 20.0 ],
					"id" : "obj-62",
					"fontname" : "Arial",
					"numinlets" : 2
				}

			}
, 			{
				"box" : 				{
					"maxclass" : "newobj",
					"text" : "t b f",
					"numoutlets" : 2,
					"fontsize" : 12.0,
					"outlettype" : [ "bang", "float" ],
					"patching_rect" : [ 285.0, 366.0, 32.5, 20.0 ],
					"id" : "obj-61",
					"fontname" : "Arial",
					"numinlets" : 1
				}

			}
, 			{
				"box" : 				{
					"maxclass" : "newobj",
					"text" : "thispoly~",
					"numoutlets" : 2,
					"fontsize" : 12.0,
					"outlettype" : [ "int", "int" ],
					"patching_rect" : [ 285.0, 390.0, 58.0, 20.0 ],
					"id" : "obj-56",
					"fontname" : "Arial",
					"numinlets" : 1
				}

			}
, 			{
				"box" : 				{
					"maxclass" : "newobj",
					"text" : "s fz_js_msg",
					"numoutlets" : 0,
					"fontsize" : 12.0,
					"patching_rect" : [ 285.0, 460.0, 74.0, 20.0 ],
					"id" : "obj-49",
					"fontname" : "Arial",
					"numinlets" : 1
				}

			}
, 			{
				"box" : 				{
					"maxclass" : "message",
					"text" : "loop 1",
					"numoutlets" : 1,
					"fontsize" : 12.0,
					"outlettype" : [ "" ],
					"patching_rect" : [ 30.0, 210.0, 43.0, 18.0 ],
					"id" : "obj-8",
					"fontname" : "Arial",
					"numinlets" : 2
				}

			}
, 			{
				"box" : 				{
					"maxclass" : "newobj",
					"text" : "r lb",
					"numoutlets" : 1,
					"fontsize" : 12.0,
					"outlettype" : [ "" ],
					"patching_rect" : [ 30.0, 180.0, 27.0, 20.0 ],
					"id" : "obj-5",
					"fontname" : "Arial",
					"numinlets" : 0
				}

			}
, 			{
				"box" : 				{
					"maxclass" : "newobj",
					"text" : "sig~",
					"numoutlets" : 1,
					"fontsize" : 12.0,
					"outlettype" : [ "signal" ],
					"patching_rect" : [ 75.0, 210.0, 33.0, 20.0 ],
					"id" : "obj-4",
					"fontname" : "Arial",
					"numinlets" : 1
				}

			}
, 			{
				"box" : 				{
					"maxclass" : "message",
					"text" : "read $1",
					"numoutlets" : 1,
					"fontsize" : 12.0,
					"outlettype" : [ "" ],
					"patching_rect" : [ 555.0, 220.0, 51.0, 18.0 ],
					"id" : "obj-1",
					"fontname" : "Arial",
					"numinlets" : 2
				}

			}
, 			{
				"box" : 				{
					"maxclass" : "message",
					"text" : "set $1",
					"numoutlets" : 1,
					"fontsize" : 12.0,
					"outlettype" : [ "" ],
					"patching_rect" : [ 465.0, 219.0, 43.0, 18.0 ],
					"id" : "obj-52",
					"fontname" : "Arial",
					"numinlets" : 2
				}

			}
, 			{
				"box" : 				{
					"maxclass" : "message",
					"text" : "size $1",
					"numoutlets" : 1,
					"fontsize" : 12.0,
					"outlettype" : [ "" ],
					"patching_rect" : [ 510.0, 220.0, 49.0, 18.0 ],
					"id" : "obj-41",
					"fontname" : "Arial",
					"numinlets" : 2
				}

			}
, 			{
				"box" : 				{
					"maxclass" : "newobj",
					"text" : "in 2",
					"numoutlets" : 1,
					"fontsize" : 12.0,
					"outlettype" : [ "" ],
					"patching_rect" : [ 465.0, 154.0, 30.0, 20.0 ],
					"id" : "obj-10",
					"fontname" : "Arial",
					"numinlets" : 1,
					"saved_object_attributes" : 					{

					}

				}

			}
, 			{
				"box" : 				{
					"maxclass" : "newobj",
					"text" : "route buf size write read",
					"numoutlets" : 5,
					"fontsize" : 12.0,
					"outlettype" : [ "", "", "", "", "" ],
					"patching_rect" : [ 465.0, 180.0, 139.0, 20.0 ],
					"id" : "obj-35",
					"fontname" : "Arial",
					"numinlets" : 1
				}

			}
, 			{
				"box" : 				{
					"maxclass" : "newobj",
					"text" : "in 2",
					"numoutlets" : 1,
					"fontsize" : 12.0,
					"outlettype" : [ "" ],
					"patching_rect" : [ 149.0, 387.0, 30.0, 20.0 ],
					"id" : "obj-11",
					"fontname" : "Arial",
					"numinlets" : 1,
					"saved_object_attributes" : 					{
						"attr_comment" : ""
					}

				}

			}
, 			{
				"box" : 				{
					"maxclass" : "newobj",
					"text" : "p Pan",
					"numoutlets" : 4,
					"fontsize" : 12.0,
					"outlettype" : [ "signal", "signal", "signal", "signal" ],
					"patching_rect" : [ 75.0, 410.0, 93.0, 20.0 ],
					"id" : "obj-28",
					"fontname" : "Arial",
					"numinlets" : 2,
					"patcher" : 					{
						"fileversion" : 1,
						"rect" : [ 29.0, 130.0, 497.0, 376.0 ],
						"bglocked" : 0,
						"defrect" : [ 29.0, 130.0, 497.0, 376.0 ],
						"openrect" : [ 0.0, 0.0, 0.0, 0.0 ],
						"openinpresentation" : 0,
						"default_fontsize" : 12.0,
						"default_fontface" : 0,
						"default_fontname" : "Arial",
						"gridonopen" : 0,
						"gridsize" : [ 15.0, 15.0 ],
						"gridsnaponopen" : 0,
						"toolbarvisible" : 1,
						"boxanimatetime" : 200,
						"imprint" : 0,
						"enablehscroll" : 1,
						"enablevscroll" : 1,
						"devicewidth" : 0.0,
						"boxes" : [ 							{
								"box" : 								{
									"maxclass" : "newobj",
									"text" : "*~",
									"numoutlets" : 1,
									"fontsize" : 12.0,
									"outlettype" : [ "signal" ],
									"patching_rect" : [ 230.0, 287.0, 32.5, 20.0 ],
									"id" : "obj-15",
									"fontname" : "Arial",
									"numinlets" : 2
								}

							}
, 							{
								"box" : 								{
									"maxclass" : "newobj",
									"text" : "*~",
									"numoutlets" : 1,
									"fontsize" : 12.0,
									"outlettype" : [ "signal" ],
									"patching_rect" : [ 197.0, 287.0, 32.5, 20.0 ],
									"id" : "obj-17",
									"fontname" : "Arial",
									"numinlets" : 2
								}

							}
, 							{
								"box" : 								{
									"maxclass" : "newobj",
									"text" : "*~",
									"numoutlets" : 1,
									"fontsize" : 12.0,
									"outlettype" : [ "signal" ],
									"patching_rect" : [ 130.0, 287.0, 32.5, 20.0 ],
									"id" : "obj-12",
									"fontname" : "Arial",
									"numinlets" : 2
								}

							}
, 							{
								"box" : 								{
									"maxclass" : "newobj",
									"text" : "*~",
									"numoutlets" : 1,
									"fontsize" : 12.0,
									"outlettype" : [ "signal" ],
									"patching_rect" : [ 97.0, 287.0, 32.5, 20.0 ],
									"id" : "obj-14",
									"fontname" : "Arial",
									"numinlets" : 2
								}

							}
, 							{
								"box" : 								{
									"maxclass" : "newobj",
									"text" : "expr cos($f1)",
									"numoutlets" : 1,
									"fontsize" : 12.0,
									"outlettype" : [ "" ],
									"patching_rect" : [ 374.0, 122.0, 84.0, 20.0 ],
									"id" : "obj-8",
									"fontname" : "Arial",
									"numinlets" : 1
								}

							}
, 							{
								"box" : 								{
									"maxclass" : "newobj",
									"text" : "expr sin($f1)",
									"numoutlets" : 1,
									"fontsize" : 12.0,
									"outlettype" : [ "" ],
									"patching_rect" : [ 289.0, 122.0, 81.0, 20.0 ],
									"id" : "obj-9",
									"fontname" : "Arial",
									"numinlets" : 1
								}

							}
, 							{
								"box" : 								{
									"maxclass" : "newobj",
									"text" : "expr $f1 * 3.141593 / 2.",
									"numoutlets" : 1,
									"fontsize" : 12.0,
									"outlettype" : [ "" ],
									"patching_rect" : [ 289.0, 95.0, 135.0, 20.0 ],
									"id" : "obj-10",
									"fontname" : "Arial",
									"numinlets" : 1
								}

							}
, 							{
								"box" : 								{
									"maxclass" : "outlet",
									"numoutlets" : 0,
									"patching_rect" : [ 230.0, 315.0, 25.0, 25.0 ],
									"id" : "obj-6",
									"numinlets" : 1,
									"comment" : ""
								}

							}
, 							{
								"box" : 								{
									"maxclass" : "outlet",
									"numoutlets" : 0,
									"patching_rect" : [ 197.0, 315.0, 25.0, 25.0 ],
									"id" : "obj-7",
									"numinlets" : 1,
									"comment" : ""
								}

							}
, 							{
								"box" : 								{
									"maxclass" : "newobj",
									"text" : "route pan_x pan_y",
									"numoutlets" : 3,
									"fontsize" : 12.0,
									"outlettype" : [ "", "", "" ],
									"patching_rect" : [ 111.0, 69.0, 111.0, 20.0 ],
									"id" : "obj-5",
									"fontname" : "Arial",
									"numinlets" : 1
								}

							}
, 							{
								"box" : 								{
									"maxclass" : "outlet",
									"numoutlets" : 0,
									"patching_rect" : [ 130.0, 315.0, 25.0, 25.0 ],
									"id" : "obj-4",
									"numinlets" : 1,
									"comment" : ""
								}

							}
, 							{
								"box" : 								{
									"maxclass" : "outlet",
									"numoutlets" : 0,
									"patching_rect" : [ 97.0, 315.0, 25.0, 25.0 ],
									"id" : "obj-3",
									"numinlets" : 1,
									"comment" : ""
								}

							}
, 							{
								"box" : 								{
									"maxclass" : "inlet",
									"numoutlets" : 1,
									"outlettype" : [ "" ],
									"patching_rect" : [ 111.0, 38.0, 25.0, 25.0 ],
									"id" : "obj-2",
									"numinlets" : 0,
									"comment" : ""
								}

							}
, 							{
								"box" : 								{
									"maxclass" : "inlet",
									"numoutlets" : 1,
									"outlettype" : [ "signal" ],
									"patching_rect" : [ 52.0, 117.0, 25.0, 25.0 ],
									"id" : "obj-1",
									"numinlets" : 0,
									"comment" : ""
								}

							}
, 							{
								"box" : 								{
									"maxclass" : "newobj",
									"text" : "expr sin($f1)",
									"numoutlets" : 1,
									"fontsize" : 12.0,
									"outlettype" : [ "" ],
									"patching_rect" : [ 196.0, 122.0, 77.0, 20.0 ],
									"id" : "obj-11",
									"fontname" : "Arial",
									"numinlets" : 1
								}

							}
, 							{
								"box" : 								{
									"maxclass" : "newobj",
									"text" : "expr cos($f1)",
									"numoutlets" : 1,
									"fontsize" : 12.0,
									"outlettype" : [ "" ],
									"patching_rect" : [ 111.0, 122.0, 81.0, 20.0 ],
									"id" : "obj-16",
									"fontname" : "Arial",
									"numinlets" : 1
								}

							}
, 							{
								"box" : 								{
									"maxclass" : "newobj",
									"text" : "expr $f1 * 3.141593 / 2.",
									"numoutlets" : 1,
									"fontsize" : 12.0,
									"outlettype" : [ "" ],
									"patching_rect" : [ 111.0, 95.0, 135.0, 20.0 ],
									"id" : "obj-13",
									"fontname" : "Arial",
									"numinlets" : 1
								}

							}
, 							{
								"box" : 								{
									"maxclass" : "newobj",
									"text" : "*~",
									"numoutlets" : 1,
									"fontsize" : 12.0,
									"outlettype" : [ "signal" ],
									"patching_rect" : [ 130.0, 156.0, 32.5, 20.0 ],
									"id" : "obj-19",
									"fontname" : "Arial",
									"numinlets" : 2
								}

							}
, 							{
								"box" : 								{
									"maxclass" : "newobj",
									"text" : "*~",
									"numoutlets" : 1,
									"fontsize" : 12.0,
									"outlettype" : [ "signal" ],
									"patching_rect" : [ 97.0, 156.0, 32.5, 20.0 ],
									"id" : "obj-20",
									"fontname" : "Arial",
									"numinlets" : 2
								}

							}
 ],
						"lines" : [ 							{
								"patchline" : 								{
									"source" : [ "obj-9", 0 ],
									"destination" : [ "obj-14", 1 ],
									"hidden" : 0,
									"midpoints" : [ 298.5, 214.0, 120.0, 214.0 ]
								}

							}
, 							{
								"patchline" : 								{
									"source" : [ "obj-9", 0 ],
									"destination" : [ "obj-12", 1 ],
									"hidden" : 0,
									"midpoints" : [ 298.5, 214.0, 153.0, 214.0 ]
								}

							}
, 							{
								"patchline" : 								{
									"source" : [ "obj-8", 0 ],
									"destination" : [ "obj-17", 1 ],
									"hidden" : 0,
									"midpoints" : [ 383.5, 214.0, 220.0, 214.0 ]
								}

							}
, 							{
								"patchline" : 								{
									"source" : [ "obj-8", 0 ],
									"destination" : [ "obj-15", 1 ],
									"hidden" : 0,
									"midpoints" : [ 383.5, 214.0, 253.0, 214.0 ]
								}

							}
, 							{
								"patchline" : 								{
									"source" : [ "obj-5", 0 ],
									"destination" : [ "obj-13", 0 ],
									"hidden" : 0,
									"midpoints" : [  ]
								}

							}
, 							{
								"patchline" : 								{
									"source" : [ "obj-5", 1 ],
									"destination" : [ "obj-10", 0 ],
									"hidden" : 0,
									"midpoints" : [  ]
								}

							}
, 							{
								"patchline" : 								{
									"source" : [ "obj-20", 0 ],
									"destination" : [ "obj-17", 0 ],
									"hidden" : 0,
									"midpoints" : [  ]
								}

							}
, 							{
								"patchline" : 								{
									"source" : [ "obj-20", 0 ],
									"destination" : [ "obj-14", 0 ],
									"hidden" : 0,
									"midpoints" : [  ]
								}

							}
, 							{
								"patchline" : 								{
									"source" : [ "obj-2", 0 ],
									"destination" : [ "obj-5", 0 ],
									"hidden" : 0,
									"midpoints" : [  ]
								}

							}
, 							{
								"patchline" : 								{
									"source" : [ "obj-19", 0 ],
									"destination" : [ "obj-15", 0 ],
									"hidden" : 0,
									"midpoints" : [  ]
								}

							}
, 							{
								"patchline" : 								{
									"source" : [ "obj-19", 0 ],
									"destination" : [ "obj-12", 0 ],
									"hidden" : 0,
									"midpoints" : [  ]
								}

							}
, 							{
								"patchline" : 								{
									"source" : [ "obj-17", 0 ],
									"destination" : [ "obj-7", 0 ],
									"hidden" : 0,
									"midpoints" : [  ]
								}

							}
, 							{
								"patchline" : 								{
									"source" : [ "obj-16", 0 ],
									"destination" : [ "obj-20", 1 ],
									"hidden" : 0,
									"midpoints" : [  ]
								}

							}
, 							{
								"patchline" : 								{
									"source" : [ "obj-15", 0 ],
									"destination" : [ "obj-6", 0 ],
									"hidden" : 0,
									"midpoints" : [  ]
								}

							}
, 							{
								"patchline" : 								{
									"source" : [ "obj-14", 0 ],
									"destination" : [ "obj-3", 0 ],
									"hidden" : 0,
									"midpoints" : [  ]
								}

							}
, 							{
								"patchline" : 								{
									"source" : [ "obj-13", 0 ],
									"destination" : [ "obj-16", 0 ],
									"hidden" : 0,
									"midpoints" : [  ]
								}

							}
, 							{
								"patchline" : 								{
									"source" : [ "obj-13", 0 ],
									"destination" : [ "obj-11", 0 ],
									"hidden" : 0,
									"midpoints" : [  ]
								}

							}
, 							{
								"patchline" : 								{
									"source" : [ "obj-12", 0 ],
									"destination" : [ "obj-4", 0 ],
									"hidden" : 0,
									"midpoints" : [  ]
								}

							}
, 							{
								"patchline" : 								{
									"source" : [ "obj-11", 0 ],
									"destination" : [ "obj-19", 1 ],
									"hidden" : 0,
									"midpoints" : [  ]
								}

							}
, 							{
								"patchline" : 								{
									"source" : [ "obj-10", 0 ],
									"destination" : [ "obj-9", 0 ],
									"hidden" : 0,
									"midpoints" : [  ]
								}

							}
, 							{
								"patchline" : 								{
									"source" : [ "obj-10", 0 ],
									"destination" : [ "obj-8", 0 ],
									"hidden" : 0,
									"midpoints" : [  ]
								}

							}
, 							{
								"patchline" : 								{
									"source" : [ "obj-1", 0 ],
									"destination" : [ "obj-20", 0 ],
									"hidden" : 0,
									"midpoints" : [  ]
								}

							}
, 							{
								"patchline" : 								{
									"source" : [ "obj-1", 0 ],
									"destination" : [ "obj-19", 0 ],
									"hidden" : 0,
									"midpoints" : [  ]
								}

							}
 ]
					}
,
					"saved_object_attributes" : 					{
						"globalpatchername" : "",
						"default_fontface" : 0,
						"fontface" : 0,
						"fontsize" : 12.0,
						"default_fontname" : "Arial",
						"default_fontsize" : 12.0,
						"fontname" : "Arial"
					}

				}

			}
, 			{
				"box" : 				{
					"maxclass" : "newobj",
					"text" : "out~ 2",
					"numoutlets" : 0,
					"fontsize" : 12.0,
					"patching_rect" : [ 120.0, 441.0, 44.0, 20.0 ],
					"id" : "obj-6",
					"fontname" : "Arial",
					"numinlets" : 1,
					"saved_object_attributes" : 					{
						"attr_comment" : ""
					}

				}

			}
, 			{
				"box" : 				{
					"maxclass" : "newobj",
					"text" : "in 2",
					"numoutlets" : 1,
					"fontsize" : 12.0,
					"outlettype" : [ "" ],
					"patching_rect" : [ 75.0, 119.0, 30.0, 20.0 ],
					"id" : "obj-26",
					"fontname" : "Arial",
					"numinlets" : 1,
					"saved_object_attributes" : 					{

					}

				}

			}
, 			{
				"box" : 				{
					"maxclass" : "newobj",
					"text" : "route play",
					"numoutlets" : 2,
					"fontsize" : 12.0,
					"outlettype" : [ "", "" ],
					"patching_rect" : [ 75.0, 145.0, 63.0, 20.0 ],
					"id" : "obj-27",
					"fontname" : "Arial",
					"numinlets" : 1
				}

			}
, 			{
				"box" : 				{
					"maxclass" : "toggle",
					"numoutlets" : 1,
					"outlettype" : [ "int" ],
					"patching_rect" : [ 75.0, 171.0, 20.0, 20.0 ],
					"id" : "obj-12",
					"numinlets" : 1
				}

			}
, 			{
				"box" : 				{
					"maxclass" : "newobj",
					"text" : "groove~ fz_buf",
					"numoutlets" : 2,
					"fontsize" : 12.0,
					"outlettype" : [ "signal", "signal" ],
					"patching_rect" : [ 75.0, 270.0, 109.0, 20.0 ],
					"id" : "obj-9",
					"fontname" : "Arial",
					"numinlets" : 3
				}

			}
, 			{
				"box" : 				{
					"maxclass" : "newobj",
					"text" : "buffer~ fz_buf 1000",
					"numoutlets" : 2,
					"fontsize" : 12.0,
					"outlettype" : [ "float", "bang" ],
					"patching_rect" : [ 465.0, 270.0, 114.0, 20.0 ],
					"id" : "obj-3",
					"fontname" : "Arial",
					"numinlets" : 1
				}

			}
, 			{
				"box" : 				{
					"maxclass" : "newobj",
					"text" : "out~ 1",
					"numoutlets" : 0,
					"fontsize" : 12.0,
					"patching_rect" : [ 75.0, 441.0, 44.0, 20.0 ],
					"id" : "obj-2",
					"fontname" : "Arial",
					"numinlets" : 1,
					"saved_object_attributes" : 					{
						"attr_comment" : ""
					}

				}

			}
 ],
		"lines" : [ 			{
				"patchline" : 				{
					"source" : [ "obj-63", 0 ],
					"destination" : [ "obj-49", 0 ],
					"hidden" : 0,
					"midpoints" : [  ]
				}

			}
, 			{
				"patchline" : 				{
					"source" : [ "obj-9", 1 ],
					"destination" : [ "obj-39", 0 ],
					"hidden" : 0,
					"midpoints" : [  ]
				}

			}
, 			{
				"patchline" : 				{
					"source" : [ "obj-17", 0 ],
					"destination" : [ "obj-9", 2 ],
					"hidden" : 0,
					"midpoints" : [  ]
				}

			}
, 			{
				"patchline" : 				{
					"source" : [ "obj-25", 0 ],
					"destination" : [ "obj-7", 0 ],
					"hidden" : 0,
					"midpoints" : [  ]
				}

			}
, 			{
				"patchline" : 				{
					"source" : [ "obj-16", 0 ],
					"destination" : [ "obj-25", 0 ],
					"hidden" : 0,
					"midpoints" : [  ]
				}

			}
, 			{
				"patchline" : 				{
					"source" : [ "obj-22", 0 ],
					"destination" : [ "obj-21", 0 ],
					"hidden" : 0,
					"midpoints" : [  ]
				}

			}
, 			{
				"patchline" : 				{
					"source" : [ "obj-21", 0 ],
					"destination" : [ "obj-20", 0 ],
					"hidden" : 0,
					"midpoints" : [  ]
				}

			}
, 			{
				"patchline" : 				{
					"source" : [ "obj-20", 1 ],
					"destination" : [ "obj-17", 1 ],
					"hidden" : 0,
					"midpoints" : [  ]
				}

			}
, 			{
				"patchline" : 				{
					"source" : [ "obj-20", 0 ],
					"destination" : [ "obj-17", 0 ],
					"hidden" : 0,
					"midpoints" : [  ]
				}

			}
, 			{
				"patchline" : 				{
					"source" : [ "obj-22", 0 ],
					"destination" : [ "obj-25", 1 ],
					"hidden" : 0,
					"midpoints" : [  ]
				}

			}
, 			{
				"patchline" : 				{
					"source" : [ "obj-7", 0 ],
					"destination" : [ "obj-19", 0 ],
					"hidden" : 0,
					"midpoints" : [  ]
				}

			}
, 			{
				"patchline" : 				{
					"source" : [ "obj-4", 0 ],
					"destination" : [ "obj-9", 0 ],
					"hidden" : 0,
					"midpoints" : [  ]
				}

			}
, 			{
				"patchline" : 				{
					"source" : [ "obj-35", 1 ],
					"destination" : [ "obj-41", 0 ],
					"hidden" : 0,
					"midpoints" : [  ]
				}

			}
, 			{
				"patchline" : 				{
					"source" : [ "obj-35", 3 ],
					"destination" : [ "obj-1", 0 ],
					"hidden" : 0,
					"midpoints" : [  ]
				}

			}
, 			{
				"patchline" : 				{
					"source" : [ "obj-28", 1 ],
					"destination" : [ "obj-6", 0 ],
					"hidden" : 0,
					"midpoints" : [  ]
				}

			}
, 			{
				"patchline" : 				{
					"source" : [ "obj-28", 0 ],
					"destination" : [ "obj-2", 0 ],
					"hidden" : 0,
					"midpoints" : [  ]
				}

			}
, 			{
				"patchline" : 				{
					"source" : [ "obj-27", 0 ],
					"destination" : [ "obj-12", 0 ],
					"hidden" : 0,
					"midpoints" : [  ]
				}

			}
, 			{
				"patchline" : 				{
					"source" : [ "obj-26", 0 ],
					"destination" : [ "obj-27", 0 ],
					"hidden" : 0,
					"midpoints" : [  ]
				}

			}
, 			{
				"patchline" : 				{
					"source" : [ "obj-12", 0 ],
					"destination" : [ "obj-4", 0 ],
					"hidden" : 0,
					"midpoints" : [  ]
				}

			}
, 			{
				"patchline" : 				{
					"source" : [ "obj-11", 0 ],
					"destination" : [ "obj-28", 1 ],
					"hidden" : 0,
					"midpoints" : [  ]
				}

			}
, 			{
				"patchline" : 				{
					"source" : [ "obj-10", 0 ],
					"destination" : [ "obj-35", 0 ],
					"hidden" : 0,
					"midpoints" : [  ]
				}

			}
, 			{
				"patchline" : 				{
					"source" : [ "obj-5", 0 ],
					"destination" : [ "obj-8", 0 ],
					"hidden" : 0,
					"midpoints" : [  ]
				}

			}
, 			{
				"patchline" : 				{
					"source" : [ "obj-8", 0 ],
					"destination" : [ "obj-9", 0 ],
					"hidden" : 0,
					"midpoints" : [  ]
				}

			}
, 			{
				"patchline" : 				{
					"source" : [ "obj-13", 0 ],
					"destination" : [ "obj-61", 0 ],
					"hidden" : 0,
					"midpoints" : [  ]
				}

			}
, 			{
				"patchline" : 				{
					"source" : [ "obj-61", 0 ],
					"destination" : [ "obj-56", 0 ],
					"hidden" : 0,
					"midpoints" : [  ]
				}

			}
, 			{
				"patchline" : 				{
					"source" : [ "obj-56", 0 ],
					"destination" : [ "obj-62", 0 ],
					"hidden" : 0,
					"midpoints" : [  ]
				}

			}
, 			{
				"patchline" : 				{
					"source" : [ "obj-61", 1 ],
					"destination" : [ "obj-62", 1 ],
					"hidden" : 0,
					"midpoints" : [  ]
				}

			}
, 			{
				"patchline" : 				{
					"source" : [ "obj-62", 0 ],
					"destination" : [ "obj-63", 0 ],
					"hidden" : 0,
					"midpoints" : [  ]
				}

			}
, 			{
				"patchline" : 				{
					"source" : [ "obj-19", 1 ],
					"destination" : [ "obj-13", 0 ],
					"hidden" : 0,
					"midpoints" : [  ]
				}

			}
, 			{
				"patchline" : 				{
					"source" : [ "obj-52", 0 ],
					"destination" : [ "obj-3", 0 ],
					"hidden" : 0,
					"midpoints" : [  ]
				}

			}
, 			{
				"patchline" : 				{
					"source" : [ "obj-52", 0 ],
					"destination" : [ "obj-7", 0 ],
					"hidden" : 0,
					"midpoints" : [ 474.5, 251.0, 264.5, 251.0 ]
				}

			}
, 			{
				"patchline" : 				{
					"source" : [ "obj-52", 0 ],
					"destination" : [ "obj-9", 0 ],
					"hidden" : 0,
					"midpoints" : [ 474.5, 251.0, 84.5, 251.0 ]
				}

			}
, 			{
				"patchline" : 				{
					"source" : [ "obj-41", 0 ],
					"destination" : [ "obj-3", 0 ],
					"hidden" : 0,
					"midpoints" : [  ]
				}

			}
, 			{
				"patchline" : 				{
					"source" : [ "obj-1", 0 ],
					"destination" : [ "obj-3", 0 ],
					"hidden" : 0,
					"midpoints" : [  ]
				}

			}
, 			{
				"patchline" : 				{
					"source" : [ "obj-35", 2 ],
					"destination" : [ "obj-3", 0 ],
					"hidden" : 0,
					"midpoints" : [  ]
				}

			}
, 			{
				"patchline" : 				{
					"source" : [ "obj-9", 0 ],
					"destination" : [ "obj-18", 0 ],
					"hidden" : 0,
					"midpoints" : [  ]
				}

			}
, 			{
				"patchline" : 				{
					"source" : [ "obj-18", 0 ],
					"destination" : [ "obj-28", 0 ],
					"hidden" : 0,
					"midpoints" : [  ]
				}

			}
, 			{
				"patchline" : 				{
					"source" : [ "obj-9", 1 ],
					"destination" : [ "obj-15", 0 ],
					"hidden" : 0,
					"midpoints" : [  ]
				}

			}
, 			{
				"patchline" : 				{
					"source" : [ "obj-15", 0 ],
					"destination" : [ "obj-18", 1 ],
					"hidden" : 0,
					"midpoints" : [  ]
				}

			}
, 			{
				"patchline" : 				{
					"source" : [ "obj-20", 0 ],
					"destination" : [ "obj-24", 0 ],
					"hidden" : 0,
					"midpoints" : [  ]
				}

			}
, 			{
				"patchline" : 				{
					"source" : [ "obj-24", 0 ],
					"destination" : [ "obj-7", 0 ],
					"hidden" : 0,
					"midpoints" : [  ]
				}

			}
, 			{
				"patchline" : 				{
					"source" : [ "obj-24", 1 ],
					"destination" : [ "obj-3", 0 ],
					"hidden" : 0,
					"midpoints" : [  ]
				}

			}
, 			{
				"patchline" : 				{
					"source" : [ "obj-20", 1 ],
					"destination" : [ "obj-34", 0 ],
					"hidden" : 0,
					"midpoints" : [  ]
				}

			}
, 			{
				"patchline" : 				{
					"source" : [ "obj-34", 0 ],
					"destination" : [ "obj-7", 0 ],
					"hidden" : 0,
					"midpoints" : [  ]
				}

			}
, 			{
				"patchline" : 				{
					"source" : [ "obj-35", 0 ],
					"destination" : [ "obj-52", 0 ],
					"hidden" : 0,
					"midpoints" : [  ]
				}

			}
, 			{
				"patchline" : 				{
					"source" : [ "obj-32", 0 ],
					"destination" : [ "obj-48", 0 ],
					"hidden" : 0,
					"midpoints" : [  ]
				}

			}
, 			{
				"patchline" : 				{
					"source" : [ "obj-48", 0 ],
					"destination" : [ "obj-22", 0 ],
					"hidden" : 0,
					"midpoints" : [  ]
				}

			}
, 			{
				"patchline" : 				{
					"source" : [ "obj-31", 1 ],
					"destination" : [ "obj-48", 1 ],
					"hidden" : 0,
					"midpoints" : [  ]
				}

			}
, 			{
				"patchline" : 				{
					"source" : [ "obj-31", 0 ],
					"destination" : [ "obj-32", 0 ],
					"hidden" : 0,
					"midpoints" : [  ]
				}

			}
, 			{
				"patchline" : 				{
					"source" : [ "obj-29", 0 ],
					"destination" : [ "obj-31", 0 ],
					"hidden" : 0,
					"midpoints" : [  ]
				}

			}
, 			{
				"patchline" : 				{
					"source" : [ "obj-13", 0 ],
					"destination" : [ "obj-79", 0 ],
					"hidden" : 0,
					"midpoints" : [  ]
				}

			}
, 			{
				"patchline" : 				{
					"source" : [ "obj-79", 0 ],
					"destination" : [ "obj-75", 0 ],
					"hidden" : 0,
					"midpoints" : [  ]
				}

			}
, 			{
				"patchline" : 				{
					"source" : [ "obj-75", 0 ],
					"destination" : [ "obj-32", 0 ],
					"hidden" : 0,
					"midpoints" : [ 354.5, 411.0, 399.0, 411.0, 399.0, 75.0, 309.5, 75.0 ]
				}

			}
 ]
	}

}
