{
	"patcher" : 	{
		"fileversion" : 1,
		"rect" : [ 31.0, 155.0, 562.0, 455.0 ],
		"bgcolor" : [ 1.0, 1.0, 1.0, 1.0 ],
		"bglocked" : 0,
		"defrect" : [ 31.0, 155.0, 562.0, 455.0 ],
		"openrect" : [ 0.0, 0.0, 0.0, 0.0 ],
		"openinpresentation" : 0,
		"default_fontsize" : 12.0,
		"default_fontface" : 0,
		"default_fontname" : "Arial",
		"gridonopen" : 0,
		"gridsize" : [ 15.0, 10.0 ],
		"gridsnaponopen" : 0,
		"toolbarvisible" : 1,
		"boxanimatetime" : 200,
		"imprint" : 1,
		"enablehscroll" : 1,
		"enablevscroll" : 1,
		"devicewidth" : 0.0,
		"boxes" : [ 			{
				"box" : 				{
					"background" : 0,
					"bgcolor" : [ 0.867, 0.867, 0.867, 1.0 ],
					"bgcolor2" : [ 0.867, 0.867, 0.867, 1.0 ],
					"fontface" : 0,
					"fontname" : "Arial",
					"fontsize" : 12.0,
					"gradient" : 0,
					"hidden" : 0,
					"id" : "obj-31",
					"ignoreclick" : 0,
					"maxclass" : "message",
					"numinlets" : 2,
					"numoutlets" : 1,
					"outlettype" : [ "" ],
					"patching_rect" : [ 358.0, 189.0, 41.0, 18.0 ],
					"presentation" : 0,
					"presentation_rect" : [ 0.0, 0.0, 0.0, 0.0 ],
					"text" : "$2 $1",
					"textcolor" : [ 0.0, 0.0, 0.0, 1.0 ]
				}

			}
, 			{
				"box" : 				{
					"background" : 0,
					"bgcolor" : [ 1.0, 1.0, 1.0, 1.0 ],
					"color" : [ 0.8, 0.84, 0.71, 1.0 ],
					"fontface" : 0,
					"fontname" : "Arial",
					"fontsize" : 12.0,
					"hidden" : 0,
					"id" : "obj-28",
					"ignoreclick" : 0,
					"maxclass" : "newobj",
					"numinlets" : 2,
					"numoutlets" : 1,
					"outlettype" : [ "" ],
					"patching_rect" : [ 358.0, 163.0, 55.0, 20.0 ],
					"presentation" : 0,
					"presentation_rect" : [ 0.0, 0.0, 0.0, 0.0 ],
					"text" : "pack s s",
					"textcolor" : [ 0.0, 0.0, 0.0, 1.0 ]
				}

			}
, 			{
				"box" : 				{
					"background" : 0,
					"bgcolor" : [ 1.0, 1.0, 1.0, 1.0 ],
					"color" : [ 0.8, 0.84, 0.71, 1.0 ],
					"fontface" : 0,
					"fontname" : "Arial",
					"fontsize" : 12.0,
					"hidden" : 0,
					"id" : "obj-27",
					"ignoreclick" : 0,
					"maxclass" : "newobj",
					"numinlets" : 1,
					"numoutlets" : 2,
					"outlettype" : [ "", "" ],
					"patching_rect" : [ 440.0, 140.0, 79.0, 20.0 ],
					"presentation" : 0,
					"presentation_rect" : [ 0.0, 0.0, 0.0, 0.0 ],
					"text" : "route symbol",
					"textcolor" : [ 0.0, 0.0, 0.0, 1.0 ]
				}

			}
, 			{
				"box" : 				{
					"background" : 0,
					"bgcolor" : [ 1.0, 1.0, 1.0, 1.0 ],
					"color" : [ 0.8, 0.84, 0.71, 1.0 ],
					"fontface" : 0,
					"fontname" : "Arial",
					"fontsize" : 12.0,
					"hidden" : 0,
					"id" : "obj-26",
					"ignoreclick" : 0,
					"maxclass" : "newobj",
					"numinlets" : 1,
					"numoutlets" : 2,
					"outlettype" : [ "", "" ],
					"patching_rect" : [ 358.0, 140.0, 79.0, 20.0 ],
					"presentation" : 0,
					"presentation_rect" : [ 0.0, 0.0, 0.0, 0.0 ],
					"text" : "route symbol",
					"textcolor" : [ 0.0, 0.0, 0.0, 1.0 ]
				}

			}
, 			{
				"box" : 				{
					"background" : 0,
					"bgcolor" : [ 0.867, 0.867, 0.867, 1.0 ],
					"bgcolor2" : [ 0.867, 0.867, 0.867, 1.0 ],
					"fontface" : 0,
					"fontname" : "Arial",
					"fontsize" : 12.0,
					"gradient" : 0,
					"hidden" : 0,
					"id" : "obj-24",
					"ignoreclick" : 0,
					"maxclass" : "message",
					"numinlets" : 2,
					"numoutlets" : 1,
					"outlettype" : [ "" ],
					"patching_rect" : [ 358.0, 92.0, 41.0, 18.0 ],
					"presentation" : 0,
					"presentation_rect" : [ 0.0, 0.0, 0.0, 0.0 ],
					"text" : "dump",
					"textcolor" : [ 0.0, 0.0, 0.0, 1.0 ]
				}

			}
, 			{
				"box" : 				{
					"background" : 0,
					"bgcolor" : [ 1.0, 1.0, 1.0, 1.0 ],
					"coll_data" : 					{
						"count" : 1,
						"data" : [ 							{
								"key" : "osc_address_heartbeat",
								"value" : [ "/fz/hb" ]
							}
 ]
					}
,
					"color" : [ 0.8, 0.84, 0.71, 1.0 ],
					"fontface" : 0,
					"fontname" : "Arial",
					"fontsize" : 12.0,
					"hidden" : 0,
					"id" : "obj-22",
					"ignoreclick" : 0,
					"maxclass" : "newobj",
					"numinlets" : 1,
					"numoutlets" : 4,
					"outlettype" : [ "", "", "", "" ],
					"patching_rect" : [ 358.0, 114.0, 59.5, 20.0 ],
					"presentation" : 0,
					"presentation_rect" : [ 0.0, 0.0, 0.0, 0.0 ],
					"saved_object_attributes" : 					{
						"embed" : 1
					}
,
					"text" : "coll",
					"textcolor" : [ 0.0, 0.0, 0.0, 1.0 ]
				}

			}
, 			{
				"box" : 				{
					"background" : 0,
					"bgcolor" : [ 1.0, 1.0, 1.0, 1.0 ],
					"color" : [ 0.8, 0.84, 0.71, 1.0 ],
					"fontface" : 0,
					"fontname" : "Arial",
					"fontsize" : 12.0,
					"hidden" : 0,
					"id" : "obj-21",
					"ignoreclick" : 0,
					"maxclass" : "newobj",
					"numinlets" : 1,
					"numoutlets" : 0,
					"patching_rect" : [ 134.0, 205.0, 187.0, 20.0 ],
					"presentation" : 0,
					"presentation_rect" : [ 0.0, 0.0, 0.0, 0.0 ],
					"text" : "udpsend 255.255.255.255 31337",
					"textcolor" : [ 0.0, 0.0, 0.0, 1.0 ]
				}

			}
, 			{
				"box" : 				{
					"background" : 0,
					"bgcolor" : [ 1.0, 1.0, 1.0, 1.0 ],
					"bordercolor" : [ 0.5, 0.5, 0.5, 1.0 ],
					"checkedcolor" : [ 0.0, 0.0, 0.0, 1.0 ],
					"hidden" : 0,
					"id" : "obj-9",
					"ignoreclick" : 0,
					"maxclass" : "toggle",
					"numinlets" : 1,
					"numoutlets" : 1,
					"outlettype" : [ "int" ],
					"patching_rect" : [ 37.0, 94.0, 20.0, 20.0 ],
					"presentation" : 0,
					"presentation_rect" : [ 0.0, 0.0, 0.0, 0.0 ]
				}

			}
, 			{
				"box" : 				{
					"background" : 0,
					"bgcolor" : [ 0.867, 0.867, 0.867, 1.0 ],
					"bgcolor2" : [ 0.867, 0.867, 0.867, 1.0 ],
					"fontface" : 0,
					"fontname" : "Arial",
					"fontsize" : 12.0,
					"gradient" : 0,
					"hidden" : 0,
					"id" : "obj-7",
					"ignoreclick" : 0,
					"maxclass" : "message",
					"numinlets" : 2,
					"numoutlets" : 1,
					"outlettype" : [ "" ],
					"patching_rect" : [ 37.0, 120.0, 78.0, 18.0 ],
					"presentation" : 0,
					"presentation_rect" : [ 0.0, 0.0, 0.0, 0.0 ],
					"text" : "heartbeat $1",
					"textcolor" : [ 0.0, 0.0, 0.0, 1.0 ]
				}

			}
, 			{
				"box" : 				{
					"background" : 0,
					"bgcolor" : [ 1.0, 1.0, 1.0, 0.0 ],
					"fontface" : 1,
					"fontname" : "Arial",
					"fontsize" : 12.0,
					"frgb" : [ 0.0, 0.0, 0.0, 1.0 ],
					"hidden" : 0,
					"id" : "obj-15",
					"ignoreclick" : 1,
					"linecount" : 2,
					"maxclass" : "comment",
					"numinlets" : 1,
					"numoutlets" : 0,
					"patching_rect" : [ 242.0, 381.0, 74.0, 34.0 ],
					"presentation" : 0,
					"presentation_rect" : [ 0.0, 0.0, 0.0, 0.0 ],
					"text" : "Players Display",
					"textcolor" : [ 0.0, 0.0, 0.0, 1.0 ],
					"underline" : 0
				}

			}
, 			{
				"box" : 				{
					"background" : 0,
					"bgcolor" : [ 0.867, 0.867, 0.867, 1.0 ],
					"bgcolor2" : [ 0.867, 0.867, 0.867, 1.0 ],
					"fontface" : 0,
					"fontname" : "Arial",
					"fontsize" : 12.0,
					"gradient" : 0,
					"hidden" : 0,
					"id" : "obj-13",
					"ignoreclick" : 0,
					"maxclass" : "message",
					"numinlets" : 2,
					"numoutlets" : 1,
					"outlettype" : [ "" ],
					"patching_rect" : [ 27.0, 342.0, 37.0, 18.0 ],
					"presentation" : 0,
					"presentation_rect" : [ 0.0, 0.0, 0.0, 0.0 ],
					"text" : "reset",
					"textcolor" : [ 0.0, 0.0, 0.0, 1.0 ]
				}

			}
, 			{
				"box" : 				{
					"background" : 0,
					"bgcolor" : [ 1.0, 1.0, 1.0, 1.0 ],
					"color" : [ 0.8, 0.84, 0.71, 1.0 ],
					"fontface" : 0,
					"fontname" : "Arial",
					"fontsize" : 12.0,
					"hidden" : 0,
					"id" : "obj-17",
					"ignoreclick" : 0,
					"maxclass" : "newobj",
					"numinlets" : 1,
					"numoutlets" : 1,
					"outlettype" : [ "" ],
					"patching_rect" : [ 190.0, 340.0, 126.0, 20.0 ],
					"presentation" : 0,
					"presentation_rect" : [ 0.0, 0.0, 0.0, 0.0 ],
					"text" : "prepend player_leave",
					"textcolor" : [ 0.0, 0.0, 0.0, 1.0 ]
				}

			}
, 			{
				"box" : 				{
					"background" : 0,
					"bgcolor" : [ 1.0, 1.0, 1.0, 1.0 ],
					"color" : [ 0.8, 0.84, 0.71, 1.0 ],
					"fontface" : 0,
					"fontname" : "Arial",
					"fontsize" : 12.0,
					"hidden" : 0,
					"id" : "obj-16",
					"ignoreclick" : 0,
					"maxclass" : "newobj",
					"numinlets" : 1,
					"numoutlets" : 1,
					"outlettype" : [ "" ],
					"patching_rect" : [ 71.0, 340.0, 116.0, 20.0 ],
					"presentation" : 0,
					"presentation_rect" : [ 0.0, 0.0, 0.0, 0.0 ],
					"text" : "prepend player_join",
					"textcolor" : [ 0.0, 0.0, 0.0, 1.0 ]
				}

			}
, 			{
				"box" : 				{
					"background" : 0,
					"bgcolor" : [ 1.0, 1.0, 1.0, 1.0 ],
					"color" : [ 0.8, 0.84, 0.71, 1.0 ],
					"fontface" : 0,
					"fontname" : "Arial",
					"fontsize" : 12.0,
					"hidden" : 0,
					"id" : "obj-10",
					"ignoreclick" : 0,
					"maxclass" : "newobj",
					"numinlets" : 1,
					"numoutlets" : 1,
					"outlettype" : [ "" ],
					"patching_rect" : [ 71.0, 373.0, 163.0, 20.0 ],
					"presentation" : 0,
					"presentation_rect" : [ 0.0, 0.0, 0.0, 0.0 ],
					"text" : "js MInC_PlayersDisplay.js",
					"textcolor" : [ 0.0, 0.0, 0.0, 1.0 ]
				}

			}
, 			{
				"box" : 				{
					"background" : 0,
					"bgcolor" : [ 1.0, 1.0, 1.0, 1.0 ],
					"color" : [ 0.8, 0.84, 0.71, 1.0 ],
					"fontface" : 0,
					"fontname" : "Arial",
					"fontsize" : 12.0,
					"hidden" : 0,
					"id" : "obj-5",
					"ignoreclick" : 0,
					"maxclass" : "newobj",
					"numinlets" : 1,
					"numoutlets" : 0,
					"patching_rect" : [ 211.0, 316.0, 66.0, 20.0 ],
					"presentation" : 0,
					"presentation_rect" : [ 0.0, 0.0, 0.0, 0.0 ],
					"text" : "print leave",
					"textcolor" : [ 0.0, 0.0, 0.0, 1.0 ]
				}

			}
, 			{
				"box" : 				{
					"background" : 0,
					"bgcolor" : [ 1.0, 1.0, 1.0, 1.0 ],
					"color" : [ 0.8, 0.84, 0.71, 1.0 ],
					"fontface" : 0,
					"fontname" : "Arial",
					"fontsize" : 12.0,
					"hidden" : 0,
					"id" : "obj-6",
					"ignoreclick" : 0,
					"maxclass" : "newobj",
					"numinlets" : 0,
					"numoutlets" : 1,
					"outlettype" : [ "" ],
					"patching_rect" : [ 190.0, 290.0, 118.0, 20.0 ],
					"presentation" : 0,
					"presentation_rect" : [ 0.0, 0.0, 0.0, 0.0 ],
					"text" : "r minc_player_leave",
					"textcolor" : [ 0.0, 0.0, 0.0, 1.0 ]
				}

			}
, 			{
				"box" : 				{
					"background" : 0,
					"bgcolor" : [ 1.0, 1.0, 1.0, 1.0 ],
					"color" : [ 0.8, 0.84, 0.71, 1.0 ],
					"fontface" : 0,
					"fontname" : "Arial",
					"fontsize" : 12.0,
					"hidden" : 0,
					"id" : "obj-3",
					"ignoreclick" : 0,
					"maxclass" : "newobj",
					"numinlets" : 0,
					"numoutlets" : 1,
					"outlettype" : [ "" ],
					"patching_rect" : [ 409.0, 326.0, 118.0, 20.0 ],
					"presentation" : 0,
					"presentation_rect" : [ 0.0, 0.0, 0.0, 0.0 ],
					"text" : "r minc_do_osc_msg",
					"textcolor" : [ 0.0, 0.0, 0.0, 1.0 ]
				}

			}
, 			{
				"box" : 				{
					"background" : 0,
					"bgcolor" : [ 1.0, 1.0, 1.0, 1.0 ],
					"color" : [ 0.8, 0.84, 0.71, 1.0 ],
					"fontface" : 0,
					"fontname" : "Arial",
					"fontsize" : 12.0,
					"hidden" : 0,
					"id" : "obj-1",
					"ignoreclick" : 0,
					"maxclass" : "newobj",
					"numinlets" : 1,
					"numoutlets" : 0,
					"patching_rect" : [ 409.0, 352.0, 34.0, 20.0 ],
					"presentation" : 0,
					"presentation_rect" : [ 0.0, 0.0, 0.0, 0.0 ],
					"text" : "print",
					"textcolor" : [ 0.0, 0.0, 0.0, 1.0 ]
				}

			}
, 			{
				"box" : 				{
					"background" : 0,
					"bgcolor" : [ 1.0, 1.0, 1.0, 1.0 ],
					"border_bottom" : 1,
					"border_left" : 1,
					"border_right" : 1,
					"border_top" : 1,
					"bordercolor" : [ 0.0, 0.0, 0.0, 1.0 ],
					"candicane2" : [ 0.14696, 0.2072, 0.35792, 1.0 ],
					"candicane3" : [ 0.29392, 0.41441, 0.71583, 1.0 ],
					"candicane4" : [ 0.44088, 0.62161, 0.07375, 1.0 ],
					"candicane5" : [ 0.58784, 0.82881, 0.43166, 1.0 ],
					"candicane6" : [ 0.7348, 0.03601, 0.78958, 1.0 ],
					"candicane7" : [ 0.88176, 0.24321, 0.14749, 1.0 ],
					"candicane8" : [ 0.02872, 0.45042, 0.50541, 1.0 ],
					"candycane" : 1,
					"compatibility" : 0,
					"contdata" : 0,
					"drawpeaks" : 0,
					"ghostbar" : 0,
					"hidden" : 0,
					"id" : "obj-96",
					"ignoreclick" : 0,
					"maxclass" : "multislider",
					"numinlets" : 1,
					"numoutlets" : 2,
					"orientation" : 1,
					"outlettype" : [ "", "" ],
					"patching_rect" : [ 71.0, 402.0, 141.0, 21.0 ],
					"peakcolor" : [ 0.5, 0.5, 0.5, 1.0 ],
					"presentation" : 0,
					"presentation_rect" : [ 0.0, 0.0, 0.0, 0.0 ],
					"setminmax" : [ 0.0, 1.0 ],
					"setstyle" : 1,
					"settype" : 0,
					"signed" : 0,
					"size" : 10,
					"slidercolor" : [ 0.0, 0.0, 0.0, 1.0 ],
					"spacing" : 0,
					"thickness" : 2
				}

			}
, 			{
				"box" : 				{
					"background" : 0,
					"bgcolor" : [ 1.0, 1.0, 1.0, 1.0 ],
					"color" : [ 0.8, 0.84, 0.71, 1.0 ],
					"fontface" : 0,
					"fontname" : "Arial",
					"fontsize" : 12.0,
					"hidden" : 0,
					"id" : "obj-89",
					"ignoreclick" : 0,
					"maxclass" : "newobj",
					"numinlets" : 1,
					"numoutlets" : 0,
					"patching_rect" : [ 90.0, 316.0, 56.0, 20.0 ],
					"presentation" : 0,
					"presentation_rect" : [ 0.0, 0.0, 0.0, 0.0 ],
					"text" : "print join",
					"textcolor" : [ 0.0, 0.0, 0.0, 1.0 ]
				}

			}
, 			{
				"box" : 				{
					"background" : 0,
					"bgcolor" : [ 1.0, 1.0, 1.0, 1.0 ],
					"color" : [ 0.8, 0.84, 0.71, 1.0 ],
					"fontface" : 0,
					"fontname" : "Arial",
					"fontsize" : 12.0,
					"hidden" : 0,
					"id" : "obj-2",
					"ignoreclick" : 0,
					"maxclass" : "newobj",
					"numinlets" : 0,
					"numoutlets" : 1,
					"outlettype" : [ "" ],
					"patching_rect" : [ 71.0, 290.0, 108.0, 20.0 ],
					"presentation" : 0,
					"presentation_rect" : [ 0.0, 0.0, 0.0, 0.0 ],
					"text" : "r minc_player_join",
					"textcolor" : [ 0.0, 0.0, 0.0, 1.0 ]
				}

			}
, 			{
				"box" : 				{
					"background" : 0,
					"bgcolor" : [ 1.0, 1.0, 1.0, 0.0 ],
					"fontface" : 1,
					"fontname" : "Arial",
					"fontsize" : 12.0,
					"frgb" : [ 0.0, 0.0, 0.0, 1.0 ],
					"hidden" : 0,
					"id" : "obj-92",
					"ignoreclick" : 1,
					"maxclass" : "comment",
					"numinlets" : 1,
					"numoutlets" : 0,
					"patching_rect" : [ 32.0, 54.0, 74.0, 20.0 ],
					"presentation" : 0,
					"presentation_rect" : [ 0.0, 0.0, 0.0, 0.0 ],
					"text" : "OSC",
					"textcolor" : [ 0.0, 0.0, 0.0, 1.0 ],
					"underline" : 0
				}

			}
, 			{
				"box" : 				{
					"background" : 0,
					"bgcolor" : [ 0.91328, 0.91328, 0.91328, 0.75 ],
					"blinkcolor" : [ 1.0, 0.890196, 0.090196, 1.0 ],
					"fgcolor" : [ 1.0, 1.0, 1.0, 1.0 ],
					"hidden" : 0,
					"id" : "obj-87",
					"ignoreclick" : 0,
					"maxclass" : "button",
					"numinlets" : 1,
					"numoutlets" : 1,
					"outlettype" : [ "bang" ],
					"outlinecolor" : [ 0.71328, 0.71328, 0.71328, 1.0 ],
					"patching_rect" : [ 255.0, 67.0, 20.0, 20.0 ],
					"presentation" : 0,
					"presentation_rect" : [ 0.0, 0.0, 0.0, 0.0 ]
				}

			}
, 			{
				"box" : 				{
					"background" : 0,
					"bgcolor" : [ 1.0, 1.0, 1.0, 1.0 ],
					"color" : [ 0.8, 0.84, 0.71, 1.0 ],
					"fontface" : 0,
					"fontname" : "Arial",
					"fontsize" : 12.0,
					"hidden" : 0,
					"id" : "obj-81",
					"ignoreclick" : 0,
					"maxclass" : "newobj",
					"numinlets" : 1,
					"numoutlets" : 2,
					"outlettype" : [ "en1", "bang" ],
					"patching_rect" : [ 255.0, 92.0, 47.0, 20.0 ],
					"presentation" : 0,
					"presentation_rect" : [ 0.0, 0.0, 0.0, 0.0 ],
					"text" : "t en1 b",
					"textcolor" : [ 0.0, 0.0, 0.0, 1.0 ]
				}

			}
, 			{
				"box" : 				{
					"background" : 0,
					"bgcolor" : [ 1.0, 1.0, 1.0, 1.0 ],
					"color" : [ 0.8, 0.84, 0.71, 1.0 ],
					"fontface" : 0,
					"fontname" : "Arial",
					"fontsize" : 12.0,
					"hidden" : 0,
					"id" : "obj-83",
					"ignoreclick" : 0,
					"maxclass" : "newobj",
					"numinlets" : 1,
					"numoutlets" : 2,
					"outlettype" : [ "", "" ],
					"patching_rect" : [ 255.0, 122.0, 87.0, 20.0 ],
					"presentation" : 0,
					"presentation_rect" : [ 0.0, 0.0, 0.0, 0.0 ],
					"text" : "mxj net.local",
					"textcolor" : [ 0.0, 0.0, 0.0, 1.0 ]
				}

			}
, 			{
				"box" : 				{
					"background" : 0,
					"bgcolor" : [ 1.0, 1.0, 1.0, 0.0 ],
					"fontface" : 0,
					"fontname" : "Arial",
					"fontsize" : 12.0,
					"frgb" : [ 0.0, 0.0, 0.0, 1.0 ],
					"hidden" : 0,
					"id" : "obj-74",
					"ignoreclick" : 1,
					"maxclass" : "comment",
					"numinlets" : 1,
					"numoutlets" : 0,
					"patching_rect" : [ 281.0, 67.0, 189.0, 20.0 ],
					"presentation" : 0,
					"presentation_rect" : [ 0.0, 0.0, 0.0, 0.0 ],
					"text" : "OSX: en0 = ethernet | en1 = WiFi",
					"textcolor" : [ 0.0, 0.0, 0.0, 1.0 ],
					"underline" : 0
				}

			}
, 			{
				"box" : 				{
					"background" : 0,
					"bgcolor" : [ 1.0, 1.0, 1.0, 1.0 ],
					"color" : [ 0.8, 0.84, 0.71, 1.0 ],
					"fontface" : 0,
					"fontname" : "Arial",
					"fontsize" : 12.0,
					"hidden" : 0,
					"id" : "obj-71",
					"ignoreclick" : 0,
					"maxclass" : "newobj",
					"numinlets" : 1,
					"numoutlets" : 1,
					"outlettype" : [ "bang" ],
					"patching_rect" : [ 255.0, 40.0, 60.0, 20.0 ],
					"presentation" : 0,
					"presentation_rect" : [ 0.0, 0.0, 0.0, 0.0 ],
					"text" : "loadbang",
					"textcolor" : [ 0.0, 0.0, 0.0, 1.0 ]
				}

			}
, 			{
				"box" : 				{
					"background" : 0,
					"bgcolor" : [ 0.867, 0.867, 0.867, 1.0 ],
					"bgcolor2" : [ 0.867, 0.867, 0.867, 1.0 ],
					"fontface" : 0,
					"fontname" : "Arial",
					"fontsize" : 12.0,
					"gradient" : 0,
					"hidden" : 0,
					"id" : "obj-12",
					"ignoreclick" : 0,
					"maxclass" : "message",
					"numinlets" : 2,
					"numoutlets" : 1,
					"outlettype" : [ "" ],
					"patching_rect" : [ 36.0, 144.0, 37.0, 18.0 ],
					"presentation" : 0,
					"presentation_rect" : [ 0.0, 0.0, 0.0, 0.0 ],
					"text" : "reset",
					"textcolor" : [ 0.0, 0.0, 0.0, 1.0 ]
				}

			}
, 			{
				"box" : 				{
					"background" : 0,
					"bgcolor" : [ 1.0, 1.0, 1.0, 1.0 ],
					"color" : [ 0.8, 0.84, 0.71, 1.0 ],
					"fontface" : 0,
					"fontname" : "Arial",
					"fontsize" : 12.0,
					"hidden" : 0,
					"id" : "obj-37",
					"ignoreclick" : 0,
					"maxclass" : "newobj",
					"numinlets" : 1,
					"numoutlets" : 1,
					"outlettype" : [ "" ],
					"patching_rect" : [ 134.0, 119.0, 106.0, 20.0 ],
					"presentation" : 0,
					"presentation_rect" : [ 0.0, 0.0, 0.0, 0.0 ],
					"text" : "prepend osc_msg",
					"textcolor" : [ 0.0, 0.0, 0.0, 1.0 ]
				}

			}
, 			{
				"box" : 				{
					"background" : 0,
					"bgcolor" : [ 1.0, 1.0, 1.0, 1.0 ],
					"color" : [ 0.8, 0.84, 0.71, 1.0 ],
					"fontface" : 0,
					"fontname" : "Arial",
					"fontsize" : 12.0,
					"hidden" : 0,
					"id" : "obj-35",
					"ignoreclick" : 0,
					"maxclass" : "newobj",
					"numinlets" : 1,
					"numoutlets" : 1,
					"outlettype" : [ "" ],
					"patching_rect" : [ 134.0, 88.0, 99.0, 20.0 ],
					"presentation" : 0,
					"presentation_rect" : [ 0.0, 0.0, 0.0, 0.0 ],
					"text" : "udpreceive 1337",
					"textcolor" : [ 0.0, 0.0, 0.0, 1.0 ]
				}

			}
, 			{
				"box" : 				{
					"background" : 0,
					"bgcolor" : [ 1.0, 1.0, 1.0, 1.0 ],
					"color" : [ 0.8, 0.84, 0.71, 1.0 ],
					"fontface" : 0,
					"fontname" : "Arial",
					"fontsize" : 12.0,
					"hidden" : 0,
					"id" : "obj-19",
					"ignoreclick" : 0,
					"maxclass" : "newobj",
					"numinlets" : 1,
					"numoutlets" : 1,
					"outlettype" : [ "" ],
					"patching_rect" : [ 134.0, 165.0, 174.0, 20.0 ],
					"presentation" : 0,
					"presentation_rect" : [ 0.0, 0.0, 0.0, 0.0 ],
					"text" : "js MInC_PlayerManagement.js",
					"textcolor" : [ 0.0, 0.0, 0.0, 1.0 ]
				}

			}
, 			{
				"box" : 				{
					"angle" : 0.0,
					"background" : 0,
					"bgcolor" : [ 0.66667, 0.66667, 0.66667, 1.0 ],
					"border" : 0,
					"bordercolor" : [ 0.0, 0.0, 0.0, 1.0 ],
					"grad1" : [ 0.75, 0.79, 0.93, 1.0 ],
					"grad2" : [ 0.66, 0.66, 0.72, 1.0 ],
					"hidden" : 0,
					"id" : "obj-76",
					"ignoreclick" : 1,
					"maxclass" : "panel",
					"mode" : 0,
					"numinlets" : 1,
					"numoutlets" : 0,
					"patching_rect" : [ 21.0, 18.0, 514.0, 233.0 ],
					"presentation" : 0,
					"presentation_rect" : [ 0.0, 0.0, 0.0, 0.0 ],
					"rounded" : 8,
					"shadow" : 0
				}

			}
, 			{
				"box" : 				{
					"angle" : 0.0,
					"background" : 0,
					"bgcolor" : [ 0.66667, 0.66667, 0.66667, 1.0 ],
					"border" : 0,
					"bordercolor" : [ 0.0, 0.0, 0.0, 1.0 ],
					"grad1" : [ 0.75, 0.79, 0.93, 1.0 ],
					"grad2" : [ 0.66, 0.66, 0.72, 1.0 ],
					"hidden" : 0,
					"id" : "obj-14",
					"ignoreclick" : 1,
					"maxclass" : "panel",
					"mode" : 0,
					"numinlets" : 1,
					"numoutlets" : 0,
					"patching_rect" : [ 20.0, 278.0, 306.0, 154.0 ],
					"presentation" : 0,
					"presentation_rect" : [ 0.0, 0.0, 0.0, 0.0 ],
					"rounded" : 8,
					"shadow" : 0
				}

			}
 ],
		"lines" : [ 			{
				"patchline" : 				{
					"color" : [ 0.0, 0.0, 0.0, 1.0 ],
					"destination" : [ "obj-96", 0 ],
					"hidden" : 0,
					"midpoints" : [  ],
					"source" : [ "obj-10", 0 ]
				}

			}
, 			{
				"patchline" : 				{
					"color" : [ 0.0, 0.0, 0.0, 1.0 ],
					"destination" : [ "obj-19", 0 ],
					"hidden" : 0,
					"midpoints" : [  ],
					"source" : [ "obj-12", 0 ]
				}

			}
, 			{
				"patchline" : 				{
					"color" : [ 0.0, 0.0, 0.0, 1.0 ],
					"destination" : [ "obj-10", 0 ],
					"hidden" : 0,
					"midpoints" : [  ],
					"source" : [ "obj-13", 0 ]
				}

			}
, 			{
				"patchline" : 				{
					"color" : [ 0.0, 0.0, 0.0, 1.0 ],
					"destination" : [ "obj-10", 0 ],
					"hidden" : 0,
					"midpoints" : [  ],
					"source" : [ "obj-16", 0 ]
				}

			}
, 			{
				"patchline" : 				{
					"color" : [ 0.0, 0.0, 0.0, 1.0 ],
					"destination" : [ "obj-10", 0 ],
					"hidden" : 0,
					"midpoints" : [  ],
					"source" : [ "obj-17", 0 ]
				}

			}
, 			{
				"patchline" : 				{
					"color" : [ 0.0, 0.0, 0.0, 1.0 ],
					"destination" : [ "obj-21", 0 ],
					"hidden" : 0,
					"midpoints" : [  ],
					"source" : [ "obj-19", 0 ]
				}

			}
, 			{
				"patchline" : 				{
					"color" : [ 0.0, 0.0, 0.0, 1.0 ],
					"destination" : [ "obj-16", 0 ],
					"hidden" : 0,
					"midpoints" : [  ],
					"source" : [ "obj-2", 0 ]
				}

			}
, 			{
				"patchline" : 				{
					"color" : [ 0.0, 0.0, 0.0, 1.0 ],
					"destination" : [ "obj-89", 0 ],
					"hidden" : 0,
					"midpoints" : [  ],
					"source" : [ "obj-2", 0 ]
				}

			}
, 			{
				"patchline" : 				{
					"color" : [ 0.0, 0.0, 0.0, 1.0 ],
					"destination" : [ "obj-26", 0 ],
					"hidden" : 0,
					"midpoints" : [  ],
					"source" : [ "obj-22", 0 ]
				}

			}
, 			{
				"patchline" : 				{
					"color" : [ 0.0, 0.0, 0.0, 1.0 ],
					"destination" : [ "obj-27", 0 ],
					"hidden" : 0,
					"midpoints" : [  ],
					"source" : [ "obj-22", 1 ]
				}

			}
, 			{
				"patchline" : 				{
					"color" : [ 0.0, 0.0, 0.0, 1.0 ],
					"destination" : [ "obj-22", 0 ],
					"hidden" : 0,
					"midpoints" : [  ],
					"source" : [ "obj-24", 0 ]
				}

			}
, 			{
				"patchline" : 				{
					"color" : [ 0.0, 0.0, 0.0, 1.0 ],
					"destination" : [ "obj-28", 0 ],
					"hidden" : 0,
					"midpoints" : [  ],
					"source" : [ "obj-26", 0 ]
				}

			}
, 			{
				"patchline" : 				{
					"color" : [ 0.0, 0.0, 0.0, 1.0 ],
					"destination" : [ "obj-28", 1 ],
					"hidden" : 0,
					"midpoints" : [  ],
					"source" : [ "obj-27", 0 ]
				}

			}
, 			{
				"patchline" : 				{
					"color" : [ 0.0, 0.0, 0.0, 1.0 ],
					"destination" : [ "obj-31", 0 ],
					"hidden" : 0,
					"midpoints" : [  ],
					"source" : [ "obj-28", 0 ]
				}

			}
, 			{
				"patchline" : 				{
					"color" : [ 0.0, 0.0, 0.0, 1.0 ],
					"destination" : [ "obj-1", 0 ],
					"hidden" : 0,
					"midpoints" : [  ],
					"source" : [ "obj-3", 0 ]
				}

			}
, 			{
				"patchline" : 				{
					"color" : [ 0.0, 0.0, 0.0, 1.0 ],
					"destination" : [ "obj-19", 0 ],
					"hidden" : 0,
					"midpoints" : [  ],
					"source" : [ "obj-31", 0 ]
				}

			}
, 			{
				"patchline" : 				{
					"color" : [ 0.0, 0.0, 0.0, 1.0 ],
					"destination" : [ "obj-37", 0 ],
					"hidden" : 0,
					"midpoints" : [  ],
					"source" : [ "obj-35", 0 ]
				}

			}
, 			{
				"patchline" : 				{
					"color" : [ 0.0, 0.0, 0.0, 1.0 ],
					"destination" : [ "obj-19", 0 ],
					"hidden" : 0,
					"midpoints" : [  ],
					"source" : [ "obj-37", 0 ]
				}

			}
, 			{
				"patchline" : 				{
					"color" : [ 0.0, 0.0, 0.0, 1.0 ],
					"destination" : [ "obj-17", 0 ],
					"hidden" : 0,
					"midpoints" : [  ],
					"source" : [ "obj-6", 0 ]
				}

			}
, 			{
				"patchline" : 				{
					"color" : [ 0.0, 0.0, 0.0, 1.0 ],
					"destination" : [ "obj-5", 0 ],
					"hidden" : 0,
					"midpoints" : [  ],
					"source" : [ "obj-6", 0 ]
				}

			}
, 			{
				"patchline" : 				{
					"color" : [ 0.0, 0.0, 0.0, 1.0 ],
					"destination" : [ "obj-19", 0 ],
					"hidden" : 0,
					"midpoints" : [  ],
					"source" : [ "obj-7", 0 ]
				}

			}
, 			{
				"patchline" : 				{
					"color" : [ 0.0, 0.0, 0.0, 1.0 ],
					"destination" : [ "obj-24", 0 ],
					"hidden" : 0,
					"midpoints" : [ 264.5, 63.5, 367.5, 63.5 ],
					"source" : [ "obj-71", 0 ]
				}

			}
, 			{
				"patchline" : 				{
					"color" : [ 0.0, 0.0, 0.0, 1.0 ],
					"destination" : [ "obj-87", 0 ],
					"hidden" : 0,
					"midpoints" : [  ],
					"source" : [ "obj-71", 0 ]
				}

			}
, 			{
				"patchline" : 				{
					"color" : [ 0.0, 0.0, 0.0, 1.0 ],
					"destination" : [ "obj-83", 0 ],
					"hidden" : 0,
					"midpoints" : [  ],
					"source" : [ "obj-81", 1 ]
				}

			}
, 			{
				"patchline" : 				{
					"color" : [ 0.0, 0.0, 0.0, 1.0 ],
					"destination" : [ "obj-83", 0 ],
					"hidden" : 0,
					"midpoints" : [  ],
					"source" : [ "obj-81", 0 ]
				}

			}
, 			{
				"patchline" : 				{
					"color" : [ 0.0, 0.0, 0.0, 1.0 ],
					"destination" : [ "obj-19", 0 ],
					"hidden" : 0,
					"midpoints" : [  ],
					"source" : [ "obj-83", 0 ]
				}

			}
, 			{
				"patchline" : 				{
					"color" : [ 0.0, 0.0, 0.0, 1.0 ],
					"destination" : [ "obj-81", 0 ],
					"hidden" : 0,
					"midpoints" : [  ],
					"source" : [ "obj-87", 0 ]
				}

			}
, 			{
				"patchline" : 				{
					"color" : [ 0.0, 0.0, 0.0, 1.0 ],
					"destination" : [ "obj-7", 0 ],
					"hidden" : 0,
					"midpoints" : [  ],
					"source" : [ "obj-9", 0 ]
				}

			}
 ]
	}

}
