{
	"patcher" : 	{
		"fileversion" : 1,
		"rect" : [ 273.0, 82.0, 958.0, 607.0 ],
		"bglocked" : 0,
		"defrect" : [ 273.0, 82.0, 958.0, 607.0 ],
		"openrect" : [ 0.0, 0.0, 0.0, 0.0 ],
		"openinpresentation" : 0,
		"default_fontsize" : 12.0,
		"default_fontface" : 0,
		"default_fontname" : "Arial",
		"gridonopen" : 0,
		"gridsize" : [ 10.0, 10.0 ],
		"gridsnaponopen" : 0,
		"toolbarvisible" : 1,
		"boxanimatetime" : 200,
		"imprint" : 0,
		"enablehscroll" : 1,
		"enablevscroll" : 1,
		"devicewidth" : 0.0,
		"boxes" : [ 			{
				"box" : 				{
					"maxclass" : "inlet",
					"hint" : "qmetro to drive jit.lcd",
					"outlettype" : [ "" ],
					"patching_rect" : [ 50.0, 30.0, 25.0, 25.0 ],
					"numinlets" : 0,
					"id" : "obj-18",
					"numoutlets" : 1,
					"comment" : ""
				}

			}
, 			{
				"box" : 				{
					"maxclass" : "inlet",
					"hint" : "change seq speed",
					"outlettype" : [ "" ],
					"patching_rect" : [ 250.0, 30.0, 25.0, 25.0 ],
					"numinlets" : 0,
					"id" : "obj-16",
					"numoutlets" : 1,
					"comment" : ""
				}

			}
, 			{
				"box" : 				{
					"maxclass" : "outlet",
					"patching_rect" : [ 50.0, 510.0, 25.0, 25.0 ],
					"numinlets" : 1,
					"id" : "obj-6",
					"numoutlets" : 0,
					"comment" : ""
				}

			}
, 			{
				"box" : 				{
					"maxclass" : "button",
					"hidden" : 1,
					"outlettype" : [ "bang" ],
					"patching_rect" : [ 450.0, 50.0, 20.0, 20.0 ],
					"numinlets" : 1,
					"id" : "obj-22",
					"numoutlets" : 1
				}

			}
, 			{
				"box" : 				{
					"maxclass" : "newobj",
					"text" : "t b s b",
					"outlettype" : [ "bang", "", "bang" ],
					"fontsize" : 12.0,
					"patching_rect" : [ 450.0, 130.0, 58.0, 20.0 ],
					"numinlets" : 1,
					"id" : "obj-15",
					"fontname" : "Arial",
					"numoutlets" : 3
				}

			}
, 			{
				"box" : 				{
					"maxclass" : "comment",
					"text" : " change seq (0 - 4)",
					"fontsize" : 12.0,
					"patching_rect" : [ 500.0, 70.0, 110.0, 20.0 ],
					"numinlets" : 1,
					"id" : "obj-62",
					"fontname" : "Arial",
					"numoutlets" : 0
				}

			}
, 			{
				"box" : 				{
					"maxclass" : "number",
					"outlettype" : [ "int", "bang" ],
					"fontsize" : 12.0,
					"patching_rect" : [ 450.0, 70.0, 50.0, 20.0 ],
					"numinlets" : 1,
					"id" : "obj-60",
					"fontname" : "Arial",
					"minimum" : 0,
					"numoutlets" : 2,
					"maximum" : 4
				}

			}
, 			{
				"box" : 				{
					"maxclass" : "comment",
					"text" : "seq speed adjust",
					"fontsize" : 12.0,
					"patching_rect" : [ 330.0, 110.0, 102.0, 20.0 ],
					"numinlets" : 1,
					"id" : "obj-57",
					"fontname" : "Arial",
					"numoutlets" : 0
				}

			}
, 			{
				"box" : 				{
					"maxclass" : "newobj",
					"text" : "loadmess 3",
					"hidden" : 1,
					"outlettype" : [ "" ],
					"fontsize" : 12.0,
					"patching_rect" : [ 450.0, 10.0, 72.0, 20.0 ],
					"numinlets" : 1,
					"id" : "obj-55",
					"fontname" : "Arial",
					"numoutlets" : 1
				}

			}
, 			{
				"box" : 				{
					"maxclass" : "slider",
					"outlettype" : [ "" ],
					"patching_rect" : [ 250.0, 130.0, 185.0, 21.0 ],
					"size" : 20.0,
					"numinlets" : 1,
					"id" : "obj-11",
					"numoutlets" : 1,
					"mult" : 256.0,
					"min" : 256.0
				}

			}
, 			{
				"box" : 				{
					"maxclass" : "button",
					"outlettype" : [ "bang" ],
					"patching_rect" : [ 380.0, 200.0, 20.0, 20.0 ],
					"numinlets" : 1,
					"id" : "obj-67",
					"numoutlets" : 1
				}

			}
, 			{
				"box" : 				{
					"maxclass" : "number",
					"outlettype" : [ "int", "bang" ],
					"fontsize" : 12.0,
					"patching_rect" : [ 520.0, 190.0, 50.0, 20.0 ],
					"numinlets" : 1,
					"id" : "obj-61",
					"fontname" : "Arial",
					"minimum" : 256,
					"numoutlets" : 2,
					"maximum" : 10000
				}

			}
, 			{
				"box" : 				{
					"maxclass" : "newobj",
					"text" : "coll seqlist",
					"outlettype" : [ "", "", "", "" ],
					"fontsize" : 12.0,
					"patching_rect" : [ 450.0, 90.0, 66.0, 20.0 ],
					"numinlets" : 1,
					"id" : "obj-59",
					"fontname" : "Arial",
					"numoutlets" : 4,
					"saved_object_attributes" : 					{
						"embed" : 0
					}

				}

			}
, 			{
				"box" : 				{
					"maxclass" : "message",
					"text" : "stop",
					"outlettype" : [ "" ],
					"fontsize" : 12.0,
					"patching_rect" : [ 580.0, 220.0, 33.0, 18.0 ],
					"numinlets" : 2,
					"id" : "obj-50",
					"fontname" : "Arial",
					"numoutlets" : 1
				}

			}
, 			{
				"box" : 				{
					"maxclass" : "message",
					"text" : "start $1",
					"outlettype" : [ "" ],
					"fontsize" : 12.0,
					"patching_rect" : [ 520.0, 220.0, 51.0, 18.0 ],
					"numinlets" : 2,
					"id" : "obj-23",
					"fontname" : "Arial",
					"numoutlets" : 1
				}

			}
, 			{
				"box" : 				{
					"maxclass" : "message",
					"text" : "read $1",
					"outlettype" : [ "" ],
					"fontsize" : 12.0,
					"patching_rect" : [ 450.0, 110.0, 51.0, 18.0 ],
					"numinlets" : 2,
					"id" : "obj-19",
					"fontname" : "Arial",
					"numoutlets" : 1
				}

			}
, 			{
				"box" : 				{
					"maxclass" : "newobj",
					"text" : "midiparse",
					"outlettype" : [ "", "", "", "int", "int", "int", "int" ],
					"fontsize" : 12.0,
					"patching_rect" : [ 470.0, 290.0, 71.0, 20.0 ],
					"numinlets" : 1,
					"id" : "obj-53",
					"fontname" : "Arial",
					"numoutlets" : 7
				}

			}
, 			{
				"box" : 				{
					"maxclass" : "newobj",
					"text" : "seq",
					"outlettype" : [ "int", "bang" ],
					"fontsize" : 12.0,
					"patching_rect" : [ 470.0, 260.0, 32.5, 20.0 ],
					"numinlets" : 1,
					"id" : "obj-17",
					"fontname" : "Arial",
					"numoutlets" : 2
				}

			}
, 			{
				"box" : 				{
					"maxclass" : "newobj",
					"text" : "route 60 62 64 67 69 71 72 74",
					"outlettype" : [ "", "", "", "", "", "", "", "", "" ],
					"fontsize" : 12.0,
					"patching_rect" : [ 470.0, 320.0, 171.0, 20.0 ],
					"numinlets" : 1,
					"id" : "obj-3",
					"fontname" : "Arial",
					"numoutlets" : 9
				}

			}
, 			{
				"box" : 				{
					"maxclass" : "newobj",
					"text" : "select 0",
					"outlettype" : [ "bang", "" ],
					"fontsize" : 12.0,
					"patching_rect" : [ 760.0, 520.0, 52.0, 20.0 ],
					"numinlets" : 2,
					"id" : "obj-34",
					"fontname" : "Arial",
					"numoutlets" : 2
				}

			}
, 			{
				"box" : 				{
					"maxclass" : "led",
					"outlettype" : [ "int" ],
					"oncolor" : [ 0.0, 0.298039, 1.0, 1.0 ],
					"patching_rect" : [ 760.0, 490.0, 30.0, 30.0 ],
					"offcolor" : [ 0.0, 0.090196, 0.611765, 1.0 ],
					"numinlets" : 1,
					"id" : "obj-35",
					"numoutlets" : 1
				}

			}
, 			{
				"box" : 				{
					"maxclass" : "newobj",
					"text" : "select 0",
					"outlettype" : [ "bang", "" ],
					"fontsize" : 12.0,
					"patching_rect" : [ 650.0, 520.0, 52.0, 20.0 ],
					"numinlets" : 2,
					"id" : "obj-36",
					"fontname" : "Arial",
					"numoutlets" : 2
				}

			}
, 			{
				"box" : 				{
					"maxclass" : "led",
					"outlettype" : [ "int" ],
					"oncolor" : [ 0.501961, 0.0, 1.0, 1.0 ],
					"patching_rect" : [ 650.0, 490.0, 30.0, 30.0 ],
					"offcolor" : [ 0.243137, 0.0, 0.611765, 1.0 ],
					"numinlets" : 1,
					"id" : "obj-38",
					"numoutlets" : 1
				}

			}
, 			{
				"box" : 				{
					"maxclass" : "newobj",
					"text" : "select 0",
					"outlettype" : [ "bang", "" ],
					"fontsize" : 12.0,
					"patching_rect" : [ 560.0, 520.0, 52.0, 20.0 ],
					"numinlets" : 2,
					"id" : "obj-39",
					"fontname" : "Arial",
					"numoutlets" : 2
				}

			}
, 			{
				"box" : 				{
					"maxclass" : "led",
					"outlettype" : [ "int" ],
					"oncolor" : [ 0.94902, 0.0, 1.0, 1.0 ],
					"patching_rect" : [ 560.0, 490.0, 30.0, 30.0 ],
					"offcolor" : [ 0.521569, 0.003922, 0.65098, 1.0 ],
					"numinlets" : 1,
					"id" : "obj-40",
					"numoutlets" : 1
				}

			}
, 			{
				"box" : 				{
					"maxclass" : "newobj",
					"text" : "select 0",
					"outlettype" : [ "bang", "" ],
					"fontsize" : 12.0,
					"patching_rect" : [ 470.0, 520.0, 52.0, 20.0 ],
					"numinlets" : 2,
					"id" : "obj-42",
					"fontname" : "Arial",
					"numoutlets" : 2
				}

			}
, 			{
				"box" : 				{
					"maxclass" : "led",
					"outlettype" : [ "int" ],
					"patching_rect" : [ 470.0, 490.0, 30.0, 30.0 ],
					"offcolor" : [ 0.611765, 0.0, 0.0, 1.0 ],
					"numinlets" : 1,
					"id" : "obj-44",
					"numoutlets" : 1
				}

			}
, 			{
				"box" : 				{
					"maxclass" : "newobj",
					"text" : "select 0",
					"outlettype" : [ "bang", "" ],
					"fontsize" : 12.0,
					"patching_rect" : [ 850.0, 410.0, 52.0, 20.0 ],
					"numinlets" : 2,
					"id" : "obj-32",
					"fontname" : "Arial",
					"numoutlets" : 2
				}

			}
, 			{
				"box" : 				{
					"maxclass" : "led",
					"outlettype" : [ "int" ],
					"oncolor" : [ 0.898039, 1.0, 0.0, 1.0 ],
					"patching_rect" : [ 850.0, 380.0, 30.0, 30.0 ],
					"offcolor" : [ 0.580392, 0.611765, 0.0, 1.0 ],
					"numinlets" : 1,
					"id" : "obj-33",
					"numoutlets" : 1
				}

			}
, 			{
				"box" : 				{
					"maxclass" : "newobj",
					"text" : "select 0",
					"outlettype" : [ "bang", "" ],
					"fontsize" : 12.0,
					"patching_rect" : [ 740.0, 410.0, 52.0, 20.0 ],
					"numinlets" : 2,
					"id" : "obj-26",
					"fontname" : "Arial",
					"numoutlets" : 2
				}

			}
, 			{
				"box" : 				{
					"maxclass" : "led",
					"outlettype" : [ "int" ],
					"oncolor" : [ 0.6, 1.0, 0.0, 1.0 ],
					"patching_rect" : [ 740.0, 380.0, 30.0, 30.0 ],
					"offcolor" : [ 0.368627, 0.611765, 0.0, 1.0 ],
					"numinlets" : 1,
					"id" : "obj-27",
					"numoutlets" : 1
				}

			}
, 			{
				"box" : 				{
					"maxclass" : "newobj",
					"text" : "select 0",
					"outlettype" : [ "bang", "" ],
					"fontsize" : 12.0,
					"patching_rect" : [ 650.0, 410.0, 52.0, 20.0 ],
					"numinlets" : 2,
					"id" : "obj-24",
					"fontname" : "Arial",
					"numoutlets" : 2
				}

			}
, 			{
				"box" : 				{
					"maxclass" : "led",
					"outlettype" : [ "int" ],
					"oncolor" : [ 0.0, 0.8, 0.396078, 1.0 ],
					"patching_rect" : [ 650.0, 380.0, 30.0, 30.0 ],
					"offcolor" : [ 0.078431, 0.533333, 0.0, 1.0 ],
					"numinlets" : 1,
					"id" : "obj-25",
					"numoutlets" : 1
				}

			}
, 			{
				"box" : 				{
					"maxclass" : "newobj",
					"text" : "select 0",
					"outlettype" : [ "bang", "" ],
					"fontsize" : 12.0,
					"patching_rect" : [ 560.0, 410.0, 52.0, 20.0 ],
					"numinlets" : 2,
					"id" : "obj-12",
					"fontname" : "Arial",
					"numoutlets" : 2
				}

			}
, 			{
				"box" : 				{
					"maxclass" : "led",
					"outlettype" : [ "int" ],
					"oncolor" : [ 0.0, 0.898039, 1.0, 1.0 ],
					"patching_rect" : [ 560.0, 380.0, 30.0, 30.0 ],
					"offcolor" : [ 0.0, 0.580392, 0.611765, 1.0 ],
					"numinlets" : 1,
					"id" : "obj-5",
					"numoutlets" : 1
				}

			}
, 			{
				"box" : 				{
					"maxclass" : "newobj",
					"text" : "p yellow_button",
					"outlettype" : [ "" ],
					"fontsize" : 12.0,
					"patching_rect" : [ 850.0, 440.0, 94.0, 20.0 ],
					"numinlets" : 2,
					"id" : "obj-108",
					"fontname" : "Arial",
					"numoutlets" : 1,
					"patcher" : 					{
						"fileversion" : 1,
						"rect" : [ 25.0, 69.0, 441.0, 288.0 ],
						"bglocked" : 0,
						"defrect" : [ 25.0, 69.0, 441.0, 288.0 ],
						"openrect" : [ 0.0, 0.0, 0.0, 0.0 ],
						"openinpresentation" : 0,
						"default_fontsize" : 12.0,
						"default_fontface" : 0,
						"default_fontname" : "Arial",
						"gridonopen" : 0,
						"gridsize" : [ 10.0, 10.0 ],
						"gridsnaponopen" : 0,
						"toolbarvisible" : 1,
						"boxanimatetime" : 200,
						"imprint" : 0,
						"enablehscroll" : 1,
						"enablevscroll" : 1,
						"devicewidth" : 0.0,
						"boxes" : [ 							{
								"box" : 								{
									"maxclass" : "message",
									"text" : "drawpict yellowbutt2 360 0",
									"outlettype" : [ "" ],
									"fontsize" : 12.0,
									"patching_rect" : [ 30.0, 60.0, 152.0, 18.0 ],
									"numinlets" : 2,
									"id" : "obj-2",
									"fontname" : "Arial",
									"numoutlets" : 1
								}

							}
, 							{
								"box" : 								{
									"maxclass" : "newobj",
									"text" : "loadbang",
									"outlettype" : [ "bang" ],
									"fontsize" : 12.0,
									"patching_rect" : [ 240.0, 100.0, 60.0, 20.0 ],
									"numinlets" : 1,
									"id" : "obj-1",
									"fontname" : "Arial",
									"numoutlets" : 1
								}

							}
, 							{
								"box" : 								{
									"maxclass" : "message",
									"text" : "drawpict yellowbutt1 360 0",
									"outlettype" : [ "" ],
									"fontsize" : 12.0,
									"patching_rect" : [ 190.0, 60.0, 152.0, 18.0 ],
									"numinlets" : 2,
									"id" : "obj-61",
									"fontname" : "Arial",
									"numoutlets" : 1
								}

							}
, 							{
								"box" : 								{
									"maxclass" : "message",
									"text" : "readpict yellowbutt1 yellow1.png",
									"outlettype" : [ "" ],
									"fontsize" : 11.595187,
									"patching_rect" : [ 240.0, 140.0, 177.0, 18.0 ],
									"numinlets" : 2,
									"id" : "obj-62",
									"fontname" : "Arial",
									"numoutlets" : 1
								}

							}
, 							{
								"box" : 								{
									"maxclass" : "message",
									"text" : "readpict yellowbutt2 yellow2.png",
									"outlettype" : [ "" ],
									"fontsize" : 11.595187,
									"patching_rect" : [ 200.0, 190.0, 177.0, 18.0 ],
									"numinlets" : 2,
									"id" : "obj-63",
									"fontname" : "Arial",
									"numoutlets" : 1
								}

							}
, 							{
								"box" : 								{
									"maxclass" : "inlet",
									"outlettype" : [ "bang" ],
									"patching_rect" : [ 30.0, 16.0, 25.0, 25.0 ],
									"numinlets" : 0,
									"id" : "obj-105",
									"numoutlets" : 1,
									"comment" : ""
								}

							}
, 							{
								"box" : 								{
									"maxclass" : "inlet",
									"outlettype" : [ "" ],
									"patching_rect" : [ 190.0, 16.0, 25.0, 25.0 ],
									"numinlets" : 0,
									"id" : "obj-106",
									"numoutlets" : 1,
									"comment" : ""
								}

							}
, 							{
								"box" : 								{
									"maxclass" : "outlet",
									"patching_rect" : [ 100.0, 240.0, 25.0, 25.0 ],
									"numinlets" : 1,
									"id" : "obj-107",
									"numoutlets" : 0,
									"comment" : ""
								}

							}
 ],
						"lines" : [ 							{
								"patchline" : 								{
									"source" : [ "obj-63", 0 ],
									"destination" : [ "obj-107", 0 ],
									"hidden" : 0,
									"midpoints" : [ 209.5, 227.0, 109.5, 227.0 ]
								}

							}
, 							{
								"patchline" : 								{
									"source" : [ "obj-62", 0 ],
									"destination" : [ "obj-107", 0 ],
									"hidden" : 0,
									"midpoints" : [ 249.5, 176.0, 109.5, 176.0 ]
								}

							}
, 							{
								"patchline" : 								{
									"source" : [ "obj-61", 0 ],
									"destination" : [ "obj-107", 0 ],
									"hidden" : 0,
									"midpoints" : [ 199.5, 176.0, 109.5, 176.0 ]
								}

							}
, 							{
								"patchline" : 								{
									"source" : [ "obj-2", 0 ],
									"destination" : [ "obj-107", 0 ],
									"hidden" : 0,
									"midpoints" : [ 39.5, 227.0, 109.5, 227.0 ]
								}

							}
, 							{
								"patchline" : 								{
									"source" : [ "obj-106", 0 ],
									"destination" : [ "obj-61", 0 ],
									"hidden" : 0,
									"midpoints" : [ 199.5, 41.0, 199.5, 41.0 ]
								}

							}
, 							{
								"patchline" : 								{
									"source" : [ "obj-105", 0 ],
									"destination" : [ "obj-2", 0 ],
									"hidden" : 0,
									"midpoints" : [ 39.5, 41.0, 39.5, 41.0 ]
								}

							}
, 							{
								"patchline" : 								{
									"source" : [ "obj-1", 0 ],
									"destination" : [ "obj-63", 0 ],
									"hidden" : 0,
									"midpoints" : [ 249.5, 122.0, 209.5, 122.0 ]
								}

							}
, 							{
								"patchline" : 								{
									"source" : [ "obj-1", 0 ],
									"destination" : [ "obj-62", 0 ],
									"hidden" : 0,
									"midpoints" : [ 249.5, 122.0, 249.5, 122.0 ]
								}

							}
 ]
					}
,
					"saved_object_attributes" : 					{
						"default_fontface" : 0,
						"fontface" : 0,
						"fontsize" : 12.0,
						"default_fontname" : "Arial",
						"default_fontsize" : 12.0,
						"fontname" : "Arial",
						"globalpatchername" : ""
					}

				}

			}
, 			{
				"box" : 				{
					"maxclass" : "newobj",
					"text" : "p seafoam_button",
					"outlettype" : [ "" ],
					"fontsize" : 12.0,
					"patching_rect" : [ 740.0, 440.0, 107.0, 20.0 ],
					"numinlets" : 2,
					"id" : "obj-104",
					"fontname" : "Arial",
					"numoutlets" : 1,
					"patcher" : 					{
						"fileversion" : 1,
						"rect" : [ 20.0, 53.0, 504.0, 281.0 ],
						"bglocked" : 0,
						"defrect" : [ 20.0, 53.0, 504.0, 281.0 ],
						"openrect" : [ 0.0, 0.0, 0.0, 0.0 ],
						"openinpresentation" : 0,
						"default_fontsize" : 12.0,
						"default_fontface" : 0,
						"default_fontname" : "Arial",
						"gridonopen" : 0,
						"gridsize" : [ 10.0, 10.0 ],
						"gridsnaponopen" : 0,
						"toolbarvisible" : 1,
						"boxanimatetime" : 200,
						"imprint" : 0,
						"enablehscroll" : 1,
						"enablevscroll" : 1,
						"devicewidth" : 0.0,
						"boxes" : [ 							{
								"box" : 								{
									"maxclass" : "message",
									"text" : "drawpict foambutt2 240 0",
									"outlettype" : [ "" ],
									"fontsize" : 12.0,
									"patching_rect" : [ 60.0, 70.0, 145.0, 18.0 ],
									"numinlets" : 2,
									"id" : "obj-2",
									"fontname" : "Arial",
									"numoutlets" : 1
								}

							}
, 							{
								"box" : 								{
									"maxclass" : "newobj",
									"text" : "loadbang",
									"outlettype" : [ "bang" ],
									"fontsize" : 12.0,
									"patching_rect" : [ 310.0, 110.0, 60.0, 20.0 ],
									"numinlets" : 1,
									"id" : "obj-1",
									"fontname" : "Arial",
									"numoutlets" : 1
								}

							}
, 							{
								"box" : 								{
									"maxclass" : "message",
									"text" : "drawpict foambutt1 240 0",
									"outlettype" : [ "" ],
									"fontsize" : 12.0,
									"patching_rect" : [ 230.0, 70.0, 145.0, 18.0 ],
									"numinlets" : 2,
									"id" : "obj-68",
									"fontname" : "Arial",
									"numoutlets" : 1
								}

							}
, 							{
								"box" : 								{
									"maxclass" : "message",
									"text" : "readpict foambutt1 seafoam1.png",
									"outlettype" : [ "" ],
									"fontsize" : 11.595187,
									"patching_rect" : [ 310.0, 140.0, 183.0, 18.0 ],
									"numinlets" : 2,
									"id" : "obj-69",
									"fontname" : "Arial",
									"numoutlets" : 1
								}

							}
, 							{
								"box" : 								{
									"maxclass" : "message",
									"text" : "readpict foambutt2 seafoam2.png",
									"outlettype" : [ "" ],
									"fontsize" : 11.595187,
									"patching_rect" : [ 280.0, 170.0, 183.0, 18.0 ],
									"numinlets" : 2,
									"id" : "obj-70",
									"fontname" : "Arial",
									"numoutlets" : 1
								}

							}
, 							{
								"box" : 								{
									"maxclass" : "inlet",
									"outlettype" : [ "bang" ],
									"patching_rect" : [ 60.0, 30.0, 25.0, 25.0 ],
									"numinlets" : 0,
									"id" : "obj-101",
									"numoutlets" : 1,
									"comment" : ""
								}

							}
, 							{
								"box" : 								{
									"maxclass" : "inlet",
									"outlettype" : [ "" ],
									"patching_rect" : [ 230.0, 34.0, 25.0, 25.0 ],
									"numinlets" : 0,
									"id" : "obj-102",
									"numoutlets" : 1,
									"comment" : ""
								}

							}
, 							{
								"box" : 								{
									"maxclass" : "outlet",
									"patching_rect" : [ 120.0, 230.0, 25.0, 25.0 ],
									"numinlets" : 1,
									"id" : "obj-103",
									"numoutlets" : 0,
									"comment" : ""
								}

							}
 ],
						"lines" : [ 							{
								"patchline" : 								{
									"source" : [ "obj-70", 0 ],
									"destination" : [ "obj-103", 0 ],
									"hidden" : 0,
									"midpoints" : [ 289.5, 216.0, 129.5, 216.0 ]
								}

							}
, 							{
								"patchline" : 								{
									"source" : [ "obj-69", 0 ],
									"destination" : [ "obj-103", 0 ],
									"hidden" : 0,
									"midpoints" : [ 319.5, 159.0, 129.5, 159.0 ]
								}

							}
, 							{
								"patchline" : 								{
									"source" : [ "obj-68", 0 ],
									"destination" : [ "obj-103", 0 ],
									"hidden" : 0,
									"midpoints" : [ 239.5, 216.0, 129.5, 216.0 ]
								}

							}
, 							{
								"patchline" : 								{
									"source" : [ "obj-2", 0 ],
									"destination" : [ "obj-103", 0 ],
									"hidden" : 0,
									"midpoints" : [ 69.5, 216.0, 129.5, 216.0 ]
								}

							}
, 							{
								"patchline" : 								{
									"source" : [ "obj-102", 0 ],
									"destination" : [ "obj-68", 0 ],
									"hidden" : 0,
									"midpoints" : [ 239.5, 60.0, 239.5, 60.0 ]
								}

							}
, 							{
								"patchline" : 								{
									"source" : [ "obj-101", 0 ],
									"destination" : [ "obj-2", 0 ],
									"hidden" : 0,
									"midpoints" : [ 69.5, 57.0, 69.5, 57.0 ]
								}

							}
, 							{
								"patchline" : 								{
									"source" : [ "obj-1", 0 ],
									"destination" : [ "obj-70", 0 ],
									"hidden" : 0,
									"midpoints" : [ 319.5, 132.0, 289.5, 132.0 ]
								}

							}
, 							{
								"patchline" : 								{
									"source" : [ "obj-1", 0 ],
									"destination" : [ "obj-69", 0 ],
									"hidden" : 0,
									"midpoints" : [ 319.5, 132.0, 319.5, 132.0 ]
								}

							}
 ]
					}
,
					"saved_object_attributes" : 					{
						"default_fontface" : 0,
						"fontface" : 0,
						"fontsize" : 12.0,
						"default_fontname" : "Arial",
						"default_fontsize" : 12.0,
						"fontname" : "Arial",
						"globalpatchername" : ""
					}

				}

			}
, 			{
				"box" : 				{
					"maxclass" : "newobj",
					"text" : "p green_button",
					"outlettype" : [ "" ],
					"fontsize" : 12.0,
					"patching_rect" : [ 650.0, 440.0, 91.0, 20.0 ],
					"numinlets" : 2,
					"id" : "obj-100",
					"fontname" : "Arial",
					"numoutlets" : 1,
					"patcher" : 					{
						"fileversion" : 1,
						"rect" : [ 25.0, 69.0, 480.0, 292.0 ],
						"bglocked" : 0,
						"defrect" : [ 25.0, 69.0, 480.0, 292.0 ],
						"openrect" : [ 0.0, 0.0, 0.0, 0.0 ],
						"openinpresentation" : 0,
						"default_fontsize" : 12.0,
						"default_fontface" : 0,
						"default_fontname" : "Arial",
						"gridonopen" : 0,
						"gridsize" : [ 10.0, 10.0 ],
						"gridsnaponopen" : 0,
						"toolbarvisible" : 1,
						"boxanimatetime" : 200,
						"imprint" : 0,
						"enablehscroll" : 1,
						"enablevscroll" : 1,
						"devicewidth" : 0.0,
						"boxes" : [ 							{
								"box" : 								{
									"maxclass" : "message",
									"text" : "drawpict greenbutt2 120 0",
									"outlettype" : [ "" ],
									"fontsize" : 12.0,
									"patching_rect" : [ 50.0, 90.0, 149.0, 18.0 ],
									"numinlets" : 2,
									"id" : "obj-2",
									"fontname" : "Arial",
									"numoutlets" : 1
								}

							}
, 							{
								"box" : 								{
									"maxclass" : "newobj",
									"text" : "loadbang",
									"outlettype" : [ "bang" ],
									"fontsize" : 12.0,
									"patching_rect" : [ 290.0, 120.0, 60.0, 20.0 ],
									"numinlets" : 1,
									"id" : "obj-1",
									"fontname" : "Arial",
									"numoutlets" : 1
								}

							}
, 							{
								"box" : 								{
									"maxclass" : "message",
									"text" : "drawpict greenbutt1 120 0",
									"outlettype" : [ "" ],
									"fontsize" : 12.0,
									"patching_rect" : [ 220.0, 90.0, 149.0, 18.0 ],
									"numinlets" : 2,
									"id" : "obj-75",
									"fontname" : "Arial",
									"numoutlets" : 1
								}

							}
, 							{
								"box" : 								{
									"maxclass" : "message",
									"text" : "readpict greenbutt1 green1.png",
									"outlettype" : [ "" ],
									"fontsize" : 11.595187,
									"patching_rect" : [ 290.0, 150.0, 172.0, 18.0 ],
									"numinlets" : 2,
									"id" : "obj-76",
									"fontname" : "Arial",
									"numoutlets" : 1
								}

							}
, 							{
								"box" : 								{
									"maxclass" : "message",
									"text" : "readpict greenbutt2 green2.png",
									"outlettype" : [ "" ],
									"fontsize" : 11.595187,
									"patching_rect" : [ 260.0, 190.0, 172.0, 18.0 ],
									"numinlets" : 2,
									"id" : "obj-77",
									"fontname" : "Arial",
									"numoutlets" : 1
								}

							}
, 							{
								"box" : 								{
									"maxclass" : "inlet",
									"outlettype" : [ "bang" ],
									"patching_rect" : [ 50.0, 46.0, 25.0, 25.0 ],
									"numinlets" : 0,
									"id" : "obj-97",
									"numoutlets" : 1,
									"comment" : ""
								}

							}
, 							{
								"box" : 								{
									"maxclass" : "inlet",
									"outlettype" : [ "" ],
									"patching_rect" : [ 220.0, 50.0, 25.0, 25.0 ],
									"numinlets" : 0,
									"id" : "obj-98",
									"numoutlets" : 1,
									"comment" : ""
								}

							}
, 							{
								"box" : 								{
									"maxclass" : "outlet",
									"patching_rect" : [ 150.0, 250.0, 25.0, 25.0 ],
									"numinlets" : 1,
									"id" : "obj-99",
									"numoutlets" : 0,
									"comment" : ""
								}

							}
 ],
						"lines" : [ 							{
								"patchline" : 								{
									"source" : [ "obj-98", 0 ],
									"destination" : [ "obj-75", 0 ],
									"hidden" : 0,
									"midpoints" : [ 229.5, 75.0, 229.5, 75.0 ]
								}

							}
, 							{
								"patchline" : 								{
									"source" : [ "obj-97", 0 ],
									"destination" : [ "obj-2", 0 ],
									"hidden" : 0,
									"midpoints" : [ 59.5, 72.0, 59.5, 72.0 ]
								}

							}
, 							{
								"patchline" : 								{
									"source" : [ "obj-77", 0 ],
									"destination" : [ "obj-99", 0 ],
									"hidden" : 0,
									"midpoints" : [ 269.5, 237.0, 159.5, 237.0 ]
								}

							}
, 							{
								"patchline" : 								{
									"source" : [ "obj-76", 0 ],
									"destination" : [ "obj-99", 0 ],
									"hidden" : 0,
									"midpoints" : [ 299.5, 168.0, 159.5, 168.0 ]
								}

							}
, 							{
								"patchline" : 								{
									"source" : [ "obj-75", 0 ],
									"destination" : [ "obj-99", 0 ],
									"hidden" : 0,
									"midpoints" : [ 229.5, 237.0, 159.5, 237.0 ]
								}

							}
, 							{
								"patchline" : 								{
									"source" : [ "obj-2", 0 ],
									"destination" : [ "obj-99", 0 ],
									"hidden" : 0,
									"midpoints" : [ 59.5, 237.0, 159.5, 237.0 ]
								}

							}
, 							{
								"patchline" : 								{
									"source" : [ "obj-1", 0 ],
									"destination" : [ "obj-77", 0 ],
									"hidden" : 0,
									"midpoints" : [ 299.5, 141.0, 269.5, 141.0 ]
								}

							}
, 							{
								"patchline" : 								{
									"source" : [ "obj-1", 0 ],
									"destination" : [ "obj-76", 0 ],
									"hidden" : 0,
									"midpoints" : [ 299.5, 141.0, 299.5, 141.0 ]
								}

							}
 ]
					}
,
					"saved_object_attributes" : 					{
						"default_fontface" : 0,
						"fontface" : 0,
						"fontsize" : 12.0,
						"default_fontname" : "Arial",
						"default_fontsize" : 12.0,
						"fontname" : "Arial",
						"globalpatchername" : ""
					}

				}

			}
, 			{
				"box" : 				{
					"maxclass" : "newobj",
					"text" : "p aqua_button",
					"outlettype" : [ "" ],
					"fontsize" : 12.0,
					"patching_rect" : [ 560.0, 440.0, 87.0, 20.0 ],
					"numinlets" : 2,
					"id" : "obj-96",
					"fontname" : "Arial",
					"numoutlets" : 1,
					"patcher" : 					{
						"fileversion" : 1,
						"rect" : [ 13.0, 44.0, 461.0, 295.0 ],
						"bglocked" : 0,
						"defrect" : [ 13.0, 44.0, 461.0, 295.0 ],
						"openrect" : [ 0.0, 0.0, 0.0, 0.0 ],
						"openinpresentation" : 0,
						"default_fontsize" : 12.0,
						"default_fontface" : 0,
						"default_fontname" : "Arial",
						"gridonopen" : 0,
						"gridsize" : [ 10.0, 10.0 ],
						"gridsnaponopen" : 0,
						"toolbarvisible" : 1,
						"boxanimatetime" : 200,
						"imprint" : 0,
						"enablehscroll" : 1,
						"enablevscroll" : 1,
						"devicewidth" : 0.0,
						"boxes" : [ 							{
								"box" : 								{
									"maxclass" : "message",
									"text" : "drawpict aquabutt2",
									"outlettype" : [ "" ],
									"fontsize" : 12.0,
									"patching_rect" : [ 70.0, 90.0, 112.0, 18.0 ],
									"numinlets" : 2,
									"id" : "obj-2",
									"fontname" : "Arial",
									"numoutlets" : 1
								}

							}
, 							{
								"box" : 								{
									"maxclass" : "newobj",
									"text" : "loadbang",
									"outlettype" : [ "bang" ],
									"fontsize" : 12.0,
									"patching_rect" : [ 270.0, 140.0, 60.0, 20.0 ],
									"numinlets" : 1,
									"id" : "obj-1",
									"fontname" : "Arial",
									"numoutlets" : 1
								}

							}
, 							{
								"box" : 								{
									"maxclass" : "message",
									"text" : "drawpict aquabutt1",
									"outlettype" : [ "" ],
									"fontsize" : 12.0,
									"patching_rect" : [ 230.0, 100.0, 112.0, 18.0 ],
									"numinlets" : 2,
									"id" : "obj-83",
									"fontname" : "Arial",
									"numoutlets" : 1
								}

							}
, 							{
								"box" : 								{
									"maxclass" : "message",
									"text" : "readpict aquabutt1 aqua1.png",
									"outlettype" : [ "" ],
									"fontsize" : 11.595187,
									"patching_rect" : [ 270.0, 170.0, 165.0, 18.0 ],
									"numinlets" : 2,
									"id" : "obj-84",
									"fontname" : "Arial",
									"numoutlets" : 1
								}

							}
, 							{
								"box" : 								{
									"maxclass" : "message",
									"text" : "readpict aquabutt2 aqua2.png",
									"outlettype" : [ "" ],
									"fontsize" : 11.595187,
									"patching_rect" : [ 240.0, 200.0, 165.0, 18.0 ],
									"numinlets" : 2,
									"id" : "obj-85",
									"fontname" : "Arial",
									"numoutlets" : 1
								}

							}
, 							{
								"box" : 								{
									"maxclass" : "inlet",
									"outlettype" : [ "bang" ],
									"patching_rect" : [ 70.0, 60.0, 25.0, 25.0 ],
									"numinlets" : 0,
									"id" : "obj-93",
									"numoutlets" : 1,
									"comment" : ""
								}

							}
, 							{
								"box" : 								{
									"maxclass" : "inlet",
									"outlettype" : [ "" ],
									"patching_rect" : [ 230.0, 60.0, 25.0, 25.0 ],
									"numinlets" : 0,
									"id" : "obj-94",
									"numoutlets" : 1,
									"comment" : ""
								}

							}
, 							{
								"box" : 								{
									"maxclass" : "outlet",
									"patching_rect" : [ 80.0, 250.0, 25.0, 25.0 ],
									"numinlets" : 1,
									"id" : "obj-95",
									"numoutlets" : 0,
									"comment" : ""
								}

							}
 ],
						"lines" : [ 							{
								"patchline" : 								{
									"source" : [ "obj-94", 0 ],
									"destination" : [ "obj-83", 0 ],
									"hidden" : 0,
									"midpoints" : [ 239.5, 87.0, 239.5, 87.0 ]
								}

							}
, 							{
								"patchline" : 								{
									"source" : [ "obj-93", 0 ],
									"destination" : [ "obj-2", 0 ],
									"hidden" : 0,
									"midpoints" : [ 79.5, 87.0, 79.5, 87.0 ]
								}

							}
, 							{
								"patchline" : 								{
									"source" : [ "obj-85", 0 ],
									"destination" : [ "obj-95", 0 ],
									"hidden" : 0,
									"midpoints" : [ 249.5, 237.0, 89.5, 237.0 ]
								}

							}
, 							{
								"patchline" : 								{
									"source" : [ "obj-84", 0 ],
									"destination" : [ "obj-95", 0 ],
									"hidden" : 0,
									"midpoints" : [ 279.5, 189.0, 89.5, 189.0 ]
								}

							}
, 							{
								"patchline" : 								{
									"source" : [ "obj-83", 0 ],
									"destination" : [ "obj-95", 0 ],
									"hidden" : 0,
									"midpoints" : [ 239.5, 186.0, 89.5, 186.0 ]
								}

							}
, 							{
								"patchline" : 								{
									"source" : [ "obj-2", 0 ],
									"destination" : [ "obj-95", 0 ],
									"hidden" : 0,
									"midpoints" : [ 79.5, 237.0, 89.5, 237.0 ]
								}

							}
, 							{
								"patchline" : 								{
									"source" : [ "obj-1", 0 ],
									"destination" : [ "obj-85", 0 ],
									"hidden" : 0,
									"midpoints" : [ 279.5, 162.0, 249.5, 162.0 ]
								}

							}
, 							{
								"patchline" : 								{
									"source" : [ "obj-1", 0 ],
									"destination" : [ "obj-84", 0 ],
									"hidden" : 0,
									"midpoints" : [ 279.5, 162.0, 279.5, 162.0 ]
								}

							}
 ]
					}
,
					"saved_object_attributes" : 					{
						"default_fontface" : 0,
						"fontface" : 0,
						"fontsize" : 12.0,
						"default_fontname" : "Arial",
						"default_fontsize" : 12.0,
						"fontname" : "Arial",
						"globalpatchername" : ""
					}

				}

			}
, 			{
				"box" : 				{
					"maxclass" : "newobj",
					"text" : "p blue_button",
					"outlettype" : [ "" ],
					"fontsize" : 12.0,
					"patching_rect" : [ 760.0, 550.0, 83.0, 20.0 ],
					"numinlets" : 2,
					"id" : "obj-91",
					"fontname" : "Arial",
					"numoutlets" : 1,
					"patcher" : 					{
						"fileversion" : 1,
						"rect" : [ 26.0, 44.0, 415.0, 284.0 ],
						"bglocked" : 0,
						"defrect" : [ 26.0, 44.0, 415.0, 284.0 ],
						"openrect" : [ 0.0, 0.0, 0.0, 0.0 ],
						"openinpresentation" : 0,
						"default_fontsize" : 12.0,
						"default_fontface" : 0,
						"default_fontname" : "Arial",
						"gridonopen" : 0,
						"gridsize" : [ 10.0, 10.0 ],
						"gridsnaponopen" : 0,
						"toolbarvisible" : 1,
						"boxanimatetime" : 200,
						"imprint" : 0,
						"enablehscroll" : 1,
						"enablevscroll" : 1,
						"devicewidth" : 0.0,
						"boxes" : [ 							{
								"box" : 								{
									"maxclass" : "message",
									"text" : "drawpict bluebutt2 360 145",
									"outlettype" : [ "" ],
									"fontsize" : 12.0,
									"patching_rect" : [ 20.0, 100.0, 155.0, 18.0 ],
									"numinlets" : 2,
									"id" : "obj-2",
									"fontname" : "Arial",
									"numoutlets" : 1
								}

							}
, 							{
								"box" : 								{
									"maxclass" : "newobj",
									"text" : "loadbang",
									"outlettype" : [ "bang" ],
									"fontsize" : 12.0,
									"patching_rect" : [ 250.0, 110.0, 60.0, 20.0 ],
									"numinlets" : 1,
									"id" : "obj-1",
									"fontname" : "Arial",
									"numoutlets" : 1
								}

							}
, 							{
								"box" : 								{
									"maxclass" : "message",
									"text" : "drawpict bluebutt1 360 145",
									"outlettype" : [ "" ],
									"fontsize" : 12.0,
									"patching_rect" : [ 180.0, 70.0, 155.0, 18.0 ],
									"numinlets" : 2,
									"id" : "obj-54",
									"fontname" : "Arial",
									"numoutlets" : 1
								}

							}
, 							{
								"box" : 								{
									"maxclass" : "message",
									"text" : "readpict bluebutt1 blue1.png",
									"outlettype" : [ "" ],
									"fontsize" : 11.595187,
									"patching_rect" : [ 250.0, 140.0, 157.0, 18.0 ],
									"numinlets" : 2,
									"id" : "obj-55",
									"fontname" : "Arial",
									"numoutlets" : 1
								}

							}
, 							{
								"box" : 								{
									"maxclass" : "message",
									"text" : "readpict bluebutt2 blue2.png",
									"outlettype" : [ "" ],
									"fontsize" : 11.595187,
									"patching_rect" : [ 230.0, 170.0, 157.0, 18.0 ],
									"numinlets" : 2,
									"id" : "obj-56",
									"fontname" : "Arial",
									"numoutlets" : 1
								}

							}
, 							{
								"box" : 								{
									"maxclass" : "inlet",
									"outlettype" : [ "bang" ],
									"patching_rect" : [ 20.0, 30.0, 25.0, 25.0 ],
									"numinlets" : 0,
									"id" : "obj-88",
									"numoutlets" : 1,
									"comment" : ""
								}

							}
, 							{
								"box" : 								{
									"maxclass" : "inlet",
									"outlettype" : [ "" ],
									"patching_rect" : [ 180.0, 30.0, 25.0, 25.0 ],
									"numinlets" : 0,
									"id" : "obj-89",
									"numoutlets" : 1,
									"comment" : ""
								}

							}
, 							{
								"box" : 								{
									"maxclass" : "outlet",
									"patching_rect" : [ 150.0, 240.0, 25.0, 25.0 ],
									"numinlets" : 1,
									"id" : "obj-90",
									"numoutlets" : 0,
									"comment" : ""
								}

							}
 ],
						"lines" : [ 							{
								"patchline" : 								{
									"source" : [ "obj-89", 0 ],
									"destination" : [ "obj-54", 0 ],
									"hidden" : 0,
									"midpoints" : [ 189.5, 57.0, 189.5, 57.0 ]
								}

							}
, 							{
								"patchline" : 								{
									"source" : [ "obj-88", 0 ],
									"destination" : [ "obj-2", 0 ],
									"hidden" : 0,
									"midpoints" : [ 29.5, 57.0, 29.5, 57.0 ]
								}

							}
, 							{
								"patchline" : 								{
									"source" : [ "obj-56", 0 ],
									"destination" : [ "obj-90", 0 ],
									"hidden" : 0,
									"midpoints" : [ 239.5, 225.0, 159.5, 225.0 ]
								}

							}
, 							{
								"patchline" : 								{
									"source" : [ "obj-55", 0 ],
									"destination" : [ "obj-90", 0 ],
									"hidden" : 0,
									"midpoints" : [ 259.5, 159.0, 159.5, 159.0 ]
								}

							}
, 							{
								"patchline" : 								{
									"source" : [ "obj-54", 0 ],
									"destination" : [ "obj-90", 0 ],
									"hidden" : 0,
									"midpoints" : [ 189.5, 225.0, 159.5, 225.0 ]
								}

							}
, 							{
								"patchline" : 								{
									"source" : [ "obj-2", 0 ],
									"destination" : [ "obj-90", 0 ],
									"hidden" : 0,
									"midpoints" : [ 29.5, 225.0, 159.5, 225.0 ]
								}

							}
, 							{
								"patchline" : 								{
									"source" : [ "obj-1", 0 ],
									"destination" : [ "obj-56", 0 ],
									"hidden" : 0,
									"midpoints" : [ 259.5, 132.0, 239.5, 132.0 ]
								}

							}
, 							{
								"patchline" : 								{
									"source" : [ "obj-1", 0 ],
									"destination" : [ "obj-55", 0 ],
									"hidden" : 0,
									"midpoints" : [ 259.5, 132.0, 259.5, 132.0 ]
								}

							}
 ]
					}
,
					"saved_object_attributes" : 					{
						"default_fontface" : 0,
						"fontface" : 0,
						"fontsize" : 12.0,
						"default_fontname" : "Arial",
						"default_fontsize" : 12.0,
						"fontname" : "Arial",
						"globalpatchername" : ""
					}

				}

			}
, 			{
				"box" : 				{
					"maxclass" : "newobj",
					"text" : "p purple_button",
					"outlettype" : [ "" ],
					"fontsize" : 12.0,
					"patching_rect" : [ 650.0, 550.0, 94.0, 20.0 ],
					"numinlets" : 2,
					"id" : "obj-87",
					"fontname" : "Arial",
					"numoutlets" : 1,
					"patcher" : 					{
						"fileversion" : 1,
						"rect" : [ 115.0, 71.0, 486.0, 339.0 ],
						"bglocked" : 0,
						"defrect" : [ 115.0, 71.0, 486.0, 339.0 ],
						"openrect" : [ 0.0, 0.0, 0.0, 0.0 ],
						"openinpresentation" : 0,
						"default_fontsize" : 12.0,
						"default_fontface" : 0,
						"default_fontname" : "Arial",
						"gridonopen" : 0,
						"gridsize" : [ 10.0, 10.0 ],
						"gridsnaponopen" : 0,
						"toolbarvisible" : 1,
						"boxanimatetime" : 200,
						"imprint" : 0,
						"enablehscroll" : 1,
						"enablevscroll" : 1,
						"devicewidth" : 0.0,
						"boxes" : [ 							{
								"box" : 								{
									"maxclass" : "message",
									"text" : "drawpict purplebutt2 240 145",
									"outlettype" : [ "" ],
									"fontsize" : 12.0,
									"patching_rect" : [ 30.0, 110.0, 165.0, 18.0 ],
									"numinlets" : 2,
									"id" : "obj-2",
									"fontname" : "Arial",
									"numoutlets" : 1
								}

							}
, 							{
								"box" : 								{
									"maxclass" : "newobj",
									"text" : "loadbang",
									"outlettype" : [ "bang" ],
									"fontsize" : 12.0,
									"patching_rect" : [ 290.0, 130.0, 60.0, 20.0 ],
									"numinlets" : 1,
									"id" : "obj-1",
									"fontname" : "Arial",
									"numoutlets" : 1
								}

							}
, 							{
								"box" : 								{
									"maxclass" : "message",
									"text" : "drawpict purplebutt1 240 145",
									"outlettype" : [ "" ],
									"fontsize" : 12.0,
									"patching_rect" : [ 200.0, 110.0, 165.0, 18.0 ],
									"numinlets" : 2,
									"id" : "obj-47",
									"fontname" : "Arial",
									"numoutlets" : 1
								}

							}
, 							{
								"box" : 								{
									"maxclass" : "message",
									"text" : "readpict purplebutt1 purple1.png",
									"outlettype" : [ "" ],
									"fontsize" : 11.595187,
									"patching_rect" : [ 290.0, 170.0, 177.0, 18.0 ],
									"numinlets" : 2,
									"id" : "obj-48",
									"fontname" : "Arial",
									"numoutlets" : 1
								}

							}
, 							{
								"box" : 								{
									"maxclass" : "message",
									"text" : "readpict purplebutt2 purple2.png",
									"outlettype" : [ "" ],
									"fontsize" : 11.595187,
									"patching_rect" : [ 260.0, 220.0, 177.0, 18.0 ],
									"numinlets" : 2,
									"id" : "obj-49",
									"fontname" : "Arial",
									"numoutlets" : 1
								}

							}
, 							{
								"box" : 								{
									"maxclass" : "inlet",
									"outlettype" : [ "bang" ],
									"patching_rect" : [ 30.0, 70.0, 25.0, 25.0 ],
									"numinlets" : 0,
									"id" : "obj-42",
									"numoutlets" : 1,
									"comment" : ""
								}

							}
, 							{
								"box" : 								{
									"maxclass" : "inlet",
									"outlettype" : [ "" ],
									"patching_rect" : [ 200.0, 70.0, 25.0, 25.0 ],
									"numinlets" : 0,
									"id" : "obj-44",
									"numoutlets" : 1,
									"comment" : ""
								}

							}
, 							{
								"box" : 								{
									"maxclass" : "outlet",
									"patching_rect" : [ 130.0, 280.0, 25.0, 25.0 ],
									"numinlets" : 1,
									"id" : "obj-51",
									"numoutlets" : 0,
									"comment" : ""
								}

							}
 ],
						"lines" : [ 							{
								"patchline" : 								{
									"source" : [ "obj-49", 0 ],
									"destination" : [ "obj-51", 0 ],
									"hidden" : 0,
									"midpoints" : [ 269.5, 267.0, 139.5, 267.0 ]
								}

							}
, 							{
								"patchline" : 								{
									"source" : [ "obj-48", 0 ],
									"destination" : [ "obj-51", 0 ],
									"hidden" : 0,
									"midpoints" : [ 299.5, 207.0, 139.5, 207.0 ]
								}

							}
, 							{
								"patchline" : 								{
									"source" : [ "obj-47", 0 ],
									"destination" : [ "obj-51", 0 ],
									"hidden" : 0,
									"midpoints" : [ 209.5, 267.0, 139.5, 267.0 ]
								}

							}
, 							{
								"patchline" : 								{
									"source" : [ "obj-44", 0 ],
									"destination" : [ "obj-47", 0 ],
									"hidden" : 0,
									"midpoints" : [ 209.5, 96.0, 209.5, 96.0 ]
								}

							}
, 							{
								"patchline" : 								{
									"source" : [ "obj-42", 0 ],
									"destination" : [ "obj-2", 0 ],
									"hidden" : 0,
									"midpoints" : [ 39.5, 96.0, 39.5, 96.0 ]
								}

							}
, 							{
								"patchline" : 								{
									"source" : [ "obj-2", 0 ],
									"destination" : [ "obj-51", 0 ],
									"hidden" : 0,
									"midpoints" : [ 39.5, 267.0, 139.5, 267.0 ]
								}

							}
, 							{
								"patchline" : 								{
									"source" : [ "obj-1", 0 ],
									"destination" : [ "obj-49", 0 ],
									"hidden" : 0,
									"midpoints" : [ 299.5, 150.0, 269.5, 150.0 ]
								}

							}
, 							{
								"patchline" : 								{
									"source" : [ "obj-1", 0 ],
									"destination" : [ "obj-48", 0 ],
									"hidden" : 0,
									"midpoints" : [ 299.5, 150.0, 299.5, 150.0 ]
								}

							}
 ]
					}
,
					"saved_object_attributes" : 					{
						"default_fontface" : 0,
						"fontface" : 0,
						"fontsize" : 12.0,
						"default_fontname" : "Arial",
						"default_fontsize" : 12.0,
						"fontname" : "Arial",
						"globalpatchername" : ""
					}

				}

			}
, 			{
				"box" : 				{
					"maxclass" : "newobj",
					"text" : "p pink_button",
					"outlettype" : [ "" ],
					"fontsize" : 12.0,
					"patching_rect" : [ 560.0, 550.0, 83.0, 20.0 ],
					"numinlets" : 2,
					"id" : "obj-41",
					"fontname" : "Arial",
					"numoutlets" : 1,
					"patcher" : 					{
						"fileversion" : 1,
						"rect" : [ 25.0, 69.0, 567.0, 247.0 ],
						"bglocked" : 0,
						"defrect" : [ 25.0, 69.0, 567.0, 247.0 ],
						"openrect" : [ 0.0, 0.0, 0.0, 0.0 ],
						"openinpresentation" : 0,
						"default_fontsize" : 12.0,
						"default_fontface" : 0,
						"default_fontname" : "Arial",
						"gridonopen" : 0,
						"gridsize" : [ 10.0, 10.0 ],
						"gridsnaponopen" : 0,
						"toolbarvisible" : 1,
						"boxanimatetime" : 200,
						"imprint" : 0,
						"enablehscroll" : 1,
						"enablevscroll" : 1,
						"devicewidth" : 0.0,
						"boxes" : [ 							{
								"box" : 								{
									"maxclass" : "message",
									"text" : "drawpict pinkbutt1 120 145",
									"outlettype" : [ "" ],
									"fontsize" : 12.0,
									"patching_rect" : [ 200.0, 90.0, 154.0, 18.0 ],
									"numinlets" : 2,
									"id" : "obj-2",
									"fontname" : "Arial",
									"numoutlets" : 1
								}

							}
, 							{
								"box" : 								{
									"maxclass" : "newobj",
									"text" : "loadbang",
									"outlettype" : [ "bang" ],
									"fontsize" : 12.0,
									"patching_rect" : [ 390.0, 40.0, 60.0, 20.0 ],
									"numinlets" : 1,
									"id" : "obj-1",
									"fontname" : "Arial",
									"numoutlets" : 1
								}

							}
, 							{
								"box" : 								{
									"maxclass" : "message",
									"text" : "drawpict pinkbutt2 120 145",
									"outlettype" : [ "" ],
									"fontsize" : 12.0,
									"patching_rect" : [ 40.0, 90.0, 154.0, 18.0 ],
									"numinlets" : 2,
									"id" : "obj-24",
									"fontname" : "Arial",
									"numoutlets" : 1
								}

							}
, 							{
								"box" : 								{
									"maxclass" : "message",
									"text" : "readpict pinkbutt1 pink1.png",
									"outlettype" : [ "" ],
									"fontsize" : 11.595187,
									"patching_rect" : [ 390.0, 100.0, 156.0, 18.0 ],
									"numinlets" : 2,
									"id" : "obj-25",
									"fontname" : "Arial",
									"numoutlets" : 1
								}

							}
, 							{
								"box" : 								{
									"maxclass" : "message",
									"text" : "readpict pinkbutt2 pink2.png",
									"outlettype" : [ "" ],
									"fontsize" : 11.595187,
									"patching_rect" : [ 360.0, 130.0, 156.0, 18.0 ],
									"numinlets" : 2,
									"id" : "obj-26",
									"fontname" : "Arial",
									"numoutlets" : 1
								}

							}
, 							{
								"box" : 								{
									"maxclass" : "inlet",
									"outlettype" : [ "bang" ],
									"patching_rect" : [ 40.0, 40.0, 25.0, 25.0 ],
									"numinlets" : 0,
									"id" : "obj-38",
									"numoutlets" : 1,
									"comment" : ""
								}

							}
, 							{
								"box" : 								{
									"maxclass" : "inlet",
									"outlettype" : [ "" ],
									"patching_rect" : [ 200.0, 40.0, 25.0, 25.0 ],
									"numinlets" : 0,
									"id" : "obj-39",
									"numoutlets" : 1,
									"comment" : ""
								}

							}
, 							{
								"box" : 								{
									"maxclass" : "outlet",
									"patching_rect" : [ 200.0, 210.0, 25.0, 25.0 ],
									"numinlets" : 1,
									"id" : "obj-40",
									"numoutlets" : 0,
									"comment" : ""
								}

							}
 ],
						"lines" : [ 							{
								"patchline" : 								{
									"source" : [ "obj-39", 0 ],
									"destination" : [ "obj-2", 0 ],
									"hidden" : 0,
									"midpoints" : [ 209.5, 66.0, 209.5, 66.0 ]
								}

							}
, 							{
								"patchline" : 								{
									"source" : [ "obj-38", 0 ],
									"destination" : [ "obj-24", 0 ],
									"hidden" : 0,
									"midpoints" : [ 49.5, 66.0, 49.5, 66.0 ]
								}

							}
, 							{
								"patchline" : 								{
									"source" : [ "obj-26", 0 ],
									"destination" : [ "obj-40", 0 ],
									"hidden" : 0,
									"midpoints" : [ 369.5, 195.0, 209.5, 195.0 ]
								}

							}
, 							{
								"patchline" : 								{
									"source" : [ "obj-25", 0 ],
									"destination" : [ "obj-40", 0 ],
									"hidden" : 0,
									"midpoints" : [ 399.5, 120.0, 209.5, 120.0 ]
								}

							}
, 							{
								"patchline" : 								{
									"source" : [ "obj-24", 0 ],
									"destination" : [ "obj-40", 0 ],
									"hidden" : 0,
									"midpoints" : [ 49.5, 195.0, 209.5, 195.0 ]
								}

							}
, 							{
								"patchline" : 								{
									"source" : [ "obj-2", 0 ],
									"destination" : [ "obj-40", 0 ],
									"hidden" : 0,
									"midpoints" : [ 209.5, 108.0, 209.5, 108.0 ]
								}

							}
, 							{
								"patchline" : 								{
									"source" : [ "obj-1", 0 ],
									"destination" : [ "obj-26", 0 ],
									"hidden" : 0,
									"midpoints" : [ 399.5, 87.0, 369.5, 87.0 ]
								}

							}
, 							{
								"patchline" : 								{
									"source" : [ "obj-1", 0 ],
									"destination" : [ "obj-25", 0 ],
									"hidden" : 0,
									"midpoints" : [ 399.5, 60.0, 399.5, 60.0 ]
								}

							}
 ]
					}
,
					"saved_object_attributes" : 					{
						"default_fontface" : 0,
						"fontface" : 0,
						"fontsize" : 12.0,
						"default_fontname" : "Arial",
						"default_fontsize" : 12.0,
						"fontname" : "Arial",
						"globalpatchername" : ""
					}

				}

			}
, 			{
				"box" : 				{
					"maxclass" : "newobj",
					"text" : "p red_button",
					"outlettype" : [ "" ],
					"fontsize" : 12.0,
					"patching_rect" : [ 470.0, 550.0, 78.0, 20.0 ],
					"numinlets" : 2,
					"id" : "obj-37",
					"fontname" : "Arial",
					"numoutlets" : 1,
					"patcher" : 					{
						"fileversion" : 1,
						"rect" : [ 23.0, 398.0, 544.0, 254.0 ],
						"bglocked" : 0,
						"defrect" : [ 23.0, 398.0, 544.0, 254.0 ],
						"openrect" : [ 0.0, 0.0, 0.0, 0.0 ],
						"openinpresentation" : 0,
						"default_fontsize" : 12.0,
						"default_fontface" : 0,
						"default_fontname" : "Arial",
						"gridonopen" : 0,
						"gridsize" : [ 10.0, 10.0 ],
						"gridsnaponopen" : 0,
						"toolbarvisible" : 1,
						"boxanimatetime" : 200,
						"imprint" : 0,
						"enablehscroll" : 1,
						"enablevscroll" : 1,
						"devicewidth" : 0.0,
						"boxes" : [ 							{
								"box" : 								{
									"maxclass" : "message",
									"text" : "drawpict redbutt2 0 145",
									"outlettype" : [ "" ],
									"fontsize" : 12.0,
									"patching_rect" : [ 40.0, 70.0, 136.0, 18.0 ],
									"numinlets" : 2,
									"id" : "obj-2",
									"fontname" : "Arial",
									"numoutlets" : 1
								}

							}
, 							{
								"box" : 								{
									"maxclass" : "newobj",
									"text" : "loadbang",
									"outlettype" : [ "bang" ],
									"fontsize" : 12.0,
									"patching_rect" : [ 350.0, 20.0, 60.0, 20.0 ],
									"numinlets" : 1,
									"id" : "obj-1",
									"fontname" : "Arial",
									"numoutlets" : 1
								}

							}
, 							{
								"box" : 								{
									"maxclass" : "message",
									"text" : "drawpict redbutt1 0 145",
									"outlettype" : [ "" ],
									"fontsize" : 12.0,
									"patching_rect" : [ 190.0, 70.0, 136.0, 18.0 ],
									"numinlets" : 2,
									"id" : "obj-5",
									"fontname" : "Arial",
									"numoutlets" : 1
								}

							}
, 							{
								"box" : 								{
									"maxclass" : "message",
									"text" : "readpict redbutt1 red1.png",
									"outlettype" : [ "" ],
									"fontsize" : 11.595187,
									"patching_rect" : [ 370.0, 70.0, 147.0, 18.0 ],
									"numinlets" : 2,
									"id" : "obj-35",
									"fontname" : "Arial",
									"numoutlets" : 1
								}

							}
, 							{
								"box" : 								{
									"maxclass" : "message",
									"text" : "readpict redbutt2 red2.png",
									"outlettype" : [ "" ],
									"fontsize" : 11.595187,
									"patching_rect" : [ 350.0, 110.0, 147.0, 18.0 ],
									"numinlets" : 2,
									"id" : "obj-36",
									"fontname" : "Arial",
									"numoutlets" : 1
								}

							}
, 							{
								"box" : 								{
									"maxclass" : "inlet",
									"outlettype" : [ "bang" ],
									"patching_rect" : [ 40.0, 30.0, 25.0, 25.0 ],
									"numinlets" : 0,
									"id" : "obj-32",
									"numoutlets" : 1,
									"comment" : ""
								}

							}
, 							{
								"box" : 								{
									"maxclass" : "inlet",
									"outlettype" : [ "" ],
									"patching_rect" : [ 190.0, 30.0, 25.0, 25.0 ],
									"numinlets" : 0,
									"id" : "obj-33",
									"numoutlets" : 1,
									"comment" : ""
								}

							}
, 							{
								"box" : 								{
									"maxclass" : "outlet",
									"patching_rect" : [ 190.0, 210.0, 25.0, 25.0 ],
									"numinlets" : 1,
									"id" : "obj-34",
									"numoutlets" : 0,
									"comment" : ""
								}

							}
 ],
						"lines" : [ 							{
								"patchline" : 								{
									"source" : [ "obj-5", 0 ],
									"destination" : [ "obj-34", 0 ],
									"hidden" : 0,
									"midpoints" : [ 199.5, 177.0, 199.5, 177.0 ]
								}

							}
, 							{
								"patchline" : 								{
									"source" : [ "obj-36", 0 ],
									"destination" : [ "obj-34", 0 ],
									"hidden" : 0,
									"midpoints" : [ 359.5, 177.0, 199.5, 177.0 ]
								}

							}
, 							{
								"patchline" : 								{
									"source" : [ "obj-35", 0 ],
									"destination" : [ "obj-34", 0 ],
									"hidden" : 0,
									"midpoints" : [ 379.5, 99.0, 199.5, 99.0 ]
								}

							}
, 							{
								"patchline" : 								{
									"source" : [ "obj-33", 0 ],
									"destination" : [ "obj-5", 0 ],
									"hidden" : 0,
									"midpoints" : [ 199.5, 57.0, 199.5, 57.0 ]
								}

							}
, 							{
								"patchline" : 								{
									"source" : [ "obj-32", 0 ],
									"destination" : [ "obj-2", 0 ],
									"hidden" : 0,
									"midpoints" : [ 49.5, 57.0, 49.5, 57.0 ]
								}

							}
, 							{
								"patchline" : 								{
									"source" : [ "obj-2", 0 ],
									"destination" : [ "obj-34", 0 ],
									"hidden" : 0,
									"midpoints" : [ 49.5, 177.0, 199.5, 177.0 ]
								}

							}
, 							{
								"patchline" : 								{
									"source" : [ "obj-1", 0 ],
									"destination" : [ "obj-36", 0 ],
									"hidden" : 0,
									"midpoints" : [ 359.5, 41.0, 359.5, 41.0 ]
								}

							}
, 							{
								"patchline" : 								{
									"source" : [ "obj-1", 0 ],
									"destination" : [ "obj-35", 0 ],
									"hidden" : 0,
									"midpoints" : [ 359.5, 50.0, 379.5, 50.0 ]
								}

							}
 ]
					}
,
					"saved_object_attributes" : 					{
						"default_fontface" : 0,
						"fontface" : 0,
						"fontsize" : 12.0,
						"default_fontname" : "Arial",
						"default_fontsize" : 12.0,
						"fontname" : "Arial",
						"globalpatchername" : ""
					}

				}

			}
, 			{
				"box" : 				{
					"maxclass" : "newobj",
					"text" : "loadmess 0",
					"outlettype" : [ "" ],
					"fontsize" : 12.0,
					"patching_rect" : [ 380.0, 220.0, 72.0, 20.0 ],
					"numinlets" : 1,
					"id" : "obj-2",
					"fontname" : "Arial",
					"numoutlets" : 1
				}

			}
, 			{
				"box" : 				{
					"maxclass" : "jit.pwindow",
					"presentation_rect" : [ 0.0, 0.0, 480.0, 290.0 ],
					"outlettype" : [ "", "" ],
					"patching_rect" : [ 80.0, 270.0, 240.0, 145.0 ],
					"numinlets" : 1,
					"id" : "obj-7",
					"numoutlets" : 2
				}

			}
, 			{
				"box" : 				{
					"maxclass" : "newobj",
					"text" : "t getfps b",
					"outlettype" : [ "", "bang" ],
					"fontsize" : 11.595187,
					"patching_rect" : [ 80.0, 420.0, 58.0, 20.0 ],
					"numinlets" : 1,
					"id" : "obj-43",
					"fontname" : "Arial",
					"numoutlets" : 2
				}

			}
, 			{
				"box" : 				{
					"maxclass" : "jit.fpsgui",
					"outlettype" : [ "", "" ],
					"fontsize" : 11.595187,
					"mode" : 1,
					"patching_rect" : [ 80.0, 460.0, 80.0, 35.0 ],
					"numinlets" : 1,
					"id" : "obj-141",
					"fontname" : "Arial",
					"numoutlets" : 2
				}

			}
, 			{
				"box" : 				{
					"maxclass" : "newobj",
					"text" : "jit.lcd 4 char 480 290",
					"outlettype" : [ "jit_matrix", "" ],
					"fontsize" : 12.0,
					"patching_rect" : [ 50.0, 220.0, 121.0, 20.0 ],
					"numinlets" : 1,
					"id" : "obj-1",
					"fontname" : "Arial",
					"numoutlets" : 2
				}

			}
 ],
		"lines" : [ 			{
				"patchline" : 				{
					"source" : [ "obj-1", 0 ],
					"destination" : [ "obj-7", 0 ],
					"hidden" : 0,
					"midpoints" : [ 59.5, 255.0, 89.5, 255.0 ]
				}

			}
, 			{
				"patchline" : 				{
					"source" : [ "obj-7", 0 ],
					"destination" : [ "obj-43", 0 ],
					"hidden" : 0,
					"midpoints" : [ 89.5, 417.0, 89.5, 417.0 ]
				}

			}
, 			{
				"patchline" : 				{
					"source" : [ "obj-1", 0 ],
					"destination" : [ "obj-6", 0 ],
					"hidden" : 0,
					"midpoints" : [ 59.5, 240.0, 59.5, 240.0 ]
				}

			}
, 			{
				"patchline" : 				{
					"source" : [ "obj-96", 0 ],
					"destination" : [ "obj-1", 0 ],
					"hidden" : 0,
					"midpoints" : [ 569.5, 462.0, 330.0, 462.0, 330.0, 207.0, 59.5, 207.0 ]
				}

			}
, 			{
				"patchline" : 				{
					"source" : [ "obj-91", 0 ],
					"destination" : [ "obj-1", 0 ],
					"hidden" : 0,
					"midpoints" : [ 769.5, 582.0, 330.0, 582.0, 330.0, 207.0, 59.5, 207.0 ]
				}

			}
, 			{
				"patchline" : 				{
					"source" : [ "obj-87", 0 ],
					"destination" : [ "obj-1", 0 ],
					"hidden" : 0,
					"midpoints" : [ 659.5, 582.0, 330.0, 582.0, 330.0, 207.0, 59.5, 207.0 ]
				}

			}
, 			{
				"patchline" : 				{
					"source" : [ "obj-67", 0 ],
					"destination" : [ "obj-2", 0 ],
					"hidden" : 0,
					"midpoints" : [ 389.5, 222.0, 389.5, 222.0 ]
				}

			}
, 			{
				"patchline" : 				{
					"source" : [ "obj-61", 0 ],
					"destination" : [ "obj-23", 0 ],
					"hidden" : 0,
					"midpoints" : [ 529.5, 210.0, 529.5, 210.0 ]
				}

			}
, 			{
				"patchline" : 				{
					"source" : [ "obj-60", 0 ],
					"destination" : [ "obj-59", 0 ],
					"hidden" : 0,
					"midpoints" : [ 459.5, 90.0, 459.5, 90.0 ]
				}

			}
, 			{
				"patchline" : 				{
					"source" : [ "obj-59", 0 ],
					"destination" : [ "obj-19", 0 ],
					"hidden" : 0,
					"midpoints" : [ 459.5, 111.0, 459.5, 111.0 ]
				}

			}
, 			{
				"patchline" : 				{
					"source" : [ "obj-55", 0 ],
					"destination" : [ "obj-22", 0 ],
					"hidden" : 1,
					"midpoints" : [ 459.5, 30.0, 459.5, 30.0 ]
				}

			}
, 			{
				"patchline" : 				{
					"source" : [ "obj-55", 0 ],
					"destination" : [ "obj-11", 0 ],
					"hidden" : 1,
					"midpoints" : [ 459.5, 30.0, 285.0, 30.0, 285.0, 117.0, 259.5, 117.0 ]
				}

			}
, 			{
				"patchline" : 				{
					"source" : [ "obj-53", 0 ],
					"destination" : [ "obj-3", 0 ],
					"hidden" : 0,
					"midpoints" : [ 479.5, 312.0, 479.5, 312.0 ]
				}

			}
, 			{
				"patchline" : 				{
					"source" : [ "obj-50", 0 ],
					"destination" : [ "obj-17", 0 ],
					"hidden" : 0,
					"midpoints" : [ 589.5, 255.0, 479.5, 255.0 ]
				}

			}
, 			{
				"patchline" : 				{
					"source" : [ "obj-5", 0 ],
					"destination" : [ "obj-12", 0 ],
					"hidden" : 0,
					"midpoints" : [ 569.5, 411.0, 569.5, 411.0 ]
				}

			}
, 			{
				"patchline" : 				{
					"source" : [ "obj-44", 0 ],
					"destination" : [ "obj-42", 0 ],
					"hidden" : 0,
					"midpoints" : [ 479.5, 522.0, 479.5, 522.0 ]
				}

			}
, 			{
				"patchline" : 				{
					"source" : [ "obj-43", 0 ],
					"destination" : [ "obj-141", 0 ],
					"hidden" : 0,
					"midpoints" : [ 89.5, 441.0, 89.5, 441.0 ]
				}

			}
, 			{
				"patchline" : 				{
					"source" : [ "obj-43", 1 ],
					"destination" : [ "obj-141", 0 ],
					"hidden" : 0,
					"midpoints" : [ 128.5, 441.0, 89.5, 441.0 ]
				}

			}
, 			{
				"patchline" : 				{
					"source" : [ "obj-42", 0 ],
					"destination" : [ "obj-37", 0 ],
					"hidden" : 0,
					"midpoints" : [ 479.5, 540.0, 479.5, 540.0 ]
				}

			}
, 			{
				"patchline" : 				{
					"source" : [ "obj-42", 1 ],
					"destination" : [ "obj-37", 1 ],
					"hidden" : 0,
					"midpoints" : [ 512.5, 546.0, 538.5, 546.0 ]
				}

			}
, 			{
				"patchline" : 				{
					"source" : [ "obj-41", 0 ],
					"destination" : [ "obj-1", 0 ],
					"hidden" : 0,
					"midpoints" : [ 569.5, 582.0, 330.0, 582.0, 330.0, 207.0, 59.5, 207.0 ]
				}

			}
, 			{
				"patchline" : 				{
					"source" : [ "obj-40", 0 ],
					"destination" : [ "obj-39", 0 ],
					"hidden" : 0,
					"midpoints" : [ 569.5, 522.0, 569.5, 522.0 ]
				}

			}
, 			{
				"patchline" : 				{
					"source" : [ "obj-39", 0 ],
					"destination" : [ "obj-41", 0 ],
					"hidden" : 0,
					"midpoints" : [ 569.5, 540.0, 569.5, 540.0 ]
				}

			}
, 			{
				"patchline" : 				{
					"source" : [ "obj-39", 1 ],
					"destination" : [ "obj-41", 1 ],
					"hidden" : 0,
					"midpoints" : [ 602.5, 546.0, 633.5, 546.0 ]
				}

			}
, 			{
				"patchline" : 				{
					"source" : [ "obj-38", 0 ],
					"destination" : [ "obj-36", 0 ],
					"hidden" : 0,
					"midpoints" : [ 659.5, 522.0, 659.5, 522.0 ]
				}

			}
, 			{
				"patchline" : 				{
					"source" : [ "obj-37", 0 ],
					"destination" : [ "obj-1", 0 ],
					"hidden" : 0,
					"midpoints" : [ 479.5, 570.0, 330.0, 570.0, 330.0, 207.0, 59.5, 207.0 ]
				}

			}
, 			{
				"patchline" : 				{
					"source" : [ "obj-36", 0 ],
					"destination" : [ "obj-87", 0 ],
					"hidden" : 0,
					"midpoints" : [ 659.5, 540.0, 659.5, 540.0 ]
				}

			}
, 			{
				"patchline" : 				{
					"source" : [ "obj-36", 1 ],
					"destination" : [ "obj-87", 1 ],
					"hidden" : 0,
					"midpoints" : [ 692.5, 546.0, 734.5, 546.0 ]
				}

			}
, 			{
				"patchline" : 				{
					"source" : [ "obj-35", 0 ],
					"destination" : [ "obj-34", 0 ],
					"hidden" : 0,
					"midpoints" : [ 769.5, 522.0, 769.5, 522.0 ]
				}

			}
, 			{
				"patchline" : 				{
					"source" : [ "obj-34", 0 ],
					"destination" : [ "obj-91", 0 ],
					"hidden" : 0,
					"midpoints" : [ 769.5, 540.0, 769.5, 540.0 ]
				}

			}
, 			{
				"patchline" : 				{
					"source" : [ "obj-34", 1 ],
					"destination" : [ "obj-91", 1 ],
					"hidden" : 0,
					"midpoints" : [ 802.5, 546.0, 833.5, 546.0 ]
				}

			}
, 			{
				"patchline" : 				{
					"source" : [ "obj-33", 0 ],
					"destination" : [ "obj-32", 0 ],
					"hidden" : 0,
					"midpoints" : [ 859.5, 411.0, 859.5, 411.0 ]
				}

			}
, 			{
				"patchline" : 				{
					"source" : [ "obj-32", 0 ],
					"destination" : [ "obj-108", 0 ],
					"hidden" : 0,
					"midpoints" : [ 859.5, 432.0, 859.5, 432.0 ]
				}

			}
, 			{
				"patchline" : 				{
					"source" : [ "obj-32", 1 ],
					"destination" : [ "obj-108", 1 ],
					"hidden" : 0,
					"midpoints" : [ 892.5, 432.0, 934.5, 432.0 ]
				}

			}
, 			{
				"patchline" : 				{
					"source" : [ "obj-3", 4 ],
					"destination" : [ "obj-5", 0 ],
					"hidden" : 0,
					"midpoints" : [ 555.5, 366.0, 569.5, 366.0 ]
				}

			}
, 			{
				"patchline" : 				{
					"source" : [ "obj-3", 0 ],
					"destination" : [ "obj-44", 0 ],
					"hidden" : 0,
					"midpoints" : [ 479.5, 342.0, 479.5, 342.0 ]
				}

			}
, 			{
				"patchline" : 				{
					"source" : [ "obj-3", 1 ],
					"destination" : [ "obj-40", 0 ],
					"hidden" : 0,
					"midpoints" : [ 498.5, 477.0, 569.5, 477.0 ]
				}

			}
, 			{
				"patchline" : 				{
					"source" : [ "obj-3", 2 ],
					"destination" : [ "obj-38", 0 ],
					"hidden" : 0,
					"midpoints" : [ 517.5, 477.0, 659.5, 477.0 ]
				}

			}
, 			{
				"patchline" : 				{
					"source" : [ "obj-3", 3 ],
					"destination" : [ "obj-35", 0 ],
					"hidden" : 0,
					"midpoints" : [ 536.5, 477.0, 769.5, 477.0 ]
				}

			}
, 			{
				"patchline" : 				{
					"source" : [ "obj-3", 7 ],
					"destination" : [ "obj-33", 0 ],
					"hidden" : 0,
					"midpoints" : [ 612.5, 366.0, 859.5, 366.0 ]
				}

			}
, 			{
				"patchline" : 				{
					"source" : [ "obj-3", 6 ],
					"destination" : [ "obj-27", 0 ],
					"hidden" : 0,
					"midpoints" : [ 593.5, 366.0, 749.5, 366.0 ]
				}

			}
, 			{
				"patchline" : 				{
					"source" : [ "obj-3", 5 ],
					"destination" : [ "obj-25", 0 ],
					"hidden" : 0,
					"midpoints" : [ 574.5, 366.0, 659.5, 366.0 ]
				}

			}
, 			{
				"patchline" : 				{
					"source" : [ "obj-27", 0 ],
					"destination" : [ "obj-26", 0 ],
					"hidden" : 0,
					"midpoints" : [ 749.5, 411.0, 749.5, 411.0 ]
				}

			}
, 			{
				"patchline" : 				{
					"source" : [ "obj-26", 0 ],
					"destination" : [ "obj-104", 0 ],
					"hidden" : 0,
					"midpoints" : [ 749.5, 432.0, 749.5, 432.0 ]
				}

			}
, 			{
				"patchline" : 				{
					"source" : [ "obj-26", 1 ],
					"destination" : [ "obj-104", 1 ],
					"hidden" : 0,
					"midpoints" : [ 782.5, 432.0, 837.5, 432.0 ]
				}

			}
, 			{
				"patchline" : 				{
					"source" : [ "obj-25", 0 ],
					"destination" : [ "obj-24", 0 ],
					"hidden" : 0,
					"midpoints" : [ 659.5, 411.0, 659.5, 411.0 ]
				}

			}
, 			{
				"patchline" : 				{
					"source" : [ "obj-24", 0 ],
					"destination" : [ "obj-100", 0 ],
					"hidden" : 0,
					"midpoints" : [ 659.5, 432.0, 659.5, 432.0 ]
				}

			}
, 			{
				"patchline" : 				{
					"source" : [ "obj-24", 1 ],
					"destination" : [ "obj-100", 1 ],
					"hidden" : 0,
					"midpoints" : [ 692.5, 432.0, 731.5, 432.0 ]
				}

			}
, 			{
				"patchline" : 				{
					"source" : [ "obj-23", 0 ],
					"destination" : [ "obj-17", 0 ],
					"hidden" : 0,
					"midpoints" : [ 529.5, 240.0, 479.5, 240.0 ]
				}

			}
, 			{
				"patchline" : 				{
					"source" : [ "obj-22", 0 ],
					"destination" : [ "obj-60", 0 ],
					"hidden" : 1,
					"midpoints" : [ 459.5, 72.0, 459.5, 72.0 ]
				}

			}
, 			{
				"patchline" : 				{
					"source" : [ "obj-2", 0 ],
					"destination" : [ "obj-5", 0 ],
					"hidden" : 1,
					"midpoints" : [ 389.5, 366.0, 569.5, 366.0 ]
				}

			}
, 			{
				"patchline" : 				{
					"source" : [ "obj-2", 0 ],
					"destination" : [ "obj-44", 0 ],
					"hidden" : 0,
					"midpoints" : [ 389.5, 477.0, 479.5, 477.0 ]
				}

			}
, 			{
				"patchline" : 				{
					"source" : [ "obj-2", 0 ],
					"destination" : [ "obj-40", 0 ],
					"hidden" : 1,
					"midpoints" : [ 389.5, 477.0, 569.5, 477.0 ]
				}

			}
, 			{
				"patchline" : 				{
					"source" : [ "obj-2", 0 ],
					"destination" : [ "obj-38", 0 ],
					"hidden" : 1,
					"midpoints" : [ 389.5, 477.0, 659.5, 477.0 ]
				}

			}
, 			{
				"patchline" : 				{
					"source" : [ "obj-2", 0 ],
					"destination" : [ "obj-35", 0 ],
					"hidden" : 1,
					"midpoints" : [ 389.5, 477.0, 769.5, 477.0 ]
				}

			}
, 			{
				"patchline" : 				{
					"source" : [ "obj-2", 0 ],
					"destination" : [ "obj-33", 0 ],
					"hidden" : 0,
					"midpoints" : [ 389.5, 366.0, 859.5, 366.0 ]
				}

			}
, 			{
				"patchline" : 				{
					"source" : [ "obj-2", 0 ],
					"destination" : [ "obj-27", 0 ],
					"hidden" : 1,
					"midpoints" : [ 389.5, 366.0, 749.5, 366.0 ]
				}

			}
, 			{
				"patchline" : 				{
					"source" : [ "obj-2", 0 ],
					"destination" : [ "obj-25", 0 ],
					"hidden" : 1,
					"midpoints" : [ 389.5, 366.0, 659.5, 366.0 ]
				}

			}
, 			{
				"patchline" : 				{
					"source" : [ "obj-19", 0 ],
					"destination" : [ "obj-15", 0 ],
					"hidden" : 0,
					"midpoints" : [ 459.5, 129.0, 459.5, 129.0 ]
				}

			}
, 			{
				"patchline" : 				{
					"source" : [ "obj-17", 0 ],
					"destination" : [ "obj-53", 0 ],
					"hidden" : 0,
					"midpoints" : [ 479.5, 282.0, 479.5, 282.0 ]
				}

			}
, 			{
				"patchline" : 				{
					"source" : [ "obj-17", 1 ],
					"destination" : [ "obj-23", 0 ],
					"hidden" : 0,
					"midpoints" : [ 493.0, 282.0, 504.0, 282.0, 504.0, 216.0, 529.5, 216.0 ]
				}

			}
, 			{
				"patchline" : 				{
					"source" : [ "obj-15", 2 ],
					"destination" : [ "obj-67", 0 ],
					"hidden" : 0,
					"midpoints" : [ 498.5, 186.0, 389.5, 186.0 ]
				}

			}
, 			{
				"patchline" : 				{
					"source" : [ "obj-15", 0 ],
					"destination" : [ "obj-61", 0 ],
					"hidden" : 0,
					"midpoints" : [ 459.5, 177.0, 529.5, 177.0 ]
				}

			}
, 			{
				"patchline" : 				{
					"source" : [ "obj-15", 1 ],
					"destination" : [ "obj-17", 0 ],
					"hidden" : 0,
					"midpoints" : [ 479.0, 150.0, 479.5, 150.0 ]
				}

			}
, 			{
				"patchline" : 				{
					"source" : [ "obj-12", 0 ],
					"destination" : [ "obj-96", 0 ],
					"hidden" : 0,
					"midpoints" : [ 569.5, 432.0, 569.5, 432.0 ]
				}

			}
, 			{
				"patchline" : 				{
					"source" : [ "obj-12", 1 ],
					"destination" : [ "obj-96", 1 ],
					"hidden" : 0,
					"midpoints" : [ 602.5, 432.0, 637.5, 432.0 ]
				}

			}
, 			{
				"patchline" : 				{
					"source" : [ "obj-11", 0 ],
					"destination" : [ "obj-61", 0 ],
					"hidden" : 0,
					"midpoints" : [ 259.5, 177.0, 529.5, 177.0 ]
				}

			}
, 			{
				"patchline" : 				{
					"source" : [ "obj-108", 0 ],
					"destination" : [ "obj-1", 0 ],
					"hidden" : 0,
					"midpoints" : [ 859.5, 471.0, 330.0, 471.0, 330.0, 207.0, 59.5, 207.0 ]
				}

			}
, 			{
				"patchline" : 				{
					"source" : [ "obj-104", 0 ],
					"destination" : [ "obj-1", 0 ],
					"hidden" : 0,
					"midpoints" : [ 749.5, 471.0, 330.0, 471.0, 330.0, 207.0, 59.5, 207.0 ]
				}

			}
, 			{
				"patchline" : 				{
					"source" : [ "obj-100", 0 ],
					"destination" : [ "obj-1", 0 ],
					"hidden" : 0,
					"midpoints" : [ 659.5, 471.0, 330.0, 471.0, 330.0, 207.0, 59.5, 207.0 ]
				}

			}
, 			{
				"patchline" : 				{
					"source" : [ "obj-16", 0 ],
					"destination" : [ "obj-11", 0 ],
					"hidden" : 0,
					"midpoints" : [ 259.5, 57.0, 259.5, 57.0 ]
				}

			}
, 			{
				"patchline" : 				{
					"source" : [ "obj-18", 0 ],
					"destination" : [ "obj-1", 0 ],
					"hidden" : 0,
					"midpoints" : [ 59.5, 57.0, 59.5, 57.0 ]
				}

			}
 ]
	}

}
