{
	"patcher" : 	{
		"fileversion" : 1,
		"rect" : [ 157.0, 153.0, 1030.0, 452.0 ],
		"bglocked" : 0,
		"defrect" : [ 157.0, 153.0, 1030.0, 452.0 ],
		"openrect" : [ 0.0, 0.0, 0.0, 0.0 ],
		"openinpresentation" : 0,
		"default_fontsize" : 12.0,
		"default_fontface" : 0,
		"default_fontname" : "Arial",
		"gridonopen" : 0,
		"gridsize" : [ 10.0, 10.0 ],
		"gridsnaponopen" : 0,
		"toolbarvisible" : 1,
		"boxanimatetime" : 200,
		"imprint" : 0,
		"enablehscroll" : 1,
		"enablevscroll" : 1,
		"devicewidth" : 0.0,
		"boxes" : [ 			{
				"box" : 				{
					"maxclass" : "toggle",
					"numinlets" : 1,
					"numoutlets" : 1,
					"outlettype" : [ "int" ],
					"patching_rect" : [ 170.0, 10.0, 20.0, 20.0 ],
					"id" : "obj-51"
				}

			}
, 			{
				"box" : 				{
					"maxclass" : "inlet",
					"numinlets" : 0,
					"numoutlets" : 1,
					"outlettype" : [ "" ],
					"patching_rect" : [ 340.0, 10.0, 25.0, 25.0 ],
					"id" : "obj-50",
					"comment" : ""
				}

			}
, 			{
				"box" : 				{
					"maxclass" : "inlet",
					"numinlets" : 0,
					"numoutlets" : 1,
					"outlettype" : [ "" ],
					"patching_rect" : [ 250.0, 10.0, 25.0, 25.0 ],
					"id" : "obj-49",
					"comment" : ""
				}

			}
, 			{
				"box" : 				{
					"maxclass" : "comment",
					"text" : "ButtonView\nshow/hide",
					"linecount" : 2,
					"numinlets" : 1,
					"numoutlets" : 0,
					"fontsize" : 12.0,
					"patching_rect" : [ 360.0, 80.0, 72.0, 34.0 ],
					"fontname" : "Arial",
					"id" : "obj-43"
				}

			}
, 			{
				"box" : 				{
					"maxclass" : "toggle",
					"numinlets" : 1,
					"numoutlets" : 1,
					"outlettype" : [ "int" ],
					"patching_rect" : [ 340.0, 90.0, 20.0, 20.0 ],
					"id" : "obj-47"
				}

			}
, 			{
				"box" : 				{
					"maxclass" : "inlet",
					"numinlets" : 0,
					"numoutlets" : 1,
					"outlettype" : [ "" ],
					"patching_rect" : [ 140.0, 10.0, 25.0, 25.0 ],
					"id" : "obj-1",
					"comment" : ""
				}

			}
, 			{
				"box" : 				{
					"maxclass" : "inlet",
					"numinlets" : 0,
					"numoutlets" : 1,
					"outlettype" : [ "" ],
					"patching_rect" : [ 30.0, 10.0, 25.0, 25.0 ],
					"id" : "obj-46",
					"comment" : ""
				}

			}
, 			{
				"box" : 				{
					"maxclass" : "comment",
					"text" : "ButtonView\nstart/stop",
					"linecount" : 2,
					"numinlets" : 1,
					"numoutlets" : 0,
					"fontsize" : 12.0,
					"patching_rect" : [ 270.0, 80.0, 72.0, 34.0 ],
					"fontname" : "Arial",
					"id" : "obj-42"
				}

			}
, 			{
				"box" : 				{
					"maxclass" : "toggle",
					"numinlets" : 1,
					"numoutlets" : 1,
					"outlettype" : [ "int" ],
					"patching_rect" : [ 250.0, 90.0, 20.0, 20.0 ],
					"id" : "obj-39"
				}

			}
, 			{
				"box" : 				{
					"maxclass" : "newobj",
					"text" : "p ScrollView_text",
					"numinlets" : 1,
					"numoutlets" : 0,
					"fontsize" : 12.0,
					"patching_rect" : [ 30.0, 50.0, 102.0, 20.0 ],
					"fontname" : "Arial",
					"id" : "obj-31",
					"patcher" : 					{
						"fileversion" : 1,
						"rect" : [ 159.0, 151.0, 574.0, 565.0 ],
						"bglocked" : 0,
						"defrect" : [ 159.0, 151.0, 574.0, 565.0 ],
						"openrect" : [ 0.0, 0.0, 0.0, 0.0 ],
						"openinpresentation" : 0,
						"default_fontsize" : 12.0,
						"default_fontface" : 0,
						"default_fontname" : "Arial",
						"gridonopen" : 0,
						"gridsize" : [ 20.0, 10.0 ],
						"gridsnaponopen" : 0,
						"toolbarvisible" : 1,
						"boxanimatetime" : 200,
						"imprint" : 0,
						"enablehscroll" : 1,
						"enablevscroll" : 1,
						"devicewidth" : 0.0,
						"boxes" : [ 							{
								"box" : 								{
									"maxclass" : "comment",
									"text" : "calculate scroll speed based on char count",
									"linecount" : 2,
									"numinlets" : 1,
									"numoutlets" : 0,
									"fontsize" : 12.0,
									"patching_rect" : [ 340.0, 220.0, 127.0, 34.0 ],
									"fontname" : "Arial",
									"id" : "obj-37"
								}

							}
, 							{
								"box" : 								{
									"maxclass" : "newobj",
									"text" : "expr 7000 + ($i1 * 300)",
									"numinlets" : 1,
									"numoutlets" : 1,
									"fontsize" : 12.0,
									"outlettype" : [ "" ],
									"patching_rect" : [ 320.0, 200.0, 133.0, 20.0 ],
									"fontname" : "Arial",
									"id" : "obj-36"
								}

							}
, 							{
								"box" : 								{
									"maxclass" : "newobj",
									"text" : "t i i",
									"numinlets" : 1,
									"numoutlets" : 2,
									"fontsize" : 12.0,
									"outlettype" : [ "int", "int" ],
									"patching_rect" : [ 160.0, 140.0, 32.5, 20.0 ],
									"fontname" : "Arial",
									"id" : "obj-35"
								}

							}
, 							{
								"box" : 								{
									"maxclass" : "comment",
									"text" : "calculate distance to move off screen",
									"linecount" : 2,
									"numinlets" : 1,
									"numoutlets" : 0,
									"fontsize" : 12.0,
									"patching_rect" : [ 180.0, 220.0, 122.0, 34.0 ],
									"fontname" : "Arial",
									"id" : "obj-32"
								}

							}
, 							{
								"box" : 								{
									"maxclass" : "comment",
									"text" : "count characters",
									"numinlets" : 1,
									"numoutlets" : 0,
									"fontsize" : 12.0,
									"patching_rect" : [ 200.0, 120.0, 98.0, 20.0 ],
									"fontname" : "Arial",
									"id" : "obj-31"
								}

							}
, 							{
								"box" : 								{
									"maxclass" : "newobj",
									"text" : "pack f f",
									"numinlets" : 2,
									"numoutlets" : 1,
									"fontsize" : 12.0,
									"outlettype" : [ "" ],
									"patching_rect" : [ 160.0, 290.0, 49.0, 20.0 ],
									"fontname" : "Arial",
									"id" : "obj-29"
								}

							}
, 							{
								"box" : 								{
									"maxclass" : "newobj",
									"text" : "expr -9 - (($i1 - 1) * 0.6)",
									"numinlets" : 1,
									"numoutlets" : 1,
									"fontsize" : 12.0,
									"outlettype" : [ "" ],
									"patching_rect" : [ 160.0, 200.0, 136.0, 20.0 ],
									"fontname" : "Arial",
									"id" : "obj-9"
								}

							}
, 							{
								"box" : 								{
									"maxclass" : "newobj",
									"text" : "zl len",
									"numinlets" : 2,
									"numoutlets" : 2,
									"fontsize" : 12.0,
									"outlettype" : [ "", "" ],
									"patching_rect" : [ 160.0, 120.0, 39.0, 20.0 ],
									"fontname" : "Arial",
									"id" : "obj-19"
								}

							}
, 							{
								"box" : 								{
									"maxclass" : "newobj",
									"text" : "route text",
									"numinlets" : 1,
									"numoutlets" : 2,
									"fontsize" : 12.0,
									"outlettype" : [ "", "" ],
									"patching_rect" : [ 160.0, 80.0, 61.0, 20.0 ],
									"fontname" : "Arial",
									"id" : "obj-18"
								}

							}
, 							{
								"box" : 								{
									"maxclass" : "newobj",
									"text" : "t s s",
									"numinlets" : 1,
									"numoutlets" : 2,
									"fontsize" : 12.0,
									"outlettype" : [ "", "" ],
									"patching_rect" : [ 60.0, 40.0, 39.0, 20.0 ],
									"fontname" : "Arial",
									"id" : "obj-17"
								}

							}
, 							{
								"box" : 								{
									"maxclass" : "newobj",
									"text" : "atoi",
									"numinlets" : 3,
									"numoutlets" : 1,
									"fontsize" : 12.0,
									"outlettype" : [ "list" ],
									"patching_rect" : [ 160.0, 100.0, 46.0, 20.0 ],
									"fontname" : "Arial",
									"id" : "obj-3"
								}

							}
, 							{
								"box" : 								{
									"maxclass" : "message",
									"text" : "9., $1 $2",
									"numinlets" : 2,
									"numoutlets" : 1,
									"fontsize" : 12.0,
									"outlettype" : [ "" ],
									"patching_rect" : [ 160.0, 360.0, 57.0, 18.0 ],
									"fontname" : "Arial",
									"id" : "obj-20"
								}

							}
, 							{
								"box" : 								{
									"maxclass" : "newobj",
									"text" : "line 3. 0.01",
									"numinlets" : 3,
									"numoutlets" : 2,
									"fontsize" : 12.0,
									"outlettype" : [ "", "" ],
									"patching_rect" : [ 160.0, 380.0, 69.0, 20.0 ],
									"fontname" : "Arial",
									"id" : "obj-16"
								}

							}
, 							{
								"box" : 								{
									"maxclass" : "newobj",
									"text" : "p text_init",
									"numinlets" : 0,
									"numoutlets" : 1,
									"fontsize" : 12.0,
									"outlettype" : [ "" ],
									"patching_rect" : [ 80.0, 370.0, 62.0, 20.0 ],
									"fontname" : "Arial",
									"id" : "obj-13",
									"patcher" : 									{
										"fileversion" : 1,
										"rect" : [ 453.0, 533.0, 382.0, 225.0 ],
										"bglocked" : 0,
										"defrect" : [ 453.0, 533.0, 382.0, 225.0 ],
										"openrect" : [ 0.0, 0.0, 0.0, 0.0 ],
										"openinpresentation" : 0,
										"default_fontsize" : 12.0,
										"default_fontface" : 0,
										"default_fontname" : "Arial",
										"gridonopen" : 0,
										"gridsize" : [ 20.0, 10.0 ],
										"gridsnaponopen" : 0,
										"toolbarvisible" : 1,
										"boxanimatetime" : 200,
										"imprint" : 0,
										"enablehscroll" : 1,
										"enablevscroll" : 1,
										"devicewidth" : 0.0,
										"boxes" : [ 											{
												"box" : 												{
													"maxclass" : "message",
													"text" : "font Courier",
													"numinlets" : 2,
													"numoutlets" : 1,
													"fontsize" : 12.0,
													"outlettype" : [ "" ],
													"patching_rect" : [ 20.0, 120.0, 73.0, 18.0 ],
													"fontname" : "Arial",
													"id" : "obj-9"
												}

											}
, 											{
												"box" : 												{
													"maxclass" : "newobj",
													"text" : "loadbang",
													"numinlets" : 1,
													"numoutlets" : 1,
													"fontsize" : 12.0,
													"outlettype" : [ "bang" ],
													"patching_rect" : [ 20.0, 20.0, 60.0, 20.0 ],
													"fontname" : "Arial",
													"id" : "obj-1"
												}

											}
, 											{
												"box" : 												{
													"maxclass" : "newobj",
													"text" : "b 4",
													"numinlets" : 1,
													"numoutlets" : 4,
													"fontsize" : 12.0,
													"outlettype" : [ "bang", "bang", "bang", "bang" ],
													"patching_rect" : [ 20.0, 40.0, 59.5, 20.0 ],
													"fontname" : "Arial",
													"id" : "obj-47"
												}

											}
, 											{
												"box" : 												{
													"maxclass" : "message",
													"text" : "face italic",
													"numinlets" : 2,
													"numoutlets" : 1,
													"fontsize" : 12.0,
													"outlettype" : [ "" ],
													"patching_rect" : [ 100.0, 120.0, 61.0, 18.0 ],
													"fontname" : "Arial",
													"id" : "obj-38"
												}

											}
, 											{
												"box" : 												{
													"maxclass" : "message",
													"text" : "size 50",
													"numinlets" : 2,
													"numoutlets" : 1,
													"fontsize" : 12.0,
													"outlettype" : [ "" ],
													"patching_rect" : [ 160.0, 120.0, 49.0, 18.0 ],
													"fontname" : "Arial",
													"id" : "obj-36"
												}

											}
, 											{
												"box" : 												{
													"maxclass" : "message",
													"text" : "drawto ScrollView",
													"numinlets" : 2,
													"numoutlets" : 1,
													"fontsize" : 12.0,
													"outlettype" : [ "" ],
													"patching_rect" : [ 200.0, 120.0, 106.0, 18.0 ],
													"fontname" : "Arial",
													"id" : "obj-16"
												}

											}
, 											{
												"box" : 												{
													"maxclass" : "outlet",
													"numinlets" : 1,
													"numoutlets" : 0,
													"patching_rect" : [ 20.0, 180.0, 25.0, 25.0 ],
													"id" : "obj-11",
													"comment" : ""
												}

											}
 ],
										"lines" : [ 											{
												"patchline" : 												{
													"source" : [ "obj-1", 0 ],
													"destination" : [ "obj-47", 0 ],
													"hidden" : 0,
													"midpoints" : [ 29.5, 42.0, 29.5, 42.0 ]
												}

											}
, 											{
												"patchline" : 												{
													"source" : [ "obj-47", 0 ],
													"destination" : [ "obj-9", 0 ],
													"hidden" : 0,
													"midpoints" : [ 29.5, 87.0, 29.5, 87.0 ]
												}

											}
, 											{
												"patchline" : 												{
													"source" : [ "obj-47", 1 ],
													"destination" : [ "obj-38", 0 ],
													"hidden" : 0,
													"midpoints" : [ 43.0, 87.0, 109.5, 87.0 ]
												}

											}
, 											{
												"patchline" : 												{
													"source" : [ "obj-47", 2 ],
													"destination" : [ "obj-36", 0 ],
													"hidden" : 0,
													"midpoints" : [ 56.5, 87.0, 169.5, 87.0 ]
												}

											}
, 											{
												"patchline" : 												{
													"source" : [ "obj-47", 3 ],
													"destination" : [ "obj-16", 0 ],
													"hidden" : 0,
													"midpoints" : [ 70.0, 87.0, 209.5, 87.0 ]
												}

											}
, 											{
												"patchline" : 												{
													"source" : [ "obj-9", 0 ],
													"destination" : [ "obj-11", 0 ],
													"hidden" : 0,
													"midpoints" : [  ]
												}

											}
, 											{
												"patchline" : 												{
													"source" : [ "obj-38", 0 ],
													"destination" : [ "obj-11", 0 ],
													"hidden" : 0,
													"midpoints" : [  ]
												}

											}
, 											{
												"patchline" : 												{
													"source" : [ "obj-36", 0 ],
													"destination" : [ "obj-11", 0 ],
													"hidden" : 0,
													"midpoints" : [  ]
												}

											}
, 											{
												"patchline" : 												{
													"source" : [ "obj-16", 0 ],
													"destination" : [ "obj-11", 0 ],
													"hidden" : 0,
													"midpoints" : [  ]
												}

											}
 ]
									}
,
									"saved_object_attributes" : 									{
										"globalpatchername" : "",
										"fontface" : 0,
										"fontsize" : 12.0,
										"default_fontface" : 0,
										"default_fontname" : "Arial",
										"fontname" : "Arial",
										"default_fontsize" : 12.0
									}

								}

							}
, 							{
								"box" : 								{
									"maxclass" : "inlet",
									"numinlets" : 0,
									"numoutlets" : 1,
									"outlettype" : [ "" ],
									"patching_rect" : [ 60.0, 10.0, 25.0, 25.0 ],
									"id" : "obj-10",
									"comment" : ""
								}

							}
, 							{
								"box" : 								{
									"maxclass" : "newobj",
									"text" : "pak position 9. -0.2",
									"numinlets" : 3,
									"numoutlets" : 1,
									"fontsize" : 12.0,
									"outlettype" : [ "" ],
									"patching_rect" : [ 100.0, 400.0, 139.0, 20.0 ],
									"fontname" : "Arial",
									"id" : "obj-2"
								}

							}
, 							{
								"box" : 								{
									"maxclass" : "newobj",
									"text" : "jit.gl.text2d @color 1. 1. 1. 1. @tracking 1.1 @align 0",
									"numinlets" : 1,
									"numoutlets" : 2,
									"fontsize" : 11.595187,
									"outlettype" : [ "", "" ],
									"patching_rect" : [ 60.0, 460.0, 282.0, 20.0 ],
									"fontname" : "Arial",
									"id" : "obj-76"
								}

							}
 ],
						"lines" : [ 							{
								"patchline" : 								{
									"source" : [ "obj-20", 0 ],
									"destination" : [ "obj-16", 0 ],
									"hidden" : 0,
									"midpoints" : [ 169.5, 378.0, 169.5, 378.0 ]
								}

							}
, 							{
								"patchline" : 								{
									"source" : [ "obj-16", 0 ],
									"destination" : [ "obj-2", 1 ],
									"hidden" : 0,
									"midpoints" : [ 169.5, 402.0, 169.5, 402.0 ]
								}

							}
, 							{
								"patchline" : 								{
									"source" : [ "obj-35", 1 ],
									"destination" : [ "obj-36", 0 ],
									"hidden" : 0,
									"midpoints" : [ 183.0, 186.0, 329.5, 186.0 ]
								}

							}
, 							{
								"patchline" : 								{
									"source" : [ "obj-36", 0 ],
									"destination" : [ "obj-29", 1 ],
									"hidden" : 0,
									"midpoints" : [ 329.5, 276.0, 199.5, 276.0 ]
								}

							}
, 							{
								"patchline" : 								{
									"source" : [ "obj-35", 0 ],
									"destination" : [ "obj-9", 0 ],
									"hidden" : 0,
									"midpoints" : [ 169.5, 162.0, 169.5, 162.0 ]
								}

							}
, 							{
								"patchline" : 								{
									"source" : [ "obj-19", 0 ],
									"destination" : [ "obj-35", 0 ],
									"hidden" : 0,
									"midpoints" : [ 169.5, 141.0, 169.5, 141.0 ]
								}

							}
, 							{
								"patchline" : 								{
									"source" : [ "obj-9", 0 ],
									"destination" : [ "obj-29", 0 ],
									"hidden" : 0,
									"midpoints" : [ 169.5, 222.0, 169.5, 222.0 ]
								}

							}
, 							{
								"patchline" : 								{
									"source" : [ "obj-29", 0 ],
									"destination" : [ "obj-20", 0 ],
									"hidden" : 0,
									"midpoints" : [ 169.5, 312.0, 169.5, 312.0 ]
								}

							}
, 							{
								"patchline" : 								{
									"source" : [ "obj-3", 0 ],
									"destination" : [ "obj-19", 0 ],
									"hidden" : 0,
									"midpoints" : [ 169.5, 120.0, 169.5, 120.0 ]
								}

							}
, 							{
								"patchline" : 								{
									"source" : [ "obj-18", 0 ],
									"destination" : [ "obj-3", 0 ],
									"hidden" : 0,
									"midpoints" : [ 169.5, 102.0, 169.5, 102.0 ]
								}

							}
, 							{
								"patchline" : 								{
									"source" : [ "obj-10", 0 ],
									"destination" : [ "obj-17", 0 ],
									"hidden" : 0,
									"midpoints" : [ 69.5, 36.0, 69.5, 36.0 ]
								}

							}
, 							{
								"patchline" : 								{
									"source" : [ "obj-17", 1 ],
									"destination" : [ "obj-18", 0 ],
									"hidden" : 0,
									"midpoints" : [ 89.5, 60.0, 169.5, 60.0 ]
								}

							}
, 							{
								"patchline" : 								{
									"source" : [ "obj-13", 0 ],
									"destination" : [ "obj-76", 0 ],
									"hidden" : 0,
									"midpoints" : [ 89.5, 447.0, 69.5, 447.0 ]
								}

							}
, 							{
								"patchline" : 								{
									"source" : [ "obj-2", 0 ],
									"destination" : [ "obj-76", 0 ],
									"hidden" : 0,
									"midpoints" : [ 109.5, 447.0, 69.5, 447.0 ]
								}

							}
, 							{
								"patchline" : 								{
									"source" : [ "obj-17", 0 ],
									"destination" : [ "obj-76", 0 ],
									"hidden" : 0,
									"midpoints" : [ 69.5, 60.0, 69.5, 60.0 ]
								}

							}
 ]
					}
,
					"saved_object_attributes" : 					{
						"globalpatchername" : "",
						"fontface" : 0,
						"fontsize" : 12.0,
						"default_fontface" : 0,
						"default_fontname" : "Arial",
						"fontname" : "Arial",
						"default_fontsize" : 12.0
					}

				}

			}
, 			{
				"box" : 				{
					"maxclass" : "newobj",
					"text" : "r qmet",
					"numinlets" : 0,
					"numoutlets" : 1,
					"fontsize" : 12.0,
					"outlettype" : [ "" ],
					"patching_rect" : [ 30.0, 370.0, 45.0, 20.0 ],
					"fontname" : "Arial",
					"id" : "obj-25"
				}

			}
, 			{
				"box" : 				{
					"maxclass" : "newobj",
					"text" : "jit.matrix ScrollView 4 char 1004 100",
					"numinlets" : 1,
					"numoutlets" : 2,
					"fontsize" : 12.0,
					"outlettype" : [ "jit_matrix", "" ],
					"patching_rect" : [ 30.0, 390.0, 204.0, 20.0 ],
					"fontname" : "Arial",
					"id" : "obj-29"
				}

			}
, 			{
				"box" : 				{
					"maxclass" : "jit.fpsgui",
					"numinlets" : 1,
					"numoutlets" : 2,
					"fontsize" : 12.0,
					"outlettype" : [ "", "" ],
					"patching_rect" : [ 570.0, 400.0, 80.0, 36.0 ],
					"fontname" : "Arial",
					"id" : "obj-13"
				}

			}
, 			{
				"box" : 				{
					"maxclass" : "newobj",
					"text" : "r qmet",
					"numinlets" : 0,
					"numoutlets" : 1,
					"fontsize" : 12.0,
					"outlettype" : [ "" ],
					"patching_rect" : [ 570.0, 300.0, 45.0, 20.0 ],
					"fontname" : "Arial",
					"id" : "obj-15"
				}

			}
, 			{
				"box" : 				{
					"maxclass" : "newobj",
					"text" : "t b erase",
					"numinlets" : 1,
					"numoutlets" : 2,
					"fontsize" : 11.595187,
					"outlettype" : [ "bang", "erase" ],
					"patching_rect" : [ 570.0, 320.0, 54.0, 20.0 ],
					"fontname" : "Arial",
					"id" : "obj-16"
				}

			}
, 			{
				"box" : 				{
					"maxclass" : "newobj",
					"text" : "jit.gl.render ScrollView @erase_color 0. 0. 0. 1.",
					"numinlets" : 1,
					"numoutlets" : 2,
					"fontsize" : 11.595187,
					"outlettype" : [ "bang", "" ],
					"patching_rect" : [ 570.0, 370.0, 252.0, 20.0 ],
					"fontname" : "Arial",
					"id" : "obj-20"
				}

			}
, 			{
				"box" : 				{
					"maxclass" : "newobj",
					"text" : "jit.matrix MainView 4 char 1024 768 @usedstdim 1 @dstdimstart 10 50 @dstdimend 1014 150",
					"numinlets" : 1,
					"numoutlets" : 2,
					"fontsize" : 12.0,
					"outlettype" : [ "jit_matrix", "" ],
					"patching_rect" : [ 30.0, 410.0, 512.0, 20.0 ],
					"fontname" : "Arial",
					"id" : "obj-12"
				}

			}
, 			{
				"box" : 				{
					"maxclass" : "newobj",
					"text" : "p TextView_title",
					"numinlets" : 1,
					"numoutlets" : 0,
					"fontsize" : 12.0,
					"patching_rect" : [ 140.0, 50.0, 93.0, 20.0 ],
					"fontname" : "Arial",
					"id" : "obj-48",
					"patcher" : 					{
						"fileversion" : 1,
						"rect" : [ 25.0, 69.0, 531.0, 405.0 ],
						"bglocked" : 0,
						"defrect" : [ 25.0, 69.0, 531.0, 405.0 ],
						"openrect" : [ 0.0, 0.0, 0.0, 0.0 ],
						"openinpresentation" : 0,
						"default_fontsize" : 12.0,
						"default_fontface" : 0,
						"default_fontname" : "Arial",
						"gridonopen" : 0,
						"gridsize" : [ 20.0, 10.0 ],
						"gridsnaponopen" : 0,
						"toolbarvisible" : 1,
						"boxanimatetime" : 200,
						"imprint" : 0,
						"enablehscroll" : 1,
						"enablevscroll" : 1,
						"devicewidth" : 0.0,
						"boxes" : [ 							{
								"box" : 								{
									"maxclass" : "newobj",
									"text" : "sel 1",
									"numinlets" : 2,
									"numoutlets" : 2,
									"fontsize" : 12.0,
									"outlettype" : [ "bang", "" ],
									"patching_rect" : [ 20.0, 70.0, 36.0, 20.0 ],
									"fontname" : "Arial",
									"id" : "obj-20"
								}

							}
, 							{
								"box" : 								{
									"maxclass" : "message",
									"text" : "1., 0. 5000",
									"numinlets" : 2,
									"numoutlets" : 1,
									"fontsize" : 12.0,
									"outlettype" : [ "" ],
									"patching_rect" : [ 100.0, 120.0, 67.0, 18.0 ],
									"fontname" : "Arial",
									"id" : "obj-19"
								}

							}
, 							{
								"box" : 								{
									"maxclass" : "inlet",
									"numinlets" : 0,
									"numoutlets" : 1,
									"outlettype" : [ "int" ],
									"patching_rect" : [ 20.0, 10.0, 25.0, 25.0 ],
									"id" : "obj-18",
									"comment" : ""
								}

							}
, 							{
								"box" : 								{
									"maxclass" : "message",
									"text" : "0., 1. 15000",
									"numinlets" : 2,
									"numoutlets" : 1,
									"fontsize" : 12.0,
									"outlettype" : [ "" ],
									"patching_rect" : [ 20.0, 120.0, 74.0, 18.0 ],
									"fontname" : "Arial",
									"id" : "obj-17"
								}

							}
, 							{
								"box" : 								{
									"maxclass" : "newobj",
									"text" : "line 0. 0.1",
									"numinlets" : 3,
									"numoutlets" : 2,
									"fontsize" : 12.0,
									"outlettype" : [ "", "" ],
									"patching_rect" : [ 80.0, 190.0, 63.0, 20.0 ],
									"fontname" : "Arial",
									"id" : "obj-14"
								}

							}
, 							{
								"box" : 								{
									"maxclass" : "newobj",
									"text" : "pak color 0. 0. 0. 0.",
									"numinlets" : 5,
									"numoutlets" : 1,
									"fontsize" : 12.0,
									"outlettype" : [ "" ],
									"patching_rect" : [ 20.0, 240.0, 119.0, 20.0 ],
									"fontname" : "Arial",
									"id" : "obj-2"
								}

							}
, 							{
								"box" : 								{
									"maxclass" : "newobj",
									"text" : "loadbang",
									"numinlets" : 1,
									"numoutlets" : 1,
									"fontsize" : 12.0,
									"outlettype" : [ "bang" ],
									"patching_rect" : [ 260.0, 170.0, 60.0, 20.0 ],
									"fontname" : "Arial",
									"id" : "obj-1"
								}

							}
, 							{
								"box" : 								{
									"maxclass" : "newobj",
									"text" : "b 5",
									"numinlets" : 1,
									"numoutlets" : 5,
									"fontsize" : 12.0,
									"outlettype" : [ "bang", "bang", "bang", "bang", "bang" ],
									"patching_rect" : [ 260.0, 190.0, 139.0, 20.0 ],
									"fontname" : "Arial",
									"id" : "obj-47"
								}

							}
, 							{
								"box" : 								{
									"maxclass" : "message",
									"text" : "face bold",
									"numinlets" : 2,
									"numoutlets" : 1,
									"fontsize" : 12.0,
									"outlettype" : [ "" ],
									"patching_rect" : [ 320.0, 280.0, 59.0, 18.0 ],
									"fontname" : "Arial",
									"id" : "obj-38"
								}

							}
, 							{
								"box" : 								{
									"maxclass" : "message",
									"text" : "size 28",
									"numinlets" : 2,
									"numoutlets" : 1,
									"fontsize" : 12.0,
									"outlettype" : [ "" ],
									"patching_rect" : [ 360.0, 250.0, 49.0, 18.0 ],
									"fontname" : "Arial",
									"id" : "obj-36"
								}

							}
, 							{
								"box" : 								{
									"maxclass" : "message",
									"text" : "drawto TextView",
									"numinlets" : 2,
									"numoutlets" : 1,
									"fontsize" : 12.0,
									"outlettype" : [ "" ],
									"patching_rect" : [ 400.0, 220.0, 97.0, 18.0 ],
									"fontname" : "Arial",
									"id" : "obj-16"
								}

							}
, 							{
								"box" : 								{
									"maxclass" : "message",
									"text" : "text Thumbafonists",
									"numinlets" : 2,
									"numoutlets" : 1,
									"fontsize" : 12.0,
									"outlettype" : [ "" ],
									"patching_rect" : [ 260.0, 340.0, 112.0, 18.0 ],
									"fontname" : "Arial",
									"id" : "obj-12"
								}

							}
, 							{
								"box" : 								{
									"maxclass" : "newobj",
									"text" : "jit.gl.text2d @color 0. 0. 0. 0. @tracking 1.4 @align 0 @position -0.7 0.7",
									"numinlets" : 1,
									"numoutlets" : 2,
									"fontsize" : 11.595187,
									"outlettype" : [ "", "" ],
									"patching_rect" : [ 100.0, 370.0, 379.0, 20.0 ],
									"fontname" : "Arial",
									"id" : "obj-76"
								}

							}
 ],
						"lines" : [ 							{
								"patchline" : 								{
									"source" : [ "obj-47", 2 ],
									"destination" : [ "obj-38", 0 ],
									"hidden" : 0,
									"midpoints" : [ 329.5, 210.0, 329.5, 210.0 ]
								}

							}
, 							{
								"patchline" : 								{
									"source" : [ "obj-47", 3 ],
									"destination" : [ "obj-36", 0 ],
									"hidden" : 0,
									"midpoints" : [ 359.5, 237.0, 369.5, 237.0 ]
								}

							}
, 							{
								"patchline" : 								{
									"source" : [ "obj-47", 4 ],
									"destination" : [ "obj-16", 0 ],
									"hidden" : 0,
									"midpoints" : [ 389.5, 216.0, 409.5, 216.0 ]
								}

							}
, 							{
								"patchline" : 								{
									"source" : [ "obj-1", 0 ],
									"destination" : [ "obj-47", 0 ],
									"hidden" : 0,
									"midpoints" : [ 269.5, 192.0, 269.5, 192.0 ]
								}

							}
, 							{
								"patchline" : 								{
									"source" : [ "obj-47", 0 ],
									"destination" : [ "obj-12", 0 ],
									"hidden" : 0,
									"midpoints" : [ 269.5, 210.0, 269.5, 210.0 ]
								}

							}
, 							{
								"patchline" : 								{
									"source" : [ "obj-19", 0 ],
									"destination" : [ "obj-14", 0 ],
									"hidden" : 0,
									"midpoints" : [ 109.5, 177.0, 89.5, 177.0 ]
								}

							}
, 							{
								"patchline" : 								{
									"source" : [ "obj-20", 1 ],
									"destination" : [ "obj-19", 0 ],
									"hidden" : 0,
									"midpoints" : [ 46.5, 105.0, 109.5, 105.0 ]
								}

							}
, 							{
								"patchline" : 								{
									"source" : [ "obj-20", 0 ],
									"destination" : [ "obj-17", 0 ],
									"hidden" : 0,
									"midpoints" : [ 29.5, 90.0, 29.5, 90.0 ]
								}

							}
, 							{
								"patchline" : 								{
									"source" : [ "obj-18", 0 ],
									"destination" : [ "obj-20", 0 ],
									"hidden" : 0,
									"midpoints" : [ 29.5, 36.0, 29.5, 36.0 ]
								}

							}
, 							{
								"patchline" : 								{
									"source" : [ "obj-14", 0 ],
									"destination" : [ "obj-2", 1 ],
									"hidden" : 0,
									"midpoints" : [ 89.5, 225.0, 54.5, 225.0 ]
								}

							}
, 							{
								"patchline" : 								{
									"source" : [ "obj-14", 0 ],
									"destination" : [ "obj-2", 2 ],
									"hidden" : 0,
									"midpoints" : [ 89.5, 225.0, 79.5, 225.0 ]
								}

							}
, 							{
								"patchline" : 								{
									"source" : [ "obj-14", 0 ],
									"destination" : [ "obj-2", 3 ],
									"hidden" : 0,
									"midpoints" : [ 89.5, 225.0, 104.5, 225.0 ]
								}

							}
, 							{
								"patchline" : 								{
									"source" : [ "obj-14", 0 ],
									"destination" : [ "obj-2", 4 ],
									"hidden" : 0,
									"midpoints" : [ 89.5, 225.0, 129.5, 225.0 ]
								}

							}
, 							{
								"patchline" : 								{
									"source" : [ "obj-17", 0 ],
									"destination" : [ "obj-14", 0 ],
									"hidden" : 0,
									"midpoints" : [ 29.5, 177.0, 89.5, 177.0 ]
								}

							}
, 							{
								"patchline" : 								{
									"source" : [ "obj-2", 0 ],
									"destination" : [ "obj-76", 0 ],
									"hidden" : 0,
									"midpoints" : [ 29.5, 357.0, 109.5, 357.0 ]
								}

							}
, 							{
								"patchline" : 								{
									"source" : [ "obj-16", 0 ],
									"destination" : [ "obj-76", 0 ],
									"hidden" : 0,
									"midpoints" : [ 409.5, 240.0, 150.0, 240.0, 150.0, 357.0, 109.5, 357.0 ]
								}

							}
, 							{
								"patchline" : 								{
									"source" : [ "obj-12", 0 ],
									"destination" : [ "obj-76", 0 ],
									"hidden" : 0,
									"midpoints" : [ 269.5, 360.0, 111.0, 360.0, 111.0, 366.0, 109.5, 366.0 ]
								}

							}
, 							{
								"patchline" : 								{
									"source" : [ "obj-36", 0 ],
									"destination" : [ "obj-76", 0 ],
									"hidden" : 0,
									"midpoints" : [ 369.5, 270.0, 109.5, 270.0 ]
								}

							}
, 							{
								"patchline" : 								{
									"source" : [ "obj-38", 0 ],
									"destination" : [ "obj-76", 0 ],
									"hidden" : 0,
									"midpoints" : [ 329.5, 300.0, 109.5, 300.0 ]
								}

							}
 ]
					}
,
					"saved_object_attributes" : 					{
						"globalpatchername" : "",
						"fontface" : 0,
						"fontsize" : 12.0,
						"default_fontface" : 0,
						"default_fontname" : "Arial",
						"fontname" : "Arial",
						"default_fontsize" : 12.0
					}

				}

			}
, 			{
				"box" : 				{
					"maxclass" : "comment",
					"text" : " @erase_color 0. 0. 0. 1.",
					"numinlets" : 1,
					"numoutlets" : 0,
					"fontsize" : 12.0,
					"patching_rect" : [ 750.0, 340.0, 150.0, 20.0 ],
					"fontname" : "Arial",
					"id" : "obj-4"
				}

			}
, 			{
				"box" : 				{
					"maxclass" : "newobj",
					"text" : "p testMessaging",
					"numinlets" : 0,
					"numoutlets" : 0,
					"fontsize" : 12.0,
					"patching_rect" : [ 840.0, 20.0, 98.0, 20.0 ],
					"fontname" : "Arial",
					"id" : "obj-26",
					"patcher" : 					{
						"fileversion" : 1,
						"rect" : [ 106.0, 265.0, 584.0, 392.0 ],
						"bglocked" : 0,
						"defrect" : [ 106.0, 265.0, 584.0, 392.0 ],
						"openrect" : [ 0.0, 0.0, 0.0, 0.0 ],
						"openinpresentation" : 0,
						"default_fontsize" : 12.0,
						"default_fontface" : 0,
						"default_fontname" : "Arial",
						"gridonopen" : 0,
						"gridsize" : [ 10.0, 10.0 ],
						"gridsnaponopen" : 0,
						"toolbarvisible" : 1,
						"boxanimatetime" : 200,
						"imprint" : 0,
						"enablehscroll" : 1,
						"enablevscroll" : 1,
						"devicewidth" : 0.0,
						"boxes" : [ 							{
								"box" : 								{
									"maxclass" : "newobj",
									"text" : "pak size 12",
									"numinlets" : 2,
									"numoutlets" : 1,
									"fontsize" : 11.595187,
									"outlettype" : [ "" ],
									"patching_rect" : [ 115.0, 171.0, 67.0, 20.0 ],
									"fontname" : "Arial",
									"id" : "obj-15"
								}

							}
, 							{
								"box" : 								{
									"maxclass" : "newobj",
									"text" : "fontlist",
									"numinlets" : 1,
									"numoutlets" : 1,
									"fontsize" : 11.595187,
									"outlettype" : [ "" ],
									"patching_rect" : [ 25.0, 82.0, 42.0, 20.0 ],
									"fontname" : "Arial",
									"id" : "obj-16"
								}

							}
, 							{
								"box" : 								{
									"maxclass" : "message",
									"text" : "tracking $1",
									"numinlets" : 2,
									"numoutlets" : 1,
									"fontsize" : 11.595187,
									"outlettype" : [ "" ],
									"patching_rect" : [ 199.0, 176.0, 65.0, 18.0 ],
									"fontname" : "Arial",
									"id" : "obj-20"
								}

							}
, 							{
								"box" : 								{
									"maxclass" : "flonum",
									"numinlets" : 1,
									"triscale" : 0.9,
									"numoutlets" : 2,
									"fontsize" : 11.595187,
									"outlettype" : [ "float", "bang" ],
									"patching_rect" : [ 199.0, 153.0, 50.0, 20.0 ],
									"fontname" : "Arial",
									"id" : "obj-25"
								}

							}
, 							{
								"box" : 								{
									"maxclass" : "umenu",
									"numinlets" : 1,
									"numoutlets" : 3,
									"fontsize" : 11.595187,
									"outlettype" : [ "int", "", "" ],
									"items" : [ "left", ",", "center", ",", "right" ],
									"types" : [  ],
									"patching_rect" : [ 292.0, 153.0, 60.0, 20.0 ],
									"fontname" : "Arial",
									"id" : "obj-42"
								}

							}
, 							{
								"box" : 								{
									"maxclass" : "message",
									"text" : "align $1",
									"numinlets" : 2,
									"numoutlets" : 1,
									"fontsize" : 11.595187,
									"outlettype" : [ "" ],
									"patching_rect" : [ 292.0, 176.0, 50.0, 18.0 ],
									"fontname" : "Arial",
									"id" : "obj-43"
								}

							}
, 							{
								"box" : 								{
									"maxclass" : "comment",
									"text" : "font, face and spacing",
									"numinlets" : 1,
									"numoutlets" : 0,
									"fontface" : 1,
									"fontsize" : 11.595187,
									"patching_rect" : [ 20.0, 42.0, 131.0, 20.0 ],
									"fontname" : "Arial",
									"id" : "obj-52"
								}

							}
, 							{
								"box" : 								{
									"maxclass" : "comment",
									"text" : "leadscale is multiplied by the font's standard leading to set the vertical offset between lines of text.",
									"linecount" : 4,
									"numinlets" : 1,
									"numoutlets" : 0,
									"fontsize" : 11.595187,
									"patching_rect" : [ 292.0, 92.0, 148.0, 60.0 ],
									"fontname" : "Arial",
									"id" : "obj-53"
								}

							}
, 							{
								"box" : 								{
									"maxclass" : "message",
									"text" : "leadscale $1",
									"numinlets" : 2,
									"numoutlets" : 1,
									"fontsize" : 11.595187,
									"outlettype" : [ "" ],
									"patching_rect" : [ 294.0, 73.0, 74.0, 18.0 ],
									"fontname" : "Arial",
									"id" : "obj-63"
								}

							}
, 							{
								"box" : 								{
									"maxclass" : "flonum",
									"numinlets" : 1,
									"triscale" : 0.9,
									"numoutlets" : 2,
									"fontsize" : 11.595187,
									"outlettype" : [ "float", "bang" ],
									"patching_rect" : [ 294.0, 49.0, 50.0, 20.0 ],
									"fontname" : "Arial",
									"id" : "obj-64"
								}

							}
, 							{
								"box" : 								{
									"maxclass" : "newobj",
									"text" : "prepend face",
									"numinlets" : 1,
									"numoutlets" : 1,
									"fontsize" : 11.595187,
									"outlettype" : [ "" ],
									"patching_rect" : [ 177.0, 93.0, 89.0, 20.0 ],
									"fontname" : "Arial",
									"id" : "obj-79"
								}

							}
, 							{
								"box" : 								{
									"maxclass" : "umenu",
									"numinlets" : 1,
									"numoutlets" : 3,
									"fontsize" : 11.595187,
									"outlettype" : [ "int", "", "" ],
									"items" : [ "normal", ",", "bold", ",", "italic" ],
									"types" : [  ],
									"patching_rect" : [ 177.0, 66.0, 95.0, 20.0 ],
									"fontname" : "Arial",
									"id" : "obj-80"
								}

							}
, 							{
								"box" : 								{
									"maxclass" : "number",
									"numinlets" : 1,
									"triscale" : 0.9,
									"numoutlets" : 2,
									"fontsize" : 11.595187,
									"outlettype" : [ "int", "bang" ],
									"patching_rect" : [ 112.0, 135.0, 50.0, 20.0 ],
									"fontname" : "Arial",
									"id" : "obj-81"
								}

							}
, 							{
								"box" : 								{
									"maxclass" : "newobj",
									"text" : "tosymbol",
									"numinlets" : 1,
									"numoutlets" : 1,
									"fontsize" : 11.595187,
									"outlettype" : [ "" ],
									"patching_rect" : [ 25.0, 139.0, 57.0, 20.0 ],
									"fontname" : "Arial",
									"id" : "obj-82"
								}

							}
, 							{
								"box" : 								{
									"maxclass" : "newobj",
									"text" : "pak font Times",
									"numinlets" : 2,
									"numoutlets" : 1,
									"fontsize" : 11.595187,
									"outlettype" : [ "" ],
									"patching_rect" : [ 26.0, 171.0, 87.0, 20.0 ],
									"fontname" : "Arial",
									"id" : "obj-83"
								}

							}
, 							{
								"box" : 								{
									"maxclass" : "umenu",
									"numinlets" : 1,
									"numoutlets" : 3,
									"fontsize" : 11.595187,
									"outlettype" : [ "int", "", "" ],
									"items" : [ "Apple Braille Outline 6 Dot", ",", "Apple Braille Outline 8 Dot", ",", "Apple Braille Pinpoint 6 Dot", ",", "Apple Braille Pinpoint 8 Dot", ",", "Apple Braille", ",", "Apple Symbols", ",", "AppleGothic Regular", ",", ".Aqua Kana", ",", "Courier", ",", "Courier Oblique", ",", "Geeza Pro", ",", "Geneva", ",", ".Helvetica LT MM", ",", "Helvetica", ",", "Helvetica Oblique", ",", "Helvetica Neue", ",", "Helvetica Neue Condensed Bold", ",", "Helvetica Neue UltraLight", ",", "Helvetica Neue Light", ",", "Helvetica Neue Condensed Black", ",", "Helvetica Neue Medium", ",", ".Keyboard", ",", "LastResort", ",", "Lucida Grande", ",", "Menlo Regular", ",", "Menlo Bold", ",", "Menlo Italic", ",", "Monaco", ",", "Heiti TC Light", ",", "Heiti SC Light", ",", "Symbol", ",", "Thonburi", ",", ".Times LT MM", ",", "Times Roman", ",", "Times Bold", ",", "Times Italic", ",", "Zapf Dingbats", ",", "Hiragino Mincho ProN W3", ",", "Hiragino Mincho ProN W6", ",", "Hiragino Kaku Gothic ProN W3", ",", "Hiragino Kaku Gothic ProN W6", ",", "LiHei Pro", ",", "STXihei", ",", "STHeiti", ",", "Al Bayan Plain", ",", "American Typewriter", ",", "American Typewriter Light", ",", "American Typewriter Condensed", ",", "American Typewriter Condensed Light", ",", "Andale Mono", ",", "Apple Chancery", ",", "Apple LiGothic Medium", ",", "Apple LiSung Light", ",", "Apple Casual", ",", "AppleMyungjo Regular", ",", "Arial Black", ",", "Arial Narrow", ",", "Arial Rounded MT Bold", ",", "Arial Unicode MS", ",", "Arial", ",", "Arial Hebrew", ",", "Ayuthaya", ",", "Baghdad", ",", "Baskerville", ",", "Baskerville SemiBold", ",", "BiauKai", ",", "Big Caslon Medium", ",", "BlairMdITC TT Medium", ",", "Bordeaux Roman Bold LET Plain:1.0", ",", "Chalkboard", ",", "Chalkduster", ",", "Charcoal CY", ",", "Cochin", ",", "Comic Sans MS", ",", "Copperplate", ",", "Copperplate Light", ",", "Corsiva Hebrew", ",", "Courier New", ",", "Cracked", ",", "DecoType Naskh", ",", "Devanagari MT", ",", "Didot", ",", "Euphemia UCAS", ",", "Futura Medium", ",", "Futura Condensed Medium", ",", "Futura Condensed ExtraBold", ",", "Geneva CY", ",", "Georgia", ",", "Gill Sans", ",", "Gill Sans Light", ",", "Gujarati MT", ",", "GungSeo Regular", ",", "Gurmukhi MT", ",", "Handwriting - Dakota", ",", "HeadLineA Regular", ",", "Hei Regular", ",", "Helsinki Metronome", ",", "Helsinki Special", ",", "Helsinki Text", ",", "Helsinki", ",", "Helvetica CY Plain", ",", "Helvetica CY Oblique", ",", "Herculanum", ",", "Hiragino Sans GB W3", ",", "Hiragino Sans GB W6", ",", "Hoefler Text Ornaments", ",", "Hoefler Text", ",", "Hoefler Text Black", ",", "Impact", ",", "InaiMathi", ",", "Inkpen2 Chords", ",", "Inkpen2 Metronome", ",", "Inkpen2 Script", ",", "Inkpen2 Special", ",", "Inkpen2 Text", ",", "Inkpen2", ",", "Kai Regular", ",", "Kailasa Regular", ",", "Kokonor Regular", ",", "Krungthep", ",", "KufiStandardGK", ",", "Marker Felt Thin", ",", "Marker Felt Wide", ",", "Abadi MT Condensed Extra Bold", ",", "Abadi MT Condensed Light", ",", "Andale Mono", ",", "Arial", ",", "Arial Black", ",", "Arial Narrow", ",", "Arial Rounded MT Bold", ",", "Baskerville Old Face", ",", "Batang", ",", "Bauhaus 93", ",", "Bell MT", ",", "Bernard MT Condensed", ",", "Book Antiqua", ",", "Bookman Old Style", ",", "Bookshelf Symbol 7", ",", "Braggadocio", ",", "Britannic Bold", ",", "Brush Script MT Italic", ",", "Calibri", ",", "Calisto MT", ",", "Cambria", ",", "Candara", ",", "Century", ",", "Century Gothic", ",", "Century Schoolbook", ",", "Colonna MT", ",", "Comic Sans MS", ",", "Consolas", ",", "Constantia", ",", "Cooper Black", ",", "Copperplate Gothic Bold", ",", "Copperplate Gothic Light", ",", "Corbel", ",", "Curlz MT", ",", "Desdemona", ",", "Edwardian Script ITC", ",", "Engravers MT", ",", "Eurostile", ",", "Footlight MT Light", ",", "Franklin Gothic Book", ",", "Franklin Gothic Medium", ",", "Garamond", ",", "Georgia", ",", "Gill Sans MT", ",", "Gill Sans Ultra Bold", ",", "Gloucester MT Extra Condensed", ",", "Goudy Old Style", ",", "Gulim", ",", "Haettenschweiler", ",", "Harrington", ",", "Impact", ",", "Imprint MT Shadow", ",", "Kino MT", ",", "Lucida Blackletter", ",", "Lucida Bright", ",", "Lucida Bright Demibold", ",", "Lucida Calligraphy Italic", ",", "Lucida Console", ",", "Lucida Fax Regular", ",", "Lucida Fax Demibold", ",", "Lucida Fax Italic", ",", "Lucida Handwriting Italic", ",", "Lucida Sans Regular", ",", "Lucida Sans Demibold Roman", ",", "Lucida Sans Italic", ",", "Lucida Sans Demibold Italic", ",", "Lucida Sans Typewriter Regular", ",", "Lucida Sans Typewriter Bold", ",", "Lucida Sans Typewriter Oblique", ",", "Lucida Sans Typewriter Bold Oblique", ",", "Lucida Sans Unicode", ",", "Marlett", ",", "Matura MT Script Capitals", ",", "Meiryo", ",", "Mistral", ",", "Modern No. 20", ",", "Monotype Corsiva", ",", "Monotype Sorts", ",", "MS Gothic", ",", "MS Mincho", ",", "MS PGothic", ",", "MS PMincho", ",", "MS Reference Sans Serif", ",", "MS Reference Specialty", ",", "MT Extra", ",", "News Gothic MT", ",", "Onyx", ",", "Perpetua Titling MT Light", ",", "Perpetua Titling MT Bold", ",", "Perpetua", ",", "Playbill", ",", "PMingLiU", ",", "Rockwell", ",", "Rockwell Extra Bold", ",", "SimSun", ",", "Stencil", ",", "Tahoma", ",", "Times New Roman", ",", "Trebuchet MS", ",", "Tw Cen MT", ",", "Verdana", ",", "Wide Latin", ",", "Wingdings", ",", "Wingdings 2", ",", "Wingdings 3", ",", "Microsoft Sans Serif", ",", "Mshtakan Oblique", ",", "Mshtakan", ",", "Nadeem", ",", "New Peninim MT", ",", "New Peninim MT Bold Inclined", ",", "New Peninim MT Inclined", ",", "GB18030 Bitmap", ",", "Optima Regular", ",", "Optima Bold", ",", "Optima Italic", ",", "Optima ExtraBlack", ",", "Opus Chords Sans Condensed", ",", "Opus Chords Sans", ",", "Opus Chords", ",", "Opus Figured Bass Extras", ",", "Opus Figured Bass", ",", "Opus Function Symbols", ",", "Opus Metronome", ",", "Opus Note Names", ",", "Opus Ornaments", ",", "Opus Percussion", ",", "Opus PlainChords", ",", "Opus Roman Chords", ",", "Opus Special Extra", ",", "Opus Special", ",", "Opus Text", ",", "Opus", ",", "Osaka", ",", "Osaka-Mono", ",", "Palatino", ",", "Papyrus", ",", "Papyrus Condensed", ",", "PCMyungjo Regular", ",", "PhotoScore Extra", ",", "PilGi Regular", ",", "Plantagenet Cherokee", ",", "PortagoITC TT", ",", "Raanana", ",", "Reprise Chords", ",", "Reprise Metronome", ",", "Reprise Rehearsal", ",", "Reprise Script", ",", "Reprise Special", ",", "Reprise Stamp", ",", "Reprise Text", ",", "Reprise Title", ",", "Reprise", ",", "Sathu", ",", "Silom", ",", "Skia Regular", ",", "Heiti TC Medium", ",", "Heiti SC Medium", ",", "Tahoma", ",", "Times New Roman", ",", "Trebuchet MS", ",", "Verdana", ",", "Webdings", ",", "Wingdings 2", ",", "Wingdings 3", ",", "Wingdings", ",", "Zapfino", ",", "Hiragino Maru Gothic Pro W4", ",", "Hiragino Maru Gothic ProN W4", ",", "Hiragino Mincho Pro W3", ",", "Hiragino Mincho Pro W6", ",", "Hiragino Kaku Gothic Pro W3", ",", "Hiragino Kaku Gothic Pro W6", ",", "Hiragino Kaku Gothic Std W8", ",", "Hiragino Kaku Gothic StdN W8", ",", "LiSong Pro", ",", "STFangsong", ",", "STSong", ",", "STKaiti", ",", "Helvetica Light", ",", "Helvetica Light Oblique" ],
									"types" : [  ],
									"patching_rect" : [ 25.0, 107.0, 147.0, 20.0 ],
									"fontname" : "Arial",
									"id" : "obj-84"
								}

							}
, 							{
								"box" : 								{
									"maxclass" : "panel",
									"numinlets" : 1,
									"numoutlets" : 0,
									"bgcolor" : [ 0.701961, 0.980392, 0.705882, 1.0 ],
									"patching_rect" : [ 20.0, 40.0, 429.0, 162.0 ],
									"id" : "obj-100"
								}

							}
, 							{
								"box" : 								{
									"maxclass" : "message",
									"text" : "drawto TextView",
									"numinlets" : 2,
									"numoutlets" : 1,
									"fontsize" : 12.0,
									"outlettype" : [ "" ],
									"patching_rect" : [ 90.0, 270.0, 97.0, 18.0 ],
									"fontname" : "Arial",
									"id" : "obj-12"
								}

							}
, 							{
								"box" : 								{
									"maxclass" : "newobj",
									"text" : "jit.gl.text2d @color 0.1 0.5 0.8 1. @tracking 1.2 @align 2",
									"numinlets" : 1,
									"numoutlets" : 2,
									"fontsize" : 11.595187,
									"outlettype" : [ "", "" ],
									"patching_rect" : [ 210.0, 320.0, 301.0, 20.0 ],
									"fontname" : "Arial",
									"id" : "obj-76"
								}

							}
 ],
						"lines" : [ 							{
								"patchline" : 								{
									"source" : [ "obj-64", 0 ],
									"destination" : [ "obj-63", 0 ],
									"hidden" : 0,
									"midpoints" : [  ]
								}

							}
, 							{
								"patchline" : 								{
									"source" : [ "obj-42", 0 ],
									"destination" : [ "obj-43", 0 ],
									"hidden" : 0,
									"midpoints" : [  ]
								}

							}
, 							{
								"patchline" : 								{
									"source" : [ "obj-25", 0 ],
									"destination" : [ "obj-20", 0 ],
									"hidden" : 0,
									"midpoints" : [  ]
								}

							}
, 							{
								"patchline" : 								{
									"source" : [ "obj-80", 1 ],
									"destination" : [ "obj-79", 0 ],
									"hidden" : 0,
									"midpoints" : [ 224.5, 88.0, 186.5, 88.0 ]
								}

							}
, 							{
								"patchline" : 								{
									"source" : [ "obj-81", 0 ],
									"destination" : [ "obj-15", 1 ],
									"hidden" : 0,
									"midpoints" : [ 121.5, 164.0, 172.5, 164.0 ]
								}

							}
, 							{
								"patchline" : 								{
									"source" : [ "obj-82", 0 ],
									"destination" : [ "obj-83", 1 ],
									"hidden" : 0,
									"midpoints" : [ 34.5, 168.0, 103.5, 168.0 ]
								}

							}
, 							{
								"patchline" : 								{
									"source" : [ "obj-84", 1 ],
									"destination" : [ "obj-82", 0 ],
									"hidden" : 0,
									"midpoints" : [ 98.5, 132.0, 34.5, 132.0 ]
								}

							}
, 							{
								"patchline" : 								{
									"source" : [ "obj-16", 0 ],
									"destination" : [ "obj-84", 0 ],
									"hidden" : 0,
									"midpoints" : [  ]
								}

							}
, 							{
								"patchline" : 								{
									"source" : [ "obj-12", 0 ],
									"destination" : [ "obj-76", 0 ],
									"hidden" : 0,
									"midpoints" : [  ]
								}

							}
 ]
					}
,
					"saved_object_attributes" : 					{
						"globalpatchername" : "",
						"fontface" : 0,
						"fontsize" : 12.0,
						"default_fontface" : 0,
						"default_fontname" : "Arial",
						"fontname" : "Arial",
						"default_fontsize" : 12.0
					}

				}

			}
, 			{
				"box" : 				{
					"maxclass" : "comment",
					"text" : "speed \n(1 is normal speed)",
					"linecount" : 2,
					"numinlets" : 1,
					"numoutlets" : 0,
					"fontsize" : 12.0,
					"patching_rect" : [ 120.0, 80.0, 116.0, 34.0 ],
					"fontname" : "Arial",
					"id" : "obj-45"
				}

			}
, 			{
				"box" : 				{
					"maxclass" : "comment",
					"text" : "phrase select",
					"linecount" : 2,
					"numinlets" : 1,
					"numoutlets" : 0,
					"fontsize" : 12.0,
					"patching_rect" : [ 70.0, 80.0, 49.0, 34.0 ],
					"fontname" : "Arial",
					"id" : "obj-44"
				}

			}
, 			{
				"box" : 				{
					"maxclass" : "number",
					"numinlets" : 1,
					"minimum" : 0,
					"numoutlets" : 2,
					"fontsize" : 12.0,
					"maximum" : 20,
					"outlettype" : [ "int", "bang" ],
					"patching_rect" : [ 150.0, 120.0, 50.0, 20.0 ],
					"fontname" : "Arial",
					"id" : "obj-30"
				}

			}
, 			{
				"box" : 				{
					"maxclass" : "number",
					"numinlets" : 1,
					"minimum" : 0,
					"numoutlets" : 2,
					"fontsize" : 12.0,
					"maximum" : 4,
					"outlettype" : [ "int", "bang" ],
					"patching_rect" : [ 80.0, 120.0, 44.0, 20.0 ],
					"fontname" : "Arial",
					"id" : "obj-21"
				}

			}
, 			{
				"box" : 				{
					"maxclass" : "newobj",
					"text" : "r qmet",
					"numinlets" : 0,
					"numoutlets" : 1,
					"fontsize" : 12.0,
					"outlettype" : [ "" ],
					"patching_rect" : [ 30.0, 290.0, 45.0, 20.0 ],
					"fontname" : "Arial",
					"id" : "obj-28"
				}

			}
, 			{
				"box" : 				{
					"maxclass" : "jit.fpsgui",
					"numinlets" : 1,
					"numoutlets" : 2,
					"fontsize" : 12.0,
					"outlettype" : [ "", "" ],
					"patching_rect" : [ 770.0, 210.0, 80.0, 36.0 ],
					"fontname" : "Arial",
					"id" : "obj-27"
				}

			}
, 			{
				"box" : 				{
					"maxclass" : "jit.fpsgui",
					"numinlets" : 1,
					"numoutlets" : 2,
					"fontsize" : 12.0,
					"outlettype" : [ "", "" ],
					"patching_rect" : [ 660.0, 310.0, 80.0, 36.0 ],
					"fontname" : "Arial",
					"id" : "obj-22"
				}

			}
, 			{
				"box" : 				{
					"maxclass" : "newobj",
					"text" : "jit.matrix TextView 4 char 510 548",
					"numinlets" : 1,
					"numoutlets" : 2,
					"fontsize" : 12.0,
					"outlettype" : [ "jit_matrix", "" ],
					"patching_rect" : [ 30.0, 310.0, 189.0, 20.0 ],
					"fontname" : "Arial",
					"id" : "obj-17"
				}

			}
, 			{
				"box" : 				{
					"maxclass" : "newobj",
					"text" : "r qmet",
					"numinlets" : 0,
					"numoutlets" : 1,
					"fontsize" : 12.0,
					"outlettype" : [ "" ],
					"patching_rect" : [ 660.0, 210.0, 45.0, 20.0 ],
					"fontname" : "Arial",
					"id" : "obj-14"
				}

			}
, 			{
				"box" : 				{
					"maxclass" : "newobj",
					"text" : "t b erase",
					"numinlets" : 1,
					"numoutlets" : 2,
					"fontsize" : 11.595187,
					"outlettype" : [ "bang", "erase" ],
					"patching_rect" : [ 660.0, 230.0, 54.0, 20.0 ],
					"fontname" : "Arial",
					"id" : "obj-85"
				}

			}
, 			{
				"box" : 				{
					"maxclass" : "newobj",
					"text" : "jit.gl.render TextView @erase_color 0. 0. 0. 1.",
					"numinlets" : 1,
					"numoutlets" : 2,
					"fontsize" : 11.595187,
					"outlettype" : [ "bang", "" ],
					"patching_rect" : [ 660.0, 280.0, 244.0, 20.0 ],
					"fontname" : "Arial",
					"id" : "obj-40"
				}

			}
, 			{
				"box" : 				{
					"maxclass" : "message",
					"text" : "clear",
					"numinlets" : 2,
					"numoutlets" : 1,
					"fontsize" : 12.0,
					"outlettype" : [ "" ],
					"patching_rect" : [ 820.0, 80.0, 37.0, 18.0 ],
					"fontname" : "Arial",
					"id" : "obj-11"
				}

			}
, 			{
				"box" : 				{
					"maxclass" : "newobj",
					"text" : "loadbang",
					"numinlets" : 1,
					"numoutlets" : 1,
					"fontsize" : 12.0,
					"outlettype" : [ "bang" ],
					"patching_rect" : [ 630.0, 50.0, 60.0, 20.0 ],
					"fontname" : "Arial",
					"id" : "obj-65"
				}

			}
, 			{
				"box" : 				{
					"maxclass" : "message",
					"text" : "fsmenubar 0",
					"numinlets" : 2,
					"numoutlets" : 1,
					"fontsize" : 11.595187,
					"outlettype" : [ "" ],
					"patching_rect" : [ 630.0, 90.0, 75.0, 18.0 ],
					"fontname" : "Arial",
					"id" : "obj-9"
				}

			}
, 			{
				"box" : 				{
					"maxclass" : "newobj",
					"text" : "p esc-fullscreen",
					"numinlets" : 0,
					"numoutlets" : 1,
					"fontsize" : 11.595187,
					"outlettype" : [ "" ],
					"patching_rect" : [ 660.0, 110.0, 90.0, 20.0 ],
					"fontname" : "Arial",
					"id" : "obj-92",
					"patcher" : 					{
						"fileversion" : 1,
						"rect" : [ 86.0, 108.0, 235.0, 205.0 ],
						"bglocked" : 0,
						"defrect" : [ 86.0, 108.0, 235.0, 205.0 ],
						"openrect" : [ 0.0, 0.0, 0.0, 0.0 ],
						"openinpresentation" : 0,
						"default_fontsize" : 10.0,
						"default_fontface" : 0,
						"default_fontname" : "Arial",
						"gridonopen" : 0,
						"gridsize" : [ 15.0, 15.0 ],
						"gridsnaponopen" : 0,
						"toolbarvisible" : 1,
						"boxanimatetime" : 200,
						"imprint" : 0,
						"enablehscroll" : 1,
						"enablevscroll" : 1,
						"devicewidth" : 0.0,
						"boxes" : [ 							{
								"box" : 								{
									"maxclass" : "comment",
									"text" : "Escape ASCII Code",
									"numinlets" : 1,
									"numoutlets" : 0,
									"fontsize" : 11.595187,
									"patching_rect" : [ 86.0, 67.0, 114.0, 20.0 ],
									"fontname" : "Arial",
									"id" : "obj-7"
								}

							}
, 							{
								"box" : 								{
									"maxclass" : "outlet",
									"numinlets" : 1,
									"numoutlets" : 0,
									"patching_rect" : [ 27.0, 157.25, 25.0, 25.0 ],
									"id" : "obj-2",
									"comment" : ""
								}

							}
, 							{
								"box" : 								{
									"maxclass" : "message",
									"text" : "fullscreen $1",
									"numinlets" : 2,
									"numoutlets" : 1,
									"fontsize" : 11.595187,
									"outlettype" : [ "" ],
									"patching_rect" : [ 27.0, 127.25, 76.0, 18.0 ],
									"fontname" : "Arial",
									"id" : "obj-3"
								}

							}
, 							{
								"box" : 								{
									"maxclass" : "newobj",
									"text" : "key",
									"numinlets" : 0,
									"numoutlets" : 4,
									"fontsize" : 11.595187,
									"outlettype" : [ "int", "int", "int", "int" ],
									"patching_rect" : [ 27.0, 37.0, 46.0, 20.0 ],
									"fontname" : "Arial",
									"id" : "obj-4"
								}

							}
, 							{
								"box" : 								{
									"maxclass" : "newobj",
									"text" : "select 27",
									"numinlets" : 2,
									"numoutlets" : 2,
									"fontsize" : 11.595187,
									"outlettype" : [ "bang", "" ],
									"patching_rect" : [ 27.0, 67.25, 57.0, 20.0 ],
									"fontname" : "Arial",
									"id" : "obj-5"
								}

							}
, 							{
								"box" : 								{
									"maxclass" : "toggle",
									"numinlets" : 1,
									"numoutlets" : 1,
									"outlettype" : [ "int" ],
									"patching_rect" : [ 27.0, 97.25, 20.0, 20.0 ],
									"id" : "obj-6"
								}

							}
 ],
						"lines" : [ 							{
								"patchline" : 								{
									"source" : [ "obj-6", 0 ],
									"destination" : [ "obj-3", 0 ],
									"hidden" : 0,
									"midpoints" : [  ]
								}

							}
, 							{
								"patchline" : 								{
									"source" : [ "obj-5", 0 ],
									"destination" : [ "obj-6", 0 ],
									"hidden" : 0,
									"midpoints" : [  ]
								}

							}
, 							{
								"patchline" : 								{
									"source" : [ "obj-4", 0 ],
									"destination" : [ "obj-5", 0 ],
									"hidden" : 0,
									"midpoints" : [  ]
								}

							}
, 							{
								"patchline" : 								{
									"source" : [ "obj-3", 0 ],
									"destination" : [ "obj-2", 0 ],
									"hidden" : 0,
									"midpoints" : [  ]
								}

							}
 ]
					}
,
					"saved_object_attributes" : 					{
						"globalpatchername" : "",
						"fontface" : 0,
						"fontsize" : 10.0,
						"default_fontface" : 0,
						"default_fontname" : "Arial",
						"fontname" : "Arial",
						"default_fontsize" : 10.0
					}

				}

			}
, 			{
				"box" : 				{
					"maxclass" : "newobj",
					"text" : "ButtonView",
					"numinlets" : 5,
					"numoutlets" : 1,
					"fontsize" : 12.0,
					"outlettype" : [ "jit_matrix" ],
					"patching_rect" : [ 30.0, 170.0, 119.0, 20.0 ],
					"fontname" : "Arial",
					"id" : "obj-3"
				}

			}
, 			{
				"box" : 				{
					"maxclass" : "newobj",
					"text" : "r qmet",
					"numinlets" : 0,
					"numoutlets" : 1,
					"fontsize" : 12.0,
					"outlettype" : [ "" ],
					"patching_rect" : [ 770.0, 60.0, 45.0, 20.0 ],
					"fontname" : "Arial",
					"id" : "obj-24"
				}

			}
, 			{
				"box" : 				{
					"maxclass" : "newobj",
					"text" : "r qmet",
					"numinlets" : 0,
					"numoutlets" : 1,
					"fontsize" : 12.0,
					"outlettype" : [ "" ],
					"patching_rect" : [ 30.0, 120.0, 45.0, 20.0 ],
					"fontname" : "Arial",
					"id" : "obj-23"
				}

			}
, 			{
				"box" : 				{
					"maxclass" : "newobj",
					"text" : "s qmet",
					"numinlets" : 1,
					"numoutlets" : 0,
					"fontsize" : 12.0,
					"patching_rect" : [ 560.0, 130.0, 47.0, 20.0 ],
					"fontname" : "Arial",
					"id" : "obj-18"
				}

			}
, 			{
				"box" : 				{
					"maxclass" : "toggle",
					"numinlets" : 1,
					"numoutlets" : 1,
					"outlettype" : [ "int" ],
					"patching_rect" : [ 560.0, 90.0, 20.0, 20.0 ],
					"id" : "obj-10"
				}

			}
, 			{
				"box" : 				{
					"maxclass" : "newobj",
					"text" : "jit.matrix MainView 4 char 1024 768",
					"numinlets" : 1,
					"numoutlets" : 2,
					"fontsize" : 12.0,
					"outlettype" : [ "jit_matrix", "" ],
					"patching_rect" : [ 770.0, 120.0, 200.0, 20.0 ],
					"fontname" : "Arial",
					"id" : "obj-8"
				}

			}
, 			{
				"box" : 				{
					"maxclass" : "newobj",
					"text" : "jit.matrix MainView 4 char 1024 768 @usedstdim 1 @dstdimstart 520 452 @dstdimend 1000 742",
					"numinlets" : 1,
					"numoutlets" : 2,
					"fontsize" : 12.0,
					"outlettype" : [ "jit_matrix", "" ],
					"patching_rect" : [ 30.0, 220.0, 526.0, 20.0 ],
					"fontname" : "Arial",
					"id" : "obj-7"
				}

			}
, 			{
				"box" : 				{
					"maxclass" : "newobj",
					"text" : "jit.matrix MainView 4 char 1024 768 @usedstdim 1 @dstdimstart 10 200 @dstdimend 520 748",
					"numinlets" : 1,
					"numoutlets" : 2,
					"fontsize" : 12.0,
					"outlettype" : [ "jit_matrix", "" ],
					"patching_rect" : [ 30.0, 330.0, 512.0, 20.0 ],
					"fontname" : "Arial",
					"id" : "obj-6"
				}

			}
, 			{
				"box" : 				{
					"maxclass" : "newobj",
					"text" : "jit.window Projection @size 1024 768",
					"numinlets" : 1,
					"numoutlets" : 2,
					"fontsize" : 12.0,
					"outlettype" : [ "bang", "" ],
					"patching_rect" : [ 770.0, 170.0, 209.0, 20.0 ],
					"fontname" : "Arial",
					"id" : "obj-5"
				}

			}
, 			{
				"box" : 				{
					"maxclass" : "newobj",
					"text" : "qmetro 30",
					"numinlets" : 2,
					"numoutlets" : 1,
					"fontsize" : 12.0,
					"outlettype" : [ "bang" ],
					"patching_rect" : [ 560.0, 110.0, 65.0, 20.0 ],
					"fontname" : "Arial",
					"id" : "obj-2"
				}

			}
 ],
		"lines" : [ 			{
				"patchline" : 				{
					"source" : [ "obj-51", 0 ],
					"destination" : [ "obj-48", 0 ],
					"hidden" : 0,
					"midpoints" : [  ]
				}

			}
, 			{
				"patchline" : 				{
					"source" : [ "obj-49", 0 ],
					"destination" : [ "obj-39", 0 ],
					"hidden" : 0,
					"midpoints" : [ 259.5, 36.0, 259.5, 36.0 ]
				}

			}
, 			{
				"patchline" : 				{
					"source" : [ "obj-50", 0 ],
					"destination" : [ "obj-47", 0 ],
					"hidden" : 0,
					"midpoints" : [ 349.5, 36.0, 349.5, 36.0 ]
				}

			}
, 			{
				"patchline" : 				{
					"source" : [ "obj-47", 0 ],
					"destination" : [ "obj-3", 4 ],
					"hidden" : 0,
					"midpoints" : [ 349.5, 156.0, 139.5, 156.0 ]
				}

			}
, 			{
				"patchline" : 				{
					"source" : [ "obj-39", 0 ],
					"destination" : [ "obj-3", 3 ],
					"hidden" : 0,
					"midpoints" : [ 259.5, 156.0, 114.5, 156.0 ]
				}

			}
, 			{
				"patchline" : 				{
					"source" : [ "obj-23", 0 ],
					"destination" : [ "obj-3", 0 ],
					"hidden" : 0,
					"midpoints" : [ 39.5, 141.0, 39.5, 141.0 ]
				}

			}
, 			{
				"patchline" : 				{
					"source" : [ "obj-21", 0 ],
					"destination" : [ "obj-3", 1 ],
					"hidden" : 0,
					"midpoints" : [ 89.5, 156.0, 64.5, 156.0 ]
				}

			}
, 			{
				"patchline" : 				{
					"source" : [ "obj-30", 0 ],
					"destination" : [ "obj-3", 2 ],
					"hidden" : 0,
					"midpoints" : [ 159.5, 156.0, 89.5, 156.0 ]
				}

			}
, 			{
				"patchline" : 				{
					"source" : [ "obj-3", 0 ],
					"destination" : [ "obj-7", 0 ],
					"hidden" : 0,
					"midpoints" : [ 39.5, 192.0, 39.5, 192.0 ]
				}

			}
, 			{
				"patchline" : 				{
					"source" : [ "obj-65", 0 ],
					"destination" : [ "obj-10", 0 ],
					"hidden" : 0,
					"midpoints" : [ 639.5, 72.0, 569.5, 72.0 ]
				}

			}
, 			{
				"patchline" : 				{
					"source" : [ "obj-46", 0 ],
					"destination" : [ "obj-31", 0 ],
					"hidden" : 0,
					"midpoints" : [ 39.5, 36.0, 39.5, 36.0 ]
				}

			}
, 			{
				"patchline" : 				{
					"source" : [ "obj-20", 0 ],
					"destination" : [ "obj-13", 0 ],
					"hidden" : 0,
					"midpoints" : [ 579.5, 390.0, 579.5, 390.0 ]
				}

			}
, 			{
				"patchline" : 				{
					"source" : [ "obj-16", 0 ],
					"destination" : [ "obj-20", 0 ],
					"hidden" : 0,
					"midpoints" : [ 579.5, 342.0, 579.5, 342.0 ]
				}

			}
, 			{
				"patchline" : 				{
					"source" : [ "obj-16", 1 ],
					"destination" : [ "obj-20", 0 ],
					"hidden" : 0,
					"midpoints" : [ 614.5, 357.0, 579.5, 357.0 ]
				}

			}
, 			{
				"patchline" : 				{
					"source" : [ "obj-29", 0 ],
					"destination" : [ "obj-12", 0 ],
					"hidden" : 0,
					"midpoints" : [ 39.5, 411.0, 39.5, 411.0 ]
				}

			}
, 			{
				"patchline" : 				{
					"source" : [ "obj-25", 0 ],
					"destination" : [ "obj-29", 0 ],
					"hidden" : 0,
					"midpoints" : [ 39.5, 390.0, 39.5, 390.0 ]
				}

			}
, 			{
				"patchline" : 				{
					"source" : [ "obj-15", 0 ],
					"destination" : [ "obj-16", 0 ],
					"hidden" : 0,
					"midpoints" : [ 579.5, 321.0, 579.5, 321.0 ]
				}

			}
, 			{
				"patchline" : 				{
					"source" : [ "obj-40", 0 ],
					"destination" : [ "obj-22", 0 ],
					"hidden" : 0,
					"midpoints" : [ 669.5, 300.0, 669.5, 300.0 ]
				}

			}
, 			{
				"patchline" : 				{
					"source" : [ "obj-85", 0 ],
					"destination" : [ "obj-40", 0 ],
					"hidden" : 0,
					"midpoints" : [ 669.5, 252.0, 669.5, 252.0 ]
				}

			}
, 			{
				"patchline" : 				{
					"source" : [ "obj-85", 1 ],
					"destination" : [ "obj-40", 0 ],
					"hidden" : 0,
					"midpoints" : [ 704.5, 267.0, 669.5, 267.0 ]
				}

			}
, 			{
				"patchline" : 				{
					"source" : [ "obj-28", 0 ],
					"destination" : [ "obj-17", 0 ],
					"hidden" : 0,
					"midpoints" : [ 39.5, 312.0, 39.5, 312.0 ]
				}

			}
, 			{
				"patchline" : 				{
					"source" : [ "obj-17", 0 ],
					"destination" : [ "obj-6", 0 ],
					"hidden" : 0,
					"midpoints" : [ 39.5, 330.0, 39.5, 330.0 ]
				}

			}
, 			{
				"patchline" : 				{
					"source" : [ "obj-9", 0 ],
					"destination" : [ "obj-5", 0 ],
					"hidden" : 0,
					"midpoints" : [ 639.5, 156.0, 779.5, 156.0 ]
				}

			}
, 			{
				"patchline" : 				{
					"source" : [ "obj-92", 0 ],
					"destination" : [ "obj-5", 0 ],
					"hidden" : 0,
					"midpoints" : [ 669.5, 156.0, 779.5, 156.0 ]
				}

			}
, 			{
				"patchline" : 				{
					"source" : [ "obj-11", 0 ],
					"destination" : [ "obj-8", 0 ],
					"hidden" : 0,
					"midpoints" : [ 829.5, 99.0, 779.5, 99.0 ]
				}

			}
, 			{
				"patchline" : 				{
					"source" : [ "obj-65", 0 ],
					"destination" : [ "obj-9", 0 ],
					"hidden" : 0,
					"midpoints" : [ 639.5, 72.0, 639.5, 72.0 ]
				}

			}
, 			{
				"patchline" : 				{
					"source" : [ "obj-8", 0 ],
					"destination" : [ "obj-5", 0 ],
					"hidden" : 0,
					"midpoints" : [ 779.5, 141.0, 779.5, 141.0 ]
				}

			}
, 			{
				"patchline" : 				{
					"source" : [ "obj-24", 0 ],
					"destination" : [ "obj-8", 0 ],
					"hidden" : 0,
					"midpoints" : [ 779.5, 81.0, 779.5, 81.0 ]
				}

			}
, 			{
				"patchline" : 				{
					"source" : [ "obj-14", 0 ],
					"destination" : [ "obj-85", 0 ],
					"hidden" : 0,
					"midpoints" : [ 669.5, 231.0, 669.5, 231.0 ]
				}

			}
, 			{
				"patchline" : 				{
					"source" : [ "obj-10", 0 ],
					"destination" : [ "obj-2", 0 ],
					"hidden" : 0,
					"midpoints" : [ 569.5, 111.0, 569.5, 111.0 ]
				}

			}
, 			{
				"patchline" : 				{
					"source" : [ "obj-2", 0 ],
					"destination" : [ "obj-18", 0 ],
					"hidden" : 0,
					"midpoints" : [ 569.5, 132.0, 569.5, 132.0 ]
				}

			}
, 			{
				"patchline" : 				{
					"source" : [ "obj-5", 0 ],
					"destination" : [ "obj-27", 0 ],
					"hidden" : 0,
					"midpoints" : [ 779.5, 192.0, 779.5, 192.0 ]
				}

			}
, 			{
				"patchline" : 				{
					"source" : [ "obj-1", 0 ],
					"destination" : [ "obj-48", 0 ],
					"hidden" : 0,
					"midpoints" : [ 149.5, 36.0, 149.5, 36.0 ]
				}

			}
 ]
	}

}
