{
	"patcher" : 	{
		"fileversion" : 1,
		"rect" : [ 152.0, 223.0, 1221.0, 527.0 ],
		"bglocked" : 0,
		"defrect" : [ 152.0, 223.0, 1221.0, 527.0 ],
		"openrect" : [ 0.0, 0.0, 0.0, 0.0 ],
		"openinpresentation" : 0,
		"default_fontsize" : 12.0,
		"default_fontface" : 0,
		"default_fontname" : "Arial",
		"gridonopen" : 0,
		"gridsize" : [ 10.0, 10.0 ],
		"gridsnaponopen" : 0,
		"toolbarvisible" : 1,
		"boxanimatetime" : 200,
		"imprint" : 0,
		"enablehscroll" : 1,
		"enablevscroll" : 1,
		"devicewidth" : 0.0,
		"boxes" : [ 			{
				"box" : 				{
					"maxclass" : "newobj",
					"text" : "loadbang",
					"outlettype" : [ "bang" ],
					"fontsize" : 12.0,
					"patching_rect" : [ 40.0, 10.0, 60.0, 20.0 ],
					"numinlets" : 1,
					"id" : "obj-19",
					"fontname" : "Arial",
					"numoutlets" : 1
				}

			}
, 			{
				"box" : 				{
					"maxclass" : "newobj",
					"text" : "loadmess 32",
					"outlettype" : [ "" ],
					"fontsize" : 12.0,
					"patching_rect" : [ 360.0, 260.0, 79.0, 20.0 ],
					"numinlets" : 1,
					"id" : "obj-15",
					"fontname" : "Arial",
					"numoutlets" : 1
				}

			}
, 			{
				"box" : 				{
					"maxclass" : "newobj",
					"text" : "loadmess -0.6",
					"outlettype" : [ "" ],
					"fontsize" : 12.0,
					"patching_rect" : [ 460.0, 260.0, 86.0, 20.0 ],
					"numinlets" : 1,
					"id" : "obj-12",
					"fontname" : "Arial",
					"numoutlets" : 1
				}

			}
, 			{
				"box" : 				{
					"maxclass" : "comment",
					"text" : "temporary for testing purposes",
					"fontsize" : 12.0,
					"patching_rect" : [ 50.0, 280.0, 183.0, 20.0 ],
					"numinlets" : 1,
					"id" : "obj-4",
					"fontname" : "Arial",
					"numoutlets" : 0
				}

			}
, 			{
				"box" : 				{
					"maxclass" : "flonum",
					"outlettype" : [ "float", "bang" ],
					"fontsize" : 12.0,
					"patching_rect" : [ 520.0, 300.0, 50.0, 20.0 ],
					"numinlets" : 1,
					"id" : "obj-42",
					"fontname" : "Arial",
					"numoutlets" : 2
				}

			}
, 			{
				"box" : 				{
					"maxclass" : "flonum",
					"outlettype" : [ "float", "bang" ],
					"fontsize" : 12.0,
					"patching_rect" : [ 460.0, 300.0, 50.0, 20.0 ],
					"numinlets" : 1,
					"id" : "obj-39",
					"fontname" : "Arial",
					"numoutlets" : 2
				}

			}
, 			{
				"box" : 				{
					"maxclass" : "newobj",
					"text" : "pak position 0. 0.",
					"outlettype" : [ "" ],
					"fontsize" : 11.595187,
					"patching_rect" : [ 420.0, 330.0, 96.0, 20.0 ],
					"numinlets" : 3,
					"id" : "obj-37",
					"fontname" : "Arial",
					"numoutlets" : 1
				}

			}
, 			{
				"box" : 				{
					"maxclass" : "newobj",
					"text" : "pak position 0. 0.",
					"outlettype" : [ "" ],
					"fontsize" : 11.595187,
					"patching_rect" : [ 90.0, 340.0, 96.0, 20.0 ],
					"numinlets" : 3,
					"id" : "obj-62",
					"fontname" : "Arial",
					"numoutlets" : 1
				}

			}
, 			{
				"box" : 				{
					"maxclass" : "newobj",
					"text" : "pak size 12",
					"outlettype" : [ "" ],
					"fontsize" : 11.595187,
					"patching_rect" : [ 440.0, 380.0, 67.0, 20.0 ],
					"numinlets" : 2,
					"id" : "obj-32",
					"fontname" : "Arial",
					"numoutlets" : 1
				}

			}
, 			{
				"box" : 				{
					"maxclass" : "number",
					"outlettype" : [ "int", "bang" ],
					"fontsize" : 11.595187,
					"triscale" : 0.9,
					"patching_rect" : [ 490.0, 360.0, 50.0, 20.0 ],
					"numinlets" : 1,
					"id" : "obj-33",
					"fontname" : "Arial",
					"numoutlets" : 2
				}

			}
, 			{
				"box" : 				{
					"maxclass" : "textedit",
					"text" : "test test test",
					"outlettype" : [ "", "int", "", "" ],
					"fontsize" : 12.0,
					"patching_rect" : [ 300.0, 370.0, 100.0, 50.0 ],
					"numinlets" : 1,
					"id" : "obj-34",
					"fontname" : "Arial",
					"numoutlets" : 4
				}

			}
, 			{
				"box" : 				{
					"maxclass" : "message",
					"text" : "drawto TextView",
					"outlettype" : [ "" ],
					"fontsize" : 12.0,
					"patching_rect" : [ 440.0, 410.0, 97.0, 18.0 ],
					"numinlets" : 2,
					"id" : "obj-35",
					"fontname" : "Arial",
					"numoutlets" : 1
				}

			}
, 			{
				"box" : 				{
					"maxclass" : "newobj",
					"text" : "jit.gl.text2d @color 100. 100. 100. 1.",
					"outlettype" : [ "", "" ],
					"fontsize" : 11.595187,
					"patching_rect" : [ 300.0, 470.0, 196.0, 20.0 ],
					"numinlets" : 1,
					"id" : "obj-36",
					"fontname" : "Arial",
					"numoutlets" : 2
				}

			}
, 			{
				"box" : 				{
					"maxclass" : "newobj",
					"text" : "pak size 12",
					"outlettype" : [ "" ],
					"fontsize" : 11.595187,
					"patching_rect" : [ 170.0, 370.0, 67.0, 20.0 ],
					"numinlets" : 2,
					"id" : "obj-31",
					"fontname" : "Arial",
					"numoutlets" : 1
				}

			}
, 			{
				"box" : 				{
					"maxclass" : "number",
					"outlettype" : [ "int", "bang" ],
					"fontsize" : 11.595187,
					"triscale" : 0.9,
					"patching_rect" : [ 220.0, 340.0, 50.0, 20.0 ],
					"numinlets" : 1,
					"id" : "obj-81",
					"fontname" : "Arial",
					"numoutlets" : 2
				}

			}
, 			{
				"box" : 				{
					"maxclass" : "textedit",
					"text" : "hello there",
					"outlettype" : [ "", "int", "", "" ],
					"fontsize" : 12.0,
					"patching_rect" : [ 30.0, 370.0, 100.0, 50.0 ],
					"numinlets" : 1,
					"id" : "obj-29",
					"fontname" : "Arial",
					"numoutlets" : 4
				}

			}
, 			{
				"box" : 				{
					"maxclass" : "newobj",
					"text" : "r qmet",
					"outlettype" : [ "" ],
					"fontsize" : 12.0,
					"patching_rect" : [ 40.0, 100.0, 45.0, 20.0 ],
					"numinlets" : 0,
					"id" : "obj-28",
					"fontname" : "Arial",
					"numoutlets" : 1
				}

			}
, 			{
				"box" : 				{
					"maxclass" : "jit.fpsgui",
					"outlettype" : [ "", "" ],
					"fontsize" : 12.0,
					"patching_rect" : [ 960.0, 200.0, 80.0, 36.0 ],
					"numinlets" : 1,
					"id" : "obj-27",
					"fontname" : "Arial",
					"numoutlets" : 2
				}

			}
, 			{
				"box" : 				{
					"maxclass" : "jit.fpsgui",
					"outlettype" : [ "", "" ],
					"fontsize" : 12.0,
					"patching_rect" : [ 690.0, 200.0, 80.0, 36.0 ],
					"numinlets" : 1,
					"id" : "obj-22",
					"fontname" : "Arial",
					"numoutlets" : 2
				}

			}
, 			{
				"box" : 				{
					"maxclass" : "newobj",
					"text" : "jit.matrix TextView 4 char 974 310",
					"outlettype" : [ "jit_matrix", "" ],
					"fontsize" : 12.0,
					"patching_rect" : [ 40.0, 120.0, 189.0, 20.0 ],
					"numinlets" : 1,
					"id" : "obj-17",
					"fontname" : "Arial",
					"numoutlets" : 2
				}

			}
, 			{
				"box" : 				{
					"maxclass" : "newobj",
					"text" : "r qmet",
					"outlettype" : [ "" ],
					"fontsize" : 12.0,
					"patching_rect" : [ 690.0, 100.0, 45.0, 20.0 ],
					"numinlets" : 0,
					"id" : "obj-14",
					"fontname" : "Arial",
					"numoutlets" : 1
				}

			}
, 			{
				"box" : 				{
					"maxclass" : "message",
					"text" : "drawto TextView",
					"outlettype" : [ "" ],
					"fontsize" : 12.0,
					"patching_rect" : [ 170.0, 400.0, 97.0, 18.0 ],
					"numinlets" : 2,
					"id" : "obj-13",
					"fontname" : "Arial",
					"numoutlets" : 1
				}

			}
, 			{
				"box" : 				{
					"maxclass" : "newobj",
					"text" : "t b erase",
					"outlettype" : [ "bang", "erase" ],
					"fontsize" : 11.595187,
					"patching_rect" : [ 690.0, 120.0, 54.0, 20.0 ],
					"numinlets" : 1,
					"id" : "obj-85",
					"fontname" : "Arial",
					"numoutlets" : 2
				}

			}
, 			{
				"box" : 				{
					"maxclass" : "newobj",
					"text" : "jit.gl.render TextView",
					"outlettype" : [ "bang", "" ],
					"fontsize" : 11.595187,
					"patching_rect" : [ 690.0, 170.0, 117.0, 20.0 ],
					"numinlets" : 1,
					"id" : "obj-40",
					"fontname" : "Arial",
					"numoutlets" : 2
				}

			}
, 			{
				"box" : 				{
					"maxclass" : "newobj",
					"text" : "jit.gl.text2d @color 100. 100. 100. 1.",
					"outlettype" : [ "", "" ],
					"fontsize" : 11.595187,
					"patching_rect" : [ 30.0, 460.0, 196.0, 20.0 ],
					"numinlets" : 1,
					"id" : "obj-94",
					"fontname" : "Arial",
					"numoutlets" : 2
				}

			}
, 			{
				"box" : 				{
					"maxclass" : "message",
					"text" : "clear",
					"outlettype" : [ "" ],
					"fontsize" : 12.0,
					"patching_rect" : [ 1010.0, 70.0, 37.0, 18.0 ],
					"numinlets" : 2,
					"id" : "obj-11",
					"fontname" : "Arial",
					"numoutlets" : 1
				}

			}
, 			{
				"box" : 				{
					"maxclass" : "newobj",
					"text" : "loadbang",
					"outlettype" : [ "bang" ],
					"fontsize" : 12.0,
					"patching_rect" : [ 825.0, 45.0, 60.0, 20.0 ],
					"numinlets" : 1,
					"id" : "obj-65",
					"fontname" : "Arial",
					"numoutlets" : 1
				}

			}
, 			{
				"box" : 				{
					"maxclass" : "message",
					"text" : "fsmenubar 0",
					"outlettype" : [ "" ],
					"fontsize" : 11.595187,
					"patching_rect" : [ 825.0, 75.0, 75.0, 18.0 ],
					"numinlets" : 2,
					"id" : "obj-9",
					"fontname" : "Arial",
					"numoutlets" : 1
				}

			}
, 			{
				"box" : 				{
					"maxclass" : "newobj",
					"text" : "p esc-fullscreen",
					"outlettype" : [ "" ],
					"fontsize" : 11.595187,
					"patching_rect" : [ 850.0, 100.0, 90.0, 20.0 ],
					"numinlets" : 0,
					"id" : "obj-92",
					"fontname" : "Arial",
					"numoutlets" : 1,
					"patcher" : 					{
						"fileversion" : 1,
						"rect" : [ 86.0, 108.0, 235.0, 205.0 ],
						"bglocked" : 0,
						"defrect" : [ 86.0, 108.0, 235.0, 205.0 ],
						"openrect" : [ 0.0, 0.0, 0.0, 0.0 ],
						"openinpresentation" : 0,
						"default_fontsize" : 10.0,
						"default_fontface" : 0,
						"default_fontname" : "Arial",
						"gridonopen" : 0,
						"gridsize" : [ 15.0, 15.0 ],
						"gridsnaponopen" : 0,
						"toolbarvisible" : 1,
						"boxanimatetime" : 200,
						"imprint" : 0,
						"enablehscroll" : 1,
						"enablevscroll" : 1,
						"devicewidth" : 0.0,
						"boxes" : [ 							{
								"box" : 								{
									"maxclass" : "comment",
									"text" : "Escape ASCII Code",
									"fontsize" : 11.595187,
									"patching_rect" : [ 86.0, 67.0, 114.0, 20.0 ],
									"numinlets" : 1,
									"id" : "obj-7",
									"fontname" : "Arial",
									"numoutlets" : 0
								}

							}
, 							{
								"box" : 								{
									"maxclass" : "outlet",
									"patching_rect" : [ 27.0, 157.25, 25.0, 25.0 ],
									"numinlets" : 1,
									"id" : "obj-2",
									"numoutlets" : 0,
									"comment" : ""
								}

							}
, 							{
								"box" : 								{
									"maxclass" : "message",
									"text" : "fullscreen $1",
									"outlettype" : [ "" ],
									"fontsize" : 11.595187,
									"patching_rect" : [ 27.0, 127.25, 76.0, 18.0 ],
									"numinlets" : 2,
									"id" : "obj-3",
									"fontname" : "Arial",
									"numoutlets" : 1
								}

							}
, 							{
								"box" : 								{
									"maxclass" : "newobj",
									"text" : "key",
									"outlettype" : [ "int", "int", "int", "int" ],
									"fontsize" : 11.595187,
									"patching_rect" : [ 27.0, 37.0, 46.0, 20.0 ],
									"numinlets" : 0,
									"id" : "obj-4",
									"fontname" : "Arial",
									"numoutlets" : 4
								}

							}
, 							{
								"box" : 								{
									"maxclass" : "newobj",
									"text" : "select 27",
									"outlettype" : [ "bang", "" ],
									"fontsize" : 11.595187,
									"patching_rect" : [ 27.0, 67.25, 57.0, 20.0 ],
									"numinlets" : 2,
									"id" : "obj-5",
									"fontname" : "Arial",
									"numoutlets" : 2
								}

							}
, 							{
								"box" : 								{
									"maxclass" : "toggle",
									"outlettype" : [ "int" ],
									"patching_rect" : [ 27.0, 97.25, 20.0, 20.0 ],
									"numinlets" : 1,
									"id" : "obj-6",
									"numoutlets" : 1
								}

							}
 ],
						"lines" : [ 							{
								"patchline" : 								{
									"source" : [ "obj-6", 0 ],
									"destination" : [ "obj-3", 0 ],
									"hidden" : 0,
									"midpoints" : [  ]
								}

							}
, 							{
								"patchline" : 								{
									"source" : [ "obj-5", 0 ],
									"destination" : [ "obj-6", 0 ],
									"hidden" : 0,
									"midpoints" : [  ]
								}

							}
, 							{
								"patchline" : 								{
									"source" : [ "obj-4", 0 ],
									"destination" : [ "obj-5", 0 ],
									"hidden" : 0,
									"midpoints" : [  ]
								}

							}
, 							{
								"patchline" : 								{
									"source" : [ "obj-3", 0 ],
									"destination" : [ "obj-2", 0 ],
									"hidden" : 0,
									"midpoints" : [  ]
								}

							}
 ]
					}
,
					"saved_object_attributes" : 					{
						"default_fontface" : 0,
						"fontface" : 0,
						"fontsize" : 10.0,
						"default_fontname" : "Arial",
						"default_fontsize" : 10.0,
						"fontname" : "Arial",
						"globalpatchername" : ""
					}

				}

			}
, 			{
				"box" : 				{
					"maxclass" : "newobj",
					"text" : "ButtonView",
					"outlettype" : [ "jit_matrix" ],
					"fontsize" : 12.0,
					"patching_rect" : [ 40.0, 190.0, 79.0, 20.0 ],
					"numinlets" : 2,
					"id" : "obj-3",
					"fontname" : "Arial",
					"numoutlets" : 1
				}

			}
, 			{
				"box" : 				{
					"maxclass" : "newobj",
					"text" : "r qmet",
					"outlettype" : [ "" ],
					"fontsize" : 12.0,
					"patching_rect" : [ 960.0, 50.0, 45.0, 20.0 ],
					"numinlets" : 0,
					"id" : "obj-24",
					"fontname" : "Arial",
					"numoutlets" : 1
				}

			}
, 			{
				"box" : 				{
					"maxclass" : "newobj",
					"text" : "r qmet",
					"outlettype" : [ "" ],
					"fontsize" : 12.0,
					"patching_rect" : [ 40.0, 170.0, 45.0, 20.0 ],
					"numinlets" : 0,
					"id" : "obj-23",
					"fontname" : "Arial",
					"numoutlets" : 1
				}

			}
, 			{
				"box" : 				{
					"maxclass" : "newobj",
					"text" : "s qmet",
					"fontsize" : 12.0,
					"patching_rect" : [ 40.0, 70.0, 47.0, 20.0 ],
					"numinlets" : 1,
					"id" : "obj-18",
					"fontname" : "Arial",
					"numoutlets" : 0
				}

			}
, 			{
				"box" : 				{
					"maxclass" : "toggle",
					"outlettype" : [ "int" ],
					"patching_rect" : [ 40.0, 30.0, 20.0, 20.0 ],
					"numinlets" : 1,
					"id" : "obj-10",
					"numoutlets" : 1
				}

			}
, 			{
				"box" : 				{
					"maxclass" : "newobj",
					"text" : "jit.matrix MainView 4 char 1024 768",
					"outlettype" : [ "jit_matrix", "" ],
					"fontsize" : 12.0,
					"patching_rect" : [ 960.0, 110.0, 200.0, 20.0 ],
					"numinlets" : 1,
					"id" : "obj-8",
					"fontname" : "Arial",
					"numoutlets" : 2
				}

			}
, 			{
				"box" : 				{
					"maxclass" : "newobj",
					"text" : "jit.matrix MainView 4 char 1024 768 @usedstdim 1 @dstdimstart 252 380 @dstdimend 772 710",
					"outlettype" : [ "jit_matrix", "" ],
					"fontsize" : 12.0,
					"patching_rect" : [ 40.0, 210.0, 519.0, 20.0 ],
					"numinlets" : 1,
					"id" : "obj-7",
					"fontname" : "Arial",
					"numoutlets" : 2
				}

			}
, 			{
				"box" : 				{
					"maxclass" : "newobj",
					"text" : "jit.matrix MainView 4 char 1024 768 @usedstdim 1 @dstdimstart 24 30 @dstdimend 999 340",
					"outlettype" : [ "jit_matrix", "" ],
					"fontsize" : 12.0,
					"patching_rect" : [ 40.0, 140.0, 506.0, 20.0 ],
					"numinlets" : 1,
					"id" : "obj-6",
					"fontname" : "Arial",
					"numoutlets" : 2
				}

			}
, 			{
				"box" : 				{
					"maxclass" : "newobj",
					"text" : "jit.window Projection @size 1024 768",
					"outlettype" : [ "bang", "" ],
					"fontsize" : 12.0,
					"patching_rect" : [ 960.0, 160.0, 209.0, 20.0 ],
					"numinlets" : 1,
					"id" : "obj-5",
					"fontname" : "Arial",
					"numoutlets" : 2
				}

			}
, 			{
				"box" : 				{
					"maxclass" : "newobj",
					"text" : "qmetro 30",
					"outlettype" : [ "bang" ],
					"fontsize" : 12.0,
					"patching_rect" : [ 40.0, 50.0, 65.0, 20.0 ],
					"numinlets" : 2,
					"id" : "obj-2",
					"fontname" : "Arial",
					"numoutlets" : 1
				}

			}
, 			{
				"box" : 				{
					"maxclass" : "panel",
					"patching_rect" : [ 20.0, 250.0, 574.0, 257.0 ],
					"numinlets" : 1,
					"id" : "obj-16",
					"numoutlets" : 0
				}

			}
 ],
		"lines" : [ 			{
				"patchline" : 				{
					"source" : [ "obj-19", 0 ],
					"destination" : [ "obj-10", 0 ],
					"hidden" : 0,
					"midpoints" : [ 49.5, 30.0, 49.5, 30.0 ]
				}

			}
, 			{
				"patchline" : 				{
					"source" : [ "obj-12", 0 ],
					"destination" : [ "obj-13", 0 ],
					"hidden" : 0,
					"midpoints" : [ 469.5, 282.0, 447.0, 282.0, 447.0, 315.0, 282.0, 315.0, 282.0, 387.0, 237.0, 387.0, 237.0, 393.0, 179.5, 393.0 ]
				}

			}
, 			{
				"patchline" : 				{
					"source" : [ "obj-12", 0 ],
					"destination" : [ "obj-39", 0 ],
					"hidden" : 0,
					"midpoints" : [ 469.5, 282.0, 469.5, 282.0 ]
				}

			}
, 			{
				"patchline" : 				{
					"source" : [ "obj-12", 0 ],
					"destination" : [ "obj-42", 0 ],
					"hidden" : 0,
					"midpoints" : [ 469.5, 294.0, 529.5, 294.0 ]
				}

			}
, 			{
				"patchline" : 				{
					"source" : [ "obj-12", 0 ],
					"destination" : [ "obj-35", 0 ],
					"hidden" : 0,
					"midpoints" : [ 469.5, 282.0, 447.0, 282.0, 447.0, 315.0, 405.0, 315.0, 405.0, 360.0, 426.0, 360.0, 426.0, 405.0, 449.5, 405.0 ]
				}

			}
, 			{
				"patchline" : 				{
					"source" : [ "obj-17", 0 ],
					"destination" : [ "obj-6", 0 ],
					"hidden" : 0,
					"midpoints" : [ 49.5, 141.0, 49.5, 141.0 ]
				}

			}
, 			{
				"patchline" : 				{
					"source" : [ "obj-28", 0 ],
					"destination" : [ "obj-17", 0 ],
					"hidden" : 0,
					"midpoints" : [ 49.5, 120.0, 49.5, 120.0 ]
				}

			}
, 			{
				"patchline" : 				{
					"source" : [ "obj-15", 0 ],
					"destination" : [ "obj-33", 0 ],
					"hidden" : 0,
					"midpoints" : [ 369.5, 357.0, 499.5, 357.0 ]
				}

			}
, 			{
				"patchline" : 				{
					"source" : [ "obj-15", 0 ],
					"destination" : [ "obj-81", 0 ],
					"hidden" : 0,
					"midpoints" : [ 369.5, 327.0, 229.5, 327.0 ]
				}

			}
, 			{
				"patchline" : 				{
					"source" : [ "obj-9", 0 ],
					"destination" : [ "obj-5", 0 ],
					"hidden" : 0,
					"midpoints" : [ 834.5, 147.0, 969.5, 147.0 ]
				}

			}
, 			{
				"patchline" : 				{
					"source" : [ "obj-92", 0 ],
					"destination" : [ "obj-5", 0 ],
					"hidden" : 0,
					"midpoints" : [ 859.5, 147.0, 969.5, 147.0 ]
				}

			}
, 			{
				"patchline" : 				{
					"source" : [ "obj-11", 0 ],
					"destination" : [ "obj-8", 0 ],
					"hidden" : 0,
					"midpoints" : [ 1019.5, 90.0, 969.5, 90.0 ]
				}

			}
, 			{
				"patchline" : 				{
					"source" : [ "obj-3", 0 ],
					"destination" : [ "obj-7", 0 ],
					"hidden" : 0,
					"midpoints" : [ 49.5, 210.0, 49.5, 210.0 ]
				}

			}
, 			{
				"patchline" : 				{
					"source" : [ "obj-23", 0 ],
					"destination" : [ "obj-3", 0 ],
					"hidden" : 0,
					"midpoints" : [ 49.5, 192.0, 49.5, 192.0 ]
				}

			}
, 			{
				"patchline" : 				{
					"source" : [ "obj-65", 0 ],
					"destination" : [ "obj-9", 0 ],
					"hidden" : 0,
					"midpoints" : [ 834.5, 66.0, 834.5, 66.0 ]
				}

			}
, 			{
				"patchline" : 				{
					"source" : [ "obj-8", 0 ],
					"destination" : [ "obj-5", 0 ],
					"hidden" : 0,
					"midpoints" : [ 969.5, 132.0, 969.5, 132.0 ]
				}

			}
, 			{
				"patchline" : 				{
					"source" : [ "obj-24", 0 ],
					"destination" : [ "obj-8", 0 ],
					"hidden" : 0,
					"midpoints" : [ 969.5, 72.0, 969.5, 72.0 ]
				}

			}
, 			{
				"patchline" : 				{
					"source" : [ "obj-14", 0 ],
					"destination" : [ "obj-85", 0 ],
					"hidden" : 0,
					"midpoints" : [ 699.5, 120.0, 699.5, 120.0 ]
				}

			}
, 			{
				"patchline" : 				{
					"source" : [ "obj-10", 0 ],
					"destination" : [ "obj-2", 0 ],
					"hidden" : 0,
					"midpoints" : [ 49.5, 51.0, 49.5, 51.0 ]
				}

			}
, 			{
				"patchline" : 				{
					"source" : [ "obj-2", 0 ],
					"destination" : [ "obj-18", 0 ],
					"hidden" : 0,
					"midpoints" : [ 49.5, 72.0, 49.5, 72.0 ]
				}

			}
, 			{
				"patchline" : 				{
					"source" : [ "obj-85", 1 ],
					"destination" : [ "obj-40", 0 ],
					"hidden" : 0,
					"midpoints" : [ 734.5, 156.0, 699.5, 156.0 ]
				}

			}
, 			{
				"patchline" : 				{
					"source" : [ "obj-85", 0 ],
					"destination" : [ "obj-40", 0 ],
					"hidden" : 0,
					"midpoints" : [ 699.5, 141.0, 699.5, 141.0 ]
				}

			}
, 			{
				"patchline" : 				{
					"source" : [ "obj-40", 0 ],
					"destination" : [ "obj-22", 0 ],
					"hidden" : 0,
					"midpoints" : [ 699.5, 192.0, 699.5, 192.0 ]
				}

			}
, 			{
				"patchline" : 				{
					"source" : [ "obj-5", 0 ],
					"destination" : [ "obj-27", 0 ],
					"hidden" : 0,
					"midpoints" : [ 969.5, 180.0, 969.5, 180.0 ]
				}

			}
, 			{
				"patchline" : 				{
					"source" : [ "obj-33", 0 ],
					"destination" : [ "obj-32", 1 ],
					"hidden" : 0,
					"midpoints" : [ 499.5, 375.0, 497.5, 375.0 ]
				}

			}
, 			{
				"patchline" : 				{
					"source" : [ "obj-31", 0 ],
					"destination" : [ "obj-94", 0 ],
					"hidden" : 0,
					"midpoints" : [ 179.5, 390.0, 141.0, 390.0, 141.0, 447.0, 39.5, 447.0 ]
				}

			}
, 			{
				"patchline" : 				{
					"source" : [ "obj-81", 0 ],
					"destination" : [ "obj-31", 1 ],
					"hidden" : 0,
					"midpoints" : [ 229.5, 366.0, 227.5, 366.0 ]
				}

			}
, 			{
				"patchline" : 				{
					"source" : [ "obj-29", 0 ],
					"destination" : [ "obj-94", 0 ],
					"hidden" : 0,
					"midpoints" : [ 39.5, 420.0, 39.5, 420.0 ]
				}

			}
, 			{
				"patchline" : 				{
					"source" : [ "obj-13", 0 ],
					"destination" : [ "obj-94", 0 ],
					"hidden" : 0,
					"midpoints" : [ 179.5, 447.0, 39.5, 447.0 ]
				}

			}
, 			{
				"patchline" : 				{
					"source" : [ "obj-35", 0 ],
					"destination" : [ "obj-36", 0 ],
					"hidden" : 0,
					"midpoints" : [ 449.5, 456.0, 309.5, 456.0 ]
				}

			}
, 			{
				"patchline" : 				{
					"source" : [ "obj-34", 0 ],
					"destination" : [ "obj-36", 0 ],
					"hidden" : 0,
					"midpoints" : [ 309.5, 420.0, 309.5, 420.0 ]
				}

			}
, 			{
				"patchline" : 				{
					"source" : [ "obj-32", 0 ],
					"destination" : [ "obj-36", 0 ],
					"hidden" : 0,
					"midpoints" : [ 449.5, 402.0, 411.0, 402.0, 411.0, 456.0, 309.5, 456.0 ]
				}

			}
, 			{
				"patchline" : 				{
					"source" : [ "obj-37", 0 ],
					"destination" : [ "obj-36", 0 ],
					"hidden" : 0,
					"midpoints" : [ 429.5, 366.0, 411.0, 366.0, 411.0, 456.0, 309.5, 456.0 ]
				}

			}
, 			{
				"patchline" : 				{
					"source" : [ "obj-39", 0 ],
					"destination" : [ "obj-37", 1 ],
					"hidden" : 0,
					"midpoints" : [ 469.5, 321.0, 468.0, 321.0 ]
				}

			}
, 			{
				"patchline" : 				{
					"source" : [ "obj-42", 0 ],
					"destination" : [ "obj-37", 2 ],
					"hidden" : 0,
					"midpoints" : [ 529.5, 321.0, 507.0, 321.0, 507.0, 327.0, 506.5, 327.0 ]
				}

			}
 ]
	}

}
