{
	"patcher" : 	{
		"fileversion" : 1,
		"rect" : [ 253.0, 222.0, 942.0, 326.0 ],
		"bglocked" : 0,
		"defrect" : [ 253.0, 222.0, 942.0, 326.0 ],
		"openrect" : [ 0.0, 0.0, 0.0, 0.0 ],
		"openinpresentation" : 0,
		"default_fontsize" : 12.0,
		"default_fontface" : 0,
		"default_fontname" : "Arial",
		"gridonopen" : 0,
		"gridsize" : [ 15.0, 15.0 ],
		"gridsnaponopen" : 0,
		"toolbarvisible" : 1,
		"boxanimatetime" : 200,
		"imprint" : 0,
		"enablehscroll" : 1,
		"enablevscroll" : 1,
		"devicewidth" : 0.0,
		"boxes" : [ 			{
				"box" : 				{
					"maxclass" : "newobj",
					"text" : "t b s",
					"fontname" : "Arial",
					"numinlets" : 1,
					"patching_rect" : [ 295.0, 141.0, 33.0, 20.0 ],
					"fontsize" : 12.0,
					"id" : "obj-25",
					"numoutlets" : 2,
					"outlettype" : [ "bang", "" ]
				}

			}
, 			{
				"box" : 				{
					"maxclass" : "newobj",
					"text" : "print",
					"fontname" : "Arial",
					"numinlets" : 1,
					"patching_rect" : [ 32.0, 270.0, 34.0, 20.0 ],
					"fontsize" : 12.0,
					"id" : "obj-22",
					"numoutlets" : 0
				}

			}
, 			{
				"box" : 				{
					"maxclass" : "newobj",
					"text" : "t b s",
					"fontname" : "Arial",
					"numinlets" : 1,
					"patching_rect" : [ 74.0, 48.0, 33.0, 20.0 ],
					"fontsize" : 12.0,
					"id" : "obj-13",
					"numoutlets" : 2,
					"outlettype" : [ "bang", "" ]
				}

			}
, 			{
				"box" : 				{
					"maxclass" : "newobj",
					"text" : "loadmess clear",
					"fontname" : "Arial",
					"numinlets" : 1,
					"patching_rect" : [ 74.0, 28.0, 91.0, 20.0 ],
					"fontsize" : 12.0,
					"id" : "obj-21",
					"numoutlets" : 1,
					"outlettype" : [ "" ]
				}

			}
, 			{
				"box" : 				{
					"maxclass" : "comment",
					"text" : "Select an interface to retrieve IP.\nOn Mac: en0 for ethernet",
					"linecount" : 2,
					"fontname" : "Arial",
					"numinlets" : 1,
					"patching_rect" : [ 358.0, 115.0, 184.0, 34.0 ],
					"fontsize" : 12.0,
					"id" : "obj-11",
					"numoutlets" : 0,
					"bgcolor" : [ 0.439216, 0.65098, 0.964706, 1.0 ]
				}

			}
, 			{
				"box" : 				{
					"maxclass" : "umenu",
					"fontname" : "Arial",
					"items" : [ "10.0.1.13", ",", "fe80:0:0:0:226:b0ff:fedf:4bd0%4" ],
					"types" : [  ],
					"numinlets" : 1,
					"patching_rect" : [ 196.0, 182.0, 100.0, 20.0 ],
					"fontsize" : 12.0,
					"id" : "obj-2",
					"numoutlets" : 3,
					"outlettype" : [ "int", "", "" ]
				}

			}
, 			{
				"box" : 				{
					"maxclass" : "umenu",
					"fontname" : "Arial",
					"items" : [ "en1", ",", "en0", ",", "lo0" ],
					"types" : [  ],
					"numinlets" : 1,
					"patching_rect" : [ 254.0, 121.0, 100.0, 20.0 ],
					"fontsize" : 12.0,
					"id" : "obj-12",
					"numoutlets" : 3,
					"outlettype" : [ "int", "", "" ]
				}

			}
, 			{
				"box" : 				{
					"maxclass" : "newobj",
					"text" : "mxj net.local",
					"fontname" : "Arial",
					"numinlets" : 1,
					"patching_rect" : [ 196.0, 85.0, 77.0, 20.0 ],
					"fontsize" : 12.0,
					"id" : "obj-6",
					"numoutlets" : 2,
					"outlettype" : [ "", "" ]
				}

			}
, 			{
				"box" : 				{
					"maxclass" : "newobj",
					"text" : "udpsend 255.255.255.255 41337",
					"fontname" : "Arial",
					"numinlets" : 1,
					"patching_rect" : [ 74.0, 255.0, 187.0, 20.0 ],
					"fontsize" : 12.0,
					"id" : "obj-14",
					"numoutlets" : 0
				}

			}
, 			{
				"box" : 				{
					"maxclass" : "toggle",
					"numinlets" : 1,
					"patching_rect" : [ 74.0, 119.0, 20.0, 20.0 ],
					"id" : "obj-15",
					"numoutlets" : 1,
					"outlettype" : [ "int" ]
				}

			}
, 			{
				"box" : 				{
					"maxclass" : "button",
					"numinlets" : 1,
					"patching_rect" : [ 32.0, 170.0, 33.0, 33.0 ],
					"id" : "obj-16",
					"numoutlets" : 1,
					"outlettype" : [ "bang" ]
				}

			}
, 			{
				"box" : 				{
					"maxclass" : "newobj",
					"text" : "metro 100",
					"fontname" : "Arial",
					"numinlets" : 2,
					"patching_rect" : [ 74.0, 144.0, 65.0, 20.0 ],
					"fontsize" : 12.0,
					"id" : "obj-17",
					"numoutlets" : 1,
					"outlettype" : [ "bang" ]
				}

			}
, 			{
				"box" : 				{
					"maxclass" : "message",
					"text" : "/thum/serverIP $1",
					"fontname" : "Arial",
					"numinlets" : 2,
					"patching_rect" : [ 74.0, 226.0, 105.0, 18.0 ],
					"fontsize" : 12.0,
					"id" : "obj-8",
					"numoutlets" : 1,
					"outlettype" : [ "" ]
				}

			}
, 			{
				"box" : 				{
					"maxclass" : "newobj",
					"text" : "p Test Message to ALL",
					"fontname" : "Arial",
					"numinlets" : 1,
					"patching_rect" : [ 785.0, 202.0, 132.0, 20.0 ],
					"fontsize" : 12.0,
					"id" : "obj-9",
					"numoutlets" : 1,
					"outlettype" : [ "" ],
					"patcher" : 					{
						"fileversion" : 1,
						"rect" : [ 0.0, 0.0, 640.0, 480.0 ],
						"bglocked" : 0,
						"defrect" : [ 0.0, 0.0, 640.0, 480.0 ],
						"openrect" : [ 0.0, 0.0, 0.0, 0.0 ],
						"openinpresentation" : 0,
						"default_fontsize" : 12.0,
						"default_fontface" : 0,
						"default_fontname" : "Arial",
						"gridonopen" : 0,
						"gridsize" : [ 15.0, 15.0 ],
						"gridsnaponopen" : 0,
						"toolbarvisible" : 1,
						"boxanimatetime" : 200,
						"imprint" : 0,
						"enablehscroll" : 1,
						"enablevscroll" : 1,
						"devicewidth" : 0.0,
						"boxes" : [ 							{
								"box" : 								{
									"maxclass" : "newobj",
									"text" : "t b s",
									"fontname" : "Arial",
									"numinlets" : 1,
									"patching_rect" : [ 50.0, 124.0, 33.0, 20.0 ],
									"fontsize" : 12.0,
									"id" : "obj-25",
									"numoutlets" : 2,
									"outlettype" : [ "bang", "" ]
								}

							}
, 							{
								"box" : 								{
									"maxclass" : "message",
									"text" : "target 0",
									"fontname" : "Arial",
									"numinlets" : 2,
									"patching_rect" : [ 50.0, 100.0, 51.0, 18.0 ],
									"fontsize" : 12.0,
									"id" : "obj-30",
									"numoutlets" : 1,
									"outlettype" : [ "" ]
								}

							}
, 							{
								"box" : 								{
									"maxclass" : "message",
									"text" : "/thum/interstitial \"This is a test message to see how much a window can hold. Also to see how to format the text.\"",
									"linecount" : 4,
									"fontname" : "Arial",
									"numinlets" : 2,
									"patching_rect" : [ 50.0, 154.0, 171.0, 60.0 ],
									"fontsize" : 12.0,
									"id" : "obj-28",
									"numoutlets" : 1,
									"outlettype" : [ "" ]
								}

							}
, 							{
								"box" : 								{
									"maxclass" : "inlet",
									"numinlets" : 0,
									"patching_rect" : [ 50.0, 40.0, 25.0, 25.0 ],
									"id" : "obj-6",
									"numoutlets" : 1,
									"outlettype" : [ "bang" ],
									"comment" : ""
								}

							}
, 							{
								"box" : 								{
									"maxclass" : "outlet",
									"numinlets" : 1,
									"patching_rect" : [ 45.0, 274.0, 25.0, 25.0 ],
									"id" : "obj-8",
									"numoutlets" : 0,
									"comment" : ""
								}

							}
 ],
						"lines" : [ 							{
								"patchline" : 								{
									"source" : [ "obj-25", 1 ],
									"destination" : [ "obj-8", 0 ],
									"hidden" : 0,
									"midpoints" : [  ]
								}

							}
, 							{
								"patchline" : 								{
									"source" : [ "obj-28", 0 ],
									"destination" : [ "obj-8", 0 ],
									"hidden" : 0,
									"midpoints" : [  ]
								}

							}
, 							{
								"patchline" : 								{
									"source" : [ "obj-6", 0 ],
									"destination" : [ "obj-30", 0 ],
									"hidden" : 0,
									"midpoints" : [  ]
								}

							}
, 							{
								"patchline" : 								{
									"source" : [ "obj-25", 0 ],
									"destination" : [ "obj-28", 0 ],
									"hidden" : 0,
									"midpoints" : [ 59.5, 145.0, 59.5, 145.0 ]
								}

							}
, 							{
								"patchline" : 								{
									"source" : [ "obj-30", 0 ],
									"destination" : [ "obj-25", 0 ],
									"hidden" : 0,
									"midpoints" : [ 59.5, 121.0, 59.5, 121.0 ]
								}

							}
 ]
					}
,
					"saved_object_attributes" : 					{
						"default_fontname" : "Arial",
						"fontname" : "Arial",
						"default_fontsize" : 12.0,
						"fontface" : 0,
						"fontsize" : 12.0,
						"default_fontface" : 0,
						"globalpatchername" : ""
					}

				}

			}
, 			{
				"box" : 				{
					"maxclass" : "button",
					"numinlets" : 1,
					"patching_rect" : [ 785.0, 178.0, 20.0, 20.0 ],
					"id" : "obj-5",
					"numoutlets" : 1,
					"outlettype" : [ "bang" ]
				}

			}
, 			{
				"box" : 				{
					"maxclass" : "message",
					"text" : "open $1",
					"fontname" : "Arial",
					"numinlets" : 2,
					"patching_rect" : [ 569.0, 201.0, 54.0, 18.0 ],
					"fontsize" : 12.0,
					"id" : "obj-26",
					"numoutlets" : 1,
					"outlettype" : [ "" ]
				}

			}
, 			{
				"box" : 				{
					"maxclass" : "number",
					"fontname" : "Arial",
					"numinlets" : 1,
					"patching_rect" : [ 569.0, 173.0, 50.0, 20.0 ],
					"fontsize" : 12.0,
					"id" : "obj-27",
					"numoutlets" : 2,
					"outlettype" : [ "int", "bang" ]
				}

			}
, 			{
				"box" : 				{
					"maxclass" : "newobj",
					"text" : "r thum_msg_2",
					"fontname" : "Arial",
					"numinlets" : 0,
					"patching_rect" : [ 693.0, 202.0, 87.0, 20.0 ],
					"fontsize" : 12.0,
					"id" : "obj-24",
					"numoutlets" : 1,
					"outlettype" : [ "" ]
				}

			}
, 			{
				"box" : 				{
					"maxclass" : "newobj",
					"text" : "poly~ Thumbafon_Poly",
					"fontname" : "Arial",
					"numinlets" : 3,
					"patching_rect" : [ 636.0, 243.0, 133.0, 20.0 ],
					"fontsize" : 12.0,
					"id" : "obj-23",
					"numoutlets" : 0
				}

			}
, 			{
				"box" : 				{
					"maxclass" : "newobj",
					"text" : "r thum_msg_1",
					"fontname" : "Arial",
					"numinlets" : 0,
					"patching_rect" : [ 636.0, 176.0, 87.0, 20.0 ],
					"fontsize" : 12.0,
					"id" : "obj-18",
					"numoutlets" : 1,
					"outlettype" : [ "" ]
				}

			}
, 			{
				"box" : 				{
					"maxclass" : "newobj",
					"text" : "prepend parse",
					"fontname" : "Arial",
					"numinlets" : 1,
					"patching_rect" : [ 765.0, 44.0, 88.0, 20.0 ],
					"fontsize" : 12.0,
					"id" : "obj-4",
					"numoutlets" : 1,
					"outlettype" : [ "" ]
				}

			}
, 			{
				"box" : 				{
					"maxclass" : "newobj",
					"text" : "js Thumbafon.js",
					"fontname" : "Arial",
					"numinlets" : 1,
					"patching_rect" : [ 765.0, 64.0, 95.0, 20.0 ],
					"fontsize" : 12.0,
					"id" : "obj-3",
					"numoutlets" : 1,
					"outlettype" : [ "" ]
				}

			}
, 			{
				"box" : 				{
					"maxclass" : "newobj",
					"text" : "udpreceive 1337",
					"fontname" : "Arial",
					"numinlets" : 1,
					"patching_rect" : [ 765.0, 24.0, 99.0, 20.0 ],
					"fontsize" : 12.0,
					"id" : "obj-1",
					"numoutlets" : 1,
					"outlettype" : [ "" ]
				}

			}
 ],
		"lines" : [ 			{
				"patchline" : 				{
					"source" : [ "obj-25", 0 ],
					"destination" : [ "obj-2", 0 ],
					"hidden" : 0,
					"midpoints" : [ 304.5, 162.0, 205.5, 162.0 ]
				}

			}
, 			{
				"patchline" : 				{
					"source" : [ "obj-12", 1 ],
					"destination" : [ "obj-25", 0 ],
					"hidden" : 0,
					"midpoints" : [ 304.0, 141.0, 304.5, 141.0 ]
				}

			}
, 			{
				"patchline" : 				{
					"source" : [ "obj-25", 1 ],
					"destination" : [ "obj-6", 0 ],
					"hidden" : 0,
					"midpoints" : [ 318.5, 162.0, 183.0, 162.0, 183.0, 81.0, 205.5, 81.0 ]
				}

			}
, 			{
				"patchline" : 				{
					"source" : [ "obj-8", 0 ],
					"destination" : [ "obj-22", 0 ],
					"hidden" : 0,
					"midpoints" : [ 83.5, 246.0, 41.5, 246.0 ]
				}

			}
, 			{
				"patchline" : 				{
					"source" : [ "obj-13", 0 ],
					"destination" : [ "obj-6", 0 ],
					"hidden" : 0,
					"midpoints" : [ 83.5, 81.0, 205.5, 81.0 ]
				}

			}
, 			{
				"patchline" : 				{
					"source" : [ "obj-13", 0 ],
					"destination" : [ "obj-15", 0 ],
					"hidden" : 0,
					"midpoints" : [ 83.5, 69.0, 83.5, 69.0 ]
				}

			}
, 			{
				"patchline" : 				{
					"source" : [ "obj-21", 0 ],
					"destination" : [ "obj-13", 0 ],
					"hidden" : 0,
					"midpoints" : [ 83.5, 48.0, 83.5, 48.0 ]
				}

			}
, 			{
				"patchline" : 				{
					"source" : [ "obj-13", 1 ],
					"destination" : [ "obj-2", 0 ],
					"hidden" : 0,
					"midpoints" : [ 97.5, 105.0, 183.0, 105.0, 183.0, 168.0, 205.5, 168.0 ]
				}

			}
, 			{
				"patchline" : 				{
					"source" : [ "obj-13", 1 ],
					"destination" : [ "obj-12", 0 ],
					"hidden" : 0,
					"midpoints" : [ 97.5, 105.0, 183.0, 105.0, 183.0, 117.0, 263.5, 117.0 ]
				}

			}
, 			{
				"patchline" : 				{
					"source" : [ "obj-2", 1 ],
					"destination" : [ "obj-8", 0 ],
					"hidden" : 0,
					"midpoints" : [ 246.0, 213.0, 83.5, 213.0 ]
				}

			}
, 			{
				"patchline" : 				{
					"source" : [ "obj-26", 0 ],
					"destination" : [ "obj-23", 0 ],
					"hidden" : 0,
					"midpoints" : [ 578.5, 240.0, 645.5, 240.0 ]
				}

			}
, 			{
				"patchline" : 				{
					"source" : [ "obj-24", 0 ],
					"destination" : [ "obj-23", 1 ],
					"hidden" : 0,
					"midpoints" : [ 702.5, 222.0, 702.5, 222.0 ]
				}

			}
, 			{
				"patchline" : 				{
					"source" : [ "obj-18", 0 ],
					"destination" : [ "obj-23", 0 ],
					"hidden" : 0,
					"midpoints" : [ 645.5, 198.0, 645.5, 198.0 ]
				}

			}
, 			{
				"patchline" : 				{
					"source" : [ "obj-27", 0 ],
					"destination" : [ "obj-26", 0 ],
					"hidden" : 0,
					"midpoints" : [ 578.5, 195.0, 578.5, 195.0 ]
				}

			}
, 			{
				"patchline" : 				{
					"source" : [ "obj-1", 0 ],
					"destination" : [ "obj-4", 0 ],
					"hidden" : 0,
					"midpoints" : [ 774.5, 45.0, 774.5, 45.0 ]
				}

			}
, 			{
				"patchline" : 				{
					"source" : [ "obj-4", 0 ],
					"destination" : [ "obj-3", 0 ],
					"hidden" : 0,
					"midpoints" : [ 774.5, 66.0, 774.5, 66.0 ]
				}

			}
, 			{
				"patchline" : 				{
					"source" : [ "obj-9", 0 ],
					"destination" : [ "obj-23", 2 ],
					"hidden" : 0,
					"midpoints" : [ 794.5, 240.0, 759.5, 240.0 ]
				}

			}
, 			{
				"patchline" : 				{
					"source" : [ "obj-5", 0 ],
					"destination" : [ "obj-9", 0 ],
					"hidden" : 0,
					"midpoints" : [ 794.5, 198.0, 794.5, 198.0 ]
				}

			}
, 			{
				"patchline" : 				{
					"source" : [ "obj-6", 0 ],
					"destination" : [ "obj-2", 0 ],
					"hidden" : 0,
					"midpoints" : [ 205.5, 105.0, 205.5, 105.0 ]
				}

			}
, 			{
				"patchline" : 				{
					"source" : [ "obj-6", 1 ],
					"destination" : [ "obj-12", 0 ],
					"hidden" : 0,
					"midpoints" : [ 263.5, 105.0, 263.5, 105.0 ]
				}

			}
, 			{
				"patchline" : 				{
					"source" : [ "obj-15", 0 ],
					"destination" : [ "obj-17", 0 ],
					"hidden" : 0,
					"midpoints" : [ 83.5, 141.0, 83.5, 141.0 ]
				}

			}
, 			{
				"patchline" : 				{
					"source" : [ "obj-17", 0 ],
					"destination" : [ "obj-16", 0 ],
					"hidden" : 0,
					"midpoints" : [ 83.5, 165.0, 41.5, 165.0 ]
				}

			}
, 			{
				"patchline" : 				{
					"source" : [ "obj-17", 0 ],
					"destination" : [ "obj-8", 0 ],
					"hidden" : 0,
					"midpoints" : [ 83.5, 165.0, 83.5, 165.0 ]
				}

			}
, 			{
				"patchline" : 				{
					"source" : [ "obj-8", 0 ],
					"destination" : [ "obj-14", 0 ],
					"hidden" : 0,
					"midpoints" : [ 83.5, 246.0, 83.5, 246.0 ]
				}

			}
 ]
	}

}
