{
	"patcher" : 	{
		"fileversion" : 1,
		"rect" : [ 275.0, 176.0, 812.0, 421.0 ],
		"bglocked" : 0,
		"defrect" : [ 275.0, 176.0, 812.0, 421.0 ],
		"openrect" : [ 0.0, 0.0, 0.0, 0.0 ],
		"openinpresentation" : 0,
		"default_fontsize" : 12.0,
		"default_fontface" : 0,
		"default_fontname" : "Arial",
		"gridonopen" : 0,
		"gridsize" : [ 15.0, 15.0 ],
		"gridsnaponopen" : 0,
		"toolbarvisible" : 1,
		"boxanimatetime" : 200,
		"imprint" : 0,
		"enablehscroll" : 1,
		"enablevscroll" : 1,
		"devicewidth" : 0.0,
		"boxes" : [ 			{
				"box" : 				{
					"maxclass" : "newobj",
					"text" : "p Magic_Mode",
					"id" : "obj-39",
					"fontname" : "Arial",
					"outlettype" : [ "" ],
					"fontsize" : 12.0,
					"numinlets" : 1,
					"patching_rect" : [ 360.0, 245.5, 89.0, 20.0 ],
					"numoutlets" : 1,
					"patcher" : 					{
						"fileversion" : 1,
						"rect" : [ 402.0, 559.0, 395.0, 228.0 ],
						"bglocked" : 0,
						"defrect" : [ 402.0, 559.0, 395.0, 228.0 ],
						"openrect" : [ 0.0, 0.0, 0.0, 0.0 ],
						"openinpresentation" : 0,
						"default_fontsize" : 12.0,
						"default_fontface" : 0,
						"default_fontname" : "Arial",
						"gridonopen" : 0,
						"gridsize" : [ 15.0, 15.0 ],
						"gridsnaponopen" : 0,
						"toolbarvisible" : 1,
						"boxanimatetime" : 200,
						"imprint" : 0,
						"enablehscroll" : 1,
						"enablevscroll" : 1,
						"devicewidth" : 0.0,
						"boxes" : [ 							{
								"box" : 								{
									"maxclass" : "toggle",
									"id" : "obj-34",
									"outlettype" : [ "int" ],
									"numinlets" : 1,
									"patching_rect" : [ 267.0, 89.5, 20.0, 20.0 ],
									"numoutlets" : 1
								}

							}
, 							{
								"box" : 								{
									"maxclass" : "newobj",
									"text" : "js TypeConverter.js",
									"id" : "obj-20",
									"fontname" : "Arial",
									"outlettype" : [ "" ],
									"fontsize" : 12.0,
									"numinlets" : 1,
									"patching_rect" : [ 267.0, 116.5, 112.0, 20.0 ],
									"numoutlets" : 1
								}

							}
, 							{
								"box" : 								{
									"maxclass" : "newobj",
									"text" : "t b b",
									"id" : "obj-48",
									"fontname" : "Arial",
									"outlettype" : [ "bang", "bang" ],
									"fontsize" : 12.0,
									"numinlets" : 1,
									"patching_rect" : [ 33.0, 43.5, 34.0, 20.0 ],
									"numoutlets" : 2
								}

							}
, 							{
								"box" : 								{
									"maxclass" : "message",
									"text" : "/thum/magic $1",
									"id" : "obj-42",
									"fontname" : "Arial",
									"outlettype" : [ "" ],
									"fontsize" : 12.0,
									"numinlets" : 2,
									"patching_rect" : [ 267.0, 144.5, 93.0, 18.0 ],
									"numoutlets" : 1
								}

							}
, 							{
								"box" : 								{
									"maxclass" : "message",
									"text" : "/thum/notes 64\\,68\\,71\\,74\\,78\\,82\\,85\\,88",
									"id" : "obj-32",
									"fontname" : "Arial",
									"outlettype" : [ "" ],
									"fontsize" : 12.0,
									"numinlets" : 2,
									"patching_rect" : [ 33.0, 97.5, 230.0, 18.0 ],
									"numoutlets" : 1
								}

							}
, 							{
								"box" : 								{
									"maxclass" : "inlet",
									"id" : "obj-35",
									"outlettype" : [ "bang" ],
									"numinlets" : 0,
									"patching_rect" : [ 33.0, 12.0, 25.0, 25.0 ],
									"numoutlets" : 1,
									"comment" : ""
								}

							}
, 							{
								"box" : 								{
									"maxclass" : "outlet",
									"id" : "obj-38",
									"numinlets" : 1,
									"patching_rect" : [ 267.0, 180.5, 25.0, 25.0 ],
									"numoutlets" : 0,
									"comment" : ""
								}

							}
 ],
						"lines" : [ 							{
								"patchline" : 								{
									"source" : [ "obj-48", 0 ],
									"destination" : [ "obj-32", 0 ],
									"hidden" : 0,
									"midpoints" : [ 42.5, 63.0, 42.5, 63.0 ]
								}

							}
, 							{
								"patchline" : 								{
									"source" : [ "obj-34", 0 ],
									"destination" : [ "obj-20", 0 ],
									"hidden" : 0,
									"midpoints" : [ 276.5, 111.0, 276.5, 111.0 ]
								}

							}
, 							{
								"patchline" : 								{
									"source" : [ "obj-20", 0 ],
									"destination" : [ "obj-42", 0 ],
									"hidden" : 0,
									"midpoints" : [ 276.5, 138.0, 276.5, 138.0 ]
								}

							}
, 							{
								"patchline" : 								{
									"source" : [ "obj-48", 1 ],
									"destination" : [ "obj-34", 0 ],
									"hidden" : 0,
									"midpoints" : [ 57.5, 75.0, 276.5, 75.0 ]
								}

							}
, 							{
								"patchline" : 								{
									"source" : [ "obj-35", 0 ],
									"destination" : [ "obj-48", 0 ],
									"hidden" : 0,
									"midpoints" : [ 42.5, 39.0, 42.5, 39.0 ]
								}

							}
, 							{
								"patchline" : 								{
									"source" : [ "obj-32", 0 ],
									"destination" : [ "obj-38", 0 ],
									"hidden" : 0,
									"midpoints" : [ 42.5, 177.0, 276.5, 177.0 ]
								}

							}
, 							{
								"patchline" : 								{
									"source" : [ "obj-42", 0 ],
									"destination" : [ "obj-38", 0 ],
									"hidden" : 0,
									"midpoints" : [ 276.5, 162.0, 276.5, 162.0 ]
								}

							}
 ]
					}
,
					"saved_object_attributes" : 					{
						"fontname" : "Arial",
						"default_fontsize" : 12.0,
						"globalpatchername" : "",
						"fontface" : 0,
						"fontsize" : 12.0,
						"default_fontface" : 0,
						"default_fontname" : "Arial"
					}

				}

			}
, 			{
				"box" : 				{
					"maxclass" : "slider",
					"id" : "obj-52",
					"outlettype" : [ "" ],
					"size" : 9.0,
					"numinlets" : 1,
					"patching_rect" : [ 36.0, 184.0, 21.0, 105.0 ],
					"numoutlets" : 1
				}

			}
, 			{
				"box" : 				{
					"maxclass" : "comment",
					"text" : "magic mode",
					"id" : "obj-50",
					"fontname" : "Arial",
					"fontsize" : 12.0,
					"numinlets" : 1,
					"patching_rect" : [ 382.0, 225.0, 77.0, 20.0 ],
					"bgcolor" : [ 0.439216, 0.65098, 0.964706, 1.0 ],
					"numoutlets" : 0
				}

			}
, 			{
				"box" : 				{
					"maxclass" : "button",
					"id" : "obj-47",
					"outlettype" : [ "bang" ],
					"numinlets" : 1,
					"patching_rect" : [ 360.0, 225.0, 20.0, 20.0 ],
					"numoutlets" : 1
				}

			}
, 			{
				"box" : 				{
					"maxclass" : "newobj",
					"text" : "p osc_definitions",
					"id" : "obj-2",
					"fontname" : "Arial",
					"fontface" : 1,
					"fontsize" : 12.0,
					"color" : [ 0.0, 0.0, 0.0, 1.0 ],
					"numinlets" : 0,
					"patching_rect" : [ 342.0, 62.0, 111.0, 20.0 ],
					"bgcolor" : [ 0.317647, 0.709804, 0.321569, 1.0 ],
					"numoutlets" : 0,
					"patcher" : 					{
						"fileversion" : 1,
						"rect" : [ 595.0, 405.0, 467.0, 325.0 ],
						"bglocked" : 0,
						"defrect" : [ 595.0, 405.0, 467.0, 325.0 ],
						"openrect" : [ 0.0, 0.0, 0.0, 0.0 ],
						"openinpresentation" : 0,
						"default_fontsize" : 12.0,
						"default_fontface" : 0,
						"default_fontname" : "Arial",
						"gridonopen" : 0,
						"gridsize" : [ 15.0, 15.0 ],
						"gridsnaponopen" : 0,
						"toolbarvisible" : 1,
						"boxanimatetime" : 200,
						"imprint" : 0,
						"enablehscroll" : 1,
						"enablevscroll" : 1,
						"devicewidth" : 0.0,
						"boxes" : [ 							{
								"box" : 								{
									"maxclass" : "comment",
									"text" : "Messages TO Thumbafon",
									"id" : "obj-8",
									"fontname" : "Arial",
									"fontface" : 1,
									"fontsize" : 12.0,
									"numinlets" : 1,
									"patching_rect" : [ 45.0, 150.0, 154.0, 20.0 ],
									"bgcolor" : [ 0.764706, 0.819608, 0.572549, 1.0 ],
									"numoutlets" : 0
								}

							}
, 							{
								"box" : 								{
									"maxclass" : "comment",
									"text" : "All messages are strings",
									"id" : "obj-7",
									"fontname" : "Arial Bold",
									"fontsize" : 12.0,
									"numinlets" : 1,
									"patching_rect" : [ 264.0, 28.0, 150.0, 20.0 ],
									"bgcolor" : [ 0.843137, 0.741176, 0.431373, 1.0 ],
									"numoutlets" : 0
								}

							}
, 							{
								"box" : 								{
									"maxclass" : "comment",
									"text" : "Messages FROM Thumbafon",
									"id" : "obj-6",
									"fontname" : "Arial",
									"fontface" : 1,
									"fontsize" : 12.0,
									"numinlets" : 1,
									"patching_rect" : [ 45.0, 30.0, 175.0, 20.0 ],
									"bgcolor" : [ 0.764706, 0.819608, 0.572549, 1.0 ],
									"numoutlets" : 0
								}

							}
, 							{
								"box" : 								{
									"maxclass" : "comment",
									"text" : "/thum/join = joining performance\n/thum/leave = leaving performance\n/thum/butt = button message\n/thum/hint = hint button\n/thum/prev = alert window \"Previous\" button",
									"linecount" : 5,
									"id" : "obj-3",
									"fontname" : "Arial",
									"fontsize" : 12.0,
									"numinlets" : 1,
									"patching_rect" : [ 45.0, 60.0, 260.0, 75.0 ],
									"bgcolor" : [ 0.764706, 0.819608, 0.572549, 1.0 ],
									"numoutlets" : 0
								}

							}
, 							{
								"box" : 								{
									"maxclass" : "comment",
									"text" : "/thum/1butt = alert message\n/thum/2butt = alert message w/ back button\n/thum/key = offsets the base note w/ signed ints (note num 60 is 0)\n/thum/mode = changes the modal scale of the device (integer 0 to 5)\n/thum/notes = comma separated note set of 8 midi note #'s.\n/thum/magic = turns \"magic mode\" on (zero or non-zero)\n/thum/marq = display message in the main view marquee\n/thum/srvip = server IP address",
									"linecount" : 8,
									"id" : "obj-2",
									"fontname" : "Arial",
									"fontsize" : 12.0,
									"numinlets" : 1,
									"patching_rect" : [ 45.0, 180.0, 377.0, 117.0 ],
									"bgcolor" : [ 0.764706, 0.819608, 0.572549, 1.0 ],
									"numoutlets" : 0
								}

							}
, 							{
								"box" : 								{
									"maxclass" : "panel",
									"id" : "obj-9",
									"numinlets" : 1,
									"patching_rect" : [ 30.0, 15.0, 406.0, 296.0 ],
									"bgcolor" : [ 0.419608, 0.435294, 0.521569, 1.0 ],
									"rounded" : 50,
									"numoutlets" : 0
								}

							}
 ],
						"lines" : [  ]
					}
,
					"saved_object_attributes" : 					{
						"fontname" : "Arial",
						"default_fontsize" : 12.0,
						"globalpatchername" : "",
						"fontface" : 0,
						"fontsize" : 12.0,
						"default_fontface" : 0,
						"default_fontname" : "Arial"
					}

				}

			}
, 			{
				"box" : 				{
					"maxclass" : "toggle",
					"id" : "obj-16",
					"outlettype" : [ "int" ],
					"numinlets" : 1,
					"patching_rect" : [ 510.0, 71.0, 20.0, 20.0 ],
					"numoutlets" : 1
				}

			}
, 			{
				"box" : 				{
					"maxclass" : "comment",
					"text" : "technologic",
					"id" : "obj-14",
					"fontname" : "Arial",
					"fontsize" : 12.0,
					"numinlets" : 1,
					"patching_rect" : [ 171.0, 208.0, 71.0, 20.0 ],
					"bgcolor" : [ 0.439216, 0.65098, 0.964706, 1.0 ],
					"numoutlets" : 0
				}

			}
, 			{
				"box" : 				{
					"maxclass" : "message",
					"text" : "send_interstitial 0 0",
					"id" : "obj-63",
					"fontname" : "Arial",
					"outlettype" : [ "" ],
					"fontsize" : 12.0,
					"numinlets" : 2,
					"patching_rect" : [ 548.0, 279.0, 114.0, 18.0 ],
					"numoutlets" : 1
				}

			}
, 			{
				"box" : 				{
					"maxclass" : "newobj",
					"text" : "p MainView_Test_Messages",
					"id" : "obj-59",
					"fontname" : "Arial",
					"outlettype" : [ "" ],
					"fontsize" : 12.0,
					"numinlets" : 1,
					"patching_rect" : [ 146.5, 236.0, 162.0, 20.0 ],
					"numoutlets" : 1,
					"patcher" : 					{
						"fileversion" : 1,
						"rect" : [ 25.0, 69.0, 242.0, 287.0 ],
						"bglocked" : 0,
						"defrect" : [ 25.0, 69.0, 242.0, 287.0 ],
						"openrect" : [ 0.0, 0.0, 0.0, 0.0 ],
						"openinpresentation" : 0,
						"default_fontsize" : 12.0,
						"default_fontface" : 0,
						"default_fontname" : "Arial",
						"gridonopen" : 0,
						"gridsize" : [ 15.0, 15.0 ],
						"gridsnaponopen" : 0,
						"toolbarvisible" : 1,
						"boxanimatetime" : 200,
						"imprint" : 0,
						"enablehscroll" : 1,
						"enablevscroll" : 1,
						"devicewidth" : 0.0,
						"boxes" : [ 							{
								"box" : 								{
									"maxclass" : "message",
									"text" : "/thum/marq $1",
									"id" : "obj-1",
									"fontname" : "Arial",
									"outlettype" : [ "" ],
									"fontsize" : 12.0,
									"numinlets" : 2,
									"patching_rect" : [ 70.5, 200.0, 108.0, 18.0 ],
									"numoutlets" : 1
								}

							}
, 							{
								"box" : 								{
									"maxclass" : "newobj",
									"text" : "coll lyrics.txt",
									"id" : "obj-2",
									"fontname" : "Arial",
									"outlettype" : [ "", "", "", "" ],
									"fontsize" : 12.0,
									"numinlets" : 1,
									"patching_rect" : [ 71.0, 178.0, 75.0, 20.0 ],
									"numoutlets" : 4,
									"saved_object_attributes" : 									{
										"embed" : 0
									}

								}

							}
, 							{
								"box" : 								{
									"maxclass" : "message",
									"text" : "0",
									"id" : "obj-54",
									"fontname" : "Arial",
									"outlettype" : [ "" ],
									"fontsize" : 12.0,
									"numinlets" : 2,
									"patching_rect" : [ 102.5, 133.0, 32.5, 18.0 ],
									"numoutlets" : 1
								}

							}
, 							{
								"box" : 								{
									"maxclass" : "newobj",
									"text" : "counter 0 146",
									"id" : "obj-40",
									"fontname" : "Arial",
									"outlettype" : [ "int", "", "", "int" ],
									"fontsize" : 12.0,
									"numinlets" : 5,
									"patching_rect" : [ 70.5, 153.0, 84.0, 20.0 ],
									"numoutlets" : 4
								}

							}
, 							{
								"box" : 								{
									"maxclass" : "newobj",
									"text" : "metro 3000",
									"id" : "obj-34",
									"fontname" : "Arial",
									"outlettype" : [ "bang" ],
									"fontsize" : 12.0,
									"numinlets" : 2,
									"patching_rect" : [ 70.5, 100.0, 71.0, 20.0 ],
									"numoutlets" : 1
								}

							}
, 							{
								"box" : 								{
									"maxclass" : "inlet",
									"id" : "obj-57",
									"outlettype" : [ "int" ],
									"numinlets" : 0,
									"patching_rect" : [ 70.5, 45.0, 25.0, 25.0 ],
									"numoutlets" : 1,
									"comment" : ""
								}

							}
, 							{
								"box" : 								{
									"maxclass" : "outlet",
									"id" : "obj-58",
									"numinlets" : 1,
									"patching_rect" : [ 71.25, 236.0, 25.0, 25.0 ],
									"numoutlets" : 0,
									"comment" : ""
								}

							}
 ],
						"lines" : [ 							{
								"patchline" : 								{
									"source" : [ "obj-34", 0 ],
									"destination" : [ "obj-40", 0 ],
									"hidden" : 0,
									"midpoints" : [ 80.0, 120.0, 80.0, 120.0 ]
								}

							}
, 							{
								"patchline" : 								{
									"source" : [ "obj-57", 0 ],
									"destination" : [ "obj-34", 0 ],
									"hidden" : 0,
									"midpoints" : [ 80.0, 72.0, 80.0, 72.0 ]
								}

							}
, 							{
								"patchline" : 								{
									"source" : [ "obj-1", 0 ],
									"destination" : [ "obj-58", 0 ],
									"hidden" : 0,
									"midpoints" : [ 80.0, 219.0, 80.75, 219.0 ]
								}

							}
, 							{
								"patchline" : 								{
									"source" : [ "obj-54", 0 ],
									"destination" : [ "obj-40", 2 ],
									"hidden" : 0,
									"midpoints" : [ 112.0, 153.0, 112.5, 153.0 ]
								}

							}
, 							{
								"patchline" : 								{
									"source" : [ "obj-40", 0 ],
									"destination" : [ "obj-2", 0 ],
									"hidden" : 0,
									"midpoints" : [ 80.0, 174.0, 80.5, 174.0 ]
								}

							}
, 							{
								"patchline" : 								{
									"source" : [ "obj-2", 0 ],
									"destination" : [ "obj-1", 0 ],
									"hidden" : 0,
									"midpoints" : [ 80.5, 198.0, 80.0, 198.0 ]
								}

							}
, 							{
								"patchline" : 								{
									"source" : [ "obj-57", 0 ],
									"destination" : [ "obj-54", 0 ],
									"hidden" : 0,
									"midpoints" : [ 80.0, 87.0, 57.0, 87.0, 57.0, 132.0, 99.0, 132.0, 99.0, 129.0, 112.0, 129.0 ]
								}

							}
 ]
					}
,
					"saved_object_attributes" : 					{
						"fontname" : "Arial",
						"default_fontsize" : 12.0,
						"globalpatchername" : "",
						"fontface" : 0,
						"fontsize" : 12.0,
						"default_fontface" : 0,
						"default_fontname" : "Arial"
					}

				}

			}
, 			{
				"box" : 				{
					"maxclass" : "toggle",
					"id" : "obj-56",
					"outlettype" : [ "int" ],
					"numinlets" : 1,
					"patching_rect" : [ 147.0, 207.0, 20.0, 20.0 ],
					"numoutlets" : 1
				}

			}
, 			{
				"box" : 				{
					"maxclass" : "number",
					"id" : "obj-43",
					"fontname" : "Arial",
					"outlettype" : [ "int", "bang" ],
					"fontsize" : 12.0,
					"numinlets" : 1,
					"patching_rect" : [ 327.0, 159.0, 50.0, 20.0 ],
					"numoutlets" : 2
				}

			}
, 			{
				"box" : 				{
					"maxclass" : "newobj",
					"text" : "js TypeConverter.js",
					"id" : "obj-21",
					"fontname" : "Arial",
					"outlettype" : [ "" ],
					"fontsize" : 12.0,
					"numinlets" : 1,
					"patching_rect" : [ 327.0, 179.0, 112.0, 20.0 ],
					"numoutlets" : 1
				}

			}
, 			{
				"box" : 				{
					"maxclass" : "newobj",
					"text" : "r server_IP",
					"id" : "obj-8",
					"fontname" : "Arial",
					"outlettype" : [ "" ],
					"fontsize" : 12.0,
					"numinlets" : 0,
					"patching_rect" : [ 359.0, 11.0, 69.0, 20.0 ],
					"numoutlets" : 1
				}

			}
, 			{
				"box" : 				{
					"maxclass" : "message",
					"text" : "10.0.1.16",
					"id" : "obj-6",
					"fontname" : "Arial",
					"outlettype" : [ "" ],
					"fontface" : 1,
					"fontsize" : 12.0,
					"numinlets" : 2,
					"patching_rect" : [ 350.0, 36.0, 96.0, 18.0 ],
					"numoutlets" : 1
				}

			}
, 			{
				"box" : 				{
					"maxclass" : "comment",
					"text" : "test seq",
					"id" : "obj-37",
					"fontname" : "Arial",
					"fontsize" : 12.0,
					"numinlets" : 1,
					"patching_rect" : [ 533.0, 70.0, 52.0, 20.0 ],
					"bgcolor" : [ 0.439216, 0.65098, 0.964706, 1.0 ],
					"numoutlets" : 0
				}

			}
, 			{
				"box" : 				{
					"maxclass" : "newobj",
					"text" : "p server_heartbeat",
					"id" : "obj-36",
					"fontname" : "Arial",
					"outlettype" : [ "" ],
					"fontsize" : 12.0,
					"numinlets" : 1,
					"patching_rect" : [ 79.0, 94.0, 111.0, 20.0 ],
					"numoutlets" : 1,
					"patcher" : 					{
						"fileversion" : 1,
						"rect" : [ 25.0, 69.0, 325.0, 350.0 ],
						"bglocked" : 0,
						"defrect" : [ 25.0, 69.0, 325.0, 350.0 ],
						"openrect" : [ 0.0, 0.0, 0.0, 0.0 ],
						"openinpresentation" : 0,
						"default_fontsize" : 12.0,
						"default_fontface" : 0,
						"default_fontname" : "Arial",
						"gridonopen" : 0,
						"gridsize" : [ 15.0, 15.0 ],
						"gridsnaponopen" : 0,
						"toolbarvisible" : 1,
						"boxanimatetime" : 200,
						"imprint" : 0,
						"enablehscroll" : 1,
						"enablevscroll" : 1,
						"devicewidth" : 0.0,
						"boxes" : [ 							{
								"box" : 								{
									"maxclass" : "newobj",
									"text" : "s server_IP",
									"id" : "obj-1",
									"fontname" : "Arial",
									"fontsize" : 12.0,
									"numinlets" : 1,
									"patching_rect" : [ 188.0, 218.0, 71.0, 20.0 ],
									"numoutlets" : 0
								}

							}
, 							{
								"box" : 								{
									"maxclass" : "newobj",
									"text" : "t b s",
									"id" : "obj-25",
									"fontname" : "Arial",
									"outlettype" : [ "bang", "" ],
									"fontsize" : 12.0,
									"numinlets" : 1,
									"patching_rect" : [ 176.0, 142.0, 33.0, 20.0 ],
									"numoutlets" : 2
								}

							}
, 							{
								"box" : 								{
									"maxclass" : "newobj",
									"text" : "t b s",
									"id" : "obj-13",
									"fontname" : "Arial",
									"outlettype" : [ "bang", "" ],
									"fontsize" : 12.0,
									"numinlets" : 1,
									"patching_rect" : [ 26.0, 45.0, 33.0, 20.0 ],
									"numoutlets" : 2
								}

							}
, 							{
								"box" : 								{
									"maxclass" : "newobj",
									"text" : "loadmess clear",
									"id" : "obj-21",
									"fontname" : "Arial",
									"outlettype" : [ "" ],
									"fontsize" : 12.0,
									"numinlets" : 1,
									"patching_rect" : [ 26.0, 22.0, 91.0, 20.0 ],
									"numoutlets" : 1
								}

							}
, 							{
								"box" : 								{
									"maxclass" : "umenu",
									"id" : "obj-2",
									"fontname" : "Arial",
									"outlettype" : [ "int", "", "" ],
									"align" : 1,
									"fontsize" : 12.0,
									"items" : [ "10.0.1.16", ",", "fe80:0:0:0:226:b0ff:fedf:4bd0%4" ],
									"numinlets" : 1,
									"patching_rect" : [ 137.0, 179.0, 120.0, 20.0 ],
									"ignoreclick" : 1,
									"types" : [  ],
									"numoutlets" : 3
								}

							}
, 							{
								"box" : 								{
									"maxclass" : "newobj",
									"text" : "mxj net.local",
									"id" : "obj-6",
									"fontname" : "Arial",
									"outlettype" : [ "", "" ],
									"fontsize" : 12.0,
									"numinlets" : 1,
									"patching_rect" : [ 137.0, 79.0, 77.0, 20.0 ],
									"numoutlets" : 2
								}

							}
, 							{
								"box" : 								{
									"maxclass" : "newobj",
									"text" : "udpsend 255.255.255.255 41337",
									"id" : "obj-14",
									"fontname" : "Arial",
									"fontsize" : 12.0,
									"numinlets" : 1,
									"patching_rect" : [ 26.0, 252.0, 187.0, 20.0 ],
									"numoutlets" : 0
								}

							}
, 							{
								"box" : 								{
									"maxclass" : "toggle",
									"id" : "obj-15",
									"outlettype" : [ "int" ],
									"numinlets" : 1,
									"patching_rect" : [ 26.0, 97.0, 30.0, 30.0 ],
									"numoutlets" : 1
								}

							}
, 							{
								"box" : 								{
									"maxclass" : "button",
									"id" : "obj-16",
									"outlettype" : [ "bang" ],
									"numinlets" : 1,
									"patching_rect" : [ 45.0, 172.0, 30.0, 30.0 ],
									"numoutlets" : 1
								}

							}
, 							{
								"box" : 								{
									"maxclass" : "newobj",
									"text" : "qmetro 100",
									"id" : "obj-17",
									"fontname" : "Arial",
									"outlettype" : [ "bang" ],
									"fontsize" : 12.0,
									"numinlets" : 2,
									"patching_rect" : [ 26.0, 141.0, 71.0, 20.0 ],
									"numoutlets" : 1
								}

							}
, 							{
								"box" : 								{
									"maxclass" : "message",
									"text" : "/thum/srvip $1",
									"id" : "obj-8",
									"fontname" : "Arial",
									"outlettype" : [ "" ],
									"fontsize" : 12.0,
									"numinlets" : 2,
									"patching_rect" : [ 26.0, 223.0, 86.0, 18.0 ],
									"numoutlets" : 1
								}

							}
, 							{
								"box" : 								{
									"maxclass" : "inlet",
									"id" : "obj-32",
									"outlettype" : [ "" ],
									"numinlets" : 0,
									"patching_rect" : [ 176.0, 106.0, 25.0, 25.0 ],
									"numoutlets" : 1,
									"comment" : ""
								}

							}
, 							{
								"box" : 								{
									"maxclass" : "outlet",
									"id" : "obj-34",
									"numinlets" : 1,
									"patching_rect" : [ 262.5, 286.0, 25.0, 25.0 ],
									"numoutlets" : 0,
									"comment" : ""
								}

							}
 ],
						"lines" : [ 							{
								"patchline" : 								{
									"source" : [ "obj-2", 1 ],
									"destination" : [ "obj-1", 0 ],
									"hidden" : 0,
									"midpoints" : [  ]
								}

							}
, 							{
								"patchline" : 								{
									"source" : [ "obj-6", 1 ],
									"destination" : [ "obj-34", 0 ],
									"hidden" : 0,
									"midpoints" : [ 204.5, 99.0, 272.0, 99.0 ]
								}

							}
, 							{
								"patchline" : 								{
									"source" : [ "obj-13", 1 ],
									"destination" : [ "obj-34", 0 ],
									"hidden" : 0,
									"midpoints" : [ 49.5, 84.0, 123.0, 84.0, 123.0, 210.0, 272.0, 210.0 ]
								}

							}
, 							{
								"patchline" : 								{
									"source" : [ "obj-32", 0 ],
									"destination" : [ "obj-25", 0 ],
									"hidden" : 0,
									"midpoints" : [ 185.5, 132.0, 185.5, 132.0 ]
								}

							}
, 							{
								"patchline" : 								{
									"source" : [ "obj-17", 0 ],
									"destination" : [ "obj-8", 0 ],
									"hidden" : 0,
									"midpoints" : [ 35.5, 162.0, 35.5, 162.0 ]
								}

							}
, 							{
								"patchline" : 								{
									"source" : [ "obj-17", 0 ],
									"destination" : [ "obj-16", 0 ],
									"hidden" : 0,
									"midpoints" : [ 35.5, 168.0, 54.5, 168.0 ]
								}

							}
, 							{
								"patchline" : 								{
									"source" : [ "obj-15", 0 ],
									"destination" : [ "obj-17", 0 ],
									"hidden" : 0,
									"midpoints" : [ 35.5, 129.0, 35.5, 129.0 ]
								}

							}
, 							{
								"patchline" : 								{
									"source" : [ "obj-25", 0 ],
									"destination" : [ "obj-2", 0 ],
									"hidden" : 0,
									"midpoints" : [ 185.5, 162.0, 146.5, 162.0 ]
								}

							}
, 							{
								"patchline" : 								{
									"source" : [ "obj-25", 1 ],
									"destination" : [ "obj-6", 0 ],
									"hidden" : 0,
									"midpoints" : [ 199.5, 162.0, 123.0, 162.0, 123.0, 75.0, 146.5, 75.0 ]
								}

							}
, 							{
								"patchline" : 								{
									"source" : [ "obj-13", 0 ],
									"destination" : [ "obj-6", 0 ],
									"hidden" : 0,
									"midpoints" : [ 35.5, 75.0, 146.5, 75.0 ]
								}

							}
, 							{
								"patchline" : 								{
									"source" : [ "obj-21", 0 ],
									"destination" : [ "obj-13", 0 ],
									"hidden" : 0,
									"midpoints" : [ 35.5, 42.0, 35.5, 42.0 ]
								}

							}
, 							{
								"patchline" : 								{
									"source" : [ "obj-13", 1 ],
									"destination" : [ "obj-2", 0 ],
									"hidden" : 0,
									"midpoints" : [ 49.5, 84.0, 123.0, 84.0, 123.0, 165.0, 146.5, 165.0 ]
								}

							}
, 							{
								"patchline" : 								{
									"source" : [ "obj-2", 1 ],
									"destination" : [ "obj-8", 0 ],
									"hidden" : 0,
									"midpoints" : [ 197.0, 210.0, 35.5, 210.0 ]
								}

							}
, 							{
								"patchline" : 								{
									"source" : [ "obj-6", 0 ],
									"destination" : [ "obj-2", 0 ],
									"hidden" : 0,
									"midpoints" : [ 146.5, 99.0, 146.5, 99.0 ]
								}

							}
, 							{
								"patchline" : 								{
									"source" : [ "obj-8", 0 ],
									"destination" : [ "obj-14", 0 ],
									"hidden" : 0,
									"midpoints" : [ 35.5, 243.0, 35.5, 243.0 ]
								}

							}
, 							{
								"patchline" : 								{
									"source" : [ "obj-13", 0 ],
									"destination" : [ "obj-15", 0 ],
									"hidden" : 0,
									"midpoints" : [ 35.5, 66.0, 35.5, 66.0 ]
								}

							}
 ]
					}
,
					"saved_object_attributes" : 					{
						"fontname" : "Arial",
						"default_fontsize" : 12.0,
						"globalpatchername" : "",
						"fontface" : 0,
						"fontsize" : 12.0,
						"default_fontface" : 0,
						"default_fontname" : "Arial"
					}

				}

			}
, 			{
				"box" : 				{
					"maxclass" : "newobj",
					"text" : "p display_engine",
					"id" : "obj-22",
					"fontname" : "Arial",
					"outlettype" : [ "" ],
					"fontsize" : 12.0,
					"numinlets" : 0,
					"patching_rect" : [ 623.0, 22.0, 101.0, 20.0 ],
					"numoutlets" : 1,
					"patcher" : 					{
						"fileversion" : 1,
						"rect" : [ 64.0, 372.0, 449.0, 281.0 ],
						"bglocked" : 0,
						"defrect" : [ 64.0, 372.0, 449.0, 281.0 ],
						"openrect" : [ 0.0, 0.0, 0.0, 0.0 ],
						"openinpresentation" : 0,
						"default_fontsize" : 12.0,
						"default_fontface" : 0,
						"default_fontname" : "Arial",
						"gridonopen" : 0,
						"gridsize" : [ 15.0, 15.0 ],
						"gridsnaponopen" : 0,
						"toolbarvisible" : 1,
						"boxanimatetime" : 200,
						"imprint" : 0,
						"enablehscroll" : 1,
						"enablevscroll" : 1,
						"devicewidth" : 0.0,
						"boxes" : [ 							{
								"box" : 								{
									"maxclass" : "newobj",
									"text" : "r display_msg",
									"id" : "obj-2",
									"fontname" : "Arial",
									"outlettype" : [ "" ],
									"fontsize" : 12.0,
									"numinlets" : 0,
									"patching_rect" : [ 22.0, 21.0, 85.0, 20.0 ],
									"numoutlets" : 1
								}

							}
, 							{
								"box" : 								{
									"maxclass" : "outlet",
									"id" : "obj-1",
									"numinlets" : 1,
									"patching_rect" : [ 276.0, 233.0, 25.0, 25.0 ],
									"numoutlets" : 0,
									"comment" : ""
								}

							}
, 							{
								"box" : 								{
									"maxclass" : "message",
									"text" : "size 115 50",
									"id" : "obj-10",
									"fontname" : "Arial",
									"outlettype" : [ "" ],
									"fontsize" : 12.0,
									"numinlets" : 2,
									"patching_rect" : [ 276.0, 185.0, 71.0, 18.0 ],
									"numoutlets" : 1
								}

							}
, 							{
								"box" : 								{
									"maxclass" : "newobj",
									"text" : "loadbang",
									"id" : "obj-26",
									"fontname" : "Arial",
									"outlettype" : [ "bang" ],
									"fontsize" : 12.0,
									"numinlets" : 1,
									"patching_rect" : [ 31.0, 70.0, 60.0, 20.0 ],
									"numoutlets" : 1
								}

							}
, 							{
								"box" : 								{
									"maxclass" : "jit.fpsgui",
									"id" : "obj-20",
									"fontname" : "Arial",
									"outlettype" : [ "", "" ],
									"fontsize" : 11.595187,
									"numinlets" : 1,
									"patching_rect" : [ 31.0, 206.0, 80.0, 35.0 ],
									"numoutlets" : 2
								}

							}
, 							{
								"box" : 								{
									"maxclass" : "newobj",
									"text" : "t b erase",
									"id" : "obj-85",
									"fontname" : "Arial",
									"outlettype" : [ "bang", "erase" ],
									"fontsize" : 11.595187,
									"numinlets" : 1,
									"patching_rect" : [ 31.0, 132.0, 54.0, 20.0 ],
									"numoutlets" : 2
								}

							}
, 							{
								"box" : 								{
									"maxclass" : "newobj",
									"text" : "qmetro 100",
									"id" : "obj-87",
									"fontname" : "Arial",
									"outlettype" : [ "bang" ],
									"fontsize" : 11.595187,
									"numinlets" : 2,
									"patching_rect" : [ 31.0, 107.0, 69.0, 20.0 ],
									"numoutlets" : 1
								}

							}
, 							{
								"box" : 								{
									"maxclass" : "newobj",
									"text" : "jit.gl.render keydisplay",
									"id" : "obj-92",
									"fontname" : "Arial",
									"outlettype" : [ "bang", "" ],
									"fontsize" : 11.595187,
									"numinlets" : 1,
									"patching_rect" : [ 31.0, 184.0, 125.0, 20.0 ],
									"numoutlets" : 2
								}

							}
, 							{
								"box" : 								{
									"maxclass" : "newobj",
									"text" : "jit.gl.text2d @color 100. 100. 100. 1. @tracking 1.1 @align 1 @position 0. -0.4",
									"id" : "obj-94",
									"fontname" : "Arial",
									"outlettype" : [ "", "" ],
									"fontsize" : 11.595187,
									"numinlets" : 1,
									"patching_rect" : [ 22.0, 43.0, 411.0, 20.0 ],
									"numoutlets" : 2
								}

							}
, 							{
								"box" : 								{
									"maxclass" : "message",
									"text" : "name keydisplay",
									"id" : "obj-6",
									"fontname" : "Arial",
									"outlettype" : [ "" ],
									"fontsize" : 12.0,
									"numinlets" : 2,
									"patching_rect" : [ 170.0, 185.0, 100.0, 18.0 ],
									"numoutlets" : 1
								}

							}
 ],
						"lines" : [ 							{
								"patchline" : 								{
									"source" : [ "obj-2", 0 ],
									"destination" : [ "obj-94", 0 ],
									"hidden" : 0,
									"midpoints" : [ 31.5, 43.0, 31.5, 43.0 ]
								}

							}
, 							{
								"patchline" : 								{
									"source" : [ "obj-6", 0 ],
									"destination" : [ "obj-1", 0 ],
									"hidden" : 0,
									"midpoints" : [ 179.5, 220.0, 285.5, 220.0 ]
								}

							}
, 							{
								"patchline" : 								{
									"source" : [ "obj-10", 0 ],
									"destination" : [ "obj-1", 0 ],
									"hidden" : 0,
									"midpoints" : [ 285.5, 205.0, 285.5, 205.0 ]
								}

							}
, 							{
								"patchline" : 								{
									"source" : [ "obj-85", 1 ],
									"destination" : [ "obj-92", 0 ],
									"hidden" : 0,
									"midpoints" : [ 75.5, 169.0, 40.5, 169.0 ]
								}

							}
, 							{
								"patchline" : 								{
									"source" : [ "obj-85", 0 ],
									"destination" : [ "obj-92", 0 ],
									"hidden" : 0,
									"midpoints" : [ 40.5, 154.0, 40.5, 154.0 ]
								}

							}
, 							{
								"patchline" : 								{
									"source" : [ "obj-92", 0 ],
									"destination" : [ "obj-20", 0 ],
									"hidden" : 0,
									"midpoints" : [ 40.5, 205.0, 40.5, 205.0 ]
								}

							}
, 							{
								"patchline" : 								{
									"source" : [ "obj-87", 0 ],
									"destination" : [ "obj-85", 0 ],
									"hidden" : 0,
									"midpoints" : [ 40.5, 127.0, 40.5, 127.0 ]
								}

							}
, 							{
								"patchline" : 								{
									"source" : [ "obj-26", 0 ],
									"destination" : [ "obj-6", 0 ],
									"hidden" : 0,
									"midpoints" : [ 40.5, 91.0, 179.5, 91.0 ]
								}

							}
, 							{
								"patchline" : 								{
									"source" : [ "obj-26", 0 ],
									"destination" : [ "obj-10", 0 ],
									"hidden" : 0,
									"midpoints" : [ 40.5, 91.0, 285.5, 91.0 ]
								}

							}
, 							{
								"patchline" : 								{
									"source" : [ "obj-26", 0 ],
									"destination" : [ "obj-87", 0 ],
									"hidden" : 0,
									"midpoints" : [ 40.5, 91.0, 40.5, 91.0 ]
								}

							}
 ]
					}
,
					"saved_object_attributes" : 					{
						"fontname" : "Arial",
						"default_fontsize" : 12.0,
						"globalpatchername" : "",
						"fontface" : 0,
						"fontsize" : 12.0,
						"default_fontface" : 0,
						"default_fontname" : "Arial"
					}

				}

			}
, 			{
				"box" : 				{
					"maxclass" : "jit.pwindow",
					"id" : "obj-5",
					"outlettype" : [ "", "" ],
					"presentation_rect" : [ 15.0, 15.0, 115.0, 50.0 ],
					"dstrect" : [ 0, 0, 0, 0 ],
					"numinlets" : 1,
					"patching_rect" : [ 623.0, 42.0, 115.0, 50.0 ],
					"numoutlets" : 2,
					"name" : "keydisplay"
				}

			}
, 			{
				"box" : 				{
					"maxclass" : "newobj",
					"text" : "p test_seq",
					"id" : "obj-44",
					"fontname" : "Arial",
					"outlettype" : [ "int" ],
					"fontsize" : 12.0,
					"numinlets" : 1,
					"patching_rect" : [ 509.5, 95.5, 66.0, 20.0 ],
					"numoutlets" : 1,
					"patcher" : 					{
						"fileversion" : 1,
						"rect" : [ 25.0, 69.0, 364.0, 454.0 ],
						"bglocked" : 0,
						"defrect" : [ 25.0, 69.0, 364.0, 454.0 ],
						"openrect" : [ 0.0, 0.0, 0.0, 0.0 ],
						"openinpresentation" : 0,
						"default_fontsize" : 12.0,
						"default_fontface" : 0,
						"default_fontname" : "Arial",
						"gridonopen" : 0,
						"gridsize" : [ 15.0, 15.0 ],
						"gridsnaponopen" : 0,
						"toolbarvisible" : 1,
						"boxanimatetime" : 200,
						"imprint" : 0,
						"enablehscroll" : 1,
						"enablevscroll" : 1,
						"devicewidth" : 0.0,
						"boxes" : [ 							{
								"box" : 								{
									"maxclass" : "comment",
									"text" : "metro speed",
									"id" : "obj-21",
									"fontname" : "Arial",
									"fontsize" : 12.0,
									"numinlets" : 1,
									"patching_rect" : [ 221.0, 32.0, 80.0, 20.0 ],
									"numoutlets" : 0
								}

							}
, 							{
								"box" : 								{
									"maxclass" : "number",
									"id" : "obj-22",
									"fontname" : "Arial",
									"outlettype" : [ "int", "bang" ],
									"fontsize" : 12.0,
									"numinlets" : 1,
									"patching_rect" : [ 219.0, 54.0, 50.0, 20.0 ],
									"numoutlets" : 2
								}

							}
, 							{
								"box" : 								{
									"maxclass" : "comment",
									"text" : "delay time",
									"id" : "obj-19",
									"fontname" : "Arial",
									"fontsize" : 12.0,
									"numinlets" : 1,
									"patching_rect" : [ 257.0, 79.0, 64.0, 20.0 ],
									"numoutlets" : 0
								}

							}
, 							{
								"box" : 								{
									"maxclass" : "comment",
									"text" : "note #",
									"id" : "obj-17",
									"fontname" : "Arial",
									"fontsize" : 12.0,
									"numinlets" : 1,
									"patching_rect" : [ 227.0, 168.0, 42.0, 20.0 ],
									"numoutlets" : 0
								}

							}
, 							{
								"box" : 								{
									"maxclass" : "message",
									"text" : "80",
									"id" : "obj-10",
									"fontname" : "Arial",
									"outlettype" : [ "" ],
									"fontsize" : 12.0,
									"numinlets" : 2,
									"patching_rect" : [ 277.0, 270.0, 32.5, 18.0 ],
									"numoutlets" : 1
								}

							}
, 							{
								"box" : 								{
									"maxclass" : "gswitch2",
									"int" : 1,
									"id" : "obj-9",
									"outlettype" : [ "", "" ],
									"numinlets" : 2,
									"patching_rect" : [ 238.0, 237.0, 58.0, 32.0 ],
									"numoutlets" : 2
								}

							}
, 							{
								"box" : 								{
									"maxclass" : "button",
									"id" : "obj-26",
									"outlettype" : [ "bang" ],
									"numinlets" : 1,
									"patching_rect" : [ 15.0, 115.0, 20.0, 20.0 ],
									"numoutlets" : 1
								}

							}
, 							{
								"box" : 								{
									"maxclass" : "number",
									"id" : "obj-24",
									"fontname" : "Arial",
									"outlettype" : [ "int", "bang" ],
									"fontsize" : 12.0,
									"numinlets" : 1,
									"patching_rect" : [ 255.0, 101.0, 50.0, 20.0 ],
									"numoutlets" : 2
								}

							}
, 							{
								"box" : 								{
									"maxclass" : "newobj",
									"text" : "delay",
									"id" : "obj-18",
									"fontname" : "Arial",
									"outlettype" : [ "bang" ],
									"fontsize" : 12.0,
									"numinlets" : 2,
									"patching_rect" : [ 173.0, 129.0, 39.0, 20.0 ],
									"numoutlets" : 1
								}

							}
, 							{
								"box" : 								{
									"maxclass" : "newobj",
									"text" : "loadmess 10",
									"id" : "obj-14",
									"fontname" : "Arial",
									"outlettype" : [ "" ],
									"fontsize" : 12.0,
									"numinlets" : 1,
									"patching_rect" : [ 218.0, 394.0, 79.0, 20.0 ],
									"numoutlets" : 1
								}

							}
, 							{
								"box" : 								{
									"maxclass" : "number",
									"id" : "obj-12",
									"fontname" : "Arial",
									"outlettype" : [ "int", "bang" ],
									"fontsize" : 12.0,
									"numinlets" : 1,
									"patching_rect" : [ 221.0, 190.0, 50.0, 20.0 ],
									"numoutlets" : 2
								}

							}
, 							{
								"box" : 								{
									"maxclass" : "newobj",
									"text" : "metro 250",
									"id" : "obj-6",
									"fontname" : "Arial",
									"outlettype" : [ "bang" ],
									"fontsize" : 12.0,
									"numinlets" : 2,
									"patching_rect" : [ 173.0, 92.0, 65.0, 20.0 ],
									"numoutlets" : 1
								}

							}
, 							{
								"box" : 								{
									"maxclass" : "button",
									"id" : "obj-15",
									"outlettype" : [ "bang" ],
									"numinlets" : 1,
									"patching_rect" : [ 173.0, 153.0, 20.0, 20.0 ],
									"numoutlets" : 1
								}

							}
, 							{
								"box" : 								{
									"maxclass" : "message",
									"text" : "500",
									"id" : "obj-13",
									"fontname" : "Arial",
									"outlettype" : [ "" ],
									"fontsize" : 12.0,
									"numinlets" : 2,
									"patching_rect" : [ 303.0, 313.0, 32.5, 18.0 ],
									"numoutlets" : 1
								}

							}
, 							{
								"box" : 								{
									"maxclass" : "message",
									"text" : "100",
									"id" : "obj-11",
									"fontname" : "Arial",
									"outlettype" : [ "" ],
									"fontsize" : 12.0,
									"numinlets" : 2,
									"patching_rect" : [ 238.0, 270.0, 32.5, 18.0 ],
									"numoutlets" : 1
								}

							}
, 							{
								"box" : 								{
									"maxclass" : "message",
									"text" : "42",
									"id" : "obj-8",
									"fontname" : "Arial",
									"outlettype" : [ "" ],
									"fontsize" : 12.0,
									"numinlets" : 2,
									"patching_rect" : [ 173.0, 315.0, 32.5, 18.0 ],
									"numoutlets" : 1
								}

							}
, 							{
								"box" : 								{
									"maxclass" : "newobj",
									"text" : "makenote",
									"id" : "obj-5",
									"fontname" : "Arial",
									"outlettype" : [ "float", "float" ],
									"fontsize" : 12.0,
									"numinlets" : 3,
									"patching_rect" : [ 173.0, 343.0, 149.0, 20.0 ],
									"numoutlets" : 2
								}

							}
, 							{
								"box" : 								{
									"maxclass" : "newobj",
									"text" : "noteout",
									"id" : "obj-2",
									"fontname" : "Arial",
									"fontsize" : 12.0,
									"numinlets" : 3,
									"patching_rect" : [ 173.0, 417.0, 64.0, 20.0 ],
									"numoutlets" : 0
								}

							}
, 							{
								"box" : 								{
									"maxclass" : "newobj",
									"text" : "metro 1000",
									"id" : "obj-4",
									"fontname" : "Arial",
									"outlettype" : [ "bang" ],
									"fontsize" : 12.0,
									"numinlets" : 2,
									"patching_rect" : [ 40.0, 85.0, 71.0, 20.0 ],
									"numoutlets" : 1
								}

							}
, 							{
								"box" : 								{
									"maxclass" : "toggle",
									"id" : "obj-3",
									"outlettype" : [ "int" ],
									"numinlets" : 1,
									"patching_rect" : [ 40.0, 56.0, 20.0, 20.0 ],
									"numoutlets" : 1
								}

							}
, 							{
								"box" : 								{
									"maxclass" : "inlet",
									"id" : "obj-1",
									"outlettype" : [ "int" ],
									"numinlets" : 0,
									"patching_rect" : [ 40.0, 20.0, 25.0, 25.0 ],
									"numoutlets" : 1,
									"comment" : ""
								}

							}
, 							{
								"box" : 								{
									"maxclass" : "message",
									"text" : "-2",
									"id" : "obj-42",
									"fontname" : "Arial",
									"outlettype" : [ "" ],
									"fontsize" : 12.0,
									"numinlets" : 2,
									"patching_rect" : [ 113.5, 164.5, 32.5, 18.0 ],
									"numoutlets" : 1
								}

							}
, 							{
								"box" : 								{
									"maxclass" : "message",
									"text" : "3",
									"id" : "obj-41",
									"fontname" : "Arial",
									"outlettype" : [ "" ],
									"fontsize" : 12.0,
									"numinlets" : 2,
									"patching_rect" : [ 76.5, 164.5, 32.5, 18.0 ],
									"numoutlets" : 1
								}

							}
, 							{
								"box" : 								{
									"maxclass" : "number",
									"id" : "obj-37",
									"fontname" : "Arial",
									"outlettype" : [ "int", "bang" ],
									"fontsize" : 12.0,
									"numinlets" : 1,
									"patching_rect" : [ 57.5, 218.5, 50.0, 20.0 ],
									"numoutlets" : 2
								}

							}
, 							{
								"box" : 								{
									"maxclass" : "newobj",
									"text" : "select 0 1 2",
									"id" : "obj-34",
									"fontname" : "Arial",
									"outlettype" : [ "bang", "bang", "bang", "" ],
									"fontsize" : 12.0,
									"numinlets" : 1,
									"patching_rect" : [ 39.5, 133.5, 72.0, 20.0 ],
									"numoutlets" : 4
								}

							}
, 							{
								"box" : 								{
									"maxclass" : "newobj",
									"text" : "counter 2",
									"id" : "obj-32",
									"fontname" : "Arial",
									"outlettype" : [ "int", "", "", "int" ],
									"fontsize" : 12.0,
									"numinlets" : 5,
									"patching_rect" : [ 39.5, 111.5, 73.0, 20.0 ],
									"numoutlets" : 4
								}

							}
, 							{
								"box" : 								{
									"maxclass" : "message",
									"text" : "0",
									"id" : "obj-20",
									"fontname" : "Arial",
									"outlettype" : [ "" ],
									"fontsize" : 12.0,
									"numinlets" : 2,
									"patching_rect" : [ 39.5, 164.5, 32.5, 18.0 ],
									"numoutlets" : 1
								}

							}
, 							{
								"box" : 								{
									"maxclass" : "outlet",
									"id" : "obj-43",
									"numinlets" : 1,
									"patching_rect" : [ 57.5, 298.5, 25.0, 25.0 ],
									"numoutlets" : 0,
									"comment" : ""
								}

							}
 ],
						"lines" : [ 							{
								"patchline" : 								{
									"source" : [ "obj-1", 0 ],
									"destination" : [ "obj-3", 0 ],
									"hidden" : 0,
									"midpoints" : [ 49.5, 47.0, 49.5, 47.0 ]
								}

							}
, 							{
								"patchline" : 								{
									"source" : [ "obj-37", 0 ],
									"destination" : [ "obj-43", 0 ],
									"hidden" : 0,
									"midpoints" : [ 67.0, 239.0, 67.0, 239.0 ]
								}

							}
, 							{
								"patchline" : 								{
									"source" : [ "obj-32", 0 ],
									"destination" : [ "obj-34", 0 ],
									"hidden" : 0,
									"midpoints" : [ 49.0, 131.0, 49.0, 131.0 ]
								}

							}
, 							{
								"patchline" : 								{
									"source" : [ "obj-42", 0 ],
									"destination" : [ "obj-37", 0 ],
									"hidden" : 0,
									"midpoints" : [ 123.0, 203.0, 67.0, 203.0 ]
								}

							}
, 							{
								"patchline" : 								{
									"source" : [ "obj-41", 0 ],
									"destination" : [ "obj-37", 0 ],
									"hidden" : 0,
									"midpoints" : [ 86.0, 203.0, 67.0, 203.0 ]
								}

							}
, 							{
								"patchline" : 								{
									"source" : [ "obj-34", 2 ],
									"destination" : [ "obj-42", 0 ],
									"hidden" : 0,
									"midpoints" : [ 84.333336, 161.0, 123.0, 161.0 ]
								}

							}
, 							{
								"patchline" : 								{
									"source" : [ "obj-34", 1 ],
									"destination" : [ "obj-41", 0 ],
									"hidden" : 0,
									"midpoints" : [ 66.666664, 161.0, 86.0, 161.0 ]
								}

							}
, 							{
								"patchline" : 								{
									"source" : [ "obj-34", 0 ],
									"destination" : [ "obj-20", 0 ],
									"hidden" : 0,
									"midpoints" : [ 49.0, 155.0, 49.0, 155.0 ]
								}

							}
, 							{
								"patchline" : 								{
									"source" : [ "obj-20", 0 ],
									"destination" : [ "obj-37", 0 ],
									"hidden" : 0,
									"midpoints" : [ 49.0, 203.0, 67.0, 203.0 ]
								}

							}
, 							{
								"patchline" : 								{
									"source" : [ "obj-15", 0 ],
									"destination" : [ "obj-13", 0 ],
									"hidden" : 0,
									"midpoints" : [ 182.5, 299.0, 312.5, 299.0 ]
								}

							}
, 							{
								"patchline" : 								{
									"source" : [ "obj-15", 0 ],
									"destination" : [ "obj-8", 0 ],
									"hidden" : 0,
									"midpoints" : [ 182.5, 173.0, 182.5, 173.0 ]
								}

							}
, 							{
								"patchline" : 								{
									"source" : [ "obj-13", 0 ],
									"destination" : [ "obj-5", 2 ],
									"hidden" : 0,
									"midpoints" : [ 312.5, 332.0, 312.5, 332.0 ]
								}

							}
, 							{
								"patchline" : 								{
									"source" : [ "obj-11", 0 ],
									"destination" : [ "obj-5", 1 ],
									"hidden" : 0,
									"midpoints" : [ 247.5, 290.0, 247.5, 290.0 ]
								}

							}
, 							{
								"patchline" : 								{
									"source" : [ "obj-8", 0 ],
									"destination" : [ "obj-5", 0 ],
									"hidden" : 0,
									"midpoints" : [ 182.5, 332.0, 182.5, 332.0 ]
								}

							}
, 							{
								"patchline" : 								{
									"source" : [ "obj-5", 1 ],
									"destination" : [ "obj-2", 1 ],
									"hidden" : 0,
									"midpoints" : [ 312.5, 380.0, 205.0, 380.0 ]
								}

							}
, 							{
								"patchline" : 								{
									"source" : [ "obj-5", 0 ],
									"destination" : [ "obj-2", 0 ],
									"hidden" : 0,
									"midpoints" : [ 182.5, 365.0, 182.5, 365.0 ]
								}

							}
, 							{
								"patchline" : 								{
									"source" : [ "obj-12", 0 ],
									"destination" : [ "obj-8", 1 ],
									"hidden" : 0,
									"midpoints" : [ 230.5, 299.0, 196.0, 299.0 ]
								}

							}
, 							{
								"patchline" : 								{
									"source" : [ "obj-14", 0 ],
									"destination" : [ "obj-2", 2 ],
									"hidden" : 0,
									"midpoints" : [ 227.5, 416.0, 227.5, 416.0 ]
								}

							}
, 							{
								"patchline" : 								{
									"source" : [ "obj-3", 0 ],
									"destination" : [ "obj-4", 0 ],
									"hidden" : 0,
									"midpoints" : [ 49.5, 77.0, 49.5, 77.0 ]
								}

							}
, 							{
								"patchline" : 								{
									"source" : [ "obj-4", 0 ],
									"destination" : [ "obj-32", 0 ],
									"hidden" : 0,
									"midpoints" : [ 49.5, 107.0, 49.0, 107.0 ]
								}

							}
, 							{
								"patchline" : 								{
									"source" : [ "obj-4", 0 ],
									"destination" : [ "obj-26", 0 ],
									"hidden" : 0,
									"midpoints" : [ 49.5, 107.0, 24.5, 107.0 ]
								}

							}
, 							{
								"patchline" : 								{
									"source" : [ "obj-18", 0 ],
									"destination" : [ "obj-15", 0 ],
									"hidden" : 0,
									"midpoints" : [ 182.5, 149.0, 182.5, 149.0 ]
								}

							}
, 							{
								"patchline" : 								{
									"source" : [ "obj-24", 0 ],
									"destination" : [ "obj-18", 1 ],
									"hidden" : 0,
									"midpoints" : [ 264.5, 125.0, 202.5, 125.0 ]
								}

							}
, 							{
								"patchline" : 								{
									"source" : [ "obj-9", 0 ],
									"destination" : [ "obj-11", 0 ],
									"hidden" : 0,
									"midpoints" : [ 247.5, 269.0, 247.5, 269.0 ]
								}

							}
, 							{
								"patchline" : 								{
									"source" : [ "obj-15", 0 ],
									"destination" : [ "obj-9", 0 ],
									"hidden" : 0,
									"midpoints" : [ 182.5, 224.0, 247.5, 224.0 ]
								}

							}
, 							{
								"patchline" : 								{
									"source" : [ "obj-9", 1 ],
									"destination" : [ "obj-10", 0 ],
									"hidden" : 0,
									"midpoints" : [ 286.5, 269.0, 286.5, 269.0 ]
								}

							}
, 							{
								"patchline" : 								{
									"source" : [ "obj-15", 0 ],
									"destination" : [ "obj-9", 1 ],
									"hidden" : 0,
									"midpoints" : [ 182.5, 224.0, 286.5, 224.0 ]
								}

							}
, 							{
								"patchline" : 								{
									"source" : [ "obj-10", 0 ],
									"destination" : [ "obj-5", 1 ],
									"hidden" : 0,
									"midpoints" : [ 286.5, 329.0, 247.5, 329.0 ]
								}

							}
, 							{
								"patchline" : 								{
									"source" : [ "obj-6", 0 ],
									"destination" : [ "obj-18", 0 ],
									"hidden" : 0,
									"midpoints" : [ 182.5, 113.0, 182.5, 113.0 ]
								}

							}
, 							{
								"patchline" : 								{
									"source" : [ "obj-3", 0 ],
									"destination" : [ "obj-6", 0 ],
									"hidden" : 0,
									"midpoints" : [ 49.5, 77.0, 182.5, 77.0 ]
								}

							}
, 							{
								"patchline" : 								{
									"source" : [ "obj-22", 0 ],
									"destination" : [ "obj-6", 1 ],
									"hidden" : 0,
									"midpoints" : [  ]
								}

							}
 ]
					}
,
					"saved_object_attributes" : 					{
						"fontname" : "Arial",
						"default_fontsize" : 12.0,
						"globalpatchername" : "",
						"fontface" : 0,
						"fontsize" : 12.0,
						"default_fontface" : 0,
						"default_fontname" : "Arial"
					}

				}

			}
, 			{
				"box" : 				{
					"maxclass" : "newobj",
					"text" : "loadmess 5",
					"id" : "obj-72",
					"fontname" : "Arial",
					"outlettype" : [ "" ],
					"fontsize" : 12.0,
					"numinlets" : 1,
					"patching_rect" : [ 532.0, 123.0, 72.0, 20.0 ],
					"numoutlets" : 1
				}

			}
, 			{
				"box" : 				{
					"maxclass" : "message",
					"text" : "loadbang",
					"id" : "obj-71",
					"fontname" : "Arial",
					"outlettype" : [ "" ],
					"fontsize" : 12.0,
					"numinlets" : 2,
					"patching_rect" : [ 704.0, 252.0, 60.0, 18.0 ],
					"numoutlets" : 1
				}

			}
, 			{
				"box" : 				{
					"maxclass" : "message",
					"text" : "0 $1",
					"id" : "obj-62",
					"fontname" : "Arial",
					"outlettype" : [ "" ],
					"fontsize" : 12.0,
					"numinlets" : 2,
					"patching_rect" : [ 532.0, 232.0, 34.0, 18.0 ],
					"numoutlets" : 1
				}

			}
, 			{
				"box" : 				{
					"maxclass" : "message",
					"text" : "/thum/mode $1",
					"id" : "obj-9",
					"fontname" : "Arial",
					"outlettype" : [ "" ],
					"fontsize" : 10.0,
					"numinlets" : 2,
					"patching_rect" : [ 327.0, 199.0, 77.0, 16.0 ],
					"numoutlets" : 1
				}

			}
, 			{
				"box" : 				{
					"maxclass" : "newobj",
					"text" : "prepend msg",
					"id" : "obj-31",
					"fontname" : "Arial",
					"outlettype" : [ "" ],
					"fontsize" : 12.0,
					"numinlets" : 1,
					"patching_rect" : [ 254.0, 314.0, 81.0, 20.0 ],
					"numoutlets" : 1
				}

			}
, 			{
				"box" : 				{
					"maxclass" : "newobj",
					"text" : "prepend send_offset",
					"id" : "obj-29",
					"fontname" : "Arial",
					"outlettype" : [ "" ],
					"fontsize" : 12.0,
					"numinlets" : 1,
					"patching_rect" : [ 532.0, 250.0, 120.0, 20.0 ],
					"numoutlets" : 1
				}

			}
, 			{
				"box" : 				{
					"maxclass" : "newobj",
					"text" : "t s b",
					"id" : "obj-7",
					"fontname" : "Arial",
					"outlettype" : [ "", "bang" ],
					"fontsize" : 12.0,
					"numinlets" : 1,
					"patching_rect" : [ 327.0, 286.0, 33.0, 20.0 ],
					"numoutlets" : 2
				}

			}
, 			{
				"box" : 				{
					"maxclass" : "message",
					"text" : "target 0",
					"id" : "obj-28",
					"fontname" : "Arial",
					"outlettype" : [ "" ],
					"fontsize" : 12.0,
					"numinlets" : 2,
					"patching_rect" : [ 341.0, 315.0, 51.0, 18.0 ],
					"numoutlets" : 1
				}

			}
, 			{
				"box" : 				{
					"maxclass" : "message",
					"text" : "player_report",
					"id" : "obj-49",
					"fontname" : "Arial",
					"outlettype" : [ "" ],
					"fontsize" : 12.0,
					"numinlets" : 2,
					"patching_rect" : [ 706.0, 306.0, 81.0, 18.0 ],
					"numoutlets" : 1
				}

			}
, 			{
				"box" : 				{
					"maxclass" : "message",
					"text" : "clear_players",
					"id" : "obj-10",
					"fontname" : "Arial",
					"outlettype" : [ "" ],
					"fontsize" : 12.0,
					"numinlets" : 2,
					"patching_rect" : [ 706.0, 280.0, 82.0, 18.0 ],
					"numoutlets" : 1
				}

			}
, 			{
				"box" : 				{
					"maxclass" : "slider",
					"id" : "obj-33",
					"outlettype" : [ "" ],
					"size" : 13.0,
					"numinlets" : 1,
					"patching_rect" : [ 532.0, 147.0, 184.0, 30.0 ],
					"bgcolor" : [ 0.827451, 0.827451, 0.827451, 0.301961 ],
					"min" : -5.0,
					"numoutlets" : 1
				}

			}
, 			{
				"box" : 				{
					"maxclass" : "number",
					"id" : "obj-30",
					"fontname" : "Arial",
					"outlettype" : [ "int", "bang" ],
					"fontsize" : 12.0,
					"numinlets" : 1,
					"patching_rect" : [ 532.0, 213.0, 50.0, 20.0 ],
					"numoutlets" : 2
				}

			}
, 			{
				"box" : 				{
					"maxclass" : "comment",
					"text" : "On Mac: en0 for ethernet",
					"id" : "obj-19",
					"fontname" : "Arial",
					"fontsize" : 10.0,
					"numinlets" : 1,
					"patching_rect" : [ 193.0, 94.0, 120.0, 18.0 ],
					"numoutlets" : 0
				}

			}
, 			{
				"box" : 				{
					"maxclass" : "comment",
					"text" : "<-- Select an interface FIRST",
					"id" : "obj-11",
					"fontname" : "Arial Bold",
					"fontsize" : 12.0,
					"numinlets" : 1,
					"patching_rect" : [ 132.0, 69.0, 172.0, 20.0 ],
					"bgcolor" : [ 1.0, 0.501961, 0.501961, 1.0 ],
					"numoutlets" : 0
				}

			}
, 			{
				"box" : 				{
					"maxclass" : "umenu",
					"id" : "obj-12",
					"fontname" : "Arial Bold",
					"outlettype" : [ "int", "", "" ],
					"framecolor" : [ 0.0, 0.0, 0.0, 1.0 ],
					"fontsize" : 16.0,
					"items" : [ "en1", ",", "en0", ",", "lo0" ],
					"numinlets" : 1,
					"bgcolor2" : [ 1.0, 0.501961, 0.501961, 1.0 ],
					"patching_rect" : [ 49.0, 66.0, 78.0, 25.0 ],
					"types" : [  ],
					"bgcolor" : [ 1.0, 0.301961, 0.301961, 1.0 ],
					"numoutlets" : 3
				}

			}
, 			{
				"box" : 				{
					"maxclass" : "message",
					"text" : "open $1",
					"id" : "obj-26",
					"fontname" : "Arial",
					"outlettype" : [ "" ],
					"fontsize" : 12.0,
					"numinlets" : 2,
					"patching_rect" : [ 36.0, 320.0, 54.0, 18.0 ],
					"numoutlets" : 1
				}

			}
, 			{
				"box" : 				{
					"maxclass" : "number",
					"id" : "obj-27",
					"fontname" : "Arial",
					"outlettype" : [ "int", "bang" ],
					"minimum" : 0,
					"fontsize" : 12.0,
					"maximum" : 8,
					"numinlets" : 1,
					"patching_rect" : [ 36.0, 297.0, 50.0, 20.0 ],
					"numoutlets" : 2
				}

			}
, 			{
				"box" : 				{
					"maxclass" : "newobj",
					"text" : "r thum_msg_2",
					"id" : "obj-24",
					"fontname" : "Arial",
					"outlettype" : [ "" ],
					"fontsize" : 12.0,
					"numinlets" : 0,
					"patching_rect" : [ 208.0, 282.0, 87.0, 20.0 ],
					"numoutlets" : 1
				}

			}
, 			{
				"box" : 				{
					"maxclass" : "newobj",
					"text" : "poly~ Thumbafon_Poly",
					"id" : "obj-23",
					"fontname" : "Arial",
					"fontsize" : 12.0,
					"numinlets" : 2,
					"patching_rect" : [ 94.0, 357.0, 133.0, 20.0 ],
					"numoutlets" : 0
				}

			}
, 			{
				"box" : 				{
					"maxclass" : "newobj",
					"text" : "r thum_msg_1",
					"id" : "obj-18",
					"fontname" : "Arial",
					"outlettype" : [ "" ],
					"fontsize" : 12.0,
					"numinlets" : 0,
					"patching_rect" : [ 94.0, 282.0, 87.0, 20.0 ],
					"numoutlets" : 1
				}

			}
, 			{
				"box" : 				{
					"maxclass" : "newobj",
					"text" : "prepend parse",
					"id" : "obj-4",
					"fontname" : "Arial",
					"outlettype" : [ "" ],
					"fontsize" : 12.0,
					"numinlets" : 1,
					"patching_rect" : [ 673.0, 215.0, 88.0, 20.0 ],
					"numoutlets" : 1
				}

			}
, 			{
				"box" : 				{
					"maxclass" : "newobj",
					"text" : "js Thumbafon.js",
					"id" : "obj-3",
					"fontname" : "Arial",
					"outlettype" : [ "" ],
					"fontsize" : 12.0,
					"numinlets" : 1,
					"patching_rect" : [ 673.0, 356.0, 95.0, 20.0 ],
					"numoutlets" : 1
				}

			}
, 			{
				"box" : 				{
					"maxclass" : "newobj",
					"text" : "udpreceive 1337",
					"id" : "obj-1",
					"fontname" : "Arial",
					"outlettype" : [ "" ],
					"fontsize" : 12.0,
					"numinlets" : 1,
					"patching_rect" : [ 673.0, 195.0, 99.0, 20.0 ],
					"numoutlets" : 1
				}

			}
, 			{
				"box" : 				{
					"maxclass" : "comment",
					"text" : "key offset slider",
					"id" : "obj-74",
					"fontname" : "Arial",
					"fontsize" : 12.0,
					"numinlets" : 1,
					"patching_rect" : [ 558.0, 152.0, 92.0, 20.0 ],
					"bgcolor" : [ 0.439216, 0.65098, 0.964706, 1.0 ],
					"numoutlets" : 0
				}

			}
, 			{
				"box" : 				{
					"maxclass" : "slider",
					"id" : "obj-41",
					"outlettype" : [ "" ],
					"size" : 6.0,
					"numinlets" : 1,
					"patching_rect" : [ 327.0, 125.0, 152.0, 35.0 ],
					"bgcolor" : [ 0.827451, 0.827451, 0.827451, 0.301961 ],
					"numoutlets" : 1
				}

			}
, 			{
				"box" : 				{
					"maxclass" : "comment",
					"text" : "change mode slider",
					"id" : "obj-13",
					"fontname" : "Arial",
					"fontsize" : 12.0,
					"numinlets" : 1,
					"patching_rect" : [ 346.0, 132.0, 116.0, 20.0 ],
					"bgcolor" : [ 0.439216, 0.65098, 0.964706, 1.0 ],
					"numoutlets" : 0
				}

			}
 ],
		"lines" : [ 			{
				"patchline" : 				{
					"source" : [ "obj-43", 0 ],
					"destination" : [ "obj-21", 0 ],
					"hidden" : 0,
					"midpoints" : [ 336.5, 180.0, 336.5, 180.0 ]
				}

			}
, 			{
				"patchline" : 				{
					"source" : [ "obj-47", 0 ],
					"destination" : [ "obj-39", 0 ],
					"hidden" : 0,
					"midpoints" : [ 369.5, 246.0, 369.5, 246.0 ]
				}

			}
, 			{
				"patchline" : 				{
					"source" : [ "obj-39", 0 ],
					"destination" : [ "obj-7", 0 ],
					"hidden" : 0,
					"midpoints" : [ 369.5, 267.0, 336.5, 267.0 ]
				}

			}
, 			{
				"patchline" : 				{
					"source" : [ "obj-16", 0 ],
					"destination" : [ "obj-44", 0 ],
					"hidden" : 0,
					"midpoints" : [ 519.5, 93.0, 519.0, 93.0 ]
				}

			}
, 			{
				"patchline" : 				{
					"source" : [ "obj-56", 0 ],
					"destination" : [ "obj-59", 0 ],
					"hidden" : 0,
					"midpoints" : [ 156.5, 228.0, 156.0, 228.0 ]
				}

			}
, 			{
				"patchline" : 				{
					"source" : [ "obj-59", 0 ],
					"destination" : [ "obj-7", 0 ],
					"hidden" : 0,
					"midpoints" : [ 156.0, 267.0, 336.5, 267.0 ]
				}

			}
, 			{
				"patchline" : 				{
					"source" : [ "obj-8", 0 ],
					"destination" : [ "obj-6", 1 ],
					"hidden" : 0,
					"midpoints" : [ 368.5, 33.0, 436.5, 33.0 ]
				}

			}
, 			{
				"patchline" : 				{
					"source" : [ "obj-72", 0 ],
					"destination" : [ "obj-33", 0 ],
					"hidden" : 0,
					"midpoints" : [ 541.5, 144.0, 541.5, 144.0 ]
				}

			}
, 			{
				"patchline" : 				{
					"source" : [ "obj-30", 0 ],
					"destination" : [ "obj-62", 0 ],
					"hidden" : 0,
					"midpoints" : [ 541.5, 234.0, 541.5, 234.0 ]
				}

			}
, 			{
				"patchline" : 				{
					"source" : [ "obj-9", 0 ],
					"destination" : [ "obj-7", 0 ],
					"hidden" : 0,
					"midpoints" : [ 336.5, 216.0, 336.5, 216.0 ]
				}

			}
, 			{
				"patchline" : 				{
					"source" : [ "obj-7", 0 ],
					"destination" : [ "obj-31", 0 ],
					"hidden" : 0,
					"midpoints" : [ 336.5, 306.0, 263.5, 306.0 ]
				}

			}
, 			{
				"patchline" : 				{
					"source" : [ "obj-33", 0 ],
					"destination" : [ "obj-30", 0 ],
					"hidden" : 0,
					"midpoints" : [ 541.5, 177.0, 541.5, 177.0 ]
				}

			}
, 			{
				"patchline" : 				{
					"source" : [ "obj-1", 0 ],
					"destination" : [ "obj-4", 0 ],
					"hidden" : 0,
					"midpoints" : [ 682.5, 216.0, 682.5, 216.0 ]
				}

			}
, 			{
				"patchline" : 				{
					"source" : [ "obj-27", 0 ],
					"destination" : [ "obj-26", 0 ],
					"hidden" : 0,
					"midpoints" : [ 45.5, 318.0, 45.5, 318.0 ]
				}

			}
, 			{
				"patchline" : 				{
					"source" : [ "obj-7", 1 ],
					"destination" : [ "obj-28", 0 ],
					"hidden" : 0,
					"midpoints" : [ 350.5, 306.0, 350.5, 306.0 ]
				}

			}
, 			{
				"patchline" : 				{
					"source" : [ "obj-44", 0 ],
					"destination" : [ "obj-30", 0 ],
					"hidden" : 0,
					"midpoints" : [ 519.0, 198.0, 541.5, 198.0 ]
				}

			}
, 			{
				"patchline" : 				{
					"source" : [ "obj-22", 0 ],
					"destination" : [ "obj-5", 0 ],
					"hidden" : 0,
					"midpoints" : [ 632.5, 42.0, 632.5, 42.0 ]
				}

			}
, 			{
				"patchline" : 				{
					"source" : [ "obj-62", 0 ],
					"destination" : [ "obj-29", 0 ],
					"hidden" : 0,
					"midpoints" : [ 541.5, 252.0, 541.5, 252.0 ]
				}

			}
, 			{
				"patchline" : 				{
					"source" : [ "obj-36", 0 ],
					"destination" : [ "obj-12", 0 ],
					"hidden" : 0,
					"midpoints" : [ 88.5, 115.0, 36.0, 115.0, 36.0, 61.0, 58.5, 61.0 ]
				}

			}
, 			{
				"patchline" : 				{
					"source" : [ "obj-12", 1 ],
					"destination" : [ "obj-36", 0 ],
					"hidden" : 0,
					"midpoints" : [ 88.0, 91.0, 88.5, 91.0 ]
				}

			}
, 			{
				"patchline" : 				{
					"source" : [ "obj-21", 0 ],
					"destination" : [ "obj-9", 0 ],
					"hidden" : 0,
					"midpoints" : [ 336.5, 201.0, 336.5, 201.0 ]
				}

			}
, 			{
				"patchline" : 				{
					"source" : [ "obj-41", 0 ],
					"destination" : [ "obj-43", 0 ],
					"hidden" : 0,
					"midpoints" : [ 336.5, 162.0, 336.5, 162.0 ]
				}

			}
, 			{
				"patchline" : 				{
					"source" : [ "obj-4", 0 ],
					"destination" : [ "obj-3", 0 ],
					"hidden" : 0,
					"midpoints" : [ 682.5, 237.0, 682.5, 237.0 ]
				}

			}
, 			{
				"patchline" : 				{
					"source" : [ "obj-10", 0 ],
					"destination" : [ "obj-3", 0 ],
					"hidden" : 0,
					"midpoints" : [ 715.5, 300.0, 682.5, 300.0 ]
				}

			}
, 			{
				"patchline" : 				{
					"source" : [ "obj-49", 0 ],
					"destination" : [ "obj-3", 0 ],
					"hidden" : 0,
					"midpoints" : [ 715.5, 342.0, 682.5, 342.0 ]
				}

			}
, 			{
				"patchline" : 				{
					"source" : [ "obj-71", 0 ],
					"destination" : [ "obj-3", 0 ],
					"hidden" : 0,
					"midpoints" : [ 713.5, 270.0, 682.5, 270.0 ]
				}

			}
, 			{
				"patchline" : 				{
					"source" : [ "obj-29", 0 ],
					"destination" : [ "obj-3", 0 ],
					"hidden" : 0,
					"midpoints" : [ 541.5, 342.0, 682.5, 342.0 ]
				}

			}
, 			{
				"patchline" : 				{
					"source" : [ "obj-63", 0 ],
					"destination" : [ "obj-3", 0 ],
					"hidden" : 0,
					"midpoints" : [ 557.5, 342.0, 682.5, 342.0 ]
				}

			}
, 			{
				"patchline" : 				{
					"source" : [ "obj-26", 0 ],
					"destination" : [ "obj-23", 0 ],
					"hidden" : 0,
					"midpoints" : [ 45.5, 354.0, 103.5, 354.0 ]
				}

			}
, 			{
				"patchline" : 				{
					"source" : [ "obj-24", 0 ],
					"destination" : [ "obj-23", 1 ],
					"hidden" : 0,
					"midpoints" : [ 217.5, 303.0, 217.5, 303.0 ]
				}

			}
, 			{
				"patchline" : 				{
					"source" : [ "obj-18", 0 ],
					"destination" : [ "obj-23", 0 ],
					"hidden" : 0,
					"midpoints" : [ 103.5, 303.0, 103.5, 303.0 ]
				}

			}
, 			{
				"patchline" : 				{
					"source" : [ "obj-28", 0 ],
					"destination" : [ "obj-23", 0 ],
					"hidden" : 0,
					"midpoints" : [ 350.5, 354.0, 103.5, 354.0 ]
				}

			}
, 			{
				"patchline" : 				{
					"source" : [ "obj-31", 0 ],
					"destination" : [ "obj-23", 1 ],
					"hidden" : 0,
					"midpoints" : [ 263.5, 354.0, 217.5, 354.0 ]
				}

			}
, 			{
				"patchline" : 				{
					"source" : [ "obj-52", 0 ],
					"destination" : [ "obj-27", 0 ],
					"hidden" : 0,
					"midpoints" : [ 45.5, 291.0, 45.5, 291.0 ]
				}

			}
 ]
	}

}
