{
	"patcher" : 	{
		"fileversion" : 1,
		"rect" : [ -758.0, 30.0, 573.0, 521.0 ],
		"bglocked" : 0,
		"defrect" : [ -758.0, 30.0, 573.0, 521.0 ],
		"openrect" : [ 0.0, 0.0, 0.0, 0.0 ],
		"openinpresentation" : 0,
		"default_fontsize" : 12.0,
		"default_fontface" : 0,
		"default_fontname" : "Arial",
		"gridonopen" : 0,
		"gridsize" : [ 10.0, 10.0 ],
		"gridsnaponopen" : 2,
		"toolbarvisible" : 1,
		"boxanimatetime" : 200,
		"imprint" : 0,
		"enablehscroll" : 1,
		"enablevscroll" : 1,
		"devicewidth" : 0.0,
		"boxes" : [ 			{
				"box" : 				{
					"maxclass" : "message",
					"text" : "clear",
					"numinlets" : 2,
					"patching_rect" : [ 230.0, 350.0, 37.0, 18.0 ],
					"numoutlets" : 1,
					"id" : "obj-8",
					"fontname" : "Arial",
					"outlettype" : [ "" ],
					"fontsize" : 12.0
				}

			}
, 			{
				"box" : 				{
					"maxclass" : "newobj",
					"text" : "t b b",
					"numinlets" : 1,
					"patching_rect" : [ 260.0, 60.0, 34.0, 20.0 ],
					"numoutlets" : 2,
					"id" : "obj-4",
					"fontname" : "Arial",
					"outlettype" : [ "bang", "bang" ],
					"fontsize" : 12.0
				}

			}
, 			{
				"box" : 				{
					"maxclass" : "newobj",
					"text" : "t b i",
					"numinlets" : 1,
					"patching_rect" : [ 330.0, 420.0, 32.5, 20.0 ],
					"numoutlets" : 2,
					"id" : "obj-21",
					"fontname" : "Arial",
					"outlettype" : [ "bang", "int" ],
					"fontsize" : 12.0
				}

			}
, 			{
				"box" : 				{
					"maxclass" : "message",
					"text" : "0",
					"numinlets" : 2,
					"patching_rect" : [ 330.0, 450.0, 32.5, 18.0 ],
					"numoutlets" : 1,
					"id" : "obj-11",
					"fontname" : "Arial",
					"outlettype" : [ "" ],
					"fontsize" : 12.0
				}

			}
, 			{
				"box" : 				{
					"maxclass" : "message",
					"text" : "dump",
					"numinlets" : 2,
					"patching_rect" : [ 270.0, 350.0, 41.0, 18.0 ],
					"numoutlets" : 1,
					"id" : "obj-6",
					"fontname" : "Arial",
					"outlettype" : [ "" ],
					"fontsize" : 12.0
				}

			}
, 			{
				"box" : 				{
					"maxclass" : "newobj",
					"text" : "p Magic",
					"numinlets" : 2,
					"patching_rect" : [ 190.0, 90.0, 53.0, 20.0 ],
					"numoutlets" : 1,
					"id" : "obj-17",
					"fontname" : "Arial",
					"outlettype" : [ "" ],
					"fontsize" : 12.0,
					"patcher" : 					{
						"fileversion" : 1,
						"rect" : [ 0.0, 0.0, 640.0, 480.0 ],
						"bglocked" : 0,
						"defrect" : [ 0.0, 0.0, 640.0, 480.0 ],
						"openrect" : [ 0.0, 0.0, 0.0, 0.0 ],
						"openinpresentation" : 0,
						"default_fontsize" : 12.0,
						"default_fontface" : 0,
						"default_fontname" : "Arial",
						"gridonopen" : 0,
						"gridsize" : [ 10.0, 10.0 ],
						"gridsnaponopen" : 0,
						"toolbarvisible" : 1,
						"boxanimatetime" : 200,
						"imprint" : 0,
						"enablehscroll" : 1,
						"enablevscroll" : 1,
						"devicewidth" : 0.0,
						"boxes" : [ 							{
								"box" : 								{
									"maxclass" : "message",
									"text" : "/thum/notes $1",
									"numinlets" : 2,
									"patching_rect" : [ 80.0, 120.0, 90.0, 18.0 ],
									"numoutlets" : 1,
									"id" : "obj-12",
									"fontname" : "Arial",
									"outlettype" : [ "" ],
									"fontsize" : 12.0
								}

							}
, 							{
								"box" : 								{
									"maxclass" : "newobj",
									"text" : "sprintf symout %s",
									"numinlets" : 1,
									"patching_rect" : [ 80.0, 100.0, 105.0, 20.0 ],
									"numoutlets" : 1,
									"id" : "obj-11",
									"fontname" : "Arial",
									"outlettype" : [ "" ],
									"fontsize" : 12.0
								}

							}
, 							{
								"box" : 								{
									"maxclass" : "newobj",
									"text" : "sprintf symout %s",
									"numinlets" : 1,
									"patching_rect" : [ 50.0, 160.0, 105.0, 20.0 ],
									"numoutlets" : 1,
									"id" : "obj-8",
									"fontname" : "Arial",
									"outlettype" : [ "" ],
									"fontsize" : 12.0
								}

							}
, 							{
								"box" : 								{
									"maxclass" : "message",
									"text" : "/thum/magic $1",
									"numinlets" : 2,
									"patching_rect" : [ 50.0, 180.0, 93.0, 18.0 ],
									"numoutlets" : 1,
									"id" : "obj-4",
									"fontname" : "Arial",
									"outlettype" : [ "" ],
									"fontsize" : 12.0
								}

							}
, 							{
								"box" : 								{
									"maxclass" : "toggle",
									"numinlets" : 1,
									"patching_rect" : [ 50.0, 140.0, 20.0, 20.0 ],
									"numoutlets" : 1,
									"id" : "obj-6",
									"outlettype" : [ "int" ]
								}

							}
, 							{
								"box" : 								{
									"maxclass" : "inlet",
									"numinlets" : 0,
									"patching_rect" : [ 50.0, 40.0, 25.0, 25.0 ],
									"numoutlets" : 1,
									"id" : "obj-13",
									"outlettype" : [ "" ],
									"comment" : ""
								}

							}
, 							{
								"box" : 								{
									"maxclass" : "inlet",
									"numinlets" : 0,
									"patching_rect" : [ 80.0, 40.0, 25.0, 25.0 ],
									"numoutlets" : 1,
									"id" : "obj-14",
									"outlettype" : [ "" ],
									"comment" : ""
								}

							}
, 							{
								"box" : 								{
									"maxclass" : "outlet",
									"numinlets" : 1,
									"patching_rect" : [ 60.0, 258.0, 25.0, 25.0 ],
									"numoutlets" : 0,
									"id" : "obj-15",
									"comment" : ""
								}

							}
 ],
						"lines" : [ 							{
								"patchline" : 								{
									"source" : [ "obj-8", 0 ],
									"destination" : [ "obj-4", 0 ],
									"hidden" : 0,
									"midpoints" : [ 59.5, 181.0, 59.5, 181.0 ]
								}

							}
, 							{
								"patchline" : 								{
									"source" : [ "obj-6", 0 ],
									"destination" : [ "obj-8", 0 ],
									"hidden" : 0,
									"midpoints" : [ 59.5, 160.0, 59.5, 160.0 ]
								}

							}
, 							{
								"patchline" : 								{
									"source" : [ "obj-11", 0 ],
									"destination" : [ "obj-12", 0 ],
									"hidden" : 0,
									"midpoints" : [ 89.5, 121.0, 89.5, 121.0 ]
								}

							}
, 							{
								"patchline" : 								{
									"source" : [ "obj-13", 0 ],
									"destination" : [ "obj-6", 0 ],
									"hidden" : 0,
									"midpoints" : [  ]
								}

							}
, 							{
								"patchline" : 								{
									"source" : [ "obj-14", 0 ],
									"destination" : [ "obj-11", 0 ],
									"hidden" : 0,
									"midpoints" : [  ]
								}

							}
, 							{
								"patchline" : 								{
									"source" : [ "obj-4", 0 ],
									"destination" : [ "obj-15", 0 ],
									"hidden" : 0,
									"midpoints" : [  ]
								}

							}
, 							{
								"patchline" : 								{
									"source" : [ "obj-12", 0 ],
									"destination" : [ "obj-15", 0 ],
									"hidden" : 0,
									"midpoints" : [  ]
								}

							}
 ]
					}
,
					"saved_object_attributes" : 					{
						"default_fontname" : "Arial",
						"default_fontsize" : 12.0,
						"fontname" : "Arial",
						"globalpatchername" : "",
						"default_fontface" : 0,
						"fontface" : 0,
						"fontsize" : 12.0
					}

				}

			}
, 			{
				"box" : 				{
					"maxclass" : "comment",
					"text" : "Note Manager",
					"numinlets" : 1,
					"patching_rect" : [ 390.0, 190.0, 101.0, 23.0 ],
					"numoutlets" : 0,
					"id" : "obj-61",
					"fontname" : "Arial",
					"bgcolor" : [ 0.439216, 0.65098, 0.964706, 1.0 ],
					"fontface" : 3,
					"fontsize" : 14.0
				}

			}
, 			{
				"box" : 				{
					"maxclass" : "number",
					"numinlets" : 1,
					"patching_rect" : [ 400.0, 310.0, 50.0, 20.0 ],
					"numoutlets" : 2,
					"id" : "obj-55",
					"fontname" : "Arial",
					"outlettype" : [ "int", "bang" ],
					"fontsize" : 12.0
				}

			}
, 			{
				"box" : 				{
					"maxclass" : "number",
					"numinlets" : 1,
					"patching_rect" : [ 390.0, 420.0, 50.0, 20.0 ],
					"numoutlets" : 2,
					"id" : "obj-50",
					"fontname" : "Arial",
					"outlettype" : [ "int", "bang" ],
					"fontsize" : 12.0
				}

			}
, 			{
				"box" : 				{
					"maxclass" : "comment",
					"text" : "noteOFF#",
					"numinlets" : 1,
					"patching_rect" : [ 390.0, 440.0, 66.0, 20.0 ],
					"numoutlets" : 0,
					"id" : "obj-45",
					"fontname" : "Arial",
					"bgcolor" : [ 0.439216, 0.65098, 0.964706, 1.0 ],
					"fontface" : 1,
					"fontsize" : 12.0
				}

			}
, 			{
				"box" : 				{
					"maxclass" : "newobj",
					"text" : "table",
					"numinlets" : 2,
					"patching_rect" : [ 360.0, 280.0, 37.0, 20.0 ],
					"numoutlets" : 2,
					"id" : "obj-44",
					"fontname" : "Arial",
					"outlettype" : [ "int", "bang" ],
					"fontsize" : 12.0,
					"showeditor" : 0,
					"editor_rect" : [ 100.0, 100.0, 300.0, 300.0 ],
					"saved_object_attributes" : 					{
						"embed" : 0,
						"showeditor" : 0,
						"name" : "",
						"size" : 8,
						"range" : 88,
						"signed" : 0,
						"notename" : 0
					}

				}

			}
, 			{
				"box" : 				{
					"maxclass" : "newobj",
					"text" : "table",
					"numinlets" : 2,
					"patching_rect" : [ 330.0, 390.0, 50.0, 20.0 ],
					"numoutlets" : 2,
					"id" : "obj-40",
					"fontname" : "Arial",
					"outlettype" : [ "int", "bang" ],
					"fontsize" : 12.0,
					"showeditor" : 0,
					"editor_rect" : [ 100.0, 100.0, 300.0, 300.0 ],
					"saved_object_attributes" : 					{
						"embed" : 0,
						"showeditor" : 0,
						"name" : "",
						"size" : 8,
						"range" : 88,
						"signed" : 0,
						"notename" : 0
					}

				}

			}
, 			{
				"box" : 				{
					"maxclass" : "gswitch2",
					"int" : 1,
					"numinlets" : 2,
					"patching_rect" : [ 310.0, 240.0, 39.0, 32.0 ],
					"numoutlets" : 2,
					"id" : "obj-39",
					"outlettype" : [ "", "" ]
				}

			}
, 			{
				"box" : 				{
					"maxclass" : "newobj",
					"text" : "out 1",
					"numinlets" : 1,
					"patching_rect" : [ 470.0, 470.0, 37.0, 20.0 ],
					"numoutlets" : 0,
					"id" : "obj-38",
					"fontname" : "Arial",
					"fontsize" : 12.0,
					"saved_object_attributes" : 					{

					}

				}

			}
, 			{
				"box" : 				{
					"maxclass" : "newobj",
					"text" : "+",
					"numinlets" : 2,
					"patching_rect" : [ 360.0, 330.0, 32.5, 20.0 ],
					"numoutlets" : 1,
					"id" : "obj-37",
					"fontname" : "Arial",
					"outlettype" : [ "int" ],
					"fontsize" : 12.0
				}

			}
, 			{
				"box" : 				{
					"maxclass" : "newobj",
					"text" : "listfunnel",
					"numinlets" : 1,
					"patching_rect" : [ 360.0, 240.0, 58.0, 20.0 ],
					"numoutlets" : 1,
					"id" : "obj-46",
					"fontname" : "Arial",
					"outlettype" : [ "list" ],
					"fontsize" : 12.0
				}

			}
, 			{
				"box" : 				{
					"maxclass" : "newobj",
					"text" : "coll modes",
					"numinlets" : 1,
					"patching_rect" : [ 360.0, 220.0, 68.0, 20.0 ],
					"numoutlets" : 4,
					"id" : "obj-48",
					"fontname" : "Arial",
					"outlettype" : [ "", "", "", "" ],
					"fontsize" : 12.0,
					"saved_object_attributes" : 					{
						"embed" : 0
					}

				}

			}
, 			{
				"box" : 				{
					"maxclass" : "toggle",
					"numinlets" : 1,
					"patching_rect" : [ 310.0, 220.0, 20.0, 20.0 ],
					"numoutlets" : 1,
					"id" : "obj-43",
					"outlettype" : [ "int" ]
				}

			}
, 			{
				"box" : 				{
					"maxclass" : "newobj",
					"text" : "buddy",
					"numinlets" : 2,
					"patching_rect" : [ 330.0, 360.0, 50.0, 20.0 ],
					"numoutlets" : 2,
					"id" : "obj-155",
					"fontname" : "Arial",
					"outlettype" : [ "", "" ],
					"fontsize" : 12.0
				}

			}
, 			{
				"box" : 				{
					"maxclass" : "newobj",
					"text" : "buddy",
					"numinlets" : 2,
					"patching_rect" : [ 470.0, 430.0, 49.0, 20.0 ],
					"numoutlets" : 2,
					"id" : "obj-32",
					"fontname" : "Arial",
					"outlettype" : [ "", "" ],
					"fontsize" : 12.0
				}

			}
, 			{
				"box" : 				{
					"maxclass" : "newobj",
					"text" : "pack i i",
					"numinlets" : 2,
					"patching_rect" : [ 470.0, 450.0, 49.0, 20.0 ],
					"numoutlets" : 1,
					"id" : "obj-33",
					"fontname" : "Arial",
					"outlettype" : [ "" ],
					"fontsize" : 12.0
				}

			}
, 			{
				"box" : 				{
					"maxclass" : "message",
					"text" : "/thum/mode $1",
					"numinlets" : 2,
					"patching_rect" : [ 120.0, 220.0, 91.0, 18.0 ],
					"numoutlets" : 1,
					"id" : "obj-9",
					"fontname" : "Arial",
					"outlettype" : [ "" ],
					"fontsize" : 12.0
				}

			}
, 			{
				"box" : 				{
					"maxclass" : "message",
					"text" : "/thum/key $1",
					"numinlets" : 2,
					"patching_rect" : [ 90.0, 340.0, 79.0, 18.0 ],
					"numoutlets" : 1,
					"id" : "obj-5",
					"fontname" : "Arial",
					"outlettype" : [ "" ],
					"fontsize" : 12.0
				}

			}
, 			{
				"box" : 				{
					"maxclass" : "newobj",
					"text" : "sprintf symout %s",
					"numinlets" : 1,
					"patching_rect" : [ 120.0, 200.0, 105.0, 20.0 ],
					"numoutlets" : 1,
					"id" : "obj-35",
					"fontname" : "Arial",
					"outlettype" : [ "" ],
					"fontsize" : 12.0
				}

			}
, 			{
				"box" : 				{
					"maxclass" : "number",
					"numinlets" : 1,
					"patching_rect" : [ 90.0, 280.0, 50.0, 20.0 ],
					"numoutlets" : 2,
					"id" : "obj-34",
					"fontname" : "Arial",
					"outlettype" : [ "int", "bang" ],
					"fontsize" : 12.0
				}

			}
, 			{
				"box" : 				{
					"maxclass" : "newobj",
					"text" : "sprintf symout %i",
					"numinlets" : 1,
					"patching_rect" : [ 90.0, 320.0, 102.0, 20.0 ],
					"numoutlets" : 1,
					"id" : "obj-29",
					"fontname" : "Arial",
					"outlettype" : [ "" ],
					"fontsize" : 12.0
				}

			}
, 			{
				"box" : 				{
					"maxclass" : "comment",
					"text" : "current mode #",
					"numinlets" : 1,
					"patching_rect" : [ 170.0, 160.0, 97.0, 20.0 ],
					"numoutlets" : 0,
					"id" : "obj-24",
					"fontname" : "Arial",
					"bgcolor" : [ 0.439216, 0.65098, 0.964706, 1.0 ],
					"fontface" : 1,
					"fontsize" : 12.0
				}

			}
, 			{
				"box" : 				{
					"maxclass" : "comment",
					"text" : "velocity",
					"numinlets" : 1,
					"patching_rect" : [ 440.0, 160.0, 53.0, 20.0 ],
					"numoutlets" : 0,
					"id" : "obj-23",
					"fontname" : "Arial",
					"bgcolor" : [ 0.439216, 0.65098, 0.964706, 1.0 ],
					"fontface" : 1,
					"fontsize" : 12.0
				}

			}
, 			{
				"box" : 				{
					"maxclass" : "number",
					"numinlets" : 1,
					"patching_rect" : [ 500.0, 150.0, 40.0, 20.0 ],
					"numoutlets" : 2,
					"id" : "obj-22",
					"fontname" : "Arial",
					"outlettype" : [ "int", "bang" ],
					"fontsize" : 12.0
				}

			}
, 			{
				"box" : 				{
					"maxclass" : "number",
					"numinlets" : 1,
					"patching_rect" : [ 330.0, 160.0, 40.0, 20.0 ],
					"numoutlets" : 2,
					"id" : "obj-20",
					"fontname" : "Arial",
					"outlettype" : [ "int", "bang" ],
					"fontsize" : 12.0
				}

			}
, 			{
				"box" : 				{
					"maxclass" : "newobj",
					"text" : "unpack",
					"numinlets" : 1,
					"patching_rect" : [ 330.0, 110.0, 49.0, 20.0 ],
					"numoutlets" : 2,
					"id" : "obj-16",
					"fontname" : "Arial",
					"outlettype" : [ "int", "int" ],
					"fontsize" : 12.0
				}

			}
, 			{
				"box" : 				{
					"maxclass" : "comment",
					"text" : "noteON#",
					"numinlets" : 1,
					"patching_rect" : [ 400.0, 330.0, 61.0, 20.0 ],
					"numoutlets" : 0,
					"id" : "obj-47",
					"fontname" : "Arial",
					"bgcolor" : [ 0.439216, 0.65098, 0.964706, 1.0 ],
					"fontface" : 1,
					"fontsize" : 12.0
				}

			}
, 			{
				"box" : 				{
					"maxclass" : "comment",
					"text" : "butt#",
					"numinlets" : 1,
					"patching_rect" : [ 370.0, 160.0, 43.0, 20.0 ],
					"numoutlets" : 0,
					"id" : "obj-42",
					"fontname" : "Arial",
					"bgcolor" : [ 0.439216, 0.65098, 0.964706, 1.0 ],
					"fontface" : 1,
					"fontsize" : 12.0
				}

			}
, 			{
				"box" : 				{
					"maxclass" : "number",
					"minimum" : 0,
					"numinlets" : 1,
					"maximum" : 5,
					"patching_rect" : [ 120.0, 160.0, 50.0, 20.0 ],
					"numoutlets" : 2,
					"id" : "obj-41",
					"fontname" : "Arial",
					"outlettype" : [ "int", "bang" ],
					"fontsize" : 12.0
				}

			}
, 			{
				"box" : 				{
					"maxclass" : "comment",
					"text" : "current offset",
					"numinlets" : 1,
					"patching_rect" : [ 140.0, 280.0, 89.0, 20.0 ],
					"numoutlets" : 0,
					"id" : "obj-7",
					"fontname" : "Arial",
					"bgcolor" : [ 0.439216, 0.65098, 0.964706, 1.0 ],
					"fontface" : 1,
					"fontsize" : 12.0
				}

			}
, 			{
				"box" : 				{
					"maxclass" : "newobj",
					"text" : "route ip msg key mode button magic notes dump",
					"numinlets" : 1,
					"patching_rect" : [ 30.0, 30.0, 277.0, 20.0 ],
					"numoutlets" : 9,
					"id" : "obj-1",
					"fontname" : "Arial",
					"outlettype" : [ "", "", "", "", "", "", "", "", "" ],
					"fontsize" : 12.0
				}

			}
, 			{
				"box" : 				{
					"maxclass" : "message",
					"numinlets" : 2,
					"patching_rect" : [ 50.0, 420.0, 129.0, 18.0 ],
					"numoutlets" : 1,
					"id" : "obj-3",
					"fontname" : "Arial",
					"outlettype" : [ "" ],
					"fontsize" : 12.0
				}

			}
, 			{
				"box" : 				{
					"maxclass" : "newobj",
					"text" : "in 2",
					"numinlets" : 1,
					"patching_rect" : [ 30.0, 13.0, 30.0, 20.0 ],
					"numoutlets" : 1,
					"id" : "obj-2",
					"fontname" : "Arial",
					"outlettype" : [ "" ],
					"fontsize" : 12.0,
					"saved_object_attributes" : 					{
						"attr_comment" : ""
					}

				}

			}
, 			{
				"box" : 				{
					"maxclass" : "message",
					"text" : "host $1",
					"numinlets" : 2,
					"patching_rect" : [ 10.0, 293.0, 50.0, 18.0 ],
					"numoutlets" : 1,
					"id" : "obj-53",
					"fontname" : "Arial",
					"outlettype" : [ "" ],
					"fontsize" : 12.0
				}

			}
, 			{
				"box" : 				{
					"maxclass" : "newobj",
					"text" : "udpsend 127.0.0.1 31337",
					"numinlets" : 1,
					"patching_rect" : [ 10.0, 390.0, 147.0, 20.0 ],
					"numoutlets" : 0,
					"id" : "obj-10",
					"fontname" : "Arial",
					"fontsize" : 12.0
				}

			}
, 			{
				"box" : 				{
					"maxclass" : "panel",
					"numinlets" : 1,
					"rounded" : 50,
					"mode" : 1,
					"patching_rect" : [ 300.0, 100.0, 252.0, 400.0 ],
					"numoutlets" : 0,
					"grad1" : [ 0.45098, 0.74902, 0.929412, 1.0 ],
					"id" : "obj-58",
					"grad2" : [ 0.45098, 0.6, 1.0, 1.0 ],
					"angle" : 10.0
				}

			}
 ],
		"lines" : [ 			{
				"patchline" : 				{
					"source" : [ "obj-16", 1 ],
					"destination" : [ "obj-43", 0 ],
					"hidden" : 0,
					"midpoints" : [ 369.5, 147.0, 315.0, 147.0, 315.0, 216.0, 319.5, 216.0 ]
				}

			}
, 			{
				"patchline" : 				{
					"source" : [ "obj-16", 1 ],
					"destination" : [ "obj-22", 0 ],
					"hidden" : 0,
					"midpoints" : [ 369.5, 147.0, 509.5, 147.0 ]
				}

			}
, 			{
				"patchline" : 				{
					"source" : [ "obj-40", 0 ],
					"destination" : [ "obj-21", 0 ],
					"hidden" : 0,
					"midpoints" : [ 339.5, 411.0, 339.5, 411.0 ]
				}

			}
, 			{
				"patchline" : 				{
					"source" : [ "obj-21", 0 ],
					"destination" : [ "obj-11", 0 ],
					"hidden" : 0,
					"midpoints" : [ 339.5, 441.0, 339.5, 441.0 ]
				}

			}
, 			{
				"patchline" : 				{
					"source" : [ "obj-21", 1 ],
					"destination" : [ "obj-32", 0 ],
					"hidden" : 0,
					"midpoints" : [ 353.0, 441.0, 375.0, 441.0, 375.0, 417.0, 479.5, 417.0 ]
				}

			}
, 			{
				"patchline" : 				{
					"source" : [ "obj-17", 0 ],
					"destination" : [ "obj-10", 0 ],
					"hidden" : 0,
					"midpoints" : [ 199.5, 147.0, 72.0, 147.0, 72.0, 375.0, 19.5, 375.0 ]
				}

			}
, 			{
				"patchline" : 				{
					"source" : [ "obj-33", 0 ],
					"destination" : [ "obj-38", 0 ],
					"hidden" : 0,
					"midpoints" : [ 479.5, 471.0, 479.5, 471.0 ]
				}

			}
, 			{
				"patchline" : 				{
					"source" : [ "obj-35", 0 ],
					"destination" : [ "obj-9", 0 ],
					"hidden" : 0,
					"midpoints" : [ 129.5, 222.0, 129.5, 222.0 ]
				}

			}
, 			{
				"patchline" : 				{
					"source" : [ "obj-41", 0 ],
					"destination" : [ "obj-35", 0 ],
					"hidden" : 0,
					"midpoints" : [ 129.5, 180.0, 129.5, 180.0 ]
				}

			}
, 			{
				"patchline" : 				{
					"source" : [ "obj-53", 0 ],
					"destination" : [ "obj-3", 1 ],
					"hidden" : 0,
					"midpoints" : [ 19.5, 375.0, 169.5, 375.0 ]
				}

			}
, 			{
				"patchline" : 				{
					"source" : [ "obj-53", 0 ],
					"destination" : [ "obj-10", 0 ],
					"hidden" : 0,
					"midpoints" : [ 19.5, 312.0, 19.5, 312.0 ]
				}

			}
, 			{
				"patchline" : 				{
					"source" : [ "obj-16", 0 ],
					"destination" : [ "obj-20", 0 ],
					"hidden" : 0,
					"midpoints" : [ 339.5, 132.0, 339.5, 132.0 ]
				}

			}
, 			{
				"patchline" : 				{
					"source" : [ "obj-5", 0 ],
					"destination" : [ "obj-10", 0 ],
					"hidden" : 0,
					"midpoints" : [ 99.5, 375.0, 19.5, 375.0 ]
				}

			}
, 			{
				"patchline" : 				{
					"source" : [ "obj-29", 0 ],
					"destination" : [ "obj-5", 0 ],
					"hidden" : 0,
					"midpoints" : [ 99.5, 342.0, 99.5, 342.0 ]
				}

			}
, 			{
				"patchline" : 				{
					"source" : [ "obj-34", 0 ],
					"destination" : [ "obj-29", 0 ],
					"hidden" : 0,
					"midpoints" : [ 99.5, 300.0, 99.5, 300.0 ]
				}

			}
, 			{
				"patchline" : 				{
					"source" : [ "obj-9", 0 ],
					"destination" : [ "obj-10", 0 ],
					"hidden" : 0,
					"midpoints" : [ 129.5, 267.0, 72.0, 267.0, 72.0, 375.0, 19.5, 375.0 ]
				}

			}
, 			{
				"patchline" : 				{
					"source" : [ "obj-32", 1 ],
					"destination" : [ "obj-33", 1 ],
					"hidden" : 0,
					"midpoints" : [ 509.5, 450.0, 509.5, 450.0 ]
				}

			}
, 			{
				"patchline" : 				{
					"source" : [ "obj-32", 0 ],
					"destination" : [ "obj-33", 0 ],
					"hidden" : 0,
					"midpoints" : [ 479.5, 450.0, 479.5, 450.0 ]
				}

			}
, 			{
				"patchline" : 				{
					"source" : [ "obj-48", 0 ],
					"destination" : [ "obj-46", 0 ],
					"hidden" : 0,
					"midpoints" : [ 369.5, 240.0, 369.5, 240.0 ]
				}

			}
, 			{
				"patchline" : 				{
					"source" : [ "obj-41", 0 ],
					"destination" : [ "obj-48", 0 ],
					"hidden" : 0,
					"midpoints" : [ 129.5, 192.0, 369.5, 192.0 ]
				}

			}
, 			{
				"patchline" : 				{
					"source" : [ "obj-22", 0 ],
					"destination" : [ "obj-32", 1 ],
					"hidden" : 0,
					"midpoints" : [ 509.5, 171.0, 509.5, 171.0 ]
				}

			}
, 			{
				"patchline" : 				{
					"source" : [ "obj-37", 0 ],
					"destination" : [ "obj-32", 0 ],
					"hidden" : 0,
					"midpoints" : [ 369.5, 357.0, 390.0, 357.0, 390.0, 405.0, 479.5, 405.0 ]
				}

			}
, 			{
				"patchline" : 				{
					"source" : [ "obj-34", 0 ],
					"destination" : [ "obj-37", 1 ],
					"hidden" : 0,
					"midpoints" : [ 99.5, 312.0, 383.0, 312.0 ]
				}

			}
, 			{
				"patchline" : 				{
					"source" : [ "obj-43", 0 ],
					"destination" : [ "obj-39", 0 ],
					"hidden" : 0,
					"midpoints" : [ 319.5, 240.0, 319.5, 240.0 ]
				}

			}
, 			{
				"patchline" : 				{
					"source" : [ "obj-20", 0 ],
					"destination" : [ "obj-39", 1 ],
					"hidden" : 0,
					"midpoints" : [ 339.5, 180.0, 339.5, 180.0 ]
				}

			}
, 			{
				"patchline" : 				{
					"source" : [ "obj-39", 1 ],
					"destination" : [ "obj-155", 0 ],
					"hidden" : 0,
					"midpoints" : [ 339.5, 273.0, 339.5, 273.0 ]
				}

			}
, 			{
				"patchline" : 				{
					"source" : [ "obj-37", 0 ],
					"destination" : [ "obj-155", 1 ],
					"hidden" : 0,
					"midpoints" : [ 369.5, 351.0, 370.5, 351.0 ]
				}

			}
, 			{
				"patchline" : 				{
					"source" : [ "obj-44", 0 ],
					"destination" : [ "obj-37", 0 ],
					"hidden" : 0,
					"midpoints" : [ 369.5, 300.0, 369.5, 300.0 ]
				}

			}
, 			{
				"patchline" : 				{
					"source" : [ "obj-39", 1 ],
					"destination" : [ "obj-44", 0 ],
					"hidden" : 0,
					"midpoints" : [ 339.5, 273.0, 369.5, 273.0 ]
				}

			}
, 			{
				"patchline" : 				{
					"source" : [ "obj-46", 0 ],
					"destination" : [ "obj-44", 0 ],
					"hidden" : 0,
					"midpoints" : [ 369.5, 261.0, 369.5, 261.0 ]
				}

			}
, 			{
				"patchline" : 				{
					"source" : [ "obj-155", 1 ],
					"destination" : [ "obj-40", 1 ],
					"hidden" : 0,
					"midpoints" : [ 370.5, 381.0, 370.5, 381.0 ]
				}

			}
, 			{
				"patchline" : 				{
					"source" : [ "obj-39", 0 ],
					"destination" : [ "obj-40", 0 ],
					"hidden" : 0,
					"midpoints" : [ 319.5, 336.0, 327.0, 336.0, 327.0, 384.0, 339.5, 384.0 ]
				}

			}
, 			{
				"patchline" : 				{
					"source" : [ "obj-155", 0 ],
					"destination" : [ "obj-40", 0 ],
					"hidden" : 0,
					"midpoints" : [ 339.5, 381.0, 339.5, 381.0 ]
				}

			}
, 			{
				"patchline" : 				{
					"source" : [ "obj-40", 0 ],
					"destination" : [ "obj-50", 0 ],
					"hidden" : 0,
					"midpoints" : [ 339.5, 417.0, 399.5, 417.0 ]
				}

			}
, 			{
				"patchline" : 				{
					"source" : [ "obj-44", 0 ],
					"destination" : [ "obj-55", 0 ],
					"hidden" : 0,
					"midpoints" : [ 369.5, 306.0, 409.5, 306.0 ]
				}

			}
, 			{
				"patchline" : 				{
					"source" : [ "obj-6", 0 ],
					"destination" : [ "obj-40", 0 ],
					"hidden" : 0,
					"midpoints" : [ 279.5, 387.0, 339.5, 387.0 ]
				}

			}
, 			{
				"patchline" : 				{
					"source" : [ "obj-11", 0 ],
					"destination" : [ "obj-32", 1 ],
					"hidden" : 0,
					"midpoints" : [ 339.5, 480.0, 456.0, 480.0, 456.0, 417.0, 509.5, 417.0 ]
				}

			}
, 			{
				"patchline" : 				{
					"source" : [ "obj-1", 2 ],
					"destination" : [ "obj-34", 0 ],
					"hidden" : 0,
					"midpoints" : [ 104.0, 276.0, 99.5, 276.0 ]
				}

			}
, 			{
				"patchline" : 				{
					"source" : [ "obj-1", 1 ],
					"destination" : [ "obj-10", 0 ],
					"hidden" : 0,
					"midpoints" : [ 71.75, 375.0, 19.5, 375.0 ]
				}

			}
, 			{
				"patchline" : 				{
					"source" : [ "obj-1", 0 ],
					"destination" : [ "obj-53", 0 ],
					"hidden" : 0,
					"midpoints" : [ 39.5, 279.0, 19.5, 279.0 ]
				}

			}
, 			{
				"patchline" : 				{
					"source" : [ "obj-2", 0 ],
					"destination" : [ "obj-1", 0 ],
					"hidden" : 0,
					"midpoints" : [ 39.5, 33.0, 39.5, 33.0 ]
				}

			}
, 			{
				"patchline" : 				{
					"source" : [ "obj-1", 3 ],
					"destination" : [ "obj-41", 0 ],
					"hidden" : 0,
					"midpoints" : [ 136.25, 147.0, 129.5, 147.0 ]
				}

			}
, 			{
				"patchline" : 				{
					"source" : [ "obj-1", 4 ],
					"destination" : [ "obj-16", 0 ],
					"hidden" : 0,
					"midpoints" : [ 168.5, 75.0, 255.0, 75.0, 255.0, 96.0, 339.5, 96.0 ]
				}

			}
, 			{
				"patchline" : 				{
					"source" : [ "obj-1", 6 ],
					"destination" : [ "obj-17", 1 ],
					"hidden" : 0,
					"midpoints" : [ 233.0, 51.0, 233.5, 51.0 ]
				}

			}
, 			{
				"patchline" : 				{
					"source" : [ "obj-1", 5 ],
					"destination" : [ "obj-17", 0 ],
					"hidden" : 0,
					"midpoints" : [ 200.75, 51.0, 199.5, 51.0 ]
				}

			}
, 			{
				"patchline" : 				{
					"source" : [ "obj-1", 7 ],
					"destination" : [ "obj-4", 0 ],
					"hidden" : 0,
					"midpoints" : [ 265.25, 57.0, 269.5, 57.0 ]
				}

			}
, 			{
				"patchline" : 				{
					"source" : [ "obj-4", 1 ],
					"destination" : [ "obj-6", 0 ],
					"hidden" : 0,
					"midpoints" : [ 284.5, 345.0, 279.5, 345.0 ]
				}

			}
, 			{
				"patchline" : 				{
					"source" : [ "obj-4", 0 ],
					"destination" : [ "obj-8", 0 ],
					"hidden" : 0,
					"midpoints" : [ 269.5, 147.0, 279.0, 147.0, 279.0, 336.0, 239.5, 336.0 ]
				}

			}
, 			{
				"patchline" : 				{
					"source" : [ "obj-8", 0 ],
					"destination" : [ "obj-40", 0 ],
					"hidden" : 0,
					"midpoints" : [ 239.5, 387.0, 339.5, 387.0 ]
				}

			}
 ]
	}

}
